G75*
%MOIN*%
%OFA0B0*%
%FSLAX25Y25*%
%IPPOS*%
%LPD*%
%AMOC8*
5,1,8,0,0,1.08239X$1,22.5*
%
%ADD10C,0.00000*%
%ADD11R,0.04252X0.04134*%
%ADD12R,0.03937X0.04331*%
%ADD13R,0.04331X0.03937*%
%ADD14R,0.03500X0.06400*%
%ADD15R,0.12500X0.06400*%
D10*
X0003594Y0010258D02*
X0003594Y0270219D01*
X0272294Y0270219D01*
X0272294Y0010258D01*
X0003594Y0010258D01*
X0107688Y0040258D02*
X0107690Y0040411D01*
X0107696Y0040565D01*
X0107706Y0040718D01*
X0107720Y0040870D01*
X0107738Y0041023D01*
X0107760Y0041174D01*
X0107785Y0041325D01*
X0107815Y0041476D01*
X0107849Y0041626D01*
X0107886Y0041774D01*
X0107927Y0041922D01*
X0107972Y0042068D01*
X0108021Y0042214D01*
X0108074Y0042358D01*
X0108130Y0042500D01*
X0108190Y0042641D01*
X0108254Y0042781D01*
X0108321Y0042919D01*
X0108392Y0043055D01*
X0108467Y0043189D01*
X0108544Y0043321D01*
X0108626Y0043451D01*
X0108710Y0043579D01*
X0108798Y0043705D01*
X0108889Y0043828D01*
X0108983Y0043949D01*
X0109081Y0044067D01*
X0109181Y0044183D01*
X0109285Y0044296D01*
X0109391Y0044407D01*
X0109500Y0044515D01*
X0109612Y0044620D01*
X0109726Y0044721D01*
X0109844Y0044820D01*
X0109963Y0044916D01*
X0110085Y0045009D01*
X0110210Y0045098D01*
X0110337Y0045185D01*
X0110466Y0045267D01*
X0110597Y0045347D01*
X0110730Y0045423D01*
X0110865Y0045496D01*
X0111002Y0045565D01*
X0111141Y0045630D01*
X0111281Y0045692D01*
X0111423Y0045750D01*
X0111566Y0045805D01*
X0111711Y0045856D01*
X0111857Y0045903D01*
X0112004Y0045946D01*
X0112152Y0045985D01*
X0112301Y0046021D01*
X0112451Y0046052D01*
X0112602Y0046080D01*
X0112753Y0046104D01*
X0112906Y0046124D01*
X0113058Y0046140D01*
X0113211Y0046152D01*
X0113364Y0046160D01*
X0113517Y0046164D01*
X0113671Y0046164D01*
X0113824Y0046160D01*
X0113977Y0046152D01*
X0114130Y0046140D01*
X0114282Y0046124D01*
X0114435Y0046104D01*
X0114586Y0046080D01*
X0114737Y0046052D01*
X0114887Y0046021D01*
X0115036Y0045985D01*
X0115184Y0045946D01*
X0115331Y0045903D01*
X0115477Y0045856D01*
X0115622Y0045805D01*
X0115765Y0045750D01*
X0115907Y0045692D01*
X0116047Y0045630D01*
X0116186Y0045565D01*
X0116323Y0045496D01*
X0116458Y0045423D01*
X0116591Y0045347D01*
X0116722Y0045267D01*
X0116851Y0045185D01*
X0116978Y0045098D01*
X0117103Y0045009D01*
X0117225Y0044916D01*
X0117344Y0044820D01*
X0117462Y0044721D01*
X0117576Y0044620D01*
X0117688Y0044515D01*
X0117797Y0044407D01*
X0117903Y0044296D01*
X0118007Y0044183D01*
X0118107Y0044067D01*
X0118205Y0043949D01*
X0118299Y0043828D01*
X0118390Y0043705D01*
X0118478Y0043579D01*
X0118562Y0043451D01*
X0118644Y0043321D01*
X0118721Y0043189D01*
X0118796Y0043055D01*
X0118867Y0042919D01*
X0118934Y0042781D01*
X0118998Y0042641D01*
X0119058Y0042500D01*
X0119114Y0042358D01*
X0119167Y0042214D01*
X0119216Y0042068D01*
X0119261Y0041922D01*
X0119302Y0041774D01*
X0119339Y0041626D01*
X0119373Y0041476D01*
X0119403Y0041325D01*
X0119428Y0041174D01*
X0119450Y0041023D01*
X0119468Y0040870D01*
X0119482Y0040718D01*
X0119492Y0040565D01*
X0119498Y0040411D01*
X0119500Y0040258D01*
X0119498Y0040105D01*
X0119492Y0039951D01*
X0119482Y0039798D01*
X0119468Y0039646D01*
X0119450Y0039493D01*
X0119428Y0039342D01*
X0119403Y0039191D01*
X0119373Y0039040D01*
X0119339Y0038890D01*
X0119302Y0038742D01*
X0119261Y0038594D01*
X0119216Y0038448D01*
X0119167Y0038302D01*
X0119114Y0038158D01*
X0119058Y0038016D01*
X0118998Y0037875D01*
X0118934Y0037735D01*
X0118867Y0037597D01*
X0118796Y0037461D01*
X0118721Y0037327D01*
X0118644Y0037195D01*
X0118562Y0037065D01*
X0118478Y0036937D01*
X0118390Y0036811D01*
X0118299Y0036688D01*
X0118205Y0036567D01*
X0118107Y0036449D01*
X0118007Y0036333D01*
X0117903Y0036220D01*
X0117797Y0036109D01*
X0117688Y0036001D01*
X0117576Y0035896D01*
X0117462Y0035795D01*
X0117344Y0035696D01*
X0117225Y0035600D01*
X0117103Y0035507D01*
X0116978Y0035418D01*
X0116851Y0035331D01*
X0116722Y0035249D01*
X0116591Y0035169D01*
X0116458Y0035093D01*
X0116323Y0035020D01*
X0116186Y0034951D01*
X0116047Y0034886D01*
X0115907Y0034824D01*
X0115765Y0034766D01*
X0115622Y0034711D01*
X0115477Y0034660D01*
X0115331Y0034613D01*
X0115184Y0034570D01*
X0115036Y0034531D01*
X0114887Y0034495D01*
X0114737Y0034464D01*
X0114586Y0034436D01*
X0114435Y0034412D01*
X0114282Y0034392D01*
X0114130Y0034376D01*
X0113977Y0034364D01*
X0113824Y0034356D01*
X0113671Y0034352D01*
X0113517Y0034352D01*
X0113364Y0034356D01*
X0113211Y0034364D01*
X0113058Y0034376D01*
X0112906Y0034392D01*
X0112753Y0034412D01*
X0112602Y0034436D01*
X0112451Y0034464D01*
X0112301Y0034495D01*
X0112152Y0034531D01*
X0112004Y0034570D01*
X0111857Y0034613D01*
X0111711Y0034660D01*
X0111566Y0034711D01*
X0111423Y0034766D01*
X0111281Y0034824D01*
X0111141Y0034886D01*
X0111002Y0034951D01*
X0110865Y0035020D01*
X0110730Y0035093D01*
X0110597Y0035169D01*
X0110466Y0035249D01*
X0110337Y0035331D01*
X0110210Y0035418D01*
X0110085Y0035507D01*
X0109963Y0035600D01*
X0109844Y0035696D01*
X0109726Y0035795D01*
X0109612Y0035896D01*
X0109500Y0036001D01*
X0109391Y0036109D01*
X0109285Y0036220D01*
X0109181Y0036333D01*
X0109081Y0036449D01*
X0108983Y0036567D01*
X0108889Y0036688D01*
X0108798Y0036811D01*
X0108710Y0036937D01*
X0108626Y0037065D01*
X0108544Y0037195D01*
X0108467Y0037327D01*
X0108392Y0037461D01*
X0108321Y0037597D01*
X0108254Y0037735D01*
X0108190Y0037875D01*
X0108130Y0038016D01*
X0108074Y0038158D01*
X0108021Y0038302D01*
X0107972Y0038448D01*
X0107927Y0038594D01*
X0107886Y0038742D01*
X0107849Y0038890D01*
X0107815Y0039040D01*
X0107785Y0039191D01*
X0107760Y0039342D01*
X0107738Y0039493D01*
X0107720Y0039646D01*
X0107706Y0039798D01*
X0107696Y0039951D01*
X0107690Y0040105D01*
X0107688Y0040258D01*
X0162578Y0033258D02*
X0162580Y0033419D01*
X0162586Y0033579D01*
X0162596Y0033740D01*
X0162610Y0033900D01*
X0162628Y0034059D01*
X0162649Y0034219D01*
X0162675Y0034377D01*
X0162705Y0034535D01*
X0162738Y0034692D01*
X0162776Y0034849D01*
X0162817Y0035004D01*
X0162862Y0035158D01*
X0162911Y0035311D01*
X0162964Y0035463D01*
X0163020Y0035613D01*
X0163080Y0035762D01*
X0163144Y0035910D01*
X0163211Y0036056D01*
X0163282Y0036200D01*
X0163357Y0036342D01*
X0163435Y0036483D01*
X0163516Y0036621D01*
X0163601Y0036758D01*
X0163690Y0036892D01*
X0163781Y0037024D01*
X0163876Y0037154D01*
X0163974Y0037281D01*
X0164075Y0037406D01*
X0164179Y0037529D01*
X0164286Y0037648D01*
X0164396Y0037765D01*
X0164509Y0037880D01*
X0164625Y0037991D01*
X0164743Y0038100D01*
X0164864Y0038205D01*
X0164988Y0038308D01*
X0165114Y0038408D01*
X0165243Y0038504D01*
X0165374Y0038597D01*
X0165507Y0038687D01*
X0165642Y0038774D01*
X0165780Y0038857D01*
X0165919Y0038936D01*
X0166061Y0039013D01*
X0166204Y0039086D01*
X0166349Y0039155D01*
X0166496Y0039220D01*
X0166644Y0039282D01*
X0166794Y0039341D01*
X0166945Y0039395D01*
X0167097Y0039446D01*
X0167251Y0039493D01*
X0167406Y0039536D01*
X0167561Y0039575D01*
X0167718Y0039611D01*
X0167876Y0039643D01*
X0168034Y0039670D01*
X0168193Y0039694D01*
X0168352Y0039714D01*
X0168512Y0039730D01*
X0168673Y0039742D01*
X0168833Y0039750D01*
X0168994Y0039754D01*
X0169154Y0039754D01*
X0169315Y0039750D01*
X0169475Y0039742D01*
X0169636Y0039730D01*
X0169796Y0039714D01*
X0169955Y0039694D01*
X0170114Y0039670D01*
X0170272Y0039643D01*
X0170430Y0039611D01*
X0170587Y0039575D01*
X0170742Y0039536D01*
X0170897Y0039493D01*
X0171051Y0039446D01*
X0171203Y0039395D01*
X0171354Y0039341D01*
X0171504Y0039282D01*
X0171652Y0039220D01*
X0171799Y0039155D01*
X0171944Y0039086D01*
X0172087Y0039013D01*
X0172229Y0038936D01*
X0172368Y0038857D01*
X0172506Y0038774D01*
X0172641Y0038687D01*
X0172774Y0038597D01*
X0172905Y0038504D01*
X0173034Y0038408D01*
X0173160Y0038308D01*
X0173284Y0038205D01*
X0173405Y0038100D01*
X0173523Y0037991D01*
X0173639Y0037880D01*
X0173752Y0037765D01*
X0173862Y0037648D01*
X0173969Y0037529D01*
X0174073Y0037406D01*
X0174174Y0037281D01*
X0174272Y0037154D01*
X0174367Y0037024D01*
X0174458Y0036892D01*
X0174547Y0036758D01*
X0174632Y0036621D01*
X0174713Y0036483D01*
X0174791Y0036342D01*
X0174866Y0036200D01*
X0174937Y0036056D01*
X0175004Y0035910D01*
X0175068Y0035762D01*
X0175128Y0035613D01*
X0175184Y0035463D01*
X0175237Y0035311D01*
X0175286Y0035158D01*
X0175331Y0035004D01*
X0175372Y0034849D01*
X0175410Y0034692D01*
X0175443Y0034535D01*
X0175473Y0034377D01*
X0175499Y0034219D01*
X0175520Y0034059D01*
X0175538Y0033900D01*
X0175552Y0033740D01*
X0175562Y0033579D01*
X0175568Y0033419D01*
X0175570Y0033258D01*
X0175568Y0033097D01*
X0175562Y0032937D01*
X0175552Y0032776D01*
X0175538Y0032616D01*
X0175520Y0032457D01*
X0175499Y0032297D01*
X0175473Y0032139D01*
X0175443Y0031981D01*
X0175410Y0031824D01*
X0175372Y0031667D01*
X0175331Y0031512D01*
X0175286Y0031358D01*
X0175237Y0031205D01*
X0175184Y0031053D01*
X0175128Y0030903D01*
X0175068Y0030754D01*
X0175004Y0030606D01*
X0174937Y0030460D01*
X0174866Y0030316D01*
X0174791Y0030174D01*
X0174713Y0030033D01*
X0174632Y0029895D01*
X0174547Y0029758D01*
X0174458Y0029624D01*
X0174367Y0029492D01*
X0174272Y0029362D01*
X0174174Y0029235D01*
X0174073Y0029110D01*
X0173969Y0028987D01*
X0173862Y0028868D01*
X0173752Y0028751D01*
X0173639Y0028636D01*
X0173523Y0028525D01*
X0173405Y0028416D01*
X0173284Y0028311D01*
X0173160Y0028208D01*
X0173034Y0028108D01*
X0172905Y0028012D01*
X0172774Y0027919D01*
X0172641Y0027829D01*
X0172506Y0027742D01*
X0172368Y0027659D01*
X0172229Y0027580D01*
X0172087Y0027503D01*
X0171944Y0027430D01*
X0171799Y0027361D01*
X0171652Y0027296D01*
X0171504Y0027234D01*
X0171354Y0027175D01*
X0171203Y0027121D01*
X0171051Y0027070D01*
X0170897Y0027023D01*
X0170742Y0026980D01*
X0170587Y0026941D01*
X0170430Y0026905D01*
X0170272Y0026873D01*
X0170114Y0026846D01*
X0169955Y0026822D01*
X0169796Y0026802D01*
X0169636Y0026786D01*
X0169475Y0026774D01*
X0169315Y0026766D01*
X0169154Y0026762D01*
X0168994Y0026762D01*
X0168833Y0026766D01*
X0168673Y0026774D01*
X0168512Y0026786D01*
X0168352Y0026802D01*
X0168193Y0026822D01*
X0168034Y0026846D01*
X0167876Y0026873D01*
X0167718Y0026905D01*
X0167561Y0026941D01*
X0167406Y0026980D01*
X0167251Y0027023D01*
X0167097Y0027070D01*
X0166945Y0027121D01*
X0166794Y0027175D01*
X0166644Y0027234D01*
X0166496Y0027296D01*
X0166349Y0027361D01*
X0166204Y0027430D01*
X0166061Y0027503D01*
X0165919Y0027580D01*
X0165780Y0027659D01*
X0165642Y0027742D01*
X0165507Y0027829D01*
X0165374Y0027919D01*
X0165243Y0028012D01*
X0165114Y0028108D01*
X0164988Y0028208D01*
X0164864Y0028311D01*
X0164743Y0028416D01*
X0164625Y0028525D01*
X0164509Y0028636D01*
X0164396Y0028751D01*
X0164286Y0028868D01*
X0164179Y0028987D01*
X0164075Y0029110D01*
X0163974Y0029235D01*
X0163876Y0029362D01*
X0163781Y0029492D01*
X0163690Y0029624D01*
X0163601Y0029758D01*
X0163516Y0029895D01*
X0163435Y0030033D01*
X0163357Y0030174D01*
X0163282Y0030316D01*
X0163211Y0030460D01*
X0163144Y0030606D01*
X0163080Y0030754D01*
X0163020Y0030903D01*
X0162964Y0031053D01*
X0162911Y0031205D01*
X0162862Y0031358D01*
X0162817Y0031512D01*
X0162776Y0031667D01*
X0162738Y0031824D01*
X0162705Y0031981D01*
X0162675Y0032139D01*
X0162649Y0032297D01*
X0162628Y0032457D01*
X0162610Y0032616D01*
X0162596Y0032776D01*
X0162586Y0032937D01*
X0162580Y0033097D01*
X0162578Y0033258D01*
X0202578Y0033258D02*
X0202580Y0033419D01*
X0202586Y0033579D01*
X0202596Y0033740D01*
X0202610Y0033900D01*
X0202628Y0034059D01*
X0202649Y0034219D01*
X0202675Y0034377D01*
X0202705Y0034535D01*
X0202738Y0034692D01*
X0202776Y0034849D01*
X0202817Y0035004D01*
X0202862Y0035158D01*
X0202911Y0035311D01*
X0202964Y0035463D01*
X0203020Y0035613D01*
X0203080Y0035762D01*
X0203144Y0035910D01*
X0203211Y0036056D01*
X0203282Y0036200D01*
X0203357Y0036342D01*
X0203435Y0036483D01*
X0203516Y0036621D01*
X0203601Y0036758D01*
X0203690Y0036892D01*
X0203781Y0037024D01*
X0203876Y0037154D01*
X0203974Y0037281D01*
X0204075Y0037406D01*
X0204179Y0037529D01*
X0204286Y0037648D01*
X0204396Y0037765D01*
X0204509Y0037880D01*
X0204625Y0037991D01*
X0204743Y0038100D01*
X0204864Y0038205D01*
X0204988Y0038308D01*
X0205114Y0038408D01*
X0205243Y0038504D01*
X0205374Y0038597D01*
X0205507Y0038687D01*
X0205642Y0038774D01*
X0205780Y0038857D01*
X0205919Y0038936D01*
X0206061Y0039013D01*
X0206204Y0039086D01*
X0206349Y0039155D01*
X0206496Y0039220D01*
X0206644Y0039282D01*
X0206794Y0039341D01*
X0206945Y0039395D01*
X0207097Y0039446D01*
X0207251Y0039493D01*
X0207406Y0039536D01*
X0207561Y0039575D01*
X0207718Y0039611D01*
X0207876Y0039643D01*
X0208034Y0039670D01*
X0208193Y0039694D01*
X0208352Y0039714D01*
X0208512Y0039730D01*
X0208673Y0039742D01*
X0208833Y0039750D01*
X0208994Y0039754D01*
X0209154Y0039754D01*
X0209315Y0039750D01*
X0209475Y0039742D01*
X0209636Y0039730D01*
X0209796Y0039714D01*
X0209955Y0039694D01*
X0210114Y0039670D01*
X0210272Y0039643D01*
X0210430Y0039611D01*
X0210587Y0039575D01*
X0210742Y0039536D01*
X0210897Y0039493D01*
X0211051Y0039446D01*
X0211203Y0039395D01*
X0211354Y0039341D01*
X0211504Y0039282D01*
X0211652Y0039220D01*
X0211799Y0039155D01*
X0211944Y0039086D01*
X0212087Y0039013D01*
X0212229Y0038936D01*
X0212368Y0038857D01*
X0212506Y0038774D01*
X0212641Y0038687D01*
X0212774Y0038597D01*
X0212905Y0038504D01*
X0213034Y0038408D01*
X0213160Y0038308D01*
X0213284Y0038205D01*
X0213405Y0038100D01*
X0213523Y0037991D01*
X0213639Y0037880D01*
X0213752Y0037765D01*
X0213862Y0037648D01*
X0213969Y0037529D01*
X0214073Y0037406D01*
X0214174Y0037281D01*
X0214272Y0037154D01*
X0214367Y0037024D01*
X0214458Y0036892D01*
X0214547Y0036758D01*
X0214632Y0036621D01*
X0214713Y0036483D01*
X0214791Y0036342D01*
X0214866Y0036200D01*
X0214937Y0036056D01*
X0215004Y0035910D01*
X0215068Y0035762D01*
X0215128Y0035613D01*
X0215184Y0035463D01*
X0215237Y0035311D01*
X0215286Y0035158D01*
X0215331Y0035004D01*
X0215372Y0034849D01*
X0215410Y0034692D01*
X0215443Y0034535D01*
X0215473Y0034377D01*
X0215499Y0034219D01*
X0215520Y0034059D01*
X0215538Y0033900D01*
X0215552Y0033740D01*
X0215562Y0033579D01*
X0215568Y0033419D01*
X0215570Y0033258D01*
X0215568Y0033097D01*
X0215562Y0032937D01*
X0215552Y0032776D01*
X0215538Y0032616D01*
X0215520Y0032457D01*
X0215499Y0032297D01*
X0215473Y0032139D01*
X0215443Y0031981D01*
X0215410Y0031824D01*
X0215372Y0031667D01*
X0215331Y0031512D01*
X0215286Y0031358D01*
X0215237Y0031205D01*
X0215184Y0031053D01*
X0215128Y0030903D01*
X0215068Y0030754D01*
X0215004Y0030606D01*
X0214937Y0030460D01*
X0214866Y0030316D01*
X0214791Y0030174D01*
X0214713Y0030033D01*
X0214632Y0029895D01*
X0214547Y0029758D01*
X0214458Y0029624D01*
X0214367Y0029492D01*
X0214272Y0029362D01*
X0214174Y0029235D01*
X0214073Y0029110D01*
X0213969Y0028987D01*
X0213862Y0028868D01*
X0213752Y0028751D01*
X0213639Y0028636D01*
X0213523Y0028525D01*
X0213405Y0028416D01*
X0213284Y0028311D01*
X0213160Y0028208D01*
X0213034Y0028108D01*
X0212905Y0028012D01*
X0212774Y0027919D01*
X0212641Y0027829D01*
X0212506Y0027742D01*
X0212368Y0027659D01*
X0212229Y0027580D01*
X0212087Y0027503D01*
X0211944Y0027430D01*
X0211799Y0027361D01*
X0211652Y0027296D01*
X0211504Y0027234D01*
X0211354Y0027175D01*
X0211203Y0027121D01*
X0211051Y0027070D01*
X0210897Y0027023D01*
X0210742Y0026980D01*
X0210587Y0026941D01*
X0210430Y0026905D01*
X0210272Y0026873D01*
X0210114Y0026846D01*
X0209955Y0026822D01*
X0209796Y0026802D01*
X0209636Y0026786D01*
X0209475Y0026774D01*
X0209315Y0026766D01*
X0209154Y0026762D01*
X0208994Y0026762D01*
X0208833Y0026766D01*
X0208673Y0026774D01*
X0208512Y0026786D01*
X0208352Y0026802D01*
X0208193Y0026822D01*
X0208034Y0026846D01*
X0207876Y0026873D01*
X0207718Y0026905D01*
X0207561Y0026941D01*
X0207406Y0026980D01*
X0207251Y0027023D01*
X0207097Y0027070D01*
X0206945Y0027121D01*
X0206794Y0027175D01*
X0206644Y0027234D01*
X0206496Y0027296D01*
X0206349Y0027361D01*
X0206204Y0027430D01*
X0206061Y0027503D01*
X0205919Y0027580D01*
X0205780Y0027659D01*
X0205642Y0027742D01*
X0205507Y0027829D01*
X0205374Y0027919D01*
X0205243Y0028012D01*
X0205114Y0028108D01*
X0204988Y0028208D01*
X0204864Y0028311D01*
X0204743Y0028416D01*
X0204625Y0028525D01*
X0204509Y0028636D01*
X0204396Y0028751D01*
X0204286Y0028868D01*
X0204179Y0028987D01*
X0204075Y0029110D01*
X0203974Y0029235D01*
X0203876Y0029362D01*
X0203781Y0029492D01*
X0203690Y0029624D01*
X0203601Y0029758D01*
X0203516Y0029895D01*
X0203435Y0030033D01*
X0203357Y0030174D01*
X0203282Y0030316D01*
X0203211Y0030460D01*
X0203144Y0030606D01*
X0203080Y0030754D01*
X0203020Y0030903D01*
X0202964Y0031053D01*
X0202911Y0031205D01*
X0202862Y0031358D01*
X0202817Y0031512D01*
X0202776Y0031667D01*
X0202738Y0031824D01*
X0202705Y0031981D01*
X0202675Y0032139D01*
X0202649Y0032297D01*
X0202628Y0032457D01*
X0202610Y0032616D01*
X0202596Y0032776D01*
X0202586Y0032937D01*
X0202580Y0033097D01*
X0202578Y0033258D01*
X0242196Y0155258D02*
X0242198Y0155418D01*
X0242204Y0155577D01*
X0242214Y0155736D01*
X0242228Y0155895D01*
X0242246Y0156054D01*
X0242267Y0156212D01*
X0242293Y0156369D01*
X0242323Y0156526D01*
X0242356Y0156682D01*
X0242394Y0156837D01*
X0242435Y0156991D01*
X0242480Y0157144D01*
X0242529Y0157296D01*
X0242582Y0157446D01*
X0242638Y0157595D01*
X0242698Y0157743D01*
X0242762Y0157889D01*
X0242830Y0158034D01*
X0242901Y0158177D01*
X0242975Y0158318D01*
X0243053Y0158457D01*
X0243135Y0158594D01*
X0243220Y0158729D01*
X0243308Y0158862D01*
X0243399Y0158993D01*
X0243494Y0159121D01*
X0243592Y0159247D01*
X0243693Y0159371D01*
X0243797Y0159491D01*
X0243904Y0159610D01*
X0244014Y0159725D01*
X0244127Y0159838D01*
X0244242Y0159948D01*
X0244361Y0160055D01*
X0244481Y0160159D01*
X0244605Y0160260D01*
X0244731Y0160358D01*
X0244859Y0160453D01*
X0244990Y0160544D01*
X0245123Y0160632D01*
X0245258Y0160717D01*
X0245395Y0160799D01*
X0245534Y0160877D01*
X0245675Y0160951D01*
X0245818Y0161022D01*
X0245963Y0161090D01*
X0246109Y0161154D01*
X0246257Y0161214D01*
X0246406Y0161270D01*
X0246556Y0161323D01*
X0246708Y0161372D01*
X0246861Y0161417D01*
X0247015Y0161458D01*
X0247170Y0161496D01*
X0247326Y0161529D01*
X0247483Y0161559D01*
X0247640Y0161585D01*
X0247798Y0161606D01*
X0247957Y0161624D01*
X0248116Y0161638D01*
X0248275Y0161648D01*
X0248434Y0161654D01*
X0248594Y0161656D01*
X0248754Y0161654D01*
X0248913Y0161648D01*
X0249072Y0161638D01*
X0249231Y0161624D01*
X0249390Y0161606D01*
X0249548Y0161585D01*
X0249705Y0161559D01*
X0249862Y0161529D01*
X0250018Y0161496D01*
X0250173Y0161458D01*
X0250327Y0161417D01*
X0250480Y0161372D01*
X0250632Y0161323D01*
X0250782Y0161270D01*
X0250931Y0161214D01*
X0251079Y0161154D01*
X0251225Y0161090D01*
X0251370Y0161022D01*
X0251513Y0160951D01*
X0251654Y0160877D01*
X0251793Y0160799D01*
X0251930Y0160717D01*
X0252065Y0160632D01*
X0252198Y0160544D01*
X0252329Y0160453D01*
X0252457Y0160358D01*
X0252583Y0160260D01*
X0252707Y0160159D01*
X0252827Y0160055D01*
X0252946Y0159948D01*
X0253061Y0159838D01*
X0253174Y0159725D01*
X0253284Y0159610D01*
X0253391Y0159491D01*
X0253495Y0159371D01*
X0253596Y0159247D01*
X0253694Y0159121D01*
X0253789Y0158993D01*
X0253880Y0158862D01*
X0253968Y0158729D01*
X0254053Y0158594D01*
X0254135Y0158457D01*
X0254213Y0158318D01*
X0254287Y0158177D01*
X0254358Y0158034D01*
X0254426Y0157889D01*
X0254490Y0157743D01*
X0254550Y0157595D01*
X0254606Y0157446D01*
X0254659Y0157296D01*
X0254708Y0157144D01*
X0254753Y0156991D01*
X0254794Y0156837D01*
X0254832Y0156682D01*
X0254865Y0156526D01*
X0254895Y0156369D01*
X0254921Y0156212D01*
X0254942Y0156054D01*
X0254960Y0155895D01*
X0254974Y0155736D01*
X0254984Y0155577D01*
X0254990Y0155418D01*
X0254992Y0155258D01*
X0254990Y0155098D01*
X0254984Y0154939D01*
X0254974Y0154780D01*
X0254960Y0154621D01*
X0254942Y0154462D01*
X0254921Y0154304D01*
X0254895Y0154147D01*
X0254865Y0153990D01*
X0254832Y0153834D01*
X0254794Y0153679D01*
X0254753Y0153525D01*
X0254708Y0153372D01*
X0254659Y0153220D01*
X0254606Y0153070D01*
X0254550Y0152921D01*
X0254490Y0152773D01*
X0254426Y0152627D01*
X0254358Y0152482D01*
X0254287Y0152339D01*
X0254213Y0152198D01*
X0254135Y0152059D01*
X0254053Y0151922D01*
X0253968Y0151787D01*
X0253880Y0151654D01*
X0253789Y0151523D01*
X0253694Y0151395D01*
X0253596Y0151269D01*
X0253495Y0151145D01*
X0253391Y0151025D01*
X0253284Y0150906D01*
X0253174Y0150791D01*
X0253061Y0150678D01*
X0252946Y0150568D01*
X0252827Y0150461D01*
X0252707Y0150357D01*
X0252583Y0150256D01*
X0252457Y0150158D01*
X0252329Y0150063D01*
X0252198Y0149972D01*
X0252065Y0149884D01*
X0251930Y0149799D01*
X0251793Y0149717D01*
X0251654Y0149639D01*
X0251513Y0149565D01*
X0251370Y0149494D01*
X0251225Y0149426D01*
X0251079Y0149362D01*
X0250931Y0149302D01*
X0250782Y0149246D01*
X0250632Y0149193D01*
X0250480Y0149144D01*
X0250327Y0149099D01*
X0250173Y0149058D01*
X0250018Y0149020D01*
X0249862Y0148987D01*
X0249705Y0148957D01*
X0249548Y0148931D01*
X0249390Y0148910D01*
X0249231Y0148892D01*
X0249072Y0148878D01*
X0248913Y0148868D01*
X0248754Y0148862D01*
X0248594Y0148860D01*
X0248434Y0148862D01*
X0248275Y0148868D01*
X0248116Y0148878D01*
X0247957Y0148892D01*
X0247798Y0148910D01*
X0247640Y0148931D01*
X0247483Y0148957D01*
X0247326Y0148987D01*
X0247170Y0149020D01*
X0247015Y0149058D01*
X0246861Y0149099D01*
X0246708Y0149144D01*
X0246556Y0149193D01*
X0246406Y0149246D01*
X0246257Y0149302D01*
X0246109Y0149362D01*
X0245963Y0149426D01*
X0245818Y0149494D01*
X0245675Y0149565D01*
X0245534Y0149639D01*
X0245395Y0149717D01*
X0245258Y0149799D01*
X0245123Y0149884D01*
X0244990Y0149972D01*
X0244859Y0150063D01*
X0244731Y0150158D01*
X0244605Y0150256D01*
X0244481Y0150357D01*
X0244361Y0150461D01*
X0244242Y0150568D01*
X0244127Y0150678D01*
X0244014Y0150791D01*
X0243904Y0150906D01*
X0243797Y0151025D01*
X0243693Y0151145D01*
X0243592Y0151269D01*
X0243494Y0151395D01*
X0243399Y0151523D01*
X0243308Y0151654D01*
X0243220Y0151787D01*
X0243135Y0151922D01*
X0243053Y0152059D01*
X0242975Y0152198D01*
X0242901Y0152339D01*
X0242830Y0152482D01*
X0242762Y0152627D01*
X0242698Y0152773D01*
X0242638Y0152921D01*
X0242582Y0153070D01*
X0242529Y0153220D01*
X0242480Y0153372D01*
X0242435Y0153525D01*
X0242394Y0153679D01*
X0242356Y0153834D01*
X0242323Y0153990D01*
X0242293Y0154147D01*
X0242267Y0154304D01*
X0242246Y0154462D01*
X0242228Y0154621D01*
X0242214Y0154780D01*
X0242204Y0154939D01*
X0242198Y0155098D01*
X0242196Y0155258D01*
X0242196Y0205258D02*
X0242198Y0205418D01*
X0242204Y0205577D01*
X0242214Y0205736D01*
X0242228Y0205895D01*
X0242246Y0206054D01*
X0242267Y0206212D01*
X0242293Y0206369D01*
X0242323Y0206526D01*
X0242356Y0206682D01*
X0242394Y0206837D01*
X0242435Y0206991D01*
X0242480Y0207144D01*
X0242529Y0207296D01*
X0242582Y0207446D01*
X0242638Y0207595D01*
X0242698Y0207743D01*
X0242762Y0207889D01*
X0242830Y0208034D01*
X0242901Y0208177D01*
X0242975Y0208318D01*
X0243053Y0208457D01*
X0243135Y0208594D01*
X0243220Y0208729D01*
X0243308Y0208862D01*
X0243399Y0208993D01*
X0243494Y0209121D01*
X0243592Y0209247D01*
X0243693Y0209371D01*
X0243797Y0209491D01*
X0243904Y0209610D01*
X0244014Y0209725D01*
X0244127Y0209838D01*
X0244242Y0209948D01*
X0244361Y0210055D01*
X0244481Y0210159D01*
X0244605Y0210260D01*
X0244731Y0210358D01*
X0244859Y0210453D01*
X0244990Y0210544D01*
X0245123Y0210632D01*
X0245258Y0210717D01*
X0245395Y0210799D01*
X0245534Y0210877D01*
X0245675Y0210951D01*
X0245818Y0211022D01*
X0245963Y0211090D01*
X0246109Y0211154D01*
X0246257Y0211214D01*
X0246406Y0211270D01*
X0246556Y0211323D01*
X0246708Y0211372D01*
X0246861Y0211417D01*
X0247015Y0211458D01*
X0247170Y0211496D01*
X0247326Y0211529D01*
X0247483Y0211559D01*
X0247640Y0211585D01*
X0247798Y0211606D01*
X0247957Y0211624D01*
X0248116Y0211638D01*
X0248275Y0211648D01*
X0248434Y0211654D01*
X0248594Y0211656D01*
X0248754Y0211654D01*
X0248913Y0211648D01*
X0249072Y0211638D01*
X0249231Y0211624D01*
X0249390Y0211606D01*
X0249548Y0211585D01*
X0249705Y0211559D01*
X0249862Y0211529D01*
X0250018Y0211496D01*
X0250173Y0211458D01*
X0250327Y0211417D01*
X0250480Y0211372D01*
X0250632Y0211323D01*
X0250782Y0211270D01*
X0250931Y0211214D01*
X0251079Y0211154D01*
X0251225Y0211090D01*
X0251370Y0211022D01*
X0251513Y0210951D01*
X0251654Y0210877D01*
X0251793Y0210799D01*
X0251930Y0210717D01*
X0252065Y0210632D01*
X0252198Y0210544D01*
X0252329Y0210453D01*
X0252457Y0210358D01*
X0252583Y0210260D01*
X0252707Y0210159D01*
X0252827Y0210055D01*
X0252946Y0209948D01*
X0253061Y0209838D01*
X0253174Y0209725D01*
X0253284Y0209610D01*
X0253391Y0209491D01*
X0253495Y0209371D01*
X0253596Y0209247D01*
X0253694Y0209121D01*
X0253789Y0208993D01*
X0253880Y0208862D01*
X0253968Y0208729D01*
X0254053Y0208594D01*
X0254135Y0208457D01*
X0254213Y0208318D01*
X0254287Y0208177D01*
X0254358Y0208034D01*
X0254426Y0207889D01*
X0254490Y0207743D01*
X0254550Y0207595D01*
X0254606Y0207446D01*
X0254659Y0207296D01*
X0254708Y0207144D01*
X0254753Y0206991D01*
X0254794Y0206837D01*
X0254832Y0206682D01*
X0254865Y0206526D01*
X0254895Y0206369D01*
X0254921Y0206212D01*
X0254942Y0206054D01*
X0254960Y0205895D01*
X0254974Y0205736D01*
X0254984Y0205577D01*
X0254990Y0205418D01*
X0254992Y0205258D01*
X0254990Y0205098D01*
X0254984Y0204939D01*
X0254974Y0204780D01*
X0254960Y0204621D01*
X0254942Y0204462D01*
X0254921Y0204304D01*
X0254895Y0204147D01*
X0254865Y0203990D01*
X0254832Y0203834D01*
X0254794Y0203679D01*
X0254753Y0203525D01*
X0254708Y0203372D01*
X0254659Y0203220D01*
X0254606Y0203070D01*
X0254550Y0202921D01*
X0254490Y0202773D01*
X0254426Y0202627D01*
X0254358Y0202482D01*
X0254287Y0202339D01*
X0254213Y0202198D01*
X0254135Y0202059D01*
X0254053Y0201922D01*
X0253968Y0201787D01*
X0253880Y0201654D01*
X0253789Y0201523D01*
X0253694Y0201395D01*
X0253596Y0201269D01*
X0253495Y0201145D01*
X0253391Y0201025D01*
X0253284Y0200906D01*
X0253174Y0200791D01*
X0253061Y0200678D01*
X0252946Y0200568D01*
X0252827Y0200461D01*
X0252707Y0200357D01*
X0252583Y0200256D01*
X0252457Y0200158D01*
X0252329Y0200063D01*
X0252198Y0199972D01*
X0252065Y0199884D01*
X0251930Y0199799D01*
X0251793Y0199717D01*
X0251654Y0199639D01*
X0251513Y0199565D01*
X0251370Y0199494D01*
X0251225Y0199426D01*
X0251079Y0199362D01*
X0250931Y0199302D01*
X0250782Y0199246D01*
X0250632Y0199193D01*
X0250480Y0199144D01*
X0250327Y0199099D01*
X0250173Y0199058D01*
X0250018Y0199020D01*
X0249862Y0198987D01*
X0249705Y0198957D01*
X0249548Y0198931D01*
X0249390Y0198910D01*
X0249231Y0198892D01*
X0249072Y0198878D01*
X0248913Y0198868D01*
X0248754Y0198862D01*
X0248594Y0198860D01*
X0248434Y0198862D01*
X0248275Y0198868D01*
X0248116Y0198878D01*
X0247957Y0198892D01*
X0247798Y0198910D01*
X0247640Y0198931D01*
X0247483Y0198957D01*
X0247326Y0198987D01*
X0247170Y0199020D01*
X0247015Y0199058D01*
X0246861Y0199099D01*
X0246708Y0199144D01*
X0246556Y0199193D01*
X0246406Y0199246D01*
X0246257Y0199302D01*
X0246109Y0199362D01*
X0245963Y0199426D01*
X0245818Y0199494D01*
X0245675Y0199565D01*
X0245534Y0199639D01*
X0245395Y0199717D01*
X0245258Y0199799D01*
X0245123Y0199884D01*
X0244990Y0199972D01*
X0244859Y0200063D01*
X0244731Y0200158D01*
X0244605Y0200256D01*
X0244481Y0200357D01*
X0244361Y0200461D01*
X0244242Y0200568D01*
X0244127Y0200678D01*
X0244014Y0200791D01*
X0243904Y0200906D01*
X0243797Y0201025D01*
X0243693Y0201145D01*
X0243592Y0201269D01*
X0243494Y0201395D01*
X0243399Y0201523D01*
X0243308Y0201654D01*
X0243220Y0201787D01*
X0243135Y0201922D01*
X0243053Y0202059D01*
X0242975Y0202198D01*
X0242901Y0202339D01*
X0242830Y0202482D01*
X0242762Y0202627D01*
X0242698Y0202773D01*
X0242638Y0202921D01*
X0242582Y0203070D01*
X0242529Y0203220D01*
X0242480Y0203372D01*
X0242435Y0203525D01*
X0242394Y0203679D01*
X0242356Y0203834D01*
X0242323Y0203990D01*
X0242293Y0204147D01*
X0242267Y0204304D01*
X0242246Y0204462D01*
X0242228Y0204621D01*
X0242214Y0204780D01*
X0242204Y0204939D01*
X0242198Y0205098D01*
X0242196Y0205258D01*
X0145996Y0233250D02*
X0145998Y0233436D01*
X0146005Y0233623D01*
X0146017Y0233809D01*
X0146033Y0233995D01*
X0146053Y0234180D01*
X0146078Y0234365D01*
X0146108Y0234549D01*
X0146142Y0234732D01*
X0146181Y0234915D01*
X0146224Y0235096D01*
X0146271Y0235276D01*
X0146323Y0235456D01*
X0146379Y0235633D01*
X0146440Y0235810D01*
X0146505Y0235984D01*
X0146574Y0236158D01*
X0146648Y0236329D01*
X0146725Y0236499D01*
X0146807Y0236666D01*
X0146893Y0236832D01*
X0146983Y0236995D01*
X0147077Y0237156D01*
X0147175Y0237315D01*
X0147276Y0237471D01*
X0147382Y0237625D01*
X0147491Y0237776D01*
X0147604Y0237925D01*
X0147721Y0238070D01*
X0147841Y0238213D01*
X0147964Y0238353D01*
X0148091Y0238489D01*
X0148221Y0238623D01*
X0148355Y0238753D01*
X0148491Y0238880D01*
X0148631Y0239003D01*
X0148774Y0239123D01*
X0148919Y0239240D01*
X0149068Y0239353D01*
X0149219Y0239462D01*
X0149373Y0239568D01*
X0149529Y0239669D01*
X0149688Y0239767D01*
X0149849Y0239861D01*
X0150012Y0239951D01*
X0150178Y0240037D01*
X0150345Y0240119D01*
X0150515Y0240196D01*
X0150686Y0240270D01*
X0150860Y0240339D01*
X0151034Y0240404D01*
X0151211Y0240465D01*
X0151388Y0240521D01*
X0151568Y0240573D01*
X0151748Y0240620D01*
X0151929Y0240663D01*
X0152112Y0240702D01*
X0152295Y0240736D01*
X0152479Y0240766D01*
X0152664Y0240791D01*
X0152849Y0240811D01*
X0153035Y0240827D01*
X0153221Y0240839D01*
X0153408Y0240846D01*
X0153594Y0240848D01*
X0153780Y0240846D01*
X0153967Y0240839D01*
X0154153Y0240827D01*
X0154339Y0240811D01*
X0154524Y0240791D01*
X0154709Y0240766D01*
X0154893Y0240736D01*
X0155076Y0240702D01*
X0155259Y0240663D01*
X0155440Y0240620D01*
X0155620Y0240573D01*
X0155800Y0240521D01*
X0155977Y0240465D01*
X0156154Y0240404D01*
X0156328Y0240339D01*
X0156502Y0240270D01*
X0156673Y0240196D01*
X0156843Y0240119D01*
X0157010Y0240037D01*
X0157176Y0239951D01*
X0157339Y0239861D01*
X0157500Y0239767D01*
X0157659Y0239669D01*
X0157815Y0239568D01*
X0157969Y0239462D01*
X0158120Y0239353D01*
X0158269Y0239240D01*
X0158414Y0239123D01*
X0158557Y0239003D01*
X0158697Y0238880D01*
X0158833Y0238753D01*
X0158967Y0238623D01*
X0159097Y0238489D01*
X0159224Y0238353D01*
X0159347Y0238213D01*
X0159467Y0238070D01*
X0159584Y0237925D01*
X0159697Y0237776D01*
X0159806Y0237625D01*
X0159912Y0237471D01*
X0160013Y0237315D01*
X0160111Y0237156D01*
X0160205Y0236995D01*
X0160295Y0236832D01*
X0160381Y0236666D01*
X0160463Y0236499D01*
X0160540Y0236329D01*
X0160614Y0236158D01*
X0160683Y0235984D01*
X0160748Y0235810D01*
X0160809Y0235633D01*
X0160865Y0235456D01*
X0160917Y0235276D01*
X0160964Y0235096D01*
X0161007Y0234915D01*
X0161046Y0234732D01*
X0161080Y0234549D01*
X0161110Y0234365D01*
X0161135Y0234180D01*
X0161155Y0233995D01*
X0161171Y0233809D01*
X0161183Y0233623D01*
X0161190Y0233436D01*
X0161192Y0233250D01*
X0161190Y0233064D01*
X0161183Y0232877D01*
X0161171Y0232691D01*
X0161155Y0232505D01*
X0161135Y0232320D01*
X0161110Y0232135D01*
X0161080Y0231951D01*
X0161046Y0231768D01*
X0161007Y0231585D01*
X0160964Y0231404D01*
X0160917Y0231224D01*
X0160865Y0231044D01*
X0160809Y0230867D01*
X0160748Y0230690D01*
X0160683Y0230516D01*
X0160614Y0230342D01*
X0160540Y0230171D01*
X0160463Y0230001D01*
X0160381Y0229834D01*
X0160295Y0229668D01*
X0160205Y0229505D01*
X0160111Y0229344D01*
X0160013Y0229185D01*
X0159912Y0229029D01*
X0159806Y0228875D01*
X0159697Y0228724D01*
X0159584Y0228575D01*
X0159467Y0228430D01*
X0159347Y0228287D01*
X0159224Y0228147D01*
X0159097Y0228011D01*
X0158967Y0227877D01*
X0158833Y0227747D01*
X0158697Y0227620D01*
X0158557Y0227497D01*
X0158414Y0227377D01*
X0158269Y0227260D01*
X0158120Y0227147D01*
X0157969Y0227038D01*
X0157815Y0226932D01*
X0157659Y0226831D01*
X0157500Y0226733D01*
X0157339Y0226639D01*
X0157176Y0226549D01*
X0157010Y0226463D01*
X0156843Y0226381D01*
X0156673Y0226304D01*
X0156502Y0226230D01*
X0156328Y0226161D01*
X0156154Y0226096D01*
X0155977Y0226035D01*
X0155800Y0225979D01*
X0155620Y0225927D01*
X0155440Y0225880D01*
X0155259Y0225837D01*
X0155076Y0225798D01*
X0154893Y0225764D01*
X0154709Y0225734D01*
X0154524Y0225709D01*
X0154339Y0225689D01*
X0154153Y0225673D01*
X0153967Y0225661D01*
X0153780Y0225654D01*
X0153594Y0225652D01*
X0153408Y0225654D01*
X0153221Y0225661D01*
X0153035Y0225673D01*
X0152849Y0225689D01*
X0152664Y0225709D01*
X0152479Y0225734D01*
X0152295Y0225764D01*
X0152112Y0225798D01*
X0151929Y0225837D01*
X0151748Y0225880D01*
X0151568Y0225927D01*
X0151388Y0225979D01*
X0151211Y0226035D01*
X0151034Y0226096D01*
X0150860Y0226161D01*
X0150686Y0226230D01*
X0150515Y0226304D01*
X0150345Y0226381D01*
X0150178Y0226463D01*
X0150012Y0226549D01*
X0149849Y0226639D01*
X0149688Y0226733D01*
X0149529Y0226831D01*
X0149373Y0226932D01*
X0149219Y0227038D01*
X0149068Y0227147D01*
X0148919Y0227260D01*
X0148774Y0227377D01*
X0148631Y0227497D01*
X0148491Y0227620D01*
X0148355Y0227747D01*
X0148221Y0227877D01*
X0148091Y0228011D01*
X0147964Y0228147D01*
X0147841Y0228287D01*
X0147721Y0228430D01*
X0147604Y0228575D01*
X0147491Y0228724D01*
X0147382Y0228875D01*
X0147276Y0229029D01*
X0147175Y0229185D01*
X0147077Y0229344D01*
X0146983Y0229505D01*
X0146893Y0229668D01*
X0146807Y0229834D01*
X0146725Y0230001D01*
X0146648Y0230171D01*
X0146574Y0230342D01*
X0146505Y0230516D01*
X0146440Y0230690D01*
X0146379Y0230867D01*
X0146323Y0231044D01*
X0146271Y0231224D01*
X0146224Y0231404D01*
X0146181Y0231585D01*
X0146142Y0231768D01*
X0146108Y0231951D01*
X0146078Y0232135D01*
X0146053Y0232320D01*
X0146033Y0232505D01*
X0146017Y0232691D01*
X0146005Y0232877D01*
X0145998Y0233064D01*
X0145996Y0233250D01*
X0070996Y0233250D02*
X0070998Y0233436D01*
X0071005Y0233623D01*
X0071017Y0233809D01*
X0071033Y0233995D01*
X0071053Y0234180D01*
X0071078Y0234365D01*
X0071108Y0234549D01*
X0071142Y0234732D01*
X0071181Y0234915D01*
X0071224Y0235096D01*
X0071271Y0235276D01*
X0071323Y0235456D01*
X0071379Y0235633D01*
X0071440Y0235810D01*
X0071505Y0235984D01*
X0071574Y0236158D01*
X0071648Y0236329D01*
X0071725Y0236499D01*
X0071807Y0236666D01*
X0071893Y0236832D01*
X0071983Y0236995D01*
X0072077Y0237156D01*
X0072175Y0237315D01*
X0072276Y0237471D01*
X0072382Y0237625D01*
X0072491Y0237776D01*
X0072604Y0237925D01*
X0072721Y0238070D01*
X0072841Y0238213D01*
X0072964Y0238353D01*
X0073091Y0238489D01*
X0073221Y0238623D01*
X0073355Y0238753D01*
X0073491Y0238880D01*
X0073631Y0239003D01*
X0073774Y0239123D01*
X0073919Y0239240D01*
X0074068Y0239353D01*
X0074219Y0239462D01*
X0074373Y0239568D01*
X0074529Y0239669D01*
X0074688Y0239767D01*
X0074849Y0239861D01*
X0075012Y0239951D01*
X0075178Y0240037D01*
X0075345Y0240119D01*
X0075515Y0240196D01*
X0075686Y0240270D01*
X0075860Y0240339D01*
X0076034Y0240404D01*
X0076211Y0240465D01*
X0076388Y0240521D01*
X0076568Y0240573D01*
X0076748Y0240620D01*
X0076929Y0240663D01*
X0077112Y0240702D01*
X0077295Y0240736D01*
X0077479Y0240766D01*
X0077664Y0240791D01*
X0077849Y0240811D01*
X0078035Y0240827D01*
X0078221Y0240839D01*
X0078408Y0240846D01*
X0078594Y0240848D01*
X0078780Y0240846D01*
X0078967Y0240839D01*
X0079153Y0240827D01*
X0079339Y0240811D01*
X0079524Y0240791D01*
X0079709Y0240766D01*
X0079893Y0240736D01*
X0080076Y0240702D01*
X0080259Y0240663D01*
X0080440Y0240620D01*
X0080620Y0240573D01*
X0080800Y0240521D01*
X0080977Y0240465D01*
X0081154Y0240404D01*
X0081328Y0240339D01*
X0081502Y0240270D01*
X0081673Y0240196D01*
X0081843Y0240119D01*
X0082010Y0240037D01*
X0082176Y0239951D01*
X0082339Y0239861D01*
X0082500Y0239767D01*
X0082659Y0239669D01*
X0082815Y0239568D01*
X0082969Y0239462D01*
X0083120Y0239353D01*
X0083269Y0239240D01*
X0083414Y0239123D01*
X0083557Y0239003D01*
X0083697Y0238880D01*
X0083833Y0238753D01*
X0083967Y0238623D01*
X0084097Y0238489D01*
X0084224Y0238353D01*
X0084347Y0238213D01*
X0084467Y0238070D01*
X0084584Y0237925D01*
X0084697Y0237776D01*
X0084806Y0237625D01*
X0084912Y0237471D01*
X0085013Y0237315D01*
X0085111Y0237156D01*
X0085205Y0236995D01*
X0085295Y0236832D01*
X0085381Y0236666D01*
X0085463Y0236499D01*
X0085540Y0236329D01*
X0085614Y0236158D01*
X0085683Y0235984D01*
X0085748Y0235810D01*
X0085809Y0235633D01*
X0085865Y0235456D01*
X0085917Y0235276D01*
X0085964Y0235096D01*
X0086007Y0234915D01*
X0086046Y0234732D01*
X0086080Y0234549D01*
X0086110Y0234365D01*
X0086135Y0234180D01*
X0086155Y0233995D01*
X0086171Y0233809D01*
X0086183Y0233623D01*
X0086190Y0233436D01*
X0086192Y0233250D01*
X0086190Y0233064D01*
X0086183Y0232877D01*
X0086171Y0232691D01*
X0086155Y0232505D01*
X0086135Y0232320D01*
X0086110Y0232135D01*
X0086080Y0231951D01*
X0086046Y0231768D01*
X0086007Y0231585D01*
X0085964Y0231404D01*
X0085917Y0231224D01*
X0085865Y0231044D01*
X0085809Y0230867D01*
X0085748Y0230690D01*
X0085683Y0230516D01*
X0085614Y0230342D01*
X0085540Y0230171D01*
X0085463Y0230001D01*
X0085381Y0229834D01*
X0085295Y0229668D01*
X0085205Y0229505D01*
X0085111Y0229344D01*
X0085013Y0229185D01*
X0084912Y0229029D01*
X0084806Y0228875D01*
X0084697Y0228724D01*
X0084584Y0228575D01*
X0084467Y0228430D01*
X0084347Y0228287D01*
X0084224Y0228147D01*
X0084097Y0228011D01*
X0083967Y0227877D01*
X0083833Y0227747D01*
X0083697Y0227620D01*
X0083557Y0227497D01*
X0083414Y0227377D01*
X0083269Y0227260D01*
X0083120Y0227147D01*
X0082969Y0227038D01*
X0082815Y0226932D01*
X0082659Y0226831D01*
X0082500Y0226733D01*
X0082339Y0226639D01*
X0082176Y0226549D01*
X0082010Y0226463D01*
X0081843Y0226381D01*
X0081673Y0226304D01*
X0081502Y0226230D01*
X0081328Y0226161D01*
X0081154Y0226096D01*
X0080977Y0226035D01*
X0080800Y0225979D01*
X0080620Y0225927D01*
X0080440Y0225880D01*
X0080259Y0225837D01*
X0080076Y0225798D01*
X0079893Y0225764D01*
X0079709Y0225734D01*
X0079524Y0225709D01*
X0079339Y0225689D01*
X0079153Y0225673D01*
X0078967Y0225661D01*
X0078780Y0225654D01*
X0078594Y0225652D01*
X0078408Y0225654D01*
X0078221Y0225661D01*
X0078035Y0225673D01*
X0077849Y0225689D01*
X0077664Y0225709D01*
X0077479Y0225734D01*
X0077295Y0225764D01*
X0077112Y0225798D01*
X0076929Y0225837D01*
X0076748Y0225880D01*
X0076568Y0225927D01*
X0076388Y0225979D01*
X0076211Y0226035D01*
X0076034Y0226096D01*
X0075860Y0226161D01*
X0075686Y0226230D01*
X0075515Y0226304D01*
X0075345Y0226381D01*
X0075178Y0226463D01*
X0075012Y0226549D01*
X0074849Y0226639D01*
X0074688Y0226733D01*
X0074529Y0226831D01*
X0074373Y0226932D01*
X0074219Y0227038D01*
X0074068Y0227147D01*
X0073919Y0227260D01*
X0073774Y0227377D01*
X0073631Y0227497D01*
X0073491Y0227620D01*
X0073355Y0227747D01*
X0073221Y0227877D01*
X0073091Y0228011D01*
X0072964Y0228147D01*
X0072841Y0228287D01*
X0072721Y0228430D01*
X0072604Y0228575D01*
X0072491Y0228724D01*
X0072382Y0228875D01*
X0072276Y0229029D01*
X0072175Y0229185D01*
X0072077Y0229344D01*
X0071983Y0229505D01*
X0071893Y0229668D01*
X0071807Y0229834D01*
X0071725Y0230001D01*
X0071648Y0230171D01*
X0071574Y0230342D01*
X0071505Y0230516D01*
X0071440Y0230690D01*
X0071379Y0230867D01*
X0071323Y0231044D01*
X0071271Y0231224D01*
X0071224Y0231404D01*
X0071181Y0231585D01*
X0071142Y0231768D01*
X0071108Y0231951D01*
X0071078Y0232135D01*
X0071053Y0232320D01*
X0071033Y0232505D01*
X0071017Y0232691D01*
X0071005Y0232877D01*
X0070998Y0233064D01*
X0070996Y0233250D01*
D11*
X0044094Y0134203D03*
X0044094Y0127313D03*
X0024094Y0127313D03*
X0024094Y0134203D03*
D12*
X0048594Y0181911D03*
X0048594Y0188604D03*
X0068594Y0188604D03*
X0068594Y0181911D03*
D13*
X0130247Y0185258D03*
X0136940Y0185258D03*
X0194247Y0166258D03*
X0200940Y0166258D03*
X0200940Y0156258D03*
X0194247Y0156258D03*
X0204247Y0120258D03*
X0210940Y0120258D03*
X0210940Y0110258D03*
X0204247Y0110258D03*
X0196940Y0114258D03*
X0190247Y0114258D03*
D14*
X0193594Y0173658D03*
X0202694Y0173658D03*
X0184494Y0173658D03*
D15*
X0193594Y0198858D03*
M02*
