%
M48
M72
T01C0.01378
T02C0.02000
T03C0.02362
T04C0.02400
T05C0.02756
T06C0.03543
T07C0.03937
T08C0.04000
T09C0.04331
T10C0.05512
T11C0.06496
T12C0.07087
T13C0.11811
T14C0.12795
T15C0.12992
T16C0.14173
T17C0.15197
%
T01
X159594Y94258
T02
X125194Y168058
X154794Y176858
X84394Y112858
X54794Y112858
T03
X155594Y126258
X166594Y141258
X193594Y142758
X209594Y174258
X129594Y197758
X103594Y155258
X85594Y140258
X58594Y155258
X57594Y168258
X57594Y182258
X38594Y175258
X85594Y172258
X23594Y117758
T04
X95394Y124658
X84594Y129558
X73794Y161958
X47394Y170858
X43194Y184458
X43194Y189858
T05
X43594Y142758
X23594Y142758
T06
X34094Y85258
X33094Y95258
X24094Y95258
X23094Y105258
X34094Y105258
X23094Y85258
T07
X101783Y57266
X113594Y57266
X125405Y57266
X181594Y58258
X191594Y58258
X201594Y58258
X196594Y68258
X186594Y68258
X176594Y68258
X212609Y153250
X212609Y162266
X231586Y166242
X231586Y174274
X231586Y182305
X231586Y190337
X238594Y194352
X238594Y186321
X238594Y178289
X238594Y170258
X212609Y198250
X212609Y207266
T08
X23594Y215258
X23594Y205258
X23594Y195258
X23594Y185258
X23594Y175258
X23594Y165258
X134094Y81758
X124094Y81758
X114094Y81758
T09
X220454Y87118
X215011Y100258
X220454Y113398
X246733Y113398
X252176Y100258
X246733Y87118
T10
X70444Y204234
X86743Y204234
X145444Y204234
X161743Y204234
T11
X162066Y21250
X216082Y21250
T12
X235090Y212266
X235090Y148250
T13
X113594Y40258
T14
X248594Y205258
X248594Y155258
T15
X169074Y33258
X209074Y33258
T16
X28594Y245258
X248594Y245258
X248594Y35258
X28594Y35258
T17
X153594Y233250
X78594Y233250
M30
