G75*
%MOIN*%
%OFA0B0*%
%FSLAX25Y25*%
%IPPOS*%
%LPD*%
%AMOC8*
5,1,8,0,0,1.08239X$1,22.5*
%
%ADD10C,0.00000*%
%ADD11R,0.05937X0.05937*%
%ADD12C,0.05937*%
%ADD13C,0.10630*%
%ADD14C,0.23000*%
%ADD15C,0.06600*%
%ADD16C,0.06400*%
%ADD17C,0.06000*%
%ADD18R,0.07400X0.07400*%
%ADD19C,0.07400*%
%ADD20R,0.04724X0.04724*%
%ADD21R,0.03937X0.04331*%
%ADD22R,0.04331X0.03937*%
%ADD23C,0.06496*%
%ADD24R,0.03937X0.03937*%
%ADD25R,0.08268X0.08268*%
%ADD26R,0.05000X0.02200*%
%ADD27R,0.02200X0.05000*%
%ADD28C,0.06500*%
%ADD29C,0.09744*%
%ADD30C,0.01000*%
%ADD31R,0.03562X0.03562*%
%ADD32C,0.02578*%
%ADD33C,0.04000*%
%ADD34C,0.01600*%
%ADD35C,0.03562*%
%ADD36C,0.00800*%
%ADD37C,0.03200*%
%ADD38C,0.03600*%
D10*
X0003594Y0010258D02*
X0003594Y0270219D01*
X0272294Y0270219D01*
X0272294Y0010258D01*
X0003594Y0010258D01*
X0107688Y0040258D02*
X0107690Y0040411D01*
X0107696Y0040565D01*
X0107706Y0040718D01*
X0107720Y0040870D01*
X0107738Y0041023D01*
X0107760Y0041174D01*
X0107785Y0041325D01*
X0107815Y0041476D01*
X0107849Y0041626D01*
X0107886Y0041774D01*
X0107927Y0041922D01*
X0107972Y0042068D01*
X0108021Y0042214D01*
X0108074Y0042358D01*
X0108130Y0042500D01*
X0108190Y0042641D01*
X0108254Y0042781D01*
X0108321Y0042919D01*
X0108392Y0043055D01*
X0108467Y0043189D01*
X0108544Y0043321D01*
X0108626Y0043451D01*
X0108710Y0043579D01*
X0108798Y0043705D01*
X0108889Y0043828D01*
X0108983Y0043949D01*
X0109081Y0044067D01*
X0109181Y0044183D01*
X0109285Y0044296D01*
X0109391Y0044407D01*
X0109500Y0044515D01*
X0109612Y0044620D01*
X0109726Y0044721D01*
X0109844Y0044820D01*
X0109963Y0044916D01*
X0110085Y0045009D01*
X0110210Y0045098D01*
X0110337Y0045185D01*
X0110466Y0045267D01*
X0110597Y0045347D01*
X0110730Y0045423D01*
X0110865Y0045496D01*
X0111002Y0045565D01*
X0111141Y0045630D01*
X0111281Y0045692D01*
X0111423Y0045750D01*
X0111566Y0045805D01*
X0111711Y0045856D01*
X0111857Y0045903D01*
X0112004Y0045946D01*
X0112152Y0045985D01*
X0112301Y0046021D01*
X0112451Y0046052D01*
X0112602Y0046080D01*
X0112753Y0046104D01*
X0112906Y0046124D01*
X0113058Y0046140D01*
X0113211Y0046152D01*
X0113364Y0046160D01*
X0113517Y0046164D01*
X0113671Y0046164D01*
X0113824Y0046160D01*
X0113977Y0046152D01*
X0114130Y0046140D01*
X0114282Y0046124D01*
X0114435Y0046104D01*
X0114586Y0046080D01*
X0114737Y0046052D01*
X0114887Y0046021D01*
X0115036Y0045985D01*
X0115184Y0045946D01*
X0115331Y0045903D01*
X0115477Y0045856D01*
X0115622Y0045805D01*
X0115765Y0045750D01*
X0115907Y0045692D01*
X0116047Y0045630D01*
X0116186Y0045565D01*
X0116323Y0045496D01*
X0116458Y0045423D01*
X0116591Y0045347D01*
X0116722Y0045267D01*
X0116851Y0045185D01*
X0116978Y0045098D01*
X0117103Y0045009D01*
X0117225Y0044916D01*
X0117344Y0044820D01*
X0117462Y0044721D01*
X0117576Y0044620D01*
X0117688Y0044515D01*
X0117797Y0044407D01*
X0117903Y0044296D01*
X0118007Y0044183D01*
X0118107Y0044067D01*
X0118205Y0043949D01*
X0118299Y0043828D01*
X0118390Y0043705D01*
X0118478Y0043579D01*
X0118562Y0043451D01*
X0118644Y0043321D01*
X0118721Y0043189D01*
X0118796Y0043055D01*
X0118867Y0042919D01*
X0118934Y0042781D01*
X0118998Y0042641D01*
X0119058Y0042500D01*
X0119114Y0042358D01*
X0119167Y0042214D01*
X0119216Y0042068D01*
X0119261Y0041922D01*
X0119302Y0041774D01*
X0119339Y0041626D01*
X0119373Y0041476D01*
X0119403Y0041325D01*
X0119428Y0041174D01*
X0119450Y0041023D01*
X0119468Y0040870D01*
X0119482Y0040718D01*
X0119492Y0040565D01*
X0119498Y0040411D01*
X0119500Y0040258D01*
X0119498Y0040105D01*
X0119492Y0039951D01*
X0119482Y0039798D01*
X0119468Y0039646D01*
X0119450Y0039493D01*
X0119428Y0039342D01*
X0119403Y0039191D01*
X0119373Y0039040D01*
X0119339Y0038890D01*
X0119302Y0038742D01*
X0119261Y0038594D01*
X0119216Y0038448D01*
X0119167Y0038302D01*
X0119114Y0038158D01*
X0119058Y0038016D01*
X0118998Y0037875D01*
X0118934Y0037735D01*
X0118867Y0037597D01*
X0118796Y0037461D01*
X0118721Y0037327D01*
X0118644Y0037195D01*
X0118562Y0037065D01*
X0118478Y0036937D01*
X0118390Y0036811D01*
X0118299Y0036688D01*
X0118205Y0036567D01*
X0118107Y0036449D01*
X0118007Y0036333D01*
X0117903Y0036220D01*
X0117797Y0036109D01*
X0117688Y0036001D01*
X0117576Y0035896D01*
X0117462Y0035795D01*
X0117344Y0035696D01*
X0117225Y0035600D01*
X0117103Y0035507D01*
X0116978Y0035418D01*
X0116851Y0035331D01*
X0116722Y0035249D01*
X0116591Y0035169D01*
X0116458Y0035093D01*
X0116323Y0035020D01*
X0116186Y0034951D01*
X0116047Y0034886D01*
X0115907Y0034824D01*
X0115765Y0034766D01*
X0115622Y0034711D01*
X0115477Y0034660D01*
X0115331Y0034613D01*
X0115184Y0034570D01*
X0115036Y0034531D01*
X0114887Y0034495D01*
X0114737Y0034464D01*
X0114586Y0034436D01*
X0114435Y0034412D01*
X0114282Y0034392D01*
X0114130Y0034376D01*
X0113977Y0034364D01*
X0113824Y0034356D01*
X0113671Y0034352D01*
X0113517Y0034352D01*
X0113364Y0034356D01*
X0113211Y0034364D01*
X0113058Y0034376D01*
X0112906Y0034392D01*
X0112753Y0034412D01*
X0112602Y0034436D01*
X0112451Y0034464D01*
X0112301Y0034495D01*
X0112152Y0034531D01*
X0112004Y0034570D01*
X0111857Y0034613D01*
X0111711Y0034660D01*
X0111566Y0034711D01*
X0111423Y0034766D01*
X0111281Y0034824D01*
X0111141Y0034886D01*
X0111002Y0034951D01*
X0110865Y0035020D01*
X0110730Y0035093D01*
X0110597Y0035169D01*
X0110466Y0035249D01*
X0110337Y0035331D01*
X0110210Y0035418D01*
X0110085Y0035507D01*
X0109963Y0035600D01*
X0109844Y0035696D01*
X0109726Y0035795D01*
X0109612Y0035896D01*
X0109500Y0036001D01*
X0109391Y0036109D01*
X0109285Y0036220D01*
X0109181Y0036333D01*
X0109081Y0036449D01*
X0108983Y0036567D01*
X0108889Y0036688D01*
X0108798Y0036811D01*
X0108710Y0036937D01*
X0108626Y0037065D01*
X0108544Y0037195D01*
X0108467Y0037327D01*
X0108392Y0037461D01*
X0108321Y0037597D01*
X0108254Y0037735D01*
X0108190Y0037875D01*
X0108130Y0038016D01*
X0108074Y0038158D01*
X0108021Y0038302D01*
X0107972Y0038448D01*
X0107927Y0038594D01*
X0107886Y0038742D01*
X0107849Y0038890D01*
X0107815Y0039040D01*
X0107785Y0039191D01*
X0107760Y0039342D01*
X0107738Y0039493D01*
X0107720Y0039646D01*
X0107706Y0039798D01*
X0107696Y0039951D01*
X0107690Y0040105D01*
X0107688Y0040258D01*
X0162578Y0033258D02*
X0162580Y0033419D01*
X0162586Y0033579D01*
X0162596Y0033740D01*
X0162610Y0033900D01*
X0162628Y0034059D01*
X0162649Y0034219D01*
X0162675Y0034377D01*
X0162705Y0034535D01*
X0162738Y0034692D01*
X0162776Y0034849D01*
X0162817Y0035004D01*
X0162862Y0035158D01*
X0162911Y0035311D01*
X0162964Y0035463D01*
X0163020Y0035613D01*
X0163080Y0035762D01*
X0163144Y0035910D01*
X0163211Y0036056D01*
X0163282Y0036200D01*
X0163357Y0036342D01*
X0163435Y0036483D01*
X0163516Y0036621D01*
X0163601Y0036758D01*
X0163690Y0036892D01*
X0163781Y0037024D01*
X0163876Y0037154D01*
X0163974Y0037281D01*
X0164075Y0037406D01*
X0164179Y0037529D01*
X0164286Y0037648D01*
X0164396Y0037765D01*
X0164509Y0037880D01*
X0164625Y0037991D01*
X0164743Y0038100D01*
X0164864Y0038205D01*
X0164988Y0038308D01*
X0165114Y0038408D01*
X0165243Y0038504D01*
X0165374Y0038597D01*
X0165507Y0038687D01*
X0165642Y0038774D01*
X0165780Y0038857D01*
X0165919Y0038936D01*
X0166061Y0039013D01*
X0166204Y0039086D01*
X0166349Y0039155D01*
X0166496Y0039220D01*
X0166644Y0039282D01*
X0166794Y0039341D01*
X0166945Y0039395D01*
X0167097Y0039446D01*
X0167251Y0039493D01*
X0167406Y0039536D01*
X0167561Y0039575D01*
X0167718Y0039611D01*
X0167876Y0039643D01*
X0168034Y0039670D01*
X0168193Y0039694D01*
X0168352Y0039714D01*
X0168512Y0039730D01*
X0168673Y0039742D01*
X0168833Y0039750D01*
X0168994Y0039754D01*
X0169154Y0039754D01*
X0169315Y0039750D01*
X0169475Y0039742D01*
X0169636Y0039730D01*
X0169796Y0039714D01*
X0169955Y0039694D01*
X0170114Y0039670D01*
X0170272Y0039643D01*
X0170430Y0039611D01*
X0170587Y0039575D01*
X0170742Y0039536D01*
X0170897Y0039493D01*
X0171051Y0039446D01*
X0171203Y0039395D01*
X0171354Y0039341D01*
X0171504Y0039282D01*
X0171652Y0039220D01*
X0171799Y0039155D01*
X0171944Y0039086D01*
X0172087Y0039013D01*
X0172229Y0038936D01*
X0172368Y0038857D01*
X0172506Y0038774D01*
X0172641Y0038687D01*
X0172774Y0038597D01*
X0172905Y0038504D01*
X0173034Y0038408D01*
X0173160Y0038308D01*
X0173284Y0038205D01*
X0173405Y0038100D01*
X0173523Y0037991D01*
X0173639Y0037880D01*
X0173752Y0037765D01*
X0173862Y0037648D01*
X0173969Y0037529D01*
X0174073Y0037406D01*
X0174174Y0037281D01*
X0174272Y0037154D01*
X0174367Y0037024D01*
X0174458Y0036892D01*
X0174547Y0036758D01*
X0174632Y0036621D01*
X0174713Y0036483D01*
X0174791Y0036342D01*
X0174866Y0036200D01*
X0174937Y0036056D01*
X0175004Y0035910D01*
X0175068Y0035762D01*
X0175128Y0035613D01*
X0175184Y0035463D01*
X0175237Y0035311D01*
X0175286Y0035158D01*
X0175331Y0035004D01*
X0175372Y0034849D01*
X0175410Y0034692D01*
X0175443Y0034535D01*
X0175473Y0034377D01*
X0175499Y0034219D01*
X0175520Y0034059D01*
X0175538Y0033900D01*
X0175552Y0033740D01*
X0175562Y0033579D01*
X0175568Y0033419D01*
X0175570Y0033258D01*
X0175568Y0033097D01*
X0175562Y0032937D01*
X0175552Y0032776D01*
X0175538Y0032616D01*
X0175520Y0032457D01*
X0175499Y0032297D01*
X0175473Y0032139D01*
X0175443Y0031981D01*
X0175410Y0031824D01*
X0175372Y0031667D01*
X0175331Y0031512D01*
X0175286Y0031358D01*
X0175237Y0031205D01*
X0175184Y0031053D01*
X0175128Y0030903D01*
X0175068Y0030754D01*
X0175004Y0030606D01*
X0174937Y0030460D01*
X0174866Y0030316D01*
X0174791Y0030174D01*
X0174713Y0030033D01*
X0174632Y0029895D01*
X0174547Y0029758D01*
X0174458Y0029624D01*
X0174367Y0029492D01*
X0174272Y0029362D01*
X0174174Y0029235D01*
X0174073Y0029110D01*
X0173969Y0028987D01*
X0173862Y0028868D01*
X0173752Y0028751D01*
X0173639Y0028636D01*
X0173523Y0028525D01*
X0173405Y0028416D01*
X0173284Y0028311D01*
X0173160Y0028208D01*
X0173034Y0028108D01*
X0172905Y0028012D01*
X0172774Y0027919D01*
X0172641Y0027829D01*
X0172506Y0027742D01*
X0172368Y0027659D01*
X0172229Y0027580D01*
X0172087Y0027503D01*
X0171944Y0027430D01*
X0171799Y0027361D01*
X0171652Y0027296D01*
X0171504Y0027234D01*
X0171354Y0027175D01*
X0171203Y0027121D01*
X0171051Y0027070D01*
X0170897Y0027023D01*
X0170742Y0026980D01*
X0170587Y0026941D01*
X0170430Y0026905D01*
X0170272Y0026873D01*
X0170114Y0026846D01*
X0169955Y0026822D01*
X0169796Y0026802D01*
X0169636Y0026786D01*
X0169475Y0026774D01*
X0169315Y0026766D01*
X0169154Y0026762D01*
X0168994Y0026762D01*
X0168833Y0026766D01*
X0168673Y0026774D01*
X0168512Y0026786D01*
X0168352Y0026802D01*
X0168193Y0026822D01*
X0168034Y0026846D01*
X0167876Y0026873D01*
X0167718Y0026905D01*
X0167561Y0026941D01*
X0167406Y0026980D01*
X0167251Y0027023D01*
X0167097Y0027070D01*
X0166945Y0027121D01*
X0166794Y0027175D01*
X0166644Y0027234D01*
X0166496Y0027296D01*
X0166349Y0027361D01*
X0166204Y0027430D01*
X0166061Y0027503D01*
X0165919Y0027580D01*
X0165780Y0027659D01*
X0165642Y0027742D01*
X0165507Y0027829D01*
X0165374Y0027919D01*
X0165243Y0028012D01*
X0165114Y0028108D01*
X0164988Y0028208D01*
X0164864Y0028311D01*
X0164743Y0028416D01*
X0164625Y0028525D01*
X0164509Y0028636D01*
X0164396Y0028751D01*
X0164286Y0028868D01*
X0164179Y0028987D01*
X0164075Y0029110D01*
X0163974Y0029235D01*
X0163876Y0029362D01*
X0163781Y0029492D01*
X0163690Y0029624D01*
X0163601Y0029758D01*
X0163516Y0029895D01*
X0163435Y0030033D01*
X0163357Y0030174D01*
X0163282Y0030316D01*
X0163211Y0030460D01*
X0163144Y0030606D01*
X0163080Y0030754D01*
X0163020Y0030903D01*
X0162964Y0031053D01*
X0162911Y0031205D01*
X0162862Y0031358D01*
X0162817Y0031512D01*
X0162776Y0031667D01*
X0162738Y0031824D01*
X0162705Y0031981D01*
X0162675Y0032139D01*
X0162649Y0032297D01*
X0162628Y0032457D01*
X0162610Y0032616D01*
X0162596Y0032776D01*
X0162586Y0032937D01*
X0162580Y0033097D01*
X0162578Y0033258D01*
X0202578Y0033258D02*
X0202580Y0033419D01*
X0202586Y0033579D01*
X0202596Y0033740D01*
X0202610Y0033900D01*
X0202628Y0034059D01*
X0202649Y0034219D01*
X0202675Y0034377D01*
X0202705Y0034535D01*
X0202738Y0034692D01*
X0202776Y0034849D01*
X0202817Y0035004D01*
X0202862Y0035158D01*
X0202911Y0035311D01*
X0202964Y0035463D01*
X0203020Y0035613D01*
X0203080Y0035762D01*
X0203144Y0035910D01*
X0203211Y0036056D01*
X0203282Y0036200D01*
X0203357Y0036342D01*
X0203435Y0036483D01*
X0203516Y0036621D01*
X0203601Y0036758D01*
X0203690Y0036892D01*
X0203781Y0037024D01*
X0203876Y0037154D01*
X0203974Y0037281D01*
X0204075Y0037406D01*
X0204179Y0037529D01*
X0204286Y0037648D01*
X0204396Y0037765D01*
X0204509Y0037880D01*
X0204625Y0037991D01*
X0204743Y0038100D01*
X0204864Y0038205D01*
X0204988Y0038308D01*
X0205114Y0038408D01*
X0205243Y0038504D01*
X0205374Y0038597D01*
X0205507Y0038687D01*
X0205642Y0038774D01*
X0205780Y0038857D01*
X0205919Y0038936D01*
X0206061Y0039013D01*
X0206204Y0039086D01*
X0206349Y0039155D01*
X0206496Y0039220D01*
X0206644Y0039282D01*
X0206794Y0039341D01*
X0206945Y0039395D01*
X0207097Y0039446D01*
X0207251Y0039493D01*
X0207406Y0039536D01*
X0207561Y0039575D01*
X0207718Y0039611D01*
X0207876Y0039643D01*
X0208034Y0039670D01*
X0208193Y0039694D01*
X0208352Y0039714D01*
X0208512Y0039730D01*
X0208673Y0039742D01*
X0208833Y0039750D01*
X0208994Y0039754D01*
X0209154Y0039754D01*
X0209315Y0039750D01*
X0209475Y0039742D01*
X0209636Y0039730D01*
X0209796Y0039714D01*
X0209955Y0039694D01*
X0210114Y0039670D01*
X0210272Y0039643D01*
X0210430Y0039611D01*
X0210587Y0039575D01*
X0210742Y0039536D01*
X0210897Y0039493D01*
X0211051Y0039446D01*
X0211203Y0039395D01*
X0211354Y0039341D01*
X0211504Y0039282D01*
X0211652Y0039220D01*
X0211799Y0039155D01*
X0211944Y0039086D01*
X0212087Y0039013D01*
X0212229Y0038936D01*
X0212368Y0038857D01*
X0212506Y0038774D01*
X0212641Y0038687D01*
X0212774Y0038597D01*
X0212905Y0038504D01*
X0213034Y0038408D01*
X0213160Y0038308D01*
X0213284Y0038205D01*
X0213405Y0038100D01*
X0213523Y0037991D01*
X0213639Y0037880D01*
X0213752Y0037765D01*
X0213862Y0037648D01*
X0213969Y0037529D01*
X0214073Y0037406D01*
X0214174Y0037281D01*
X0214272Y0037154D01*
X0214367Y0037024D01*
X0214458Y0036892D01*
X0214547Y0036758D01*
X0214632Y0036621D01*
X0214713Y0036483D01*
X0214791Y0036342D01*
X0214866Y0036200D01*
X0214937Y0036056D01*
X0215004Y0035910D01*
X0215068Y0035762D01*
X0215128Y0035613D01*
X0215184Y0035463D01*
X0215237Y0035311D01*
X0215286Y0035158D01*
X0215331Y0035004D01*
X0215372Y0034849D01*
X0215410Y0034692D01*
X0215443Y0034535D01*
X0215473Y0034377D01*
X0215499Y0034219D01*
X0215520Y0034059D01*
X0215538Y0033900D01*
X0215552Y0033740D01*
X0215562Y0033579D01*
X0215568Y0033419D01*
X0215570Y0033258D01*
X0215568Y0033097D01*
X0215562Y0032937D01*
X0215552Y0032776D01*
X0215538Y0032616D01*
X0215520Y0032457D01*
X0215499Y0032297D01*
X0215473Y0032139D01*
X0215443Y0031981D01*
X0215410Y0031824D01*
X0215372Y0031667D01*
X0215331Y0031512D01*
X0215286Y0031358D01*
X0215237Y0031205D01*
X0215184Y0031053D01*
X0215128Y0030903D01*
X0215068Y0030754D01*
X0215004Y0030606D01*
X0214937Y0030460D01*
X0214866Y0030316D01*
X0214791Y0030174D01*
X0214713Y0030033D01*
X0214632Y0029895D01*
X0214547Y0029758D01*
X0214458Y0029624D01*
X0214367Y0029492D01*
X0214272Y0029362D01*
X0214174Y0029235D01*
X0214073Y0029110D01*
X0213969Y0028987D01*
X0213862Y0028868D01*
X0213752Y0028751D01*
X0213639Y0028636D01*
X0213523Y0028525D01*
X0213405Y0028416D01*
X0213284Y0028311D01*
X0213160Y0028208D01*
X0213034Y0028108D01*
X0212905Y0028012D01*
X0212774Y0027919D01*
X0212641Y0027829D01*
X0212506Y0027742D01*
X0212368Y0027659D01*
X0212229Y0027580D01*
X0212087Y0027503D01*
X0211944Y0027430D01*
X0211799Y0027361D01*
X0211652Y0027296D01*
X0211504Y0027234D01*
X0211354Y0027175D01*
X0211203Y0027121D01*
X0211051Y0027070D01*
X0210897Y0027023D01*
X0210742Y0026980D01*
X0210587Y0026941D01*
X0210430Y0026905D01*
X0210272Y0026873D01*
X0210114Y0026846D01*
X0209955Y0026822D01*
X0209796Y0026802D01*
X0209636Y0026786D01*
X0209475Y0026774D01*
X0209315Y0026766D01*
X0209154Y0026762D01*
X0208994Y0026762D01*
X0208833Y0026766D01*
X0208673Y0026774D01*
X0208512Y0026786D01*
X0208352Y0026802D01*
X0208193Y0026822D01*
X0208034Y0026846D01*
X0207876Y0026873D01*
X0207718Y0026905D01*
X0207561Y0026941D01*
X0207406Y0026980D01*
X0207251Y0027023D01*
X0207097Y0027070D01*
X0206945Y0027121D01*
X0206794Y0027175D01*
X0206644Y0027234D01*
X0206496Y0027296D01*
X0206349Y0027361D01*
X0206204Y0027430D01*
X0206061Y0027503D01*
X0205919Y0027580D01*
X0205780Y0027659D01*
X0205642Y0027742D01*
X0205507Y0027829D01*
X0205374Y0027919D01*
X0205243Y0028012D01*
X0205114Y0028108D01*
X0204988Y0028208D01*
X0204864Y0028311D01*
X0204743Y0028416D01*
X0204625Y0028525D01*
X0204509Y0028636D01*
X0204396Y0028751D01*
X0204286Y0028868D01*
X0204179Y0028987D01*
X0204075Y0029110D01*
X0203974Y0029235D01*
X0203876Y0029362D01*
X0203781Y0029492D01*
X0203690Y0029624D01*
X0203601Y0029758D01*
X0203516Y0029895D01*
X0203435Y0030033D01*
X0203357Y0030174D01*
X0203282Y0030316D01*
X0203211Y0030460D01*
X0203144Y0030606D01*
X0203080Y0030754D01*
X0203020Y0030903D01*
X0202964Y0031053D01*
X0202911Y0031205D01*
X0202862Y0031358D01*
X0202817Y0031512D01*
X0202776Y0031667D01*
X0202738Y0031824D01*
X0202705Y0031981D01*
X0202675Y0032139D01*
X0202649Y0032297D01*
X0202628Y0032457D01*
X0202610Y0032616D01*
X0202596Y0032776D01*
X0202586Y0032937D01*
X0202580Y0033097D01*
X0202578Y0033258D01*
X0242196Y0155258D02*
X0242198Y0155418D01*
X0242204Y0155577D01*
X0242214Y0155736D01*
X0242228Y0155895D01*
X0242246Y0156054D01*
X0242267Y0156212D01*
X0242293Y0156369D01*
X0242323Y0156526D01*
X0242356Y0156682D01*
X0242394Y0156837D01*
X0242435Y0156991D01*
X0242480Y0157144D01*
X0242529Y0157296D01*
X0242582Y0157446D01*
X0242638Y0157595D01*
X0242698Y0157743D01*
X0242762Y0157889D01*
X0242830Y0158034D01*
X0242901Y0158177D01*
X0242975Y0158318D01*
X0243053Y0158457D01*
X0243135Y0158594D01*
X0243220Y0158729D01*
X0243308Y0158862D01*
X0243399Y0158993D01*
X0243494Y0159121D01*
X0243592Y0159247D01*
X0243693Y0159371D01*
X0243797Y0159491D01*
X0243904Y0159610D01*
X0244014Y0159725D01*
X0244127Y0159838D01*
X0244242Y0159948D01*
X0244361Y0160055D01*
X0244481Y0160159D01*
X0244605Y0160260D01*
X0244731Y0160358D01*
X0244859Y0160453D01*
X0244990Y0160544D01*
X0245123Y0160632D01*
X0245258Y0160717D01*
X0245395Y0160799D01*
X0245534Y0160877D01*
X0245675Y0160951D01*
X0245818Y0161022D01*
X0245963Y0161090D01*
X0246109Y0161154D01*
X0246257Y0161214D01*
X0246406Y0161270D01*
X0246556Y0161323D01*
X0246708Y0161372D01*
X0246861Y0161417D01*
X0247015Y0161458D01*
X0247170Y0161496D01*
X0247326Y0161529D01*
X0247483Y0161559D01*
X0247640Y0161585D01*
X0247798Y0161606D01*
X0247957Y0161624D01*
X0248116Y0161638D01*
X0248275Y0161648D01*
X0248434Y0161654D01*
X0248594Y0161656D01*
X0248754Y0161654D01*
X0248913Y0161648D01*
X0249072Y0161638D01*
X0249231Y0161624D01*
X0249390Y0161606D01*
X0249548Y0161585D01*
X0249705Y0161559D01*
X0249862Y0161529D01*
X0250018Y0161496D01*
X0250173Y0161458D01*
X0250327Y0161417D01*
X0250480Y0161372D01*
X0250632Y0161323D01*
X0250782Y0161270D01*
X0250931Y0161214D01*
X0251079Y0161154D01*
X0251225Y0161090D01*
X0251370Y0161022D01*
X0251513Y0160951D01*
X0251654Y0160877D01*
X0251793Y0160799D01*
X0251930Y0160717D01*
X0252065Y0160632D01*
X0252198Y0160544D01*
X0252329Y0160453D01*
X0252457Y0160358D01*
X0252583Y0160260D01*
X0252707Y0160159D01*
X0252827Y0160055D01*
X0252946Y0159948D01*
X0253061Y0159838D01*
X0253174Y0159725D01*
X0253284Y0159610D01*
X0253391Y0159491D01*
X0253495Y0159371D01*
X0253596Y0159247D01*
X0253694Y0159121D01*
X0253789Y0158993D01*
X0253880Y0158862D01*
X0253968Y0158729D01*
X0254053Y0158594D01*
X0254135Y0158457D01*
X0254213Y0158318D01*
X0254287Y0158177D01*
X0254358Y0158034D01*
X0254426Y0157889D01*
X0254490Y0157743D01*
X0254550Y0157595D01*
X0254606Y0157446D01*
X0254659Y0157296D01*
X0254708Y0157144D01*
X0254753Y0156991D01*
X0254794Y0156837D01*
X0254832Y0156682D01*
X0254865Y0156526D01*
X0254895Y0156369D01*
X0254921Y0156212D01*
X0254942Y0156054D01*
X0254960Y0155895D01*
X0254974Y0155736D01*
X0254984Y0155577D01*
X0254990Y0155418D01*
X0254992Y0155258D01*
X0254990Y0155098D01*
X0254984Y0154939D01*
X0254974Y0154780D01*
X0254960Y0154621D01*
X0254942Y0154462D01*
X0254921Y0154304D01*
X0254895Y0154147D01*
X0254865Y0153990D01*
X0254832Y0153834D01*
X0254794Y0153679D01*
X0254753Y0153525D01*
X0254708Y0153372D01*
X0254659Y0153220D01*
X0254606Y0153070D01*
X0254550Y0152921D01*
X0254490Y0152773D01*
X0254426Y0152627D01*
X0254358Y0152482D01*
X0254287Y0152339D01*
X0254213Y0152198D01*
X0254135Y0152059D01*
X0254053Y0151922D01*
X0253968Y0151787D01*
X0253880Y0151654D01*
X0253789Y0151523D01*
X0253694Y0151395D01*
X0253596Y0151269D01*
X0253495Y0151145D01*
X0253391Y0151025D01*
X0253284Y0150906D01*
X0253174Y0150791D01*
X0253061Y0150678D01*
X0252946Y0150568D01*
X0252827Y0150461D01*
X0252707Y0150357D01*
X0252583Y0150256D01*
X0252457Y0150158D01*
X0252329Y0150063D01*
X0252198Y0149972D01*
X0252065Y0149884D01*
X0251930Y0149799D01*
X0251793Y0149717D01*
X0251654Y0149639D01*
X0251513Y0149565D01*
X0251370Y0149494D01*
X0251225Y0149426D01*
X0251079Y0149362D01*
X0250931Y0149302D01*
X0250782Y0149246D01*
X0250632Y0149193D01*
X0250480Y0149144D01*
X0250327Y0149099D01*
X0250173Y0149058D01*
X0250018Y0149020D01*
X0249862Y0148987D01*
X0249705Y0148957D01*
X0249548Y0148931D01*
X0249390Y0148910D01*
X0249231Y0148892D01*
X0249072Y0148878D01*
X0248913Y0148868D01*
X0248754Y0148862D01*
X0248594Y0148860D01*
X0248434Y0148862D01*
X0248275Y0148868D01*
X0248116Y0148878D01*
X0247957Y0148892D01*
X0247798Y0148910D01*
X0247640Y0148931D01*
X0247483Y0148957D01*
X0247326Y0148987D01*
X0247170Y0149020D01*
X0247015Y0149058D01*
X0246861Y0149099D01*
X0246708Y0149144D01*
X0246556Y0149193D01*
X0246406Y0149246D01*
X0246257Y0149302D01*
X0246109Y0149362D01*
X0245963Y0149426D01*
X0245818Y0149494D01*
X0245675Y0149565D01*
X0245534Y0149639D01*
X0245395Y0149717D01*
X0245258Y0149799D01*
X0245123Y0149884D01*
X0244990Y0149972D01*
X0244859Y0150063D01*
X0244731Y0150158D01*
X0244605Y0150256D01*
X0244481Y0150357D01*
X0244361Y0150461D01*
X0244242Y0150568D01*
X0244127Y0150678D01*
X0244014Y0150791D01*
X0243904Y0150906D01*
X0243797Y0151025D01*
X0243693Y0151145D01*
X0243592Y0151269D01*
X0243494Y0151395D01*
X0243399Y0151523D01*
X0243308Y0151654D01*
X0243220Y0151787D01*
X0243135Y0151922D01*
X0243053Y0152059D01*
X0242975Y0152198D01*
X0242901Y0152339D01*
X0242830Y0152482D01*
X0242762Y0152627D01*
X0242698Y0152773D01*
X0242638Y0152921D01*
X0242582Y0153070D01*
X0242529Y0153220D01*
X0242480Y0153372D01*
X0242435Y0153525D01*
X0242394Y0153679D01*
X0242356Y0153834D01*
X0242323Y0153990D01*
X0242293Y0154147D01*
X0242267Y0154304D01*
X0242246Y0154462D01*
X0242228Y0154621D01*
X0242214Y0154780D01*
X0242204Y0154939D01*
X0242198Y0155098D01*
X0242196Y0155258D01*
X0242196Y0205258D02*
X0242198Y0205418D01*
X0242204Y0205577D01*
X0242214Y0205736D01*
X0242228Y0205895D01*
X0242246Y0206054D01*
X0242267Y0206212D01*
X0242293Y0206369D01*
X0242323Y0206526D01*
X0242356Y0206682D01*
X0242394Y0206837D01*
X0242435Y0206991D01*
X0242480Y0207144D01*
X0242529Y0207296D01*
X0242582Y0207446D01*
X0242638Y0207595D01*
X0242698Y0207743D01*
X0242762Y0207889D01*
X0242830Y0208034D01*
X0242901Y0208177D01*
X0242975Y0208318D01*
X0243053Y0208457D01*
X0243135Y0208594D01*
X0243220Y0208729D01*
X0243308Y0208862D01*
X0243399Y0208993D01*
X0243494Y0209121D01*
X0243592Y0209247D01*
X0243693Y0209371D01*
X0243797Y0209491D01*
X0243904Y0209610D01*
X0244014Y0209725D01*
X0244127Y0209838D01*
X0244242Y0209948D01*
X0244361Y0210055D01*
X0244481Y0210159D01*
X0244605Y0210260D01*
X0244731Y0210358D01*
X0244859Y0210453D01*
X0244990Y0210544D01*
X0245123Y0210632D01*
X0245258Y0210717D01*
X0245395Y0210799D01*
X0245534Y0210877D01*
X0245675Y0210951D01*
X0245818Y0211022D01*
X0245963Y0211090D01*
X0246109Y0211154D01*
X0246257Y0211214D01*
X0246406Y0211270D01*
X0246556Y0211323D01*
X0246708Y0211372D01*
X0246861Y0211417D01*
X0247015Y0211458D01*
X0247170Y0211496D01*
X0247326Y0211529D01*
X0247483Y0211559D01*
X0247640Y0211585D01*
X0247798Y0211606D01*
X0247957Y0211624D01*
X0248116Y0211638D01*
X0248275Y0211648D01*
X0248434Y0211654D01*
X0248594Y0211656D01*
X0248754Y0211654D01*
X0248913Y0211648D01*
X0249072Y0211638D01*
X0249231Y0211624D01*
X0249390Y0211606D01*
X0249548Y0211585D01*
X0249705Y0211559D01*
X0249862Y0211529D01*
X0250018Y0211496D01*
X0250173Y0211458D01*
X0250327Y0211417D01*
X0250480Y0211372D01*
X0250632Y0211323D01*
X0250782Y0211270D01*
X0250931Y0211214D01*
X0251079Y0211154D01*
X0251225Y0211090D01*
X0251370Y0211022D01*
X0251513Y0210951D01*
X0251654Y0210877D01*
X0251793Y0210799D01*
X0251930Y0210717D01*
X0252065Y0210632D01*
X0252198Y0210544D01*
X0252329Y0210453D01*
X0252457Y0210358D01*
X0252583Y0210260D01*
X0252707Y0210159D01*
X0252827Y0210055D01*
X0252946Y0209948D01*
X0253061Y0209838D01*
X0253174Y0209725D01*
X0253284Y0209610D01*
X0253391Y0209491D01*
X0253495Y0209371D01*
X0253596Y0209247D01*
X0253694Y0209121D01*
X0253789Y0208993D01*
X0253880Y0208862D01*
X0253968Y0208729D01*
X0254053Y0208594D01*
X0254135Y0208457D01*
X0254213Y0208318D01*
X0254287Y0208177D01*
X0254358Y0208034D01*
X0254426Y0207889D01*
X0254490Y0207743D01*
X0254550Y0207595D01*
X0254606Y0207446D01*
X0254659Y0207296D01*
X0254708Y0207144D01*
X0254753Y0206991D01*
X0254794Y0206837D01*
X0254832Y0206682D01*
X0254865Y0206526D01*
X0254895Y0206369D01*
X0254921Y0206212D01*
X0254942Y0206054D01*
X0254960Y0205895D01*
X0254974Y0205736D01*
X0254984Y0205577D01*
X0254990Y0205418D01*
X0254992Y0205258D01*
X0254990Y0205098D01*
X0254984Y0204939D01*
X0254974Y0204780D01*
X0254960Y0204621D01*
X0254942Y0204462D01*
X0254921Y0204304D01*
X0254895Y0204147D01*
X0254865Y0203990D01*
X0254832Y0203834D01*
X0254794Y0203679D01*
X0254753Y0203525D01*
X0254708Y0203372D01*
X0254659Y0203220D01*
X0254606Y0203070D01*
X0254550Y0202921D01*
X0254490Y0202773D01*
X0254426Y0202627D01*
X0254358Y0202482D01*
X0254287Y0202339D01*
X0254213Y0202198D01*
X0254135Y0202059D01*
X0254053Y0201922D01*
X0253968Y0201787D01*
X0253880Y0201654D01*
X0253789Y0201523D01*
X0253694Y0201395D01*
X0253596Y0201269D01*
X0253495Y0201145D01*
X0253391Y0201025D01*
X0253284Y0200906D01*
X0253174Y0200791D01*
X0253061Y0200678D01*
X0252946Y0200568D01*
X0252827Y0200461D01*
X0252707Y0200357D01*
X0252583Y0200256D01*
X0252457Y0200158D01*
X0252329Y0200063D01*
X0252198Y0199972D01*
X0252065Y0199884D01*
X0251930Y0199799D01*
X0251793Y0199717D01*
X0251654Y0199639D01*
X0251513Y0199565D01*
X0251370Y0199494D01*
X0251225Y0199426D01*
X0251079Y0199362D01*
X0250931Y0199302D01*
X0250782Y0199246D01*
X0250632Y0199193D01*
X0250480Y0199144D01*
X0250327Y0199099D01*
X0250173Y0199058D01*
X0250018Y0199020D01*
X0249862Y0198987D01*
X0249705Y0198957D01*
X0249548Y0198931D01*
X0249390Y0198910D01*
X0249231Y0198892D01*
X0249072Y0198878D01*
X0248913Y0198868D01*
X0248754Y0198862D01*
X0248594Y0198860D01*
X0248434Y0198862D01*
X0248275Y0198868D01*
X0248116Y0198878D01*
X0247957Y0198892D01*
X0247798Y0198910D01*
X0247640Y0198931D01*
X0247483Y0198957D01*
X0247326Y0198987D01*
X0247170Y0199020D01*
X0247015Y0199058D01*
X0246861Y0199099D01*
X0246708Y0199144D01*
X0246556Y0199193D01*
X0246406Y0199246D01*
X0246257Y0199302D01*
X0246109Y0199362D01*
X0245963Y0199426D01*
X0245818Y0199494D01*
X0245675Y0199565D01*
X0245534Y0199639D01*
X0245395Y0199717D01*
X0245258Y0199799D01*
X0245123Y0199884D01*
X0244990Y0199972D01*
X0244859Y0200063D01*
X0244731Y0200158D01*
X0244605Y0200256D01*
X0244481Y0200357D01*
X0244361Y0200461D01*
X0244242Y0200568D01*
X0244127Y0200678D01*
X0244014Y0200791D01*
X0243904Y0200906D01*
X0243797Y0201025D01*
X0243693Y0201145D01*
X0243592Y0201269D01*
X0243494Y0201395D01*
X0243399Y0201523D01*
X0243308Y0201654D01*
X0243220Y0201787D01*
X0243135Y0201922D01*
X0243053Y0202059D01*
X0242975Y0202198D01*
X0242901Y0202339D01*
X0242830Y0202482D01*
X0242762Y0202627D01*
X0242698Y0202773D01*
X0242638Y0202921D01*
X0242582Y0203070D01*
X0242529Y0203220D01*
X0242480Y0203372D01*
X0242435Y0203525D01*
X0242394Y0203679D01*
X0242356Y0203834D01*
X0242323Y0203990D01*
X0242293Y0204147D01*
X0242267Y0204304D01*
X0242246Y0204462D01*
X0242228Y0204621D01*
X0242214Y0204780D01*
X0242204Y0204939D01*
X0242198Y0205098D01*
X0242196Y0205258D01*
X0145996Y0233250D02*
X0145998Y0233436D01*
X0146005Y0233623D01*
X0146017Y0233809D01*
X0146033Y0233995D01*
X0146053Y0234180D01*
X0146078Y0234365D01*
X0146108Y0234549D01*
X0146142Y0234732D01*
X0146181Y0234915D01*
X0146224Y0235096D01*
X0146271Y0235276D01*
X0146323Y0235456D01*
X0146379Y0235633D01*
X0146440Y0235810D01*
X0146505Y0235984D01*
X0146574Y0236158D01*
X0146648Y0236329D01*
X0146725Y0236499D01*
X0146807Y0236666D01*
X0146893Y0236832D01*
X0146983Y0236995D01*
X0147077Y0237156D01*
X0147175Y0237315D01*
X0147276Y0237471D01*
X0147382Y0237625D01*
X0147491Y0237776D01*
X0147604Y0237925D01*
X0147721Y0238070D01*
X0147841Y0238213D01*
X0147964Y0238353D01*
X0148091Y0238489D01*
X0148221Y0238623D01*
X0148355Y0238753D01*
X0148491Y0238880D01*
X0148631Y0239003D01*
X0148774Y0239123D01*
X0148919Y0239240D01*
X0149068Y0239353D01*
X0149219Y0239462D01*
X0149373Y0239568D01*
X0149529Y0239669D01*
X0149688Y0239767D01*
X0149849Y0239861D01*
X0150012Y0239951D01*
X0150178Y0240037D01*
X0150345Y0240119D01*
X0150515Y0240196D01*
X0150686Y0240270D01*
X0150860Y0240339D01*
X0151034Y0240404D01*
X0151211Y0240465D01*
X0151388Y0240521D01*
X0151568Y0240573D01*
X0151748Y0240620D01*
X0151929Y0240663D01*
X0152112Y0240702D01*
X0152295Y0240736D01*
X0152479Y0240766D01*
X0152664Y0240791D01*
X0152849Y0240811D01*
X0153035Y0240827D01*
X0153221Y0240839D01*
X0153408Y0240846D01*
X0153594Y0240848D01*
X0153780Y0240846D01*
X0153967Y0240839D01*
X0154153Y0240827D01*
X0154339Y0240811D01*
X0154524Y0240791D01*
X0154709Y0240766D01*
X0154893Y0240736D01*
X0155076Y0240702D01*
X0155259Y0240663D01*
X0155440Y0240620D01*
X0155620Y0240573D01*
X0155800Y0240521D01*
X0155977Y0240465D01*
X0156154Y0240404D01*
X0156328Y0240339D01*
X0156502Y0240270D01*
X0156673Y0240196D01*
X0156843Y0240119D01*
X0157010Y0240037D01*
X0157176Y0239951D01*
X0157339Y0239861D01*
X0157500Y0239767D01*
X0157659Y0239669D01*
X0157815Y0239568D01*
X0157969Y0239462D01*
X0158120Y0239353D01*
X0158269Y0239240D01*
X0158414Y0239123D01*
X0158557Y0239003D01*
X0158697Y0238880D01*
X0158833Y0238753D01*
X0158967Y0238623D01*
X0159097Y0238489D01*
X0159224Y0238353D01*
X0159347Y0238213D01*
X0159467Y0238070D01*
X0159584Y0237925D01*
X0159697Y0237776D01*
X0159806Y0237625D01*
X0159912Y0237471D01*
X0160013Y0237315D01*
X0160111Y0237156D01*
X0160205Y0236995D01*
X0160295Y0236832D01*
X0160381Y0236666D01*
X0160463Y0236499D01*
X0160540Y0236329D01*
X0160614Y0236158D01*
X0160683Y0235984D01*
X0160748Y0235810D01*
X0160809Y0235633D01*
X0160865Y0235456D01*
X0160917Y0235276D01*
X0160964Y0235096D01*
X0161007Y0234915D01*
X0161046Y0234732D01*
X0161080Y0234549D01*
X0161110Y0234365D01*
X0161135Y0234180D01*
X0161155Y0233995D01*
X0161171Y0233809D01*
X0161183Y0233623D01*
X0161190Y0233436D01*
X0161192Y0233250D01*
X0161190Y0233064D01*
X0161183Y0232877D01*
X0161171Y0232691D01*
X0161155Y0232505D01*
X0161135Y0232320D01*
X0161110Y0232135D01*
X0161080Y0231951D01*
X0161046Y0231768D01*
X0161007Y0231585D01*
X0160964Y0231404D01*
X0160917Y0231224D01*
X0160865Y0231044D01*
X0160809Y0230867D01*
X0160748Y0230690D01*
X0160683Y0230516D01*
X0160614Y0230342D01*
X0160540Y0230171D01*
X0160463Y0230001D01*
X0160381Y0229834D01*
X0160295Y0229668D01*
X0160205Y0229505D01*
X0160111Y0229344D01*
X0160013Y0229185D01*
X0159912Y0229029D01*
X0159806Y0228875D01*
X0159697Y0228724D01*
X0159584Y0228575D01*
X0159467Y0228430D01*
X0159347Y0228287D01*
X0159224Y0228147D01*
X0159097Y0228011D01*
X0158967Y0227877D01*
X0158833Y0227747D01*
X0158697Y0227620D01*
X0158557Y0227497D01*
X0158414Y0227377D01*
X0158269Y0227260D01*
X0158120Y0227147D01*
X0157969Y0227038D01*
X0157815Y0226932D01*
X0157659Y0226831D01*
X0157500Y0226733D01*
X0157339Y0226639D01*
X0157176Y0226549D01*
X0157010Y0226463D01*
X0156843Y0226381D01*
X0156673Y0226304D01*
X0156502Y0226230D01*
X0156328Y0226161D01*
X0156154Y0226096D01*
X0155977Y0226035D01*
X0155800Y0225979D01*
X0155620Y0225927D01*
X0155440Y0225880D01*
X0155259Y0225837D01*
X0155076Y0225798D01*
X0154893Y0225764D01*
X0154709Y0225734D01*
X0154524Y0225709D01*
X0154339Y0225689D01*
X0154153Y0225673D01*
X0153967Y0225661D01*
X0153780Y0225654D01*
X0153594Y0225652D01*
X0153408Y0225654D01*
X0153221Y0225661D01*
X0153035Y0225673D01*
X0152849Y0225689D01*
X0152664Y0225709D01*
X0152479Y0225734D01*
X0152295Y0225764D01*
X0152112Y0225798D01*
X0151929Y0225837D01*
X0151748Y0225880D01*
X0151568Y0225927D01*
X0151388Y0225979D01*
X0151211Y0226035D01*
X0151034Y0226096D01*
X0150860Y0226161D01*
X0150686Y0226230D01*
X0150515Y0226304D01*
X0150345Y0226381D01*
X0150178Y0226463D01*
X0150012Y0226549D01*
X0149849Y0226639D01*
X0149688Y0226733D01*
X0149529Y0226831D01*
X0149373Y0226932D01*
X0149219Y0227038D01*
X0149068Y0227147D01*
X0148919Y0227260D01*
X0148774Y0227377D01*
X0148631Y0227497D01*
X0148491Y0227620D01*
X0148355Y0227747D01*
X0148221Y0227877D01*
X0148091Y0228011D01*
X0147964Y0228147D01*
X0147841Y0228287D01*
X0147721Y0228430D01*
X0147604Y0228575D01*
X0147491Y0228724D01*
X0147382Y0228875D01*
X0147276Y0229029D01*
X0147175Y0229185D01*
X0147077Y0229344D01*
X0146983Y0229505D01*
X0146893Y0229668D01*
X0146807Y0229834D01*
X0146725Y0230001D01*
X0146648Y0230171D01*
X0146574Y0230342D01*
X0146505Y0230516D01*
X0146440Y0230690D01*
X0146379Y0230867D01*
X0146323Y0231044D01*
X0146271Y0231224D01*
X0146224Y0231404D01*
X0146181Y0231585D01*
X0146142Y0231768D01*
X0146108Y0231951D01*
X0146078Y0232135D01*
X0146053Y0232320D01*
X0146033Y0232505D01*
X0146017Y0232691D01*
X0146005Y0232877D01*
X0145998Y0233064D01*
X0145996Y0233250D01*
X0070996Y0233250D02*
X0070998Y0233436D01*
X0071005Y0233623D01*
X0071017Y0233809D01*
X0071033Y0233995D01*
X0071053Y0234180D01*
X0071078Y0234365D01*
X0071108Y0234549D01*
X0071142Y0234732D01*
X0071181Y0234915D01*
X0071224Y0235096D01*
X0071271Y0235276D01*
X0071323Y0235456D01*
X0071379Y0235633D01*
X0071440Y0235810D01*
X0071505Y0235984D01*
X0071574Y0236158D01*
X0071648Y0236329D01*
X0071725Y0236499D01*
X0071807Y0236666D01*
X0071893Y0236832D01*
X0071983Y0236995D01*
X0072077Y0237156D01*
X0072175Y0237315D01*
X0072276Y0237471D01*
X0072382Y0237625D01*
X0072491Y0237776D01*
X0072604Y0237925D01*
X0072721Y0238070D01*
X0072841Y0238213D01*
X0072964Y0238353D01*
X0073091Y0238489D01*
X0073221Y0238623D01*
X0073355Y0238753D01*
X0073491Y0238880D01*
X0073631Y0239003D01*
X0073774Y0239123D01*
X0073919Y0239240D01*
X0074068Y0239353D01*
X0074219Y0239462D01*
X0074373Y0239568D01*
X0074529Y0239669D01*
X0074688Y0239767D01*
X0074849Y0239861D01*
X0075012Y0239951D01*
X0075178Y0240037D01*
X0075345Y0240119D01*
X0075515Y0240196D01*
X0075686Y0240270D01*
X0075860Y0240339D01*
X0076034Y0240404D01*
X0076211Y0240465D01*
X0076388Y0240521D01*
X0076568Y0240573D01*
X0076748Y0240620D01*
X0076929Y0240663D01*
X0077112Y0240702D01*
X0077295Y0240736D01*
X0077479Y0240766D01*
X0077664Y0240791D01*
X0077849Y0240811D01*
X0078035Y0240827D01*
X0078221Y0240839D01*
X0078408Y0240846D01*
X0078594Y0240848D01*
X0078780Y0240846D01*
X0078967Y0240839D01*
X0079153Y0240827D01*
X0079339Y0240811D01*
X0079524Y0240791D01*
X0079709Y0240766D01*
X0079893Y0240736D01*
X0080076Y0240702D01*
X0080259Y0240663D01*
X0080440Y0240620D01*
X0080620Y0240573D01*
X0080800Y0240521D01*
X0080977Y0240465D01*
X0081154Y0240404D01*
X0081328Y0240339D01*
X0081502Y0240270D01*
X0081673Y0240196D01*
X0081843Y0240119D01*
X0082010Y0240037D01*
X0082176Y0239951D01*
X0082339Y0239861D01*
X0082500Y0239767D01*
X0082659Y0239669D01*
X0082815Y0239568D01*
X0082969Y0239462D01*
X0083120Y0239353D01*
X0083269Y0239240D01*
X0083414Y0239123D01*
X0083557Y0239003D01*
X0083697Y0238880D01*
X0083833Y0238753D01*
X0083967Y0238623D01*
X0084097Y0238489D01*
X0084224Y0238353D01*
X0084347Y0238213D01*
X0084467Y0238070D01*
X0084584Y0237925D01*
X0084697Y0237776D01*
X0084806Y0237625D01*
X0084912Y0237471D01*
X0085013Y0237315D01*
X0085111Y0237156D01*
X0085205Y0236995D01*
X0085295Y0236832D01*
X0085381Y0236666D01*
X0085463Y0236499D01*
X0085540Y0236329D01*
X0085614Y0236158D01*
X0085683Y0235984D01*
X0085748Y0235810D01*
X0085809Y0235633D01*
X0085865Y0235456D01*
X0085917Y0235276D01*
X0085964Y0235096D01*
X0086007Y0234915D01*
X0086046Y0234732D01*
X0086080Y0234549D01*
X0086110Y0234365D01*
X0086135Y0234180D01*
X0086155Y0233995D01*
X0086171Y0233809D01*
X0086183Y0233623D01*
X0086190Y0233436D01*
X0086192Y0233250D01*
X0086190Y0233064D01*
X0086183Y0232877D01*
X0086171Y0232691D01*
X0086155Y0232505D01*
X0086135Y0232320D01*
X0086110Y0232135D01*
X0086080Y0231951D01*
X0086046Y0231768D01*
X0086007Y0231585D01*
X0085964Y0231404D01*
X0085917Y0231224D01*
X0085865Y0231044D01*
X0085809Y0230867D01*
X0085748Y0230690D01*
X0085683Y0230516D01*
X0085614Y0230342D01*
X0085540Y0230171D01*
X0085463Y0230001D01*
X0085381Y0229834D01*
X0085295Y0229668D01*
X0085205Y0229505D01*
X0085111Y0229344D01*
X0085013Y0229185D01*
X0084912Y0229029D01*
X0084806Y0228875D01*
X0084697Y0228724D01*
X0084584Y0228575D01*
X0084467Y0228430D01*
X0084347Y0228287D01*
X0084224Y0228147D01*
X0084097Y0228011D01*
X0083967Y0227877D01*
X0083833Y0227747D01*
X0083697Y0227620D01*
X0083557Y0227497D01*
X0083414Y0227377D01*
X0083269Y0227260D01*
X0083120Y0227147D01*
X0082969Y0227038D01*
X0082815Y0226932D01*
X0082659Y0226831D01*
X0082500Y0226733D01*
X0082339Y0226639D01*
X0082176Y0226549D01*
X0082010Y0226463D01*
X0081843Y0226381D01*
X0081673Y0226304D01*
X0081502Y0226230D01*
X0081328Y0226161D01*
X0081154Y0226096D01*
X0080977Y0226035D01*
X0080800Y0225979D01*
X0080620Y0225927D01*
X0080440Y0225880D01*
X0080259Y0225837D01*
X0080076Y0225798D01*
X0079893Y0225764D01*
X0079709Y0225734D01*
X0079524Y0225709D01*
X0079339Y0225689D01*
X0079153Y0225673D01*
X0078967Y0225661D01*
X0078780Y0225654D01*
X0078594Y0225652D01*
X0078408Y0225654D01*
X0078221Y0225661D01*
X0078035Y0225673D01*
X0077849Y0225689D01*
X0077664Y0225709D01*
X0077479Y0225734D01*
X0077295Y0225764D01*
X0077112Y0225798D01*
X0076929Y0225837D01*
X0076748Y0225880D01*
X0076568Y0225927D01*
X0076388Y0225979D01*
X0076211Y0226035D01*
X0076034Y0226096D01*
X0075860Y0226161D01*
X0075686Y0226230D01*
X0075515Y0226304D01*
X0075345Y0226381D01*
X0075178Y0226463D01*
X0075012Y0226549D01*
X0074849Y0226639D01*
X0074688Y0226733D01*
X0074529Y0226831D01*
X0074373Y0226932D01*
X0074219Y0227038D01*
X0074068Y0227147D01*
X0073919Y0227260D01*
X0073774Y0227377D01*
X0073631Y0227497D01*
X0073491Y0227620D01*
X0073355Y0227747D01*
X0073221Y0227877D01*
X0073091Y0228011D01*
X0072964Y0228147D01*
X0072841Y0228287D01*
X0072721Y0228430D01*
X0072604Y0228575D01*
X0072491Y0228724D01*
X0072382Y0228875D01*
X0072276Y0229029D01*
X0072175Y0229185D01*
X0072077Y0229344D01*
X0071983Y0229505D01*
X0071893Y0229668D01*
X0071807Y0229834D01*
X0071725Y0230001D01*
X0071648Y0230171D01*
X0071574Y0230342D01*
X0071505Y0230516D01*
X0071440Y0230690D01*
X0071379Y0230867D01*
X0071323Y0231044D01*
X0071271Y0231224D01*
X0071224Y0231404D01*
X0071181Y0231585D01*
X0071142Y0231768D01*
X0071108Y0231951D01*
X0071078Y0232135D01*
X0071053Y0232320D01*
X0071033Y0232505D01*
X0071017Y0232691D01*
X0071005Y0232877D01*
X0070998Y0233064D01*
X0070996Y0233250D01*
D11*
X0238594Y0194352D03*
X0176594Y0068258D03*
D12*
X0186594Y0068258D03*
X0196594Y0068258D03*
X0201594Y0058258D03*
X0191594Y0058258D03*
X0181594Y0058258D03*
X0212609Y0153250D03*
X0212609Y0162266D03*
X0231586Y0166242D03*
X0231586Y0174274D03*
X0231586Y0182305D03*
X0231586Y0190337D03*
X0238594Y0186321D03*
X0238594Y0178289D03*
X0238594Y0170258D03*
X0212609Y0198250D03*
X0212609Y0207266D03*
D13*
X0235090Y0212266D03*
X0235090Y0148250D03*
D14*
X0248594Y0245258D03*
X0028594Y0245258D03*
X0028594Y0035258D03*
X0248594Y0035258D03*
D15*
X0125405Y0057266D03*
X0113594Y0057266D03*
X0101783Y0057266D03*
D16*
X0034094Y0085258D03*
X0033094Y0095258D03*
X0024094Y0095258D03*
X0023094Y0105258D03*
X0034094Y0105258D03*
X0023094Y0085258D03*
D17*
X0114094Y0084758D02*
X0114094Y0078758D01*
X0124094Y0078758D02*
X0124094Y0084758D01*
X0134094Y0084758D02*
X0134094Y0078758D01*
D18*
X0023594Y0215258D03*
D19*
X0023594Y0205258D03*
X0023594Y0195258D03*
X0023594Y0185258D03*
X0023594Y0175258D03*
X0023594Y0165258D03*
D20*
X0138460Y0154258D03*
X0146728Y0154258D03*
X0146728Y0143258D03*
X0138460Y0143258D03*
X0138460Y0131258D03*
X0146728Y0131258D03*
D21*
X0178594Y0086604D03*
X0178594Y0079911D03*
X0084594Y0180911D03*
X0084594Y0187604D03*
X0170594Y0184911D03*
X0170594Y0191604D03*
D22*
X0128940Y0154258D03*
X0122247Y0154258D03*
X0122247Y0143258D03*
X0128940Y0143258D03*
X0128940Y0131258D03*
X0122247Y0131258D03*
X0120247Y0120258D03*
X0126940Y0120258D03*
X0140247Y0120258D03*
X0146940Y0120258D03*
X0160247Y0120258D03*
X0166940Y0120258D03*
X0166940Y0105258D03*
X0160247Y0105258D03*
X0146940Y0105258D03*
X0140247Y0105258D03*
X0126940Y0105258D03*
X0120247Y0105258D03*
X0052940Y0103258D03*
X0046247Y0103258D03*
D23*
X0215011Y0100258D03*
X0220454Y0087118D03*
X0220454Y0113398D03*
X0246733Y0113398D03*
X0252176Y0100258D03*
X0246733Y0087118D03*
D24*
X0113338Y0171990D03*
X0113338Y0188526D03*
X0093850Y0188526D03*
X0093850Y0171990D03*
X0078338Y0043526D03*
X0078338Y0026990D03*
X0058850Y0026990D03*
X0058850Y0043526D03*
D25*
X0070444Y0204234D03*
X0086743Y0204234D03*
X0145444Y0204234D03*
X0161743Y0204234D03*
D26*
X0101994Y0146281D03*
X0101994Y0143132D03*
X0101994Y0139982D03*
X0101994Y0136833D03*
X0101994Y0133683D03*
X0101994Y0130533D03*
X0101994Y0127384D03*
X0101994Y0124234D03*
X0068194Y0124234D03*
X0068194Y0127384D03*
X0068194Y0130533D03*
X0068194Y0133683D03*
X0068194Y0136833D03*
X0068194Y0139982D03*
X0068194Y0143132D03*
X0068194Y0146281D03*
D27*
X0074070Y0152158D03*
X0077220Y0152158D03*
X0080369Y0152158D03*
X0083519Y0152158D03*
X0086669Y0152158D03*
X0089818Y0152158D03*
X0092968Y0152158D03*
X0096117Y0152158D03*
X0096117Y0118358D03*
X0092968Y0118358D03*
X0089818Y0118358D03*
X0086669Y0118358D03*
X0083519Y0118358D03*
X0080369Y0118358D03*
X0077220Y0118358D03*
X0074070Y0118358D03*
D28*
X0043594Y0142758D03*
X0023594Y0142758D03*
D29*
X0162066Y0021250D03*
X0216082Y0021250D03*
D30*
X0178594Y0086604D02*
X0179107Y0087118D01*
X0220454Y0087118D01*
X0183594Y0128258D02*
X0168247Y0128258D01*
X0160247Y0120258D01*
X0158594Y0120258D01*
X0153594Y0115258D01*
X0153594Y0100258D01*
X0152283Y0098947D01*
X0149594Y0096258D01*
X0137594Y0096258D01*
X0134420Y0099431D01*
X0140247Y0105258D01*
X0140247Y0120258D01*
X0146940Y0120258D02*
X0146940Y0105258D01*
X0134420Y0099431D02*
X0130247Y0095258D01*
X0123594Y0095258D01*
X0120247Y0098604D01*
X0120247Y0105258D01*
X0120247Y0120258D01*
X0101994Y0124234D02*
X0101694Y0124158D01*
X0095394Y0124658D01*
X0092694Y0121458D02*
X0084594Y0129558D01*
X0092694Y0121458D02*
X0092694Y0118758D01*
X0092968Y0118358D01*
X0097019Y0136833D02*
X0093594Y0140258D01*
X0093594Y0145258D01*
X0078594Y0145258D01*
X0073594Y0140258D01*
X0068469Y0140258D01*
X0068194Y0139982D01*
X0068194Y0146281D02*
X0063594Y0150881D01*
X0058594Y0155258D01*
X0064794Y0163758D02*
X0071094Y0157458D01*
X0071094Y0149358D01*
X0072894Y0147558D01*
X0101994Y0147558D01*
X0101994Y0153658D01*
X0103594Y0155258D01*
X0101994Y0147558D02*
X0101994Y0146281D01*
X0101994Y0136833D02*
X0097019Y0136833D01*
X0080369Y0152158D02*
X0080369Y0163482D01*
X0068594Y0175258D01*
X0038594Y0175258D01*
X0035094Y0173658D02*
X0044994Y0163758D01*
X0064794Y0163758D01*
X0069294Y0171858D02*
X0048394Y0171858D01*
X0047394Y0170858D01*
X0037794Y0179058D02*
X0036894Y0179058D01*
X0035094Y0177258D01*
X0035094Y0173658D01*
X0037794Y0179058D02*
X0043194Y0184458D01*
X0043194Y0189858D02*
X0060294Y0189858D01*
X0060294Y0189558D01*
X0088594Y0161258D01*
X0077394Y0163758D02*
X0077394Y0152958D01*
X0077220Y0152158D01*
X0074070Y0152158D02*
X0073794Y0152958D01*
X0073794Y0161958D01*
X0077394Y0163758D02*
X0069294Y0171858D01*
X0093850Y0171990D02*
X0113338Y0171990D01*
X0160247Y0120258D02*
X0160247Y0105258D01*
X0166940Y0105258D02*
X0166940Y0120258D01*
X0183594Y0128258D02*
X0193594Y0138258D01*
X0193594Y0142758D01*
X0213594Y0180258D02*
X0221507Y0180258D01*
X0231586Y0190337D01*
D31*
X0193594Y0142758D03*
D32*
X0159594Y0094258D03*
D33*
X0155117Y0096112D02*
X0152283Y0098947D01*
X0155117Y0096112D02*
X0155229Y0096004D01*
X0155342Y0095898D01*
X0155459Y0095795D01*
X0155578Y0095695D01*
X0155699Y0095598D01*
X0155823Y0095504D01*
X0155949Y0095413D01*
X0156077Y0095325D01*
X0156207Y0095240D01*
X0156339Y0095159D01*
X0156473Y0095080D01*
X0156610Y0095006D01*
X0156748Y0094934D01*
X0156887Y0094866D01*
X0157028Y0094801D01*
X0157171Y0094740D01*
X0157316Y0094682D01*
X0157461Y0094628D01*
X0157608Y0094578D01*
X0157756Y0094531D01*
X0157905Y0094487D01*
X0158056Y0094448D01*
X0158207Y0094412D01*
X0158359Y0094380D01*
X0158512Y0094351D01*
X0158665Y0094327D01*
X0158819Y0094306D01*
X0158973Y0094288D01*
X0159128Y0094275D01*
X0159283Y0094266D01*
X0159439Y0094260D01*
X0159594Y0094258D01*
X0178594Y0100258D02*
X0148594Y0070258D01*
X0151452Y0070258D01*
X0148594Y0070258D02*
X0118594Y0070258D01*
X0113594Y0075258D01*
X0113594Y0081258D01*
X0114094Y0081758D01*
X0151452Y0070258D02*
X0151690Y0070255D01*
X0151928Y0070247D01*
X0152165Y0070233D01*
X0152403Y0070213D01*
X0152639Y0070187D01*
X0152875Y0070156D01*
X0153110Y0070120D01*
X0153345Y0070077D01*
X0153578Y0070029D01*
X0153810Y0069976D01*
X0154040Y0069917D01*
X0154269Y0069853D01*
X0154497Y0069783D01*
X0154723Y0069708D01*
X0154947Y0069627D01*
X0155169Y0069542D01*
X0155389Y0069451D01*
X0155606Y0069354D01*
X0155821Y0069253D01*
X0156034Y0069146D01*
X0156244Y0069035D01*
X0156452Y0068918D01*
X0156657Y0068797D01*
X0156858Y0068671D01*
X0157057Y0068539D01*
X0157253Y0068404D01*
X0157445Y0068263D01*
X0157634Y0068119D01*
X0157819Y0067969D01*
X0158001Y0067815D01*
X0158179Y0067658D01*
X0158353Y0067495D01*
X0158523Y0067329D01*
X0167594Y0058258D01*
X0181594Y0058258D01*
X0181594Y0050258D01*
X0186422Y0048258D02*
X0213594Y0048258D01*
X0215594Y0053086D02*
X0215594Y0062258D01*
X0212523Y0065329D01*
X0205452Y0068258D02*
X0196594Y0068258D01*
X0189594Y0063086D02*
X0189596Y0062918D01*
X0189602Y0062751D01*
X0189613Y0062584D01*
X0189627Y0062417D01*
X0189645Y0062250D01*
X0189668Y0062084D01*
X0189695Y0061919D01*
X0189725Y0061754D01*
X0189760Y0061590D01*
X0189799Y0061427D01*
X0189841Y0061265D01*
X0189888Y0061104D01*
X0189939Y0060944D01*
X0189993Y0060786D01*
X0190052Y0060629D01*
X0190114Y0060473D01*
X0190180Y0060319D01*
X0190250Y0060167D01*
X0190323Y0060016D01*
X0190400Y0059867D01*
X0190481Y0059720D01*
X0190565Y0059576D01*
X0190653Y0059433D01*
X0190745Y0059293D01*
X0190840Y0059154D01*
X0190938Y0059019D01*
X0191039Y0058885D01*
X0191144Y0058754D01*
X0191252Y0058626D01*
X0191363Y0058501D01*
X0191477Y0058378D01*
X0191594Y0058258D01*
X0189594Y0063086D02*
X0189594Y0064258D01*
X0187301Y0066551D01*
X0187235Y0066619D01*
X0187172Y0066690D01*
X0187112Y0066764D01*
X0187055Y0066839D01*
X0187001Y0066917D01*
X0186950Y0066997D01*
X0186902Y0067078D01*
X0186857Y0067162D01*
X0186816Y0067247D01*
X0186778Y0067334D01*
X0186743Y0067422D01*
X0186712Y0067512D01*
X0186685Y0067603D01*
X0186661Y0067694D01*
X0186640Y0067787D01*
X0186624Y0067880D01*
X0186611Y0067974D01*
X0186601Y0068069D01*
X0186596Y0068163D01*
X0186594Y0068258D01*
X0181594Y0050258D02*
X0181710Y0050144D01*
X0181829Y0050034D01*
X0181951Y0049926D01*
X0182075Y0049821D01*
X0182201Y0049719D01*
X0182330Y0049620D01*
X0182461Y0049524D01*
X0182595Y0049431D01*
X0182731Y0049342D01*
X0182868Y0049256D01*
X0183008Y0049173D01*
X0183150Y0049093D01*
X0183293Y0049017D01*
X0183439Y0048944D01*
X0183586Y0048875D01*
X0183734Y0048809D01*
X0183884Y0048747D01*
X0184036Y0048689D01*
X0184189Y0048634D01*
X0184343Y0048582D01*
X0184498Y0048535D01*
X0184655Y0048491D01*
X0184812Y0048450D01*
X0184971Y0048414D01*
X0185130Y0048381D01*
X0185290Y0048353D01*
X0185450Y0048327D01*
X0185611Y0048306D01*
X0185773Y0048289D01*
X0185935Y0048275D01*
X0186097Y0048266D01*
X0186260Y0048260D01*
X0186422Y0048258D01*
X0205452Y0068258D02*
X0205690Y0068255D01*
X0205928Y0068247D01*
X0206165Y0068233D01*
X0206403Y0068213D01*
X0206639Y0068187D01*
X0206875Y0068156D01*
X0207110Y0068120D01*
X0207345Y0068077D01*
X0207578Y0068029D01*
X0207810Y0067976D01*
X0208040Y0067917D01*
X0208269Y0067853D01*
X0208497Y0067783D01*
X0208723Y0067708D01*
X0208947Y0067627D01*
X0209169Y0067542D01*
X0209389Y0067451D01*
X0209606Y0067354D01*
X0209821Y0067253D01*
X0210034Y0067146D01*
X0210244Y0067035D01*
X0210452Y0066918D01*
X0210657Y0066797D01*
X0210858Y0066671D01*
X0211057Y0066539D01*
X0211253Y0066404D01*
X0211445Y0066263D01*
X0211634Y0066119D01*
X0211819Y0065969D01*
X0212001Y0065815D01*
X0212179Y0065658D01*
X0212353Y0065495D01*
X0212523Y0065329D01*
X0215593Y0053086D02*
X0215591Y0052924D01*
X0215585Y0052761D01*
X0215576Y0052599D01*
X0215562Y0052437D01*
X0215545Y0052275D01*
X0215524Y0052114D01*
X0215498Y0051954D01*
X0215470Y0051794D01*
X0215437Y0051635D01*
X0215401Y0051476D01*
X0215360Y0051319D01*
X0215316Y0051162D01*
X0215269Y0051007D01*
X0215217Y0050853D01*
X0215162Y0050700D01*
X0215104Y0050548D01*
X0215042Y0050398D01*
X0214976Y0050250D01*
X0214907Y0050103D01*
X0214834Y0049957D01*
X0214758Y0049814D01*
X0214678Y0049672D01*
X0214595Y0049532D01*
X0214509Y0049395D01*
X0214420Y0049259D01*
X0214327Y0049125D01*
X0214231Y0048994D01*
X0214132Y0048865D01*
X0214030Y0048739D01*
X0213925Y0048615D01*
X0213817Y0048493D01*
X0213707Y0048374D01*
X0213593Y0048258D01*
X0178594Y0100258D02*
X0178594Y0115258D01*
X0206094Y0142758D01*
X0213594Y0142758D01*
X0221094Y0150258D01*
X0221094Y0167758D01*
X0227609Y0174274D01*
X0231586Y0174274D01*
D34*
X0228559Y0178274D02*
X0226814Y0178274D01*
X0225344Y0177665D01*
X0218828Y0171149D01*
X0217703Y0170024D01*
X0217094Y0168554D01*
X0217094Y0164423D01*
X0216822Y0165080D01*
X0215424Y0166478D01*
X0213598Y0167234D01*
X0211621Y0167234D01*
X0209795Y0166478D01*
X0208397Y0165080D01*
X0207641Y0163254D01*
X0207641Y0161277D01*
X0208397Y0159451D01*
X0209795Y0158054D01*
X0210509Y0157758D01*
X0209795Y0157462D01*
X0208397Y0156064D01*
X0207641Y0154238D01*
X0207641Y0152262D01*
X0208397Y0150436D01*
X0209795Y0149038D01*
X0211621Y0148281D01*
X0213460Y0148281D01*
X0211937Y0146758D01*
X0205298Y0146758D01*
X0203828Y0146149D01*
X0196094Y0138415D01*
X0196094Y0138977D01*
X0196203Y0138977D01*
X0197375Y0140148D01*
X0197375Y0145367D01*
X0196203Y0146539D01*
X0190984Y0146539D01*
X0189813Y0145367D01*
X0189813Y0140148D01*
X0190881Y0139080D01*
X0182558Y0130758D01*
X0167750Y0130758D01*
X0166831Y0130377D01*
X0160680Y0124226D01*
X0157253Y0124226D01*
X0156082Y0123055D01*
X0156082Y0121282D01*
X0152178Y0117377D01*
X0151474Y0116674D01*
X0151094Y0115755D01*
X0151094Y0102784D01*
X0150801Y0102663D01*
X0150905Y0103052D01*
X0150905Y0105074D01*
X0147124Y0105074D01*
X0147124Y0101489D01*
X0149168Y0101489D01*
X0148891Y0101213D01*
X0148283Y0099742D01*
X0148283Y0098758D01*
X0138629Y0098758D01*
X0137956Y0099431D01*
X0139814Y0101289D01*
X0143241Y0101289D01*
X0143753Y0101801D01*
X0144080Y0101612D01*
X0144538Y0101489D01*
X0146756Y0101489D01*
X0146756Y0105074D01*
X0147124Y0105074D01*
X0147124Y0105442D01*
X0146756Y0105442D01*
X0146756Y0109026D01*
X0144538Y0109026D01*
X0144080Y0108904D01*
X0143753Y0108715D01*
X0143241Y0109226D01*
X0142747Y0109226D01*
X0142747Y0116289D01*
X0143241Y0116289D01*
X0143753Y0116801D01*
X0144080Y0116612D01*
X0144538Y0116489D01*
X0146756Y0116489D01*
X0146756Y0120074D01*
X0147124Y0120074D01*
X0147124Y0116489D01*
X0149342Y0116489D01*
X0149800Y0116612D01*
X0150211Y0116849D01*
X0150546Y0117184D01*
X0150783Y0117595D01*
X0150905Y0118052D01*
X0150905Y0120074D01*
X0147124Y0120074D01*
X0147124Y0120442D01*
X0146756Y0120442D01*
X0146756Y0124026D01*
X0144538Y0124026D01*
X0144080Y0123904D01*
X0143753Y0123715D01*
X0143241Y0124226D01*
X0137253Y0124226D01*
X0136082Y0123055D01*
X0136082Y0117461D01*
X0137253Y0116289D01*
X0137747Y0116289D01*
X0137747Y0109226D01*
X0137253Y0109226D01*
X0136082Y0108055D01*
X0136082Y0104628D01*
X0133004Y0101550D01*
X0132301Y0100847D01*
X0129212Y0097758D01*
X0124629Y0097758D01*
X0122747Y0099640D01*
X0122747Y0101289D01*
X0123241Y0101289D01*
X0123753Y0101801D01*
X0124080Y0101612D01*
X0124538Y0101489D01*
X0126756Y0101489D01*
X0126756Y0105074D01*
X0127124Y0105074D01*
X0127124Y0101489D01*
X0129342Y0101489D01*
X0129800Y0101612D01*
X0130211Y0101849D01*
X0130546Y0102184D01*
X0130783Y0102595D01*
X0130905Y0103052D01*
X0130905Y0105074D01*
X0127124Y0105074D01*
X0127124Y0105442D01*
X0126756Y0105442D01*
X0126756Y0109026D01*
X0124538Y0109026D01*
X0124080Y0108904D01*
X0123753Y0108715D01*
X0123241Y0109226D01*
X0122747Y0109226D01*
X0122747Y0116289D01*
X0123241Y0116289D01*
X0123753Y0116801D01*
X0124080Y0116612D01*
X0124538Y0116489D01*
X0126756Y0116489D01*
X0126756Y0120074D01*
X0127124Y0120074D01*
X0127124Y0116489D01*
X0129342Y0116489D01*
X0129800Y0116612D01*
X0130211Y0116849D01*
X0130546Y0117184D01*
X0130783Y0117595D01*
X0130905Y0118052D01*
X0130905Y0120074D01*
X0127124Y0120074D01*
X0127124Y0120442D01*
X0126756Y0120442D01*
X0126756Y0124026D01*
X0124538Y0124026D01*
X0124080Y0123904D01*
X0123753Y0123715D01*
X0123241Y0124226D01*
X0117253Y0124226D01*
X0116082Y0123055D01*
X0116082Y0117461D01*
X0117253Y0116289D01*
X0117747Y0116289D01*
X0117747Y0109226D01*
X0117253Y0109226D01*
X0116082Y0108055D01*
X0116082Y0102461D01*
X0117253Y0101289D01*
X0117747Y0101289D01*
X0117747Y0098107D01*
X0118128Y0097188D01*
X0121474Y0093842D01*
X0122178Y0093138D01*
X0123096Y0092758D01*
X0130745Y0092758D01*
X0131663Y0093138D01*
X0134420Y0095896D01*
X0136178Y0094138D01*
X0137096Y0093758D01*
X0150091Y0093758D01*
X0151010Y0094138D01*
X0151222Y0094351D01*
X0152851Y0092721D01*
X0152851Y0092721D01*
X0153250Y0092322D01*
X0153250Y0092322D01*
X0155606Y0090962D01*
X0155606Y0090962D01*
X0158234Y0090258D01*
X0160389Y0090258D01*
X0161860Y0090867D01*
X0162985Y0091992D01*
X0163594Y0093462D01*
X0163594Y0095054D01*
X0162985Y0096524D01*
X0161860Y0097649D01*
X0160389Y0098258D01*
X0159594Y0098258D01*
X0159289Y0098278D01*
X0158702Y0098435D01*
X0158175Y0098740D01*
X0157946Y0098941D01*
X0156094Y0100792D01*
X0156094Y0102449D01*
X0157253Y0101289D01*
X0163241Y0101289D01*
X0163753Y0101801D01*
X0164080Y0101612D01*
X0164538Y0101489D01*
X0166756Y0101489D01*
X0166756Y0105074D01*
X0167124Y0105074D01*
X0167124Y0101489D01*
X0169342Y0101489D01*
X0169800Y0101612D01*
X0170211Y0101849D01*
X0170546Y0102184D01*
X0170783Y0102595D01*
X0170905Y0103052D01*
X0170905Y0105074D01*
X0167124Y0105074D01*
X0167124Y0105442D01*
X0166756Y0105442D01*
X0166756Y0109026D01*
X0164538Y0109026D01*
X0164080Y0108904D01*
X0163753Y0108715D01*
X0163241Y0109226D01*
X0162747Y0109226D01*
X0162747Y0116289D01*
X0163241Y0116289D01*
X0163753Y0116801D01*
X0164080Y0116612D01*
X0164538Y0116489D01*
X0166756Y0116489D01*
X0166756Y0120074D01*
X0167124Y0120074D01*
X0167124Y0116489D01*
X0169342Y0116489D01*
X0169800Y0116612D01*
X0170211Y0116849D01*
X0170546Y0117184D01*
X0170783Y0117595D01*
X0170905Y0118052D01*
X0170905Y0120074D01*
X0167124Y0120074D01*
X0167124Y0120442D01*
X0170905Y0120442D01*
X0170905Y0122463D01*
X0170783Y0122921D01*
X0170546Y0123332D01*
X0170211Y0123667D01*
X0169800Y0123904D01*
X0169342Y0124026D01*
X0167551Y0124026D01*
X0169283Y0125758D01*
X0183437Y0125758D01*
X0176328Y0118649D01*
X0175203Y0117524D01*
X0174594Y0116054D01*
X0174594Y0101915D01*
X0146937Y0074258D01*
X0135777Y0074258D01*
X0135936Y0074310D01*
X0136609Y0074653D01*
X0137221Y0075097D01*
X0137755Y0075631D01*
X0138199Y0076242D01*
X0138542Y0076915D01*
X0138775Y0077634D01*
X0138894Y0078380D01*
X0138894Y0081558D01*
X0134294Y0081558D01*
X0134294Y0081958D01*
X0138894Y0081958D01*
X0138894Y0085136D01*
X0138775Y0085882D01*
X0138542Y0086600D01*
X0138199Y0087274D01*
X0137755Y0087885D01*
X0137221Y0088419D01*
X0136609Y0088863D01*
X0135936Y0089206D01*
X0135218Y0089440D01*
X0134471Y0089558D01*
X0134294Y0089558D01*
X0134294Y0081958D01*
X0133894Y0081958D01*
X0133894Y0089558D01*
X0133716Y0089558D01*
X0132970Y0089440D01*
X0132251Y0089206D01*
X0131578Y0088863D01*
X0130967Y0088419D01*
X0130432Y0087885D01*
X0129988Y0087274D01*
X0129645Y0086600D01*
X0129412Y0085882D01*
X0129294Y0085136D01*
X0129294Y0081958D01*
X0133894Y0081958D01*
X0133894Y0081558D01*
X0129294Y0081558D01*
X0129294Y0078380D01*
X0129412Y0077634D01*
X0129645Y0076915D01*
X0129988Y0076242D01*
X0130432Y0075631D01*
X0130967Y0075097D01*
X0131578Y0074653D01*
X0132251Y0074310D01*
X0132410Y0074258D01*
X0126295Y0074258D01*
X0126926Y0074519D01*
X0128332Y0075926D01*
X0129094Y0077763D01*
X0129094Y0085752D01*
X0128332Y0087590D01*
X0126926Y0088997D01*
X0125088Y0089758D01*
X0123099Y0089758D01*
X0121261Y0088997D01*
X0119855Y0087590D01*
X0119094Y0085752D01*
X0119094Y0077763D01*
X0119855Y0075926D01*
X0121261Y0074519D01*
X0121892Y0074258D01*
X0120251Y0074258D01*
X0118406Y0076103D01*
X0119094Y0077763D01*
X0119094Y0085752D01*
X0118332Y0087590D01*
X0116926Y0088997D01*
X0115088Y0089758D01*
X0113099Y0089758D01*
X0111261Y0088997D01*
X0109855Y0087590D01*
X0109094Y0085752D01*
X0109094Y0077763D01*
X0109594Y0076556D01*
X0109594Y0074462D01*
X0110203Y0072992D01*
X0111328Y0071867D01*
X0116328Y0066867D01*
X0117798Y0066258D01*
X0151452Y0066258D01*
X0152235Y0066207D01*
X0153748Y0065801D01*
X0155104Y0065018D01*
X0155694Y0064501D01*
X0164203Y0055992D01*
X0165328Y0054867D01*
X0166798Y0054258D01*
X0177594Y0054258D01*
X0177594Y0049462D01*
X0178203Y0047992D01*
X0179328Y0046867D01*
X0179773Y0046421D01*
X0182243Y0044996D01*
X0184997Y0044258D01*
X0214389Y0044258D01*
X0215860Y0044867D01*
X0216985Y0045992D01*
X0217430Y0046437D01*
X0217430Y0046437D01*
X0218856Y0048907D01*
X0219594Y0051661D01*
X0219594Y0063054D01*
X0218985Y0064524D01*
X0217860Y0065649D01*
X0214788Y0068720D01*
X0214048Y0069461D01*
X0210855Y0071304D01*
X0207295Y0072258D01*
X0199620Y0072258D01*
X0199408Y0072470D01*
X0197582Y0073226D01*
X0195605Y0073226D01*
X0193779Y0072470D01*
X0192382Y0071072D01*
X0191625Y0069246D01*
X0191625Y0067883D01*
X0191562Y0067946D01*
X0191562Y0069246D01*
X0190806Y0071072D01*
X0189408Y0072470D01*
X0187582Y0073226D01*
X0185605Y0073226D01*
X0183779Y0072470D01*
X0182382Y0071072D01*
X0181625Y0069246D01*
X0181625Y0067270D01*
X0182382Y0065443D01*
X0183779Y0064046D01*
X0184410Y0063784D01*
X0185594Y0062601D01*
X0185594Y0061661D01*
X0185731Y0061147D01*
X0184408Y0062470D01*
X0182582Y0063226D01*
X0180605Y0063226D01*
X0178779Y0062470D01*
X0178567Y0062258D01*
X0169251Y0062258D01*
X0160788Y0070720D01*
X0160048Y0071461D01*
X0160048Y0071461D01*
X0157135Y0073142D01*
X0181985Y0097992D01*
X0182594Y0099462D01*
X0182594Y0113601D01*
X0207751Y0138758D01*
X0214389Y0138758D01*
X0215860Y0139367D01*
X0216985Y0140492D01*
X0224485Y0147992D01*
X0225094Y0149462D01*
X0225094Y0166101D01*
X0226896Y0167903D01*
X0226617Y0167230D01*
X0226617Y0165254D01*
X0227374Y0163428D01*
X0228771Y0162030D01*
X0230598Y0161274D01*
X0232574Y0161274D01*
X0234400Y0162030D01*
X0235798Y0163428D01*
X0236554Y0165254D01*
X0236554Y0165725D01*
X0237605Y0165289D01*
X0239582Y0165289D01*
X0241408Y0166046D01*
X0242806Y0167443D01*
X0243562Y0169270D01*
X0243562Y0171246D01*
X0242806Y0173072D01*
X0241425Y0174453D01*
X0241700Y0174652D01*
X0242231Y0175183D01*
X0242672Y0175790D01*
X0243013Y0176459D01*
X0243245Y0177173D01*
X0243362Y0177914D01*
X0243362Y0178105D01*
X0238778Y0178105D01*
X0238778Y0178474D01*
X0243362Y0178474D01*
X0243362Y0178665D01*
X0243245Y0179406D01*
X0243013Y0180120D01*
X0242672Y0180789D01*
X0242231Y0181396D01*
X0241700Y0181927D01*
X0241425Y0182126D01*
X0242806Y0183506D01*
X0243562Y0185333D01*
X0243562Y0187309D01*
X0242806Y0189135D01*
X0242474Y0189467D01*
X0243562Y0190555D01*
X0243562Y0198149D01*
X0242391Y0199321D01*
X0234797Y0199321D01*
X0234134Y0198658D01*
X0227116Y0198658D01*
X0226234Y0198292D01*
X0225559Y0197617D01*
X0215253Y0187311D01*
X0174562Y0187311D01*
X0174562Y0187905D01*
X0174051Y0188417D01*
X0174240Y0188744D01*
X0174362Y0189202D01*
X0174362Y0191420D01*
X0170778Y0191420D01*
X0170778Y0191789D01*
X0170409Y0191789D01*
X0170409Y0191420D01*
X0166825Y0191420D01*
X0166825Y0189202D01*
X0166948Y0188744D01*
X0167137Y0188417D01*
X0166625Y0187905D01*
X0166625Y0181918D01*
X0167242Y0181301D01*
X0165559Y0179617D01*
X0165194Y0178735D01*
X0165194Y0155252D01*
X0150890Y0140948D01*
X0150890Y0142877D01*
X0147109Y0142877D01*
X0147109Y0143639D01*
X0150890Y0143639D01*
X0150890Y0145857D01*
X0150767Y0146315D01*
X0150530Y0146725D01*
X0150195Y0147060D01*
X0149785Y0147297D01*
X0149327Y0147420D01*
X0147109Y0147420D01*
X0147109Y0143639D01*
X0146346Y0143639D01*
X0146346Y0147420D01*
X0144128Y0147420D01*
X0143671Y0147297D01*
X0143260Y0147060D01*
X0142925Y0146725D01*
X0142786Y0146485D01*
X0141650Y0147620D01*
X0135269Y0147620D01*
X0134098Y0146448D01*
X0134098Y0145658D01*
X0133105Y0145658D01*
X0133105Y0146055D01*
X0131934Y0147226D01*
X0125946Y0147226D01*
X0125594Y0146874D01*
X0125241Y0147226D01*
X0121673Y0147226D01*
X0117994Y0150906D01*
X0117994Y0156735D01*
X0117628Y0157617D01*
X0116953Y0158292D01*
X0113388Y0161858D01*
X0118600Y0161858D01*
X0119847Y0160610D01*
X0119847Y0158226D01*
X0119253Y0158226D01*
X0118082Y0157055D01*
X0118082Y0151461D01*
X0119253Y0150289D01*
X0125241Y0150289D01*
X0125594Y0150642D01*
X0125946Y0150289D01*
X0131934Y0150289D01*
X0133105Y0151461D01*
X0133105Y0151858D01*
X0134098Y0151858D01*
X0134098Y0151067D01*
X0135269Y0149896D01*
X0141650Y0149896D01*
X0142786Y0151031D01*
X0142925Y0150790D01*
X0143260Y0150455D01*
X0143671Y0150218D01*
X0144128Y0150096D01*
X0146346Y0150096D01*
X0146346Y0153877D01*
X0147109Y0153877D01*
X0147109Y0154639D01*
X0150890Y0154639D01*
X0150890Y0156857D01*
X0150767Y0157315D01*
X0150530Y0157725D01*
X0150195Y0158060D01*
X0149785Y0158297D01*
X0149327Y0158420D01*
X0147109Y0158420D01*
X0147109Y0154639D01*
X0146346Y0154639D01*
X0146346Y0158420D01*
X0144128Y0158420D01*
X0143671Y0158297D01*
X0143260Y0158060D01*
X0142925Y0157725D01*
X0142786Y0157485D01*
X0141650Y0158620D01*
X0135269Y0158620D01*
X0134098Y0157448D01*
X0134098Y0156658D01*
X0133105Y0156658D01*
X0133105Y0157055D01*
X0131934Y0158226D01*
X0125946Y0158226D01*
X0125594Y0157874D01*
X0125241Y0158226D01*
X0124647Y0158226D01*
X0124647Y0162082D01*
X0124282Y0162964D01*
X0121628Y0165617D01*
X0121588Y0165658D01*
X0122503Y0165658D01*
X0123154Y0165006D01*
X0124478Y0164458D01*
X0125910Y0164458D01*
X0127233Y0165006D01*
X0128246Y0166019D01*
X0128794Y0167342D01*
X0128794Y0168774D01*
X0128246Y0170097D01*
X0127233Y0171110D01*
X0125910Y0171658D01*
X0124478Y0171658D01*
X0123154Y0171110D01*
X0122503Y0170458D01*
X0117306Y0170458D01*
X0117306Y0174787D01*
X0116135Y0175959D01*
X0110541Y0175959D01*
X0109369Y0174787D01*
X0109369Y0174490D01*
X0097818Y0174490D01*
X0097818Y0174787D01*
X0096647Y0175959D01*
X0092941Y0175959D01*
X0088562Y0180337D01*
X0088562Y0183905D01*
X0088210Y0184258D01*
X0088562Y0184611D01*
X0088562Y0190598D01*
X0087391Y0191770D01*
X0085476Y0191770D01*
X0081271Y0195975D01*
X0083396Y0198100D01*
X0088917Y0198100D01*
X0094346Y0192672D01*
X0094724Y0192294D01*
X0094034Y0192294D01*
X0094034Y0188710D01*
X0093665Y0188710D01*
X0093665Y0188341D01*
X0094034Y0188341D01*
X0094034Y0184757D01*
X0096055Y0184757D01*
X0096513Y0184880D01*
X0096923Y0185117D01*
X0097258Y0185452D01*
X0097495Y0185862D01*
X0097618Y0186320D01*
X0097618Y0188341D01*
X0094034Y0188341D01*
X0094034Y0188710D01*
X0097618Y0188710D01*
X0097618Y0190731D01*
X0097495Y0191189D01*
X0097340Y0191458D01*
X0109847Y0191458D01*
X0109692Y0191189D01*
X0109569Y0190731D01*
X0109569Y0188710D01*
X0113153Y0188710D01*
X0113153Y0188341D01*
X0109569Y0188341D01*
X0109569Y0186320D01*
X0109692Y0185862D01*
X0109929Y0185452D01*
X0110264Y0185117D01*
X0110675Y0184880D01*
X0111132Y0184757D01*
X0113154Y0184757D01*
X0113154Y0188341D01*
X0113522Y0188341D01*
X0113522Y0184757D01*
X0115543Y0184757D01*
X0116001Y0184880D01*
X0116412Y0185117D01*
X0116747Y0185452D01*
X0116984Y0185862D01*
X0117106Y0186320D01*
X0117106Y0188341D01*
X0113522Y0188341D01*
X0113522Y0188710D01*
X0117106Y0188710D01*
X0117106Y0190731D01*
X0116984Y0191189D01*
X0116828Y0191458D01*
X0120434Y0191458D01*
X0121220Y0190672D01*
X0121220Y0190672D01*
X0122008Y0189884D01*
X0123037Y0189458D01*
X0154151Y0189458D01*
X0155180Y0189884D01*
X0163329Y0198034D01*
X0163329Y0198034D01*
X0163396Y0198100D01*
X0166706Y0198100D01*
X0167877Y0199272D01*
X0167877Y0209197D01*
X0166706Y0210368D01*
X0156781Y0210368D01*
X0155609Y0209197D01*
X0155609Y0199272D01*
X0156129Y0198753D01*
X0152434Y0195058D01*
X0132241Y0195058D01*
X0132799Y0195616D01*
X0133375Y0197006D01*
X0133375Y0198510D01*
X0132799Y0199900D01*
X0131736Y0200963D01*
X0130346Y0201539D01*
X0128842Y0201539D01*
X0127452Y0200963D01*
X0126388Y0199900D01*
X0125874Y0198658D01*
X0100588Y0198658D01*
X0097994Y0201252D01*
X0097994Y0210735D01*
X0097628Y0211617D01*
X0096953Y0212292D01*
X0095628Y0213617D01*
X0094953Y0214292D01*
X0094071Y0214658D01*
X0077116Y0214658D01*
X0076234Y0214292D01*
X0072310Y0210368D01*
X0065482Y0210368D01*
X0064310Y0209197D01*
X0064310Y0199272D01*
X0064524Y0199058D01*
X0041037Y0199058D01*
X0040008Y0198632D01*
X0028847Y0187471D01*
X0028426Y0188487D01*
X0026822Y0190090D01*
X0026417Y0190258D01*
X0026822Y0190426D01*
X0028426Y0192029D01*
X0029294Y0194124D01*
X0029294Y0196392D01*
X0028426Y0198487D01*
X0026822Y0200090D01*
X0026417Y0200258D01*
X0026822Y0200426D01*
X0028426Y0202029D01*
X0029294Y0204124D01*
X0029294Y0206392D01*
X0028426Y0208487D01*
X0027355Y0209558D01*
X0028122Y0209558D01*
X0029294Y0210729D01*
X0029294Y0219786D01*
X0028122Y0220958D01*
X0019065Y0220958D01*
X0017894Y0219786D01*
X0017894Y0210729D01*
X0019065Y0209558D01*
X0019833Y0209558D01*
X0018761Y0208487D01*
X0017894Y0206392D01*
X0017894Y0204124D01*
X0018761Y0202029D01*
X0020365Y0200426D01*
X0020770Y0200258D01*
X0020365Y0200090D01*
X0018761Y0198487D01*
X0017894Y0196392D01*
X0017894Y0194124D01*
X0018761Y0192029D01*
X0020365Y0190426D01*
X0020770Y0190258D01*
X0020365Y0190090D01*
X0018761Y0188487D01*
X0017894Y0186392D01*
X0017894Y0184124D01*
X0018761Y0182029D01*
X0020365Y0180426D01*
X0020770Y0180258D01*
X0020365Y0180090D01*
X0018761Y0178487D01*
X0017894Y0176392D01*
X0017894Y0174124D01*
X0018761Y0172029D01*
X0020365Y0170426D01*
X0021058Y0170139D01*
X0020711Y0169962D01*
X0020011Y0169453D01*
X0019399Y0168841D01*
X0018890Y0168141D01*
X0018497Y0167369D01*
X0018229Y0166546D01*
X0018094Y0165691D01*
X0018094Y0165458D01*
X0023394Y0165458D01*
X0023394Y0165058D01*
X0023794Y0165058D01*
X0023794Y0165458D01*
X0029094Y0165458D01*
X0029094Y0165691D01*
X0028958Y0166546D01*
X0028691Y0167369D01*
X0028298Y0168141D01*
X0027789Y0168841D01*
X0027177Y0169453D01*
X0026476Y0169962D01*
X0026129Y0170139D01*
X0026822Y0170426D01*
X0028426Y0172029D01*
X0028794Y0172917D01*
X0028794Y0167701D01*
X0029220Y0166672D01*
X0030008Y0165884D01*
X0059917Y0135975D01*
X0059559Y0135617D01*
X0059194Y0134735D01*
X0059194Y0131780D01*
X0059559Y0130898D01*
X0060000Y0130458D01*
X0058988Y0130458D01*
X0048518Y0140928D01*
X0048844Y0141714D01*
X0048844Y0143802D01*
X0048044Y0145732D01*
X0046568Y0147209D01*
X0044638Y0148008D01*
X0042549Y0148008D01*
X0040620Y0147209D01*
X0039143Y0145732D01*
X0038344Y0143802D01*
X0038344Y0141714D01*
X0039143Y0139784D01*
X0040620Y0138307D01*
X0042549Y0137508D01*
X0044638Y0137508D01*
X0045000Y0137658D01*
X0050000Y0132658D01*
X0040588Y0132658D01*
X0028453Y0144792D01*
X0028429Y0144802D01*
X0028044Y0145732D01*
X0026568Y0147209D01*
X0024638Y0148008D01*
X0022549Y0148008D01*
X0020620Y0147209D01*
X0019143Y0145732D01*
X0018344Y0143802D01*
X0018344Y0141714D01*
X0019143Y0139784D01*
X0020620Y0138307D01*
X0022549Y0137508D01*
X0024638Y0137508D01*
X0026568Y0138307D01*
X0027359Y0139099D01*
X0037559Y0128898D01*
X0038234Y0128223D01*
X0039116Y0127858D01*
X0050600Y0127858D01*
X0055559Y0122898D01*
X0056234Y0122223D01*
X0057116Y0121858D01*
X0064142Y0121858D01*
X0064865Y0121134D01*
X0070970Y0121134D01*
X0070970Y0115029D01*
X0072142Y0113858D01*
X0075800Y0113858D01*
X0074600Y0112658D01*
X0059463Y0112658D01*
X0058581Y0112292D01*
X0058368Y0112080D01*
X0058394Y0112142D01*
X0058394Y0113574D01*
X0057846Y0114897D01*
X0056833Y0115910D01*
X0055510Y0116458D01*
X0054078Y0116458D01*
X0052754Y0115910D01*
X0052103Y0115258D01*
X0030316Y0115258D01*
X0029434Y0114892D01*
X0024744Y0110203D01*
X0024128Y0110458D01*
X0022059Y0110458D01*
X0020148Y0109666D01*
X0018685Y0108203D01*
X0017894Y0106292D01*
X0017894Y0104224D01*
X0018685Y0102312D01*
X0020148Y0100850D01*
X0022059Y0100058D01*
X0022094Y0100058D01*
X0021148Y0099666D01*
X0019685Y0098203D01*
X0018894Y0096292D01*
X0018894Y0094224D01*
X0019685Y0092312D01*
X0021148Y0090850D01*
X0022094Y0090458D01*
X0022059Y0090458D01*
X0020148Y0089666D01*
X0018685Y0088203D01*
X0017894Y0086292D01*
X0017894Y0084224D01*
X0018685Y0082312D01*
X0020148Y0080850D01*
X0022059Y0080058D01*
X0024128Y0080058D01*
X0026039Y0080850D01*
X0027502Y0082312D01*
X0028294Y0084224D01*
X0028294Y0086292D01*
X0027502Y0088203D01*
X0026039Y0089666D01*
X0025094Y0090058D01*
X0025128Y0090058D01*
X0027039Y0090850D01*
X0028502Y0092312D01*
X0028594Y0092534D01*
X0028685Y0092312D01*
X0030148Y0090850D01*
X0032059Y0090058D01*
X0032686Y0090058D01*
X0032174Y0089892D01*
X0031473Y0089534D01*
X0030836Y0089072D01*
X0030280Y0088515D01*
X0029817Y0087878D01*
X0029460Y0087177D01*
X0029217Y0086429D01*
X0029094Y0085651D01*
X0029094Y0085344D01*
X0034008Y0085344D01*
X0034008Y0085172D01*
X0034180Y0085172D01*
X0034180Y0085344D01*
X0039094Y0085344D01*
X0039094Y0085651D01*
X0038971Y0086429D01*
X0038727Y0087177D01*
X0038370Y0087878D01*
X0037907Y0088515D01*
X0037351Y0089072D01*
X0036714Y0089534D01*
X0036013Y0089892D01*
X0035265Y0090135D01*
X0034577Y0090244D01*
X0036039Y0090850D01*
X0037502Y0092312D01*
X0038294Y0094224D01*
X0038294Y0096292D01*
X0037502Y0098203D01*
X0036039Y0099666D01*
X0035094Y0100058D01*
X0035128Y0100058D01*
X0037039Y0100850D01*
X0038502Y0102312D01*
X0038728Y0102858D01*
X0042082Y0102858D01*
X0042082Y0100461D01*
X0043253Y0099289D01*
X0049241Y0099289D01*
X0049594Y0099642D01*
X0049946Y0099289D01*
X0050540Y0099289D01*
X0050540Y0096434D01*
X0050906Y0095552D01*
X0051194Y0095264D01*
X0051194Y0048304D01*
X0051559Y0047422D01*
X0052234Y0046747D01*
X0054881Y0044100D01*
X0054881Y0040729D01*
X0056053Y0039557D01*
X0061647Y0039557D01*
X0062818Y0040729D01*
X0062818Y0041126D01*
X0074369Y0041126D01*
X0074369Y0040729D01*
X0075541Y0039557D01*
X0081135Y0039557D01*
X0082306Y0040729D01*
X0082306Y0046323D01*
X0081135Y0047494D01*
X0075541Y0047494D01*
X0074369Y0046323D01*
X0074369Y0045926D01*
X0062818Y0045926D01*
X0062818Y0046323D01*
X0061647Y0047494D01*
X0058275Y0047494D01*
X0055994Y0049776D01*
X0055994Y0096735D01*
X0055628Y0097617D01*
X0055340Y0097906D01*
X0055340Y0099289D01*
X0055934Y0099289D01*
X0057105Y0100461D01*
X0057105Y0104029D01*
X0060934Y0107858D01*
X0076071Y0107858D01*
X0076953Y0108223D01*
X0080817Y0112087D01*
X0081342Y0110819D01*
X0082354Y0109806D01*
X0083678Y0109258D01*
X0085110Y0109258D01*
X0086433Y0109806D01*
X0087085Y0110458D01*
X0093671Y0110458D01*
X0094553Y0110823D01*
X0095228Y0111498D01*
X0095228Y0111498D01*
X0097588Y0113858D01*
X0098046Y0113858D01*
X0099217Y0115029D01*
X0099217Y0121134D01*
X0105322Y0121134D01*
X0106494Y0122306D01*
X0106494Y0128133D01*
X0118409Y0128133D01*
X0119253Y0127289D01*
X0125241Y0127289D01*
X0125594Y0127642D01*
X0125946Y0127289D01*
X0131934Y0127289D01*
X0133105Y0128461D01*
X0133105Y0128858D01*
X0134098Y0128858D01*
X0134098Y0128067D01*
X0135269Y0126896D01*
X0141650Y0126896D01*
X0142786Y0128031D01*
X0142925Y0127790D01*
X0143260Y0127455D01*
X0143671Y0127218D01*
X0144128Y0127096D01*
X0146346Y0127096D01*
X0146346Y0130877D01*
X0147109Y0130877D01*
X0147109Y0131639D01*
X0150890Y0131639D01*
X0150890Y0133857D01*
X0150808Y0134163D01*
X0150953Y0134223D01*
X0167194Y0150464D01*
X0167194Y0145252D01*
X0166981Y0145039D01*
X0165842Y0145039D01*
X0164452Y0144463D01*
X0163388Y0143400D01*
X0162813Y0142010D01*
X0162813Y0140506D01*
X0163388Y0139116D01*
X0164452Y0138052D01*
X0165842Y0137477D01*
X0167346Y0137477D01*
X0168736Y0138052D01*
X0169799Y0139116D01*
X0170375Y0140506D01*
X0170375Y0141645D01*
X0171628Y0142898D01*
X0171994Y0143780D01*
X0171994Y0175264D01*
X0174588Y0177858D01*
X0212855Y0177858D01*
X0213096Y0177758D01*
X0222004Y0177758D01*
X0222923Y0178138D01*
X0226617Y0181833D01*
X0226617Y0181317D01*
X0227374Y0179491D01*
X0228575Y0178289D01*
X0228559Y0178274D01*
X0227287Y0179700D02*
X0224485Y0179700D01*
X0226083Y0181299D02*
X0226625Y0181299D01*
X0226398Y0178102D02*
X0222834Y0178102D01*
X0224182Y0176503D02*
X0173233Y0176503D01*
X0171994Y0174905D02*
X0222584Y0174905D01*
X0220985Y0173306D02*
X0171994Y0173306D01*
X0171994Y0171708D02*
X0219386Y0171708D01*
X0217788Y0170109D02*
X0171994Y0170109D01*
X0171994Y0168510D02*
X0217094Y0168510D01*
X0217094Y0166912D02*
X0214376Y0166912D01*
X0216588Y0165313D02*
X0217094Y0165313D01*
X0210843Y0166912D02*
X0171994Y0166912D01*
X0171994Y0165313D02*
X0208631Y0165313D01*
X0207832Y0163715D02*
X0171994Y0163715D01*
X0171994Y0162116D02*
X0207641Y0162116D01*
X0207956Y0160518D02*
X0171994Y0160518D01*
X0171994Y0158919D02*
X0208929Y0158919D01*
X0209654Y0157321D02*
X0171994Y0157321D01*
X0171994Y0155722D02*
X0208256Y0155722D01*
X0207641Y0154124D02*
X0171994Y0154124D01*
X0171994Y0152525D02*
X0207641Y0152525D01*
X0208194Y0150927D02*
X0171994Y0150927D01*
X0171994Y0149328D02*
X0209505Y0149328D01*
X0212909Y0147730D02*
X0171994Y0147730D01*
X0171994Y0146131D02*
X0190577Y0146131D01*
X0189813Y0144533D02*
X0171994Y0144533D01*
X0171643Y0142934D02*
X0189813Y0142934D01*
X0189813Y0141336D02*
X0170375Y0141336D01*
X0170056Y0139737D02*
X0190224Y0139737D01*
X0189939Y0138139D02*
X0168822Y0138139D01*
X0164366Y0138139D02*
X0154869Y0138139D01*
X0156467Y0139737D02*
X0163131Y0139737D01*
X0162813Y0141336D02*
X0158066Y0141336D01*
X0159664Y0142934D02*
X0163195Y0142934D01*
X0164620Y0144533D02*
X0161263Y0144533D01*
X0162861Y0146131D02*
X0167194Y0146131D01*
X0167194Y0147730D02*
X0164460Y0147730D01*
X0166058Y0149328D02*
X0167194Y0149328D01*
X0162467Y0152525D02*
X0150890Y0152525D01*
X0150890Y0151659D02*
X0150890Y0153877D01*
X0147109Y0153877D01*
X0147109Y0150096D01*
X0149327Y0150096D01*
X0149785Y0150218D01*
X0150195Y0150455D01*
X0150530Y0150790D01*
X0150767Y0151201D01*
X0150890Y0151659D01*
X0150609Y0150927D02*
X0160869Y0150927D01*
X0159270Y0149328D02*
X0119571Y0149328D01*
X0118616Y0150927D02*
X0117994Y0150927D01*
X0117994Y0152525D02*
X0118082Y0152525D01*
X0118082Y0154124D02*
X0117994Y0154124D01*
X0117994Y0155722D02*
X0118082Y0155722D01*
X0118348Y0157321D02*
X0117751Y0157321D01*
X0116326Y0158919D02*
X0119847Y0158919D01*
X0119847Y0160518D02*
X0114728Y0160518D01*
X0110600Y0157858D02*
X0113194Y0155264D01*
X0113194Y0149434D01*
X0113559Y0148552D01*
X0118082Y0144029D01*
X0118082Y0140461D01*
X0119253Y0139289D01*
X0125241Y0139289D01*
X0125594Y0139642D01*
X0125946Y0139289D01*
X0131934Y0139289D01*
X0133105Y0140461D01*
X0133105Y0140858D01*
X0134098Y0140858D01*
X0134098Y0140067D01*
X0135269Y0138896D01*
X0141650Y0138896D01*
X0142786Y0140031D01*
X0142925Y0139790D01*
X0143260Y0139455D01*
X0143671Y0139218D01*
X0144128Y0139096D01*
X0146346Y0139096D01*
X0146346Y0142877D01*
X0147109Y0142877D01*
X0147109Y0139096D01*
X0149037Y0139096D01*
X0148600Y0138658D01*
X0118588Y0138658D01*
X0112079Y0145166D01*
X0111197Y0145532D01*
X0106494Y0145532D01*
X0106494Y0148210D01*
X0105322Y0149381D01*
X0104494Y0149381D01*
X0104494Y0151538D01*
X0105736Y0152052D01*
X0106799Y0153116D01*
X0107375Y0154506D01*
X0107375Y0156010D01*
X0106799Y0157400D01*
X0106341Y0157858D01*
X0110600Y0157858D01*
X0111137Y0157321D02*
X0106832Y0157321D01*
X0107375Y0155722D02*
X0112735Y0155722D01*
X0113194Y0154124D02*
X0107217Y0154124D01*
X0106208Y0152525D02*
X0113194Y0152525D01*
X0113194Y0150927D02*
X0104494Y0150927D01*
X0105375Y0149328D02*
X0113237Y0149328D01*
X0114381Y0147730D02*
X0106494Y0147730D01*
X0106494Y0146131D02*
X0115980Y0146131D01*
X0117578Y0144533D02*
X0112713Y0144533D01*
X0114311Y0142934D02*
X0118082Y0142934D01*
X0118082Y0141336D02*
X0115910Y0141336D01*
X0117508Y0139737D02*
X0118806Y0139737D01*
X0113917Y0136540D02*
X0106294Y0136540D01*
X0106294Y0136833D02*
X0101994Y0136833D01*
X0106294Y0136833D01*
X0106294Y0137854D01*
X0106494Y0138054D01*
X0106494Y0140732D01*
X0109726Y0140732D01*
X0115559Y0134898D01*
X0116234Y0134223D01*
X0117116Y0133858D01*
X0118082Y0133858D01*
X0118082Y0132933D01*
X0106494Y0132933D01*
X0106494Y0135611D01*
X0106294Y0135811D01*
X0106294Y0136833D01*
X0106494Y0138139D02*
X0112319Y0138139D01*
X0110720Y0139737D02*
X0106494Y0139737D01*
X0101994Y0136833D02*
X0101994Y0136833D01*
X0101994Y0136833D01*
X0097694Y0136833D01*
X0097694Y0137854D01*
X0097494Y0138054D01*
X0097494Y0145058D01*
X0072694Y0145058D01*
X0072694Y0141203D01*
X0072494Y0141003D01*
X0072494Y0139982D01*
X0068194Y0139982D01*
X0068194Y0139982D01*
X0072494Y0139982D01*
X0072494Y0138961D01*
X0072694Y0138761D01*
X0072694Y0134904D01*
X0072494Y0134704D01*
X0072494Y0133683D01*
X0068194Y0133683D01*
X0068194Y0133683D01*
X0072494Y0133683D01*
X0072494Y0132662D01*
X0072498Y0132658D01*
X0076600Y0132658D01*
X0079559Y0135617D01*
X0080234Y0136292D01*
X0081116Y0136658D01*
X0096071Y0136658D01*
X0096953Y0136292D01*
X0097163Y0136083D01*
X0097694Y0136083D01*
X0097694Y0136833D01*
X0101994Y0136833D01*
X0106494Y0134942D02*
X0115516Y0134942D01*
X0118082Y0133343D02*
X0106494Y0133343D01*
X0106494Y0126949D02*
X0135216Y0126949D01*
X0134098Y0128548D02*
X0133105Y0128548D01*
X0130211Y0123667D02*
X0129800Y0123904D01*
X0129342Y0124026D01*
X0127124Y0124026D01*
X0127124Y0120442D01*
X0130905Y0120442D01*
X0130905Y0122463D01*
X0130783Y0122921D01*
X0130546Y0123332D01*
X0130211Y0123667D01*
X0130063Y0123752D02*
X0136779Y0123752D01*
X0136082Y0122154D02*
X0130905Y0122154D01*
X0130905Y0120555D02*
X0136082Y0120555D01*
X0136082Y0118957D02*
X0130905Y0118957D01*
X0130646Y0117358D02*
X0136185Y0117358D01*
X0137747Y0115760D02*
X0122747Y0115760D01*
X0122747Y0114161D02*
X0137747Y0114161D01*
X0137747Y0112563D02*
X0122747Y0112563D01*
X0122747Y0110964D02*
X0137747Y0110964D01*
X0137747Y0109366D02*
X0122747Y0109366D01*
X0126756Y0107767D02*
X0127124Y0107767D01*
X0127124Y0109026D02*
X0127124Y0105442D01*
X0130905Y0105442D01*
X0130905Y0107463D01*
X0130783Y0107921D01*
X0130546Y0108332D01*
X0130211Y0108667D01*
X0129800Y0108904D01*
X0129342Y0109026D01*
X0127124Y0109026D01*
X0127124Y0106169D02*
X0126756Y0106169D01*
X0126756Y0104570D02*
X0127124Y0104570D01*
X0127124Y0102972D02*
X0126756Y0102972D01*
X0123325Y0101373D02*
X0132827Y0101373D01*
X0134425Y0102972D02*
X0130884Y0102972D01*
X0130905Y0104570D02*
X0136024Y0104570D01*
X0136082Y0106169D02*
X0130905Y0106169D01*
X0130824Y0107767D02*
X0136082Y0107767D01*
X0142747Y0109366D02*
X0151094Y0109366D01*
X0150211Y0108667D02*
X0149800Y0108904D01*
X0149342Y0109026D01*
X0147124Y0109026D01*
X0147124Y0105442D01*
X0150905Y0105442D01*
X0150905Y0107463D01*
X0150783Y0107921D01*
X0150546Y0108332D01*
X0150211Y0108667D01*
X0150824Y0107767D02*
X0151094Y0107767D01*
X0151094Y0106169D02*
X0150905Y0106169D01*
X0150905Y0104570D02*
X0151094Y0104570D01*
X0151094Y0102972D02*
X0150884Y0102972D01*
X0149052Y0101373D02*
X0143325Y0101373D01*
X0146756Y0102972D02*
X0147124Y0102972D01*
X0147124Y0104570D02*
X0146756Y0104570D01*
X0146756Y0106169D02*
X0147124Y0106169D01*
X0147124Y0107767D02*
X0146756Y0107767D01*
X0142747Y0110964D02*
X0151094Y0110964D01*
X0151094Y0112563D02*
X0142747Y0112563D01*
X0142747Y0114161D02*
X0151094Y0114161D01*
X0151096Y0115760D02*
X0142747Y0115760D01*
X0146756Y0117358D02*
X0147124Y0117358D01*
X0147124Y0118957D02*
X0146756Y0118957D01*
X0147124Y0120442D02*
X0150905Y0120442D01*
X0150905Y0122463D01*
X0150783Y0122921D01*
X0150546Y0123332D01*
X0150211Y0123667D01*
X0149800Y0123904D01*
X0149342Y0124026D01*
X0147124Y0124026D01*
X0147124Y0120442D01*
X0147124Y0120555D02*
X0146756Y0120555D01*
X0146756Y0122154D02*
X0147124Y0122154D01*
X0147124Y0123752D02*
X0146756Y0123752D01*
X0143818Y0123752D02*
X0143715Y0123752D01*
X0141704Y0126949D02*
X0163403Y0126949D01*
X0161805Y0125351D02*
X0106494Y0125351D01*
X0106494Y0123752D02*
X0116779Y0123752D01*
X0116082Y0122154D02*
X0106342Y0122154D01*
X0099217Y0120555D02*
X0116082Y0120555D01*
X0116082Y0118957D02*
X0099217Y0118957D01*
X0099217Y0117358D02*
X0116185Y0117358D01*
X0117747Y0115760D02*
X0099217Y0115760D01*
X0098349Y0114161D02*
X0117747Y0114161D01*
X0117747Y0112563D02*
X0096293Y0112563D01*
X0094694Y0110964D02*
X0117747Y0110964D01*
X0117747Y0109366D02*
X0085370Y0109366D01*
X0083418Y0109366D02*
X0078095Y0109366D01*
X0079694Y0110964D02*
X0081282Y0110964D01*
X0071838Y0114161D02*
X0058150Y0114161D01*
X0058394Y0112563D02*
X0059233Y0112563D01*
X0056983Y0115760D02*
X0070970Y0115760D01*
X0070970Y0117358D02*
X0005594Y0117358D01*
X0005594Y0115760D02*
X0052604Y0115760D01*
X0056402Y0122154D02*
X0005594Y0122154D01*
X0005594Y0123752D02*
X0054705Y0123752D01*
X0053107Y0125351D02*
X0005594Y0125351D01*
X0005594Y0126949D02*
X0051508Y0126949D01*
X0057701Y0131745D02*
X0059209Y0131745D01*
X0059194Y0133343D02*
X0056102Y0133343D01*
X0054504Y0134942D02*
X0059279Y0134942D01*
X0059352Y0136540D02*
X0052905Y0136540D01*
X0051307Y0138139D02*
X0057753Y0138139D01*
X0056154Y0139737D02*
X0049708Y0139737D01*
X0048687Y0141336D02*
X0054556Y0141336D01*
X0052957Y0142934D02*
X0048844Y0142934D01*
X0048541Y0144533D02*
X0051359Y0144533D01*
X0049760Y0146131D02*
X0047645Y0146131D01*
X0048162Y0147730D02*
X0045309Y0147730D01*
X0046563Y0149328D02*
X0005594Y0149328D01*
X0005594Y0147730D02*
X0021878Y0147730D01*
X0019543Y0146131D02*
X0005594Y0146131D01*
X0005594Y0144533D02*
X0018646Y0144533D01*
X0018344Y0142934D02*
X0005594Y0142934D01*
X0005594Y0141336D02*
X0018500Y0141336D01*
X0019190Y0139737D02*
X0005594Y0139737D01*
X0005594Y0138139D02*
X0021026Y0138139D01*
X0026161Y0138139D02*
X0028319Y0138139D01*
X0029917Y0136540D02*
X0005594Y0136540D01*
X0005594Y0134942D02*
X0031516Y0134942D01*
X0033114Y0133343D02*
X0005594Y0133343D01*
X0005594Y0131745D02*
X0034713Y0131745D01*
X0036311Y0130146D02*
X0005594Y0130146D01*
X0005594Y0128548D02*
X0037910Y0128548D01*
X0039902Y0133343D02*
X0049314Y0133343D01*
X0047716Y0134942D02*
X0038304Y0134942D01*
X0036705Y0136540D02*
X0046117Y0136540D01*
X0041026Y0138139D02*
X0035107Y0138139D01*
X0033508Y0139737D02*
X0039190Y0139737D01*
X0038500Y0141336D02*
X0031910Y0141336D01*
X0030311Y0142934D02*
X0038344Y0142934D01*
X0038646Y0144533D02*
X0028713Y0144533D01*
X0027645Y0146131D02*
X0039543Y0146131D01*
X0041878Y0147730D02*
X0025309Y0147730D01*
X0024027Y0159758D02*
X0024882Y0159893D01*
X0025705Y0160161D01*
X0026476Y0160554D01*
X0027177Y0161063D01*
X0027789Y0161675D01*
X0028298Y0162375D01*
X0028691Y0163147D01*
X0028958Y0163970D01*
X0029094Y0164825D01*
X0029094Y0165058D01*
X0023794Y0165058D01*
X0023794Y0159758D01*
X0024027Y0159758D01*
X0023394Y0159758D02*
X0023394Y0165058D01*
X0018094Y0165058D01*
X0018094Y0164825D01*
X0018229Y0163970D01*
X0018497Y0163147D01*
X0018890Y0162375D01*
X0019399Y0161675D01*
X0020011Y0161063D01*
X0020711Y0160554D01*
X0021482Y0160161D01*
X0022306Y0159893D01*
X0023161Y0159758D01*
X0023394Y0159758D01*
X0023394Y0160518D02*
X0023794Y0160518D01*
X0023794Y0162116D02*
X0023394Y0162116D01*
X0023394Y0163715D02*
X0023794Y0163715D01*
X0023794Y0165313D02*
X0030578Y0165313D01*
X0029120Y0166912D02*
X0028839Y0166912D01*
X0028794Y0168510D02*
X0028029Y0168510D01*
X0028794Y0170109D02*
X0026188Y0170109D01*
X0028104Y0171708D02*
X0028794Y0171708D01*
X0031594Y0168258D02*
X0031594Y0176258D01*
X0029594Y0178258D01*
X0029594Y0184258D01*
X0024594Y0184258D01*
X0023594Y0185258D01*
X0027621Y0189291D02*
X0030667Y0189291D01*
X0029069Y0187693D02*
X0028755Y0187693D01*
X0029594Y0184258D02*
X0041594Y0196258D01*
X0077594Y0196258D01*
X0085570Y0204234D01*
X0086743Y0204234D01*
X0096720Y0194258D01*
X0121594Y0194258D01*
X0123594Y0192258D01*
X0153594Y0192258D01*
X0161743Y0200407D01*
X0161743Y0204234D01*
X0155609Y0203678D02*
X0151578Y0203678D01*
X0151578Y0205276D02*
X0155609Y0205276D01*
X0155609Y0206875D02*
X0151578Y0206875D01*
X0151578Y0208473D02*
X0155609Y0208473D01*
X0156485Y0210072D02*
X0150703Y0210072D01*
X0150406Y0210368D02*
X0140482Y0210368D01*
X0139310Y0209197D01*
X0139310Y0199272D01*
X0140482Y0198100D01*
X0150406Y0198100D01*
X0151578Y0199272D01*
X0151578Y0209197D01*
X0150406Y0210368D01*
X0151578Y0202079D02*
X0155609Y0202079D01*
X0155609Y0200481D02*
X0151578Y0200481D01*
X0151188Y0198882D02*
X0155999Y0198882D01*
X0154660Y0197284D02*
X0133375Y0197284D01*
X0133221Y0198882D02*
X0139700Y0198882D01*
X0139310Y0200481D02*
X0132218Y0200481D01*
X0132828Y0195685D02*
X0153061Y0195685D01*
X0157784Y0192488D02*
X0166825Y0192488D01*
X0166825Y0191789D02*
X0170409Y0191789D01*
X0170409Y0195570D01*
X0168388Y0195570D01*
X0167930Y0195447D01*
X0167520Y0195210D01*
X0167185Y0194875D01*
X0166948Y0194464D01*
X0166825Y0194007D01*
X0166825Y0191789D01*
X0166825Y0190890D02*
X0156185Y0190890D01*
X0159382Y0194087D02*
X0166847Y0194087D01*
X0162579Y0197284D02*
X0207641Y0197284D01*
X0207641Y0197262D02*
X0208397Y0195436D01*
X0209795Y0194038D01*
X0211621Y0193281D01*
X0213598Y0193281D01*
X0215424Y0194038D01*
X0216822Y0195436D01*
X0217578Y0197262D01*
X0217578Y0199238D01*
X0216822Y0201064D01*
X0215424Y0202462D01*
X0214710Y0202758D01*
X0215424Y0203054D01*
X0216822Y0204451D01*
X0217578Y0206277D01*
X0217578Y0208254D01*
X0216822Y0210080D01*
X0215424Y0211478D01*
X0213598Y0212234D01*
X0211621Y0212234D01*
X0209795Y0211478D01*
X0208397Y0210080D01*
X0207641Y0208254D01*
X0207641Y0206277D01*
X0208397Y0204451D01*
X0209795Y0203054D01*
X0210509Y0202758D01*
X0209795Y0202462D01*
X0208397Y0201064D01*
X0207641Y0199238D01*
X0207641Y0197262D01*
X0207641Y0198882D02*
X0167487Y0198882D01*
X0167877Y0200481D02*
X0208156Y0200481D01*
X0209412Y0202079D02*
X0167877Y0202079D01*
X0167877Y0203678D02*
X0209171Y0203678D01*
X0208056Y0205276D02*
X0167877Y0205276D01*
X0167877Y0206875D02*
X0207641Y0206875D01*
X0207732Y0208473D02*
X0167877Y0208473D01*
X0167002Y0210072D02*
X0208394Y0210072D01*
X0210260Y0211670D02*
X0097575Y0211670D01*
X0096953Y0212292D02*
X0096953Y0212292D01*
X0095977Y0213269D02*
X0228045Y0213269D01*
X0228019Y0213066D02*
X0234290Y0213066D01*
X0234290Y0219337D01*
X0233699Y0219259D01*
X0232798Y0219018D01*
X0231936Y0218661D01*
X0231128Y0218194D01*
X0230388Y0217627D01*
X0229729Y0216967D01*
X0229161Y0216227D01*
X0228695Y0215419D01*
X0228338Y0214558D01*
X0228097Y0213657D01*
X0228019Y0213066D01*
X0228019Y0211466D02*
X0228097Y0210875D01*
X0228338Y0209974D01*
X0228695Y0209112D01*
X0229161Y0208304D01*
X0229729Y0207564D01*
X0230388Y0206905D01*
X0231128Y0206337D01*
X0231936Y0205871D01*
X0232798Y0205514D01*
X0233699Y0205273D01*
X0234290Y0205195D01*
X0234290Y0211466D01*
X0228019Y0211466D01*
X0228312Y0210072D02*
X0216825Y0210072D01*
X0217487Y0208473D02*
X0229064Y0208473D01*
X0230428Y0206875D02*
X0217578Y0206875D01*
X0217163Y0205276D02*
X0233685Y0205276D01*
X0234290Y0205276D02*
X0235890Y0205276D01*
X0235890Y0205195D02*
X0236481Y0205273D01*
X0237382Y0205514D01*
X0238243Y0205871D01*
X0239051Y0206337D01*
X0239791Y0206905D01*
X0240451Y0207564D01*
X0240470Y0207590D01*
X0240196Y0206928D01*
X0240196Y0203587D01*
X0241475Y0200501D01*
X0243837Y0198139D01*
X0246923Y0196860D01*
X0250264Y0196860D01*
X0253351Y0198139D01*
X0255713Y0200501D01*
X0256991Y0203587D01*
X0256991Y0206928D01*
X0255713Y0210015D01*
X0253351Y0212377D01*
X0250264Y0213655D01*
X0246923Y0213655D01*
X0243837Y0212377D01*
X0241991Y0210531D01*
X0242083Y0210875D01*
X0242161Y0211466D01*
X0235890Y0211466D01*
X0235890Y0213066D01*
X0234290Y0213066D01*
X0234290Y0211466D01*
X0235890Y0211466D01*
X0235890Y0205195D01*
X0236495Y0205276D02*
X0240196Y0205276D01*
X0240196Y0203678D02*
X0216048Y0203678D01*
X0215807Y0202079D02*
X0240821Y0202079D01*
X0241495Y0200481D02*
X0217063Y0200481D01*
X0217578Y0198882D02*
X0234358Y0198882D01*
X0234290Y0206875D02*
X0235890Y0206875D01*
X0235890Y0208473D02*
X0234290Y0208473D01*
X0234290Y0210072D02*
X0235890Y0210072D01*
X0235890Y0211670D02*
X0243130Y0211670D01*
X0242161Y0213066D02*
X0242083Y0213657D01*
X0241842Y0214558D01*
X0241485Y0215419D01*
X0241018Y0216227D01*
X0240451Y0216967D01*
X0239791Y0217627D01*
X0239051Y0218194D01*
X0238243Y0218661D01*
X0237382Y0219018D01*
X0236481Y0219259D01*
X0235890Y0219337D01*
X0235890Y0213066D01*
X0242161Y0213066D01*
X0242134Y0213269D02*
X0245990Y0213269D01*
X0241713Y0214867D02*
X0270294Y0214867D01*
X0270294Y0213269D02*
X0251198Y0213269D01*
X0254057Y0211670D02*
X0270294Y0211670D01*
X0270294Y0210072D02*
X0255656Y0210072D01*
X0256351Y0208473D02*
X0270294Y0208473D01*
X0270294Y0206875D02*
X0256991Y0206875D01*
X0256991Y0205276D02*
X0270294Y0205276D01*
X0270294Y0203678D02*
X0256991Y0203678D01*
X0256367Y0202079D02*
X0270294Y0202079D01*
X0270294Y0200481D02*
X0255693Y0200481D01*
X0254094Y0198882D02*
X0270294Y0198882D01*
X0270294Y0197284D02*
X0251286Y0197284D01*
X0245901Y0197284D02*
X0243562Y0197284D01*
X0243562Y0195685D02*
X0270294Y0195685D01*
X0270294Y0194087D02*
X0243562Y0194087D01*
X0243562Y0192488D02*
X0270294Y0192488D01*
X0270294Y0190890D02*
X0243562Y0190890D01*
X0242650Y0189291D02*
X0270294Y0189291D01*
X0270294Y0187693D02*
X0243403Y0187693D01*
X0243562Y0186094D02*
X0270294Y0186094D01*
X0270294Y0184496D02*
X0243216Y0184496D01*
X0242196Y0182897D02*
X0270294Y0182897D01*
X0270294Y0181299D02*
X0242302Y0181299D01*
X0243149Y0179700D02*
X0270294Y0179700D01*
X0270294Y0178102D02*
X0243362Y0178102D01*
X0243027Y0176503D02*
X0270294Y0176503D01*
X0270294Y0174905D02*
X0241953Y0174905D01*
X0242572Y0173306D02*
X0270294Y0173306D01*
X0270294Y0171708D02*
X0243371Y0171708D01*
X0243562Y0170109D02*
X0270294Y0170109D01*
X0270294Y0168510D02*
X0243248Y0168510D01*
X0242274Y0166912D02*
X0270294Y0166912D01*
X0270294Y0165313D02*
X0239640Y0165313D01*
X0237547Y0165313D02*
X0236554Y0165313D01*
X0235917Y0163715D02*
X0270294Y0163715D01*
X0270294Y0162116D02*
X0253611Y0162116D01*
X0253351Y0162377D02*
X0250264Y0163655D01*
X0246923Y0163655D01*
X0243837Y0162377D01*
X0241475Y0160015D01*
X0240196Y0156928D01*
X0240196Y0153587D01*
X0240470Y0152926D01*
X0240451Y0152951D01*
X0239791Y0153611D01*
X0239051Y0154179D01*
X0238243Y0154645D01*
X0237382Y0155002D01*
X0236481Y0155243D01*
X0235890Y0155321D01*
X0235890Y0149050D01*
X0242161Y0149050D01*
X0242083Y0149641D01*
X0241991Y0149985D01*
X0243837Y0148139D01*
X0246923Y0146860D01*
X0250264Y0146860D01*
X0253351Y0148139D01*
X0255713Y0150501D01*
X0256991Y0153587D01*
X0256991Y0156928D01*
X0255713Y0160015D01*
X0253351Y0162377D01*
X0255210Y0160518D02*
X0270294Y0160518D01*
X0270294Y0158919D02*
X0256167Y0158919D01*
X0256829Y0157321D02*
X0270294Y0157321D01*
X0270294Y0155722D02*
X0256991Y0155722D01*
X0256991Y0154124D02*
X0270294Y0154124D01*
X0270294Y0152525D02*
X0256551Y0152525D01*
X0255889Y0150927D02*
X0270294Y0150927D01*
X0270294Y0149328D02*
X0254540Y0149328D01*
X0252364Y0147730D02*
X0270294Y0147730D01*
X0270294Y0146131D02*
X0241888Y0146131D01*
X0241842Y0145958D02*
X0242083Y0146859D01*
X0242161Y0147450D01*
X0235890Y0147450D01*
X0235890Y0149050D01*
X0234290Y0149050D01*
X0234290Y0155321D01*
X0233699Y0155243D01*
X0232798Y0155002D01*
X0231936Y0154645D01*
X0231128Y0154179D01*
X0230388Y0153611D01*
X0229729Y0152951D01*
X0229161Y0152211D01*
X0228695Y0151404D01*
X0228338Y0150542D01*
X0228097Y0149641D01*
X0228019Y0149050D01*
X0234290Y0149050D01*
X0234290Y0147450D01*
X0235890Y0147450D01*
X0235890Y0141179D01*
X0236481Y0141257D01*
X0237382Y0141498D01*
X0238243Y0141855D01*
X0239051Y0142321D01*
X0239791Y0142889D01*
X0240451Y0143549D01*
X0241018Y0144289D01*
X0241485Y0145096D01*
X0241842Y0145958D01*
X0241159Y0144533D02*
X0270294Y0144533D01*
X0270294Y0142934D02*
X0239836Y0142934D01*
X0236776Y0141336D02*
X0270294Y0141336D01*
X0270294Y0139737D02*
X0216230Y0139737D01*
X0217828Y0141336D02*
X0233404Y0141336D01*
X0233699Y0141257D02*
X0232798Y0141498D01*
X0231936Y0141855D01*
X0231128Y0142321D01*
X0230388Y0142889D01*
X0229729Y0143549D01*
X0229161Y0144289D01*
X0228695Y0145096D01*
X0228338Y0145958D01*
X0228097Y0146859D01*
X0228019Y0147450D01*
X0234290Y0147450D01*
X0234290Y0141179D01*
X0233699Y0141257D01*
X0234290Y0141336D02*
X0235890Y0141336D01*
X0235890Y0142934D02*
X0234290Y0142934D01*
X0234290Y0144533D02*
X0235890Y0144533D01*
X0235890Y0146131D02*
X0234290Y0146131D01*
X0234290Y0147730D02*
X0224223Y0147730D01*
X0225038Y0149328D02*
X0228055Y0149328D01*
X0228497Y0150927D02*
X0225094Y0150927D01*
X0225094Y0152525D02*
X0229402Y0152525D01*
X0231057Y0154124D02*
X0225094Y0154124D01*
X0225094Y0155722D02*
X0240196Y0155722D01*
X0240196Y0154124D02*
X0239122Y0154124D01*
X0235890Y0154124D02*
X0234290Y0154124D01*
X0234290Y0152525D02*
X0235890Y0152525D01*
X0235890Y0150927D02*
X0234290Y0150927D01*
X0234290Y0149328D02*
X0235890Y0149328D01*
X0235890Y0147730D02*
X0244824Y0147730D01*
X0242647Y0149328D02*
X0242124Y0149328D01*
X0240359Y0157321D02*
X0225094Y0157321D01*
X0225094Y0158919D02*
X0241021Y0158919D01*
X0241978Y0160518D02*
X0225094Y0160518D01*
X0225094Y0162116D02*
X0228685Y0162116D01*
X0227255Y0163715D02*
X0225094Y0163715D01*
X0225094Y0165313D02*
X0226617Y0165313D01*
X0226617Y0166912D02*
X0225905Y0166912D01*
X0234487Y0162116D02*
X0243576Y0162116D01*
X0228291Y0146131D02*
X0222624Y0146131D01*
X0221026Y0144533D02*
X0229020Y0144533D01*
X0230343Y0142934D02*
X0219427Y0142934D01*
X0207131Y0138139D02*
X0270294Y0138139D01*
X0270294Y0136540D02*
X0205533Y0136540D01*
X0203934Y0134942D02*
X0270294Y0134942D01*
X0270294Y0133343D02*
X0202336Y0133343D01*
X0200737Y0131745D02*
X0270294Y0131745D01*
X0270294Y0130146D02*
X0199139Y0130146D01*
X0197540Y0128548D02*
X0270294Y0128548D01*
X0270294Y0126949D02*
X0195942Y0126949D01*
X0194343Y0125351D02*
X0270294Y0125351D01*
X0270294Y0123752D02*
X0192745Y0123752D01*
X0191146Y0122154D02*
X0270294Y0122154D01*
X0270294Y0120555D02*
X0189548Y0120555D01*
X0187949Y0118957D02*
X0270294Y0118957D01*
X0270294Y0117358D02*
X0250195Y0117358D01*
X0249706Y0117847D02*
X0247777Y0118646D01*
X0245690Y0118646D01*
X0243761Y0117847D01*
X0242284Y0116370D01*
X0241485Y0114442D01*
X0241485Y0112354D01*
X0242284Y0110425D01*
X0243761Y0108949D01*
X0245690Y0108150D01*
X0247777Y0108150D01*
X0249706Y0108949D01*
X0251183Y0110425D01*
X0251981Y0112354D01*
X0251981Y0114442D01*
X0251183Y0116370D01*
X0249706Y0117847D01*
X0251436Y0115760D02*
X0270294Y0115760D01*
X0270294Y0114161D02*
X0251981Y0114161D01*
X0251981Y0112563D02*
X0270294Y0112563D01*
X0270294Y0110964D02*
X0251406Y0110964D01*
X0250123Y0109366D02*
X0270294Y0109366D01*
X0270294Y0107767D02*
X0182594Y0107767D01*
X0182594Y0106169D02*
X0270294Y0106169D01*
X0270294Y0104570D02*
X0255286Y0104570D01*
X0255149Y0104707D02*
X0253220Y0105506D01*
X0251132Y0105506D01*
X0249204Y0104707D01*
X0247727Y0103231D01*
X0246928Y0101302D01*
X0246928Y0099214D01*
X0247727Y0097285D01*
X0249204Y0095809D01*
X0251132Y0095010D01*
X0253220Y0095010D01*
X0255149Y0095809D01*
X0256625Y0097285D01*
X0257424Y0099214D01*
X0257424Y0101302D01*
X0256625Y0103231D01*
X0255149Y0104707D01*
X0256733Y0102972D02*
X0270294Y0102972D01*
X0270294Y0101373D02*
X0257395Y0101373D01*
X0257424Y0099775D02*
X0270294Y0099775D01*
X0270294Y0098176D02*
X0256994Y0098176D01*
X0255918Y0096577D02*
X0270294Y0096577D01*
X0270294Y0094979D02*
X0178972Y0094979D01*
X0180570Y0096577D02*
X0211552Y0096577D01*
X0211722Y0096407D02*
X0212365Y0095940D01*
X0213073Y0095580D01*
X0213829Y0095334D01*
X0214614Y0095210D01*
X0214728Y0095210D01*
X0214728Y0099975D01*
X0209963Y0099975D01*
X0209963Y0099861D01*
X0210087Y0099076D01*
X0210333Y0098320D01*
X0210694Y0097612D01*
X0211161Y0096969D01*
X0211722Y0096407D01*
X0210406Y0098176D02*
X0182061Y0098176D01*
X0182594Y0099775D02*
X0209977Y0099775D01*
X0209963Y0100541D02*
X0214728Y0100541D01*
X0214728Y0105306D01*
X0214614Y0105306D01*
X0213829Y0105182D01*
X0213073Y0104936D01*
X0212365Y0104575D01*
X0211722Y0104108D01*
X0211161Y0103546D01*
X0210694Y0102904D01*
X0210333Y0102196D01*
X0210087Y0101440D01*
X0209963Y0100655D01*
X0209963Y0100541D01*
X0210077Y0101373D02*
X0182594Y0101373D01*
X0182594Y0102972D02*
X0210743Y0102972D01*
X0212358Y0104570D02*
X0182594Y0104570D01*
X0182594Y0109366D02*
X0217064Y0109366D01*
X0217481Y0108949D02*
X0219410Y0108150D01*
X0221498Y0108150D01*
X0223427Y0108949D01*
X0224903Y0110425D01*
X0225702Y0112354D01*
X0225702Y0114442D01*
X0224903Y0116370D01*
X0223427Y0117847D01*
X0221498Y0118646D01*
X0219410Y0118646D01*
X0217481Y0117847D01*
X0216005Y0116370D01*
X0215206Y0114442D01*
X0215206Y0112354D01*
X0216005Y0110425D01*
X0217481Y0108949D01*
X0215782Y0110964D02*
X0182594Y0110964D01*
X0182594Y0112563D02*
X0215206Y0112563D01*
X0215206Y0114161D02*
X0183154Y0114161D01*
X0184752Y0115760D02*
X0215752Y0115760D01*
X0216993Y0117358D02*
X0186351Y0117358D01*
X0181431Y0123752D02*
X0170063Y0123752D01*
X0170905Y0122154D02*
X0179833Y0122154D01*
X0178234Y0120555D02*
X0170905Y0120555D01*
X0170905Y0118957D02*
X0176636Y0118957D01*
X0175134Y0117358D02*
X0170646Y0117358D01*
X0167124Y0117358D02*
X0166756Y0117358D01*
X0166756Y0118957D02*
X0167124Y0118957D01*
X0162747Y0115760D02*
X0174594Y0115760D01*
X0174594Y0114161D02*
X0162747Y0114161D01*
X0162747Y0112563D02*
X0174594Y0112563D01*
X0174594Y0110964D02*
X0162747Y0110964D01*
X0162747Y0109366D02*
X0174594Y0109366D01*
X0174594Y0107767D02*
X0170824Y0107767D01*
X0170783Y0107921D02*
X0170546Y0108332D01*
X0170211Y0108667D01*
X0169800Y0108904D01*
X0169342Y0109026D01*
X0167124Y0109026D01*
X0167124Y0105442D01*
X0170905Y0105442D01*
X0170905Y0107463D01*
X0170783Y0107921D01*
X0170905Y0106169D02*
X0174594Y0106169D01*
X0174594Y0104570D02*
X0170905Y0104570D01*
X0170884Y0102972D02*
X0174594Y0102972D01*
X0174052Y0101373D02*
X0163325Y0101373D01*
X0166756Y0102972D02*
X0167124Y0102972D01*
X0167124Y0104570D02*
X0166756Y0104570D01*
X0166756Y0106169D02*
X0167124Y0106169D01*
X0167124Y0107767D02*
X0166756Y0107767D01*
X0172453Y0099775D02*
X0157112Y0099775D01*
X0157170Y0101373D02*
X0156094Y0101373D01*
X0160587Y0098176D02*
X0170855Y0098176D01*
X0169256Y0096577D02*
X0162931Y0096577D01*
X0163594Y0094979D02*
X0167658Y0094979D01*
X0166059Y0093380D02*
X0163560Y0093380D01*
X0162775Y0091782D02*
X0164461Y0091782D01*
X0162862Y0090183D02*
X0055994Y0090183D01*
X0055994Y0088585D02*
X0110850Y0088585D01*
X0109605Y0086986D02*
X0055994Y0086986D01*
X0055994Y0085388D02*
X0109094Y0085388D01*
X0109094Y0083789D02*
X0055994Y0083789D01*
X0055994Y0082191D02*
X0109094Y0082191D01*
X0109094Y0080592D02*
X0055994Y0080592D01*
X0055994Y0078994D02*
X0109094Y0078994D01*
X0109246Y0077395D02*
X0055994Y0077395D01*
X0055994Y0075797D02*
X0109594Y0075797D01*
X0109703Y0074198D02*
X0055994Y0074198D01*
X0055994Y0072600D02*
X0110595Y0072600D01*
X0112193Y0071001D02*
X0055994Y0071001D01*
X0055994Y0069403D02*
X0113792Y0069403D01*
X0115390Y0067804D02*
X0055994Y0067804D01*
X0055994Y0066206D02*
X0152238Y0066206D01*
X0155572Y0064607D02*
X0055994Y0064607D01*
X0055994Y0063009D02*
X0157186Y0063009D01*
X0158784Y0061410D02*
X0128377Y0061410D01*
X0128078Y0061628D02*
X0127362Y0061992D01*
X0126599Y0062240D01*
X0125806Y0062366D01*
X0125589Y0062366D01*
X0125589Y0057450D01*
X0130505Y0057450D01*
X0130505Y0057667D01*
X0130379Y0058460D01*
X0130131Y0059223D01*
X0129767Y0059939D01*
X0129295Y0060588D01*
X0128727Y0061156D01*
X0128078Y0061628D01*
X0125589Y0061410D02*
X0125220Y0061410D01*
X0125220Y0062366D02*
X0125003Y0062366D01*
X0124210Y0062240D01*
X0123447Y0061992D01*
X0122732Y0061628D01*
X0122082Y0061156D01*
X0121515Y0060588D01*
X0121043Y0059939D01*
X0120678Y0059223D01*
X0120430Y0058460D01*
X0120305Y0057667D01*
X0120305Y0057450D01*
X0125220Y0057450D01*
X0125220Y0057081D01*
X0125589Y0057081D01*
X0125589Y0052166D01*
X0125806Y0052166D01*
X0126599Y0052291D01*
X0127362Y0052539D01*
X0128078Y0052904D01*
X0128727Y0053376D01*
X0129295Y0053943D01*
X0129767Y0054593D01*
X0130131Y0055308D01*
X0130379Y0056071D01*
X0130505Y0056864D01*
X0130505Y0057081D01*
X0125589Y0057081D01*
X0125589Y0057450D01*
X0125220Y0057450D01*
X0125220Y0062366D01*
X0125220Y0059812D02*
X0125589Y0059812D01*
X0125589Y0058213D02*
X0125220Y0058213D01*
X0125220Y0057081D02*
X0120305Y0057081D01*
X0120305Y0056864D01*
X0120430Y0056071D01*
X0120678Y0055308D01*
X0121043Y0054593D01*
X0121515Y0053943D01*
X0122082Y0053376D01*
X0122732Y0052904D01*
X0123447Y0052539D01*
X0124210Y0052291D01*
X0125003Y0052166D01*
X0125220Y0052166D01*
X0125220Y0057081D01*
X0125220Y0056615D02*
X0125589Y0056615D01*
X0125589Y0055016D02*
X0125220Y0055016D01*
X0125220Y0053418D02*
X0125589Y0053418D01*
X0128769Y0053418D02*
X0177594Y0053418D01*
X0177594Y0051819D02*
X0055994Y0051819D01*
X0055994Y0050221D02*
X0177594Y0050221D01*
X0177942Y0048622D02*
X0057147Y0048622D01*
X0062117Y0047024D02*
X0075070Y0047024D01*
X0081605Y0047024D02*
X0109270Y0047024D01*
X0109116Y0046960D02*
X0106892Y0044736D01*
X0105688Y0041830D01*
X0105688Y0038685D01*
X0106892Y0035780D01*
X0109116Y0033556D01*
X0112021Y0032352D01*
X0115166Y0032352D01*
X0118072Y0033556D01*
X0120296Y0035780D01*
X0121499Y0038685D01*
X0121499Y0041830D01*
X0120296Y0044736D01*
X0118072Y0046960D01*
X0115166Y0048163D01*
X0112021Y0048163D01*
X0109116Y0046960D01*
X0107581Y0045425D02*
X0082306Y0045425D01*
X0082306Y0043827D02*
X0106515Y0043827D01*
X0105853Y0042228D02*
X0082306Y0042228D01*
X0082207Y0040630D02*
X0105688Y0040630D01*
X0105688Y0039031D02*
X0041348Y0039031D01*
X0041511Y0038493D02*
X0041131Y0039744D01*
X0040631Y0040951D01*
X0040015Y0042104D01*
X0039289Y0043190D01*
X0038460Y0044200D01*
X0037536Y0045124D01*
X0036526Y0045953D01*
X0035440Y0046679D01*
X0034287Y0047295D01*
X0033080Y0047795D01*
X0031829Y0048175D01*
X0030548Y0048430D01*
X0029394Y0048543D01*
X0029394Y0036058D01*
X0041879Y0036058D01*
X0041766Y0037212D01*
X0041511Y0038493D01*
X0041722Y0037433D02*
X0106207Y0037433D01*
X0106869Y0035834D02*
X0029394Y0035834D01*
X0029394Y0036058D02*
X0029394Y0034458D01*
X0041879Y0034458D01*
X0041766Y0033304D01*
X0041511Y0032022D01*
X0041131Y0030772D01*
X0040631Y0029565D01*
X0040015Y0028412D01*
X0039289Y0027326D01*
X0038460Y0026315D01*
X0037536Y0025391D01*
X0036526Y0024562D01*
X0035440Y0023836D01*
X0034287Y0023220D01*
X0033080Y0022720D01*
X0031829Y0022341D01*
X0030548Y0022086D01*
X0029394Y0021972D01*
X0029394Y0034458D01*
X0027794Y0034458D01*
X0027794Y0021972D01*
X0026640Y0022086D01*
X0025358Y0022341D01*
X0024108Y0022720D01*
X0022900Y0023220D01*
X0021748Y0023836D01*
X0020661Y0024562D01*
X0019651Y0025391D01*
X0018727Y0026315D01*
X0017898Y0027326D01*
X0017172Y0028412D01*
X0016556Y0029565D01*
X0016056Y0030772D01*
X0015677Y0032022D01*
X0015422Y0033304D01*
X0015308Y0034458D01*
X0027794Y0034458D01*
X0027794Y0036058D01*
X0027794Y0048543D01*
X0026640Y0048430D01*
X0025358Y0048175D01*
X0024108Y0047795D01*
X0022900Y0047295D01*
X0021748Y0046679D01*
X0020661Y0045953D01*
X0019651Y0045124D01*
X0018727Y0044200D01*
X0017898Y0043190D01*
X0017172Y0042104D01*
X0016556Y0040951D01*
X0016056Y0039744D01*
X0015677Y0038493D01*
X0015422Y0037212D01*
X0015308Y0036058D01*
X0027794Y0036058D01*
X0029394Y0036058D01*
X0029394Y0037433D02*
X0027794Y0037433D01*
X0027794Y0039031D02*
X0029394Y0039031D01*
X0029394Y0040630D02*
X0027794Y0040630D01*
X0027794Y0042228D02*
X0029394Y0042228D01*
X0029394Y0043827D02*
X0027794Y0043827D01*
X0027794Y0045425D02*
X0029394Y0045425D01*
X0029394Y0047024D02*
X0027794Y0047024D01*
X0022392Y0047024D02*
X0005594Y0047024D01*
X0005594Y0048622D02*
X0051194Y0048622D01*
X0051194Y0050221D02*
X0005594Y0050221D01*
X0005594Y0051819D02*
X0051194Y0051819D01*
X0051194Y0053418D02*
X0005594Y0053418D01*
X0005594Y0055016D02*
X0051194Y0055016D01*
X0051194Y0056615D02*
X0005594Y0056615D01*
X0005594Y0058213D02*
X0051194Y0058213D01*
X0051194Y0059812D02*
X0005594Y0059812D01*
X0005594Y0061410D02*
X0051194Y0061410D01*
X0051194Y0063009D02*
X0005594Y0063009D01*
X0005594Y0064607D02*
X0051194Y0064607D01*
X0051194Y0066206D02*
X0005594Y0066206D01*
X0005594Y0067804D02*
X0051194Y0067804D01*
X0051194Y0069403D02*
X0005594Y0069403D01*
X0005594Y0071001D02*
X0051194Y0071001D01*
X0051194Y0072600D02*
X0005594Y0072600D01*
X0005594Y0074198D02*
X0051194Y0074198D01*
X0051194Y0075797D02*
X0005594Y0075797D01*
X0005594Y0077395D02*
X0051194Y0077395D01*
X0051194Y0078994D02*
X0005594Y0078994D01*
X0005594Y0080592D02*
X0020769Y0080592D01*
X0018807Y0082191D02*
X0005594Y0082191D01*
X0005594Y0083789D02*
X0018074Y0083789D01*
X0017894Y0085388D02*
X0005594Y0085388D01*
X0005594Y0086986D02*
X0018181Y0086986D01*
X0019067Y0088585D02*
X0005594Y0088585D01*
X0005594Y0090183D02*
X0021397Y0090183D01*
X0020216Y0091782D02*
X0005594Y0091782D01*
X0005594Y0093380D02*
X0019243Y0093380D01*
X0018894Y0094979D02*
X0005594Y0094979D01*
X0005594Y0096577D02*
X0019012Y0096577D01*
X0019674Y0098176D02*
X0005594Y0098176D01*
X0005594Y0099775D02*
X0021410Y0099775D01*
X0019625Y0101373D02*
X0005594Y0101373D01*
X0005594Y0102972D02*
X0018412Y0102972D01*
X0017894Y0104570D02*
X0005594Y0104570D01*
X0005594Y0106169D02*
X0017894Y0106169D01*
X0018505Y0107767D02*
X0005594Y0107767D01*
X0005594Y0109366D02*
X0019847Y0109366D01*
X0025506Y0110964D02*
X0005594Y0110964D01*
X0005594Y0112563D02*
X0027104Y0112563D01*
X0028703Y0114161D02*
X0005594Y0114161D01*
X0005594Y0118957D02*
X0070970Y0118957D01*
X0070970Y0120555D02*
X0005594Y0120555D01*
X0005594Y0150927D02*
X0044965Y0150927D01*
X0043366Y0152525D02*
X0005594Y0152525D01*
X0005594Y0154124D02*
X0041768Y0154124D01*
X0040169Y0155722D02*
X0005594Y0155722D01*
X0005594Y0157321D02*
X0038571Y0157321D01*
X0036972Y0158919D02*
X0005594Y0158919D01*
X0005594Y0160518D02*
X0020782Y0160518D01*
X0019078Y0162116D02*
X0005594Y0162116D01*
X0005594Y0163715D02*
X0018312Y0163715D01*
X0018348Y0166912D02*
X0005594Y0166912D01*
X0005594Y0168510D02*
X0019159Y0168510D01*
X0021000Y0170109D02*
X0005594Y0170109D01*
X0005594Y0171708D02*
X0019083Y0171708D01*
X0018233Y0173306D02*
X0005594Y0173306D01*
X0005594Y0174905D02*
X0017894Y0174905D01*
X0017940Y0176503D02*
X0005594Y0176503D01*
X0005594Y0178102D02*
X0018602Y0178102D01*
X0019975Y0179700D02*
X0005594Y0179700D01*
X0005594Y0181299D02*
X0019492Y0181299D01*
X0018402Y0182897D02*
X0005594Y0182897D01*
X0005594Y0184496D02*
X0017894Y0184496D01*
X0017894Y0186094D02*
X0005594Y0186094D01*
X0005594Y0187693D02*
X0018433Y0187693D01*
X0019566Y0189291D02*
X0005594Y0189291D01*
X0005594Y0190890D02*
X0019901Y0190890D01*
X0018571Y0192488D02*
X0005594Y0192488D01*
X0005594Y0194087D02*
X0017909Y0194087D01*
X0017894Y0195685D02*
X0005594Y0195685D01*
X0005594Y0197284D02*
X0018263Y0197284D01*
X0019157Y0198882D02*
X0005594Y0198882D01*
X0005594Y0200481D02*
X0020310Y0200481D01*
X0018741Y0202079D02*
X0005594Y0202079D01*
X0005594Y0203678D02*
X0018079Y0203678D01*
X0017894Y0205276D02*
X0005594Y0205276D01*
X0005594Y0206875D02*
X0018094Y0206875D01*
X0018756Y0208473D02*
X0005594Y0208473D01*
X0005594Y0210072D02*
X0018551Y0210072D01*
X0017894Y0211670D02*
X0005594Y0211670D01*
X0005594Y0213269D02*
X0017894Y0213269D01*
X0017894Y0214867D02*
X0005594Y0214867D01*
X0005594Y0216466D02*
X0017894Y0216466D01*
X0017894Y0218064D02*
X0005594Y0218064D01*
X0005594Y0219663D02*
X0017894Y0219663D01*
X0029294Y0219663D02*
X0270294Y0219663D01*
X0270294Y0221261D02*
X0005594Y0221261D01*
X0005594Y0222860D02*
X0270294Y0222860D01*
X0270294Y0224458D02*
X0157451Y0224458D01*
X0159031Y0225113D02*
X0155503Y0223652D01*
X0151684Y0223652D01*
X0148157Y0225113D01*
X0145457Y0227813D01*
X0143995Y0231341D01*
X0143995Y0235159D01*
X0145457Y0238687D01*
X0148157Y0241387D01*
X0151684Y0242848D01*
X0155503Y0242848D01*
X0159031Y0241387D01*
X0161731Y0238687D01*
X0163192Y0235159D01*
X0163192Y0231341D01*
X0161731Y0227813D01*
X0159031Y0225113D01*
X0159975Y0226057D02*
X0270294Y0226057D01*
X0270294Y0227655D02*
X0161573Y0227655D01*
X0162328Y0229254D02*
X0270294Y0229254D01*
X0270294Y0230852D02*
X0162990Y0230852D01*
X0163192Y0232451D02*
X0244995Y0232451D01*
X0245358Y0232341D02*
X0246640Y0232086D01*
X0247794Y0231972D01*
X0247794Y0244458D01*
X0249394Y0244458D01*
X0249394Y0246058D01*
X0261879Y0246058D01*
X0261766Y0247212D01*
X0261511Y0248493D01*
X0261131Y0249744D01*
X0260631Y0250951D01*
X0260015Y0252104D01*
X0259289Y0253190D01*
X0258460Y0254200D01*
X0257536Y0255124D01*
X0256526Y0255953D01*
X0255440Y0256679D01*
X0254287Y0257295D01*
X0253080Y0257795D01*
X0251829Y0258175D01*
X0250548Y0258430D01*
X0249394Y0258543D01*
X0249394Y0246058D01*
X0247794Y0246058D01*
X0247794Y0258543D01*
X0246640Y0258430D01*
X0245358Y0258175D01*
X0244108Y0257795D01*
X0242900Y0257295D01*
X0241748Y0256679D01*
X0240661Y0255953D01*
X0239651Y0255124D01*
X0238727Y0254200D01*
X0237898Y0253190D01*
X0237172Y0252104D01*
X0236556Y0250951D01*
X0236056Y0249744D01*
X0235677Y0248493D01*
X0235422Y0247212D01*
X0235308Y0246058D01*
X0247794Y0246058D01*
X0247794Y0244458D01*
X0235308Y0244458D01*
X0235422Y0243304D01*
X0235677Y0242022D01*
X0236056Y0240772D01*
X0236556Y0239565D01*
X0237172Y0238412D01*
X0237898Y0237326D01*
X0238727Y0236315D01*
X0239651Y0235391D01*
X0240661Y0234562D01*
X0241748Y0233836D01*
X0242900Y0233220D01*
X0244108Y0232720D01*
X0245358Y0232341D01*
X0247794Y0232451D02*
X0249394Y0232451D01*
X0249394Y0231972D02*
X0250548Y0232086D01*
X0251829Y0232341D01*
X0253080Y0232720D01*
X0254287Y0233220D01*
X0255440Y0233836D01*
X0256526Y0234562D01*
X0257536Y0235391D01*
X0258460Y0236315D01*
X0259289Y0237326D01*
X0260015Y0238412D01*
X0260631Y0239565D01*
X0261131Y0240772D01*
X0261511Y0242022D01*
X0261766Y0243304D01*
X0261879Y0244458D01*
X0249394Y0244458D01*
X0249394Y0231972D01*
X0249394Y0234049D02*
X0247794Y0234049D01*
X0247794Y0235648D02*
X0249394Y0235648D01*
X0249394Y0237246D02*
X0247794Y0237246D01*
X0247794Y0238845D02*
X0249394Y0238845D01*
X0249394Y0240444D02*
X0247794Y0240444D01*
X0247794Y0242042D02*
X0249394Y0242042D01*
X0249394Y0243641D02*
X0247794Y0243641D01*
X0247794Y0245239D02*
X0029394Y0245239D01*
X0029394Y0244458D02*
X0029394Y0246058D01*
X0041879Y0246058D01*
X0041766Y0247212D01*
X0041511Y0248493D01*
X0041131Y0249744D01*
X0040631Y0250951D01*
X0040015Y0252104D01*
X0039289Y0253190D01*
X0038460Y0254200D01*
X0037536Y0255124D01*
X0036526Y0255953D01*
X0035440Y0256679D01*
X0034287Y0257295D01*
X0033080Y0257795D01*
X0031829Y0258175D01*
X0030548Y0258430D01*
X0029394Y0258543D01*
X0029394Y0246058D01*
X0027794Y0246058D01*
X0027794Y0258543D01*
X0026640Y0258430D01*
X0025358Y0258175D01*
X0024108Y0257795D01*
X0022900Y0257295D01*
X0021748Y0256679D01*
X0020661Y0255953D01*
X0019651Y0255124D01*
X0018727Y0254200D01*
X0017898Y0253190D01*
X0017172Y0252104D01*
X0016556Y0250951D01*
X0016056Y0249744D01*
X0015677Y0248493D01*
X0015422Y0247212D01*
X0015308Y0246058D01*
X0027794Y0246058D01*
X0027794Y0244458D01*
X0029394Y0244458D01*
X0041879Y0244458D01*
X0041766Y0243304D01*
X0041511Y0242022D01*
X0041131Y0240772D01*
X0040631Y0239565D01*
X0040015Y0238412D01*
X0039289Y0237326D01*
X0038460Y0236315D01*
X0037536Y0235391D01*
X0036526Y0234562D01*
X0035440Y0233836D01*
X0034287Y0233220D01*
X0033080Y0232720D01*
X0031829Y0232341D01*
X0030548Y0232086D01*
X0029394Y0231972D01*
X0029394Y0244458D01*
X0029394Y0243641D02*
X0027794Y0243641D01*
X0027794Y0244458D02*
X0027794Y0231972D01*
X0026640Y0232086D01*
X0025358Y0232341D01*
X0024108Y0232720D01*
X0022900Y0233220D01*
X0021748Y0233836D01*
X0020661Y0234562D01*
X0019651Y0235391D01*
X0018727Y0236315D01*
X0017898Y0237326D01*
X0017172Y0238412D01*
X0016556Y0239565D01*
X0016056Y0240772D01*
X0015677Y0242022D01*
X0015422Y0243304D01*
X0015308Y0244458D01*
X0027794Y0244458D01*
X0027794Y0245239D02*
X0005594Y0245239D01*
X0005594Y0243641D02*
X0015389Y0243641D01*
X0015673Y0242042D02*
X0005594Y0242042D01*
X0005594Y0240444D02*
X0016192Y0240444D01*
X0016941Y0238845D02*
X0005594Y0238845D01*
X0005594Y0237246D02*
X0017963Y0237246D01*
X0019395Y0235648D02*
X0005594Y0235648D01*
X0005594Y0234049D02*
X0021429Y0234049D01*
X0024995Y0232451D02*
X0005594Y0232451D01*
X0005594Y0230852D02*
X0069198Y0230852D01*
X0068995Y0231341D02*
X0070457Y0227813D01*
X0073157Y0225113D01*
X0076684Y0223652D01*
X0080503Y0223652D01*
X0084031Y0225113D01*
X0086731Y0227813D01*
X0088192Y0231341D01*
X0088192Y0235159D01*
X0086731Y0238687D01*
X0084031Y0241387D01*
X0080503Y0242848D01*
X0076684Y0242848D01*
X0073157Y0241387D01*
X0070457Y0238687D01*
X0068995Y0235159D01*
X0068995Y0231341D01*
X0068995Y0232451D02*
X0032192Y0232451D01*
X0029394Y0232451D02*
X0027794Y0232451D01*
X0027794Y0234049D02*
X0029394Y0234049D01*
X0029394Y0235648D02*
X0027794Y0235648D01*
X0027794Y0237246D02*
X0029394Y0237246D01*
X0029394Y0238845D02*
X0027794Y0238845D01*
X0027794Y0240444D02*
X0029394Y0240444D01*
X0029394Y0242042D02*
X0027794Y0242042D01*
X0027794Y0246838D02*
X0029394Y0246838D01*
X0029394Y0248436D02*
X0027794Y0248436D01*
X0027794Y0250035D02*
X0029394Y0250035D01*
X0029394Y0251633D02*
X0027794Y0251633D01*
X0027794Y0253232D02*
X0029394Y0253232D01*
X0029394Y0254830D02*
X0027794Y0254830D01*
X0027794Y0256429D02*
X0029394Y0256429D01*
X0029394Y0258027D02*
X0027794Y0258027D01*
X0024871Y0258027D02*
X0005594Y0258027D01*
X0005594Y0256429D02*
X0021373Y0256429D01*
X0019357Y0254830D02*
X0005594Y0254830D01*
X0005594Y0253232D02*
X0017932Y0253232D01*
X0016921Y0251633D02*
X0005594Y0251633D01*
X0005594Y0250035D02*
X0016176Y0250035D01*
X0015665Y0248436D02*
X0005594Y0248436D01*
X0005594Y0246838D02*
X0015385Y0246838D01*
X0005594Y0259626D02*
X0270294Y0259626D01*
X0270294Y0261224D02*
X0005594Y0261224D01*
X0005594Y0262823D02*
X0270294Y0262823D01*
X0270294Y0264421D02*
X0005594Y0264421D01*
X0005594Y0266020D02*
X0270294Y0266020D01*
X0270294Y0267618D02*
X0005594Y0267618D01*
X0005594Y0268219D02*
X0270294Y0268219D01*
X0270294Y0012258D01*
X0005594Y0012258D01*
X0005594Y0268219D01*
X0032316Y0258027D02*
X0244871Y0258027D01*
X0247794Y0258027D02*
X0249394Y0258027D01*
X0249394Y0256429D02*
X0247794Y0256429D01*
X0247794Y0254830D02*
X0249394Y0254830D01*
X0249394Y0253232D02*
X0247794Y0253232D01*
X0247794Y0251633D02*
X0249394Y0251633D01*
X0249394Y0250035D02*
X0247794Y0250035D01*
X0247794Y0248436D02*
X0249394Y0248436D01*
X0249394Y0246838D02*
X0247794Y0246838D01*
X0249394Y0245239D02*
X0270294Y0245239D01*
X0270294Y0243641D02*
X0261799Y0243641D01*
X0261515Y0242042D02*
X0270294Y0242042D01*
X0270294Y0240444D02*
X0260995Y0240444D01*
X0260247Y0238845D02*
X0270294Y0238845D01*
X0270294Y0237246D02*
X0259224Y0237246D01*
X0257793Y0235648D02*
X0270294Y0235648D01*
X0270294Y0234049D02*
X0255758Y0234049D01*
X0252192Y0232451D02*
X0270294Y0232451D01*
X0270294Y0246838D02*
X0261802Y0246838D01*
X0261522Y0248436D02*
X0270294Y0248436D01*
X0270294Y0250035D02*
X0261011Y0250035D01*
X0260267Y0251633D02*
X0270294Y0251633D01*
X0270294Y0253232D02*
X0259255Y0253232D01*
X0257830Y0254830D02*
X0270294Y0254830D01*
X0270294Y0256429D02*
X0255815Y0256429D01*
X0252316Y0258027D02*
X0270294Y0258027D01*
X0241373Y0256429D02*
X0035815Y0256429D01*
X0037830Y0254830D02*
X0239357Y0254830D01*
X0237932Y0253232D02*
X0039255Y0253232D01*
X0040267Y0251633D02*
X0236921Y0251633D01*
X0236176Y0250035D02*
X0041011Y0250035D01*
X0041522Y0248436D02*
X0235665Y0248436D01*
X0235385Y0246838D02*
X0041802Y0246838D01*
X0041799Y0243641D02*
X0235389Y0243641D01*
X0235673Y0242042D02*
X0157450Y0242042D01*
X0159974Y0240444D02*
X0236192Y0240444D01*
X0236941Y0238845D02*
X0161573Y0238845D01*
X0162328Y0237246D02*
X0237963Y0237246D01*
X0239395Y0235648D02*
X0162990Y0235648D01*
X0163192Y0234049D02*
X0241429Y0234049D01*
X0239220Y0218064D02*
X0270294Y0218064D01*
X0270294Y0216466D02*
X0240835Y0216466D01*
X0235890Y0216466D02*
X0234290Y0216466D01*
X0234290Y0218064D02*
X0235890Y0218064D01*
X0235890Y0214867D02*
X0234290Y0214867D01*
X0234290Y0213269D02*
X0235890Y0213269D01*
X0234290Y0211670D02*
X0214959Y0211670D01*
X0228466Y0214867D02*
X0029294Y0214867D01*
X0029294Y0213269D02*
X0075211Y0213269D01*
X0073612Y0211670D02*
X0029294Y0211670D01*
X0028636Y0210072D02*
X0065185Y0210072D01*
X0064310Y0208473D02*
X0028431Y0208473D01*
X0029094Y0206875D02*
X0064310Y0206875D01*
X0064310Y0205276D02*
X0029294Y0205276D01*
X0029109Y0203678D02*
X0064310Y0203678D01*
X0064310Y0202079D02*
X0028447Y0202079D01*
X0026878Y0200481D02*
X0064310Y0200481D01*
X0060791Y0192358D02*
X0046068Y0192358D01*
X0045346Y0193079D01*
X0044432Y0193458D01*
X0077000Y0193458D01*
X0080625Y0189832D01*
X0080625Y0184611D01*
X0080978Y0184258D01*
X0080625Y0183905D01*
X0080625Y0177918D01*
X0081797Y0176746D01*
X0085365Y0176746D01*
X0089881Y0172230D01*
X0089881Y0169193D01*
X0091053Y0168022D01*
X0091450Y0168022D01*
X0091450Y0167508D01*
X0088664Y0164723D01*
X0062625Y0190762D01*
X0062413Y0191274D01*
X0061710Y0191977D01*
X0060791Y0192358D01*
X0062572Y0190890D02*
X0079568Y0190890D01*
X0080625Y0189291D02*
X0064096Y0189291D01*
X0065694Y0187693D02*
X0080625Y0187693D01*
X0080625Y0186094D02*
X0067293Y0186094D01*
X0068891Y0184496D02*
X0080740Y0184496D01*
X0080625Y0182897D02*
X0070490Y0182897D01*
X0072089Y0181299D02*
X0080625Y0181299D01*
X0080625Y0179700D02*
X0073687Y0179700D01*
X0075286Y0178102D02*
X0080625Y0178102D01*
X0078483Y0174905D02*
X0087206Y0174905D01*
X0085608Y0176503D02*
X0076884Y0176503D01*
X0080081Y0173306D02*
X0088805Y0173306D01*
X0089881Y0171708D02*
X0081680Y0171708D01*
X0083278Y0170109D02*
X0089881Y0170109D01*
X0090564Y0168510D02*
X0084877Y0168510D01*
X0086475Y0166912D02*
X0090854Y0166912D01*
X0089255Y0165313D02*
X0088074Y0165313D01*
X0092396Y0176503D02*
X0151194Y0176503D01*
X0151194Y0176142D02*
X0151742Y0174819D01*
X0152754Y0173806D01*
X0154078Y0173258D01*
X0155510Y0173258D01*
X0156833Y0173806D01*
X0157846Y0174819D01*
X0158394Y0176142D01*
X0158394Y0177574D01*
X0157846Y0178897D01*
X0157194Y0179549D01*
X0157194Y0185335D01*
X0156828Y0186217D01*
X0156153Y0186892D01*
X0155271Y0187258D01*
X0154316Y0187258D01*
X0153434Y0186892D01*
X0152759Y0186217D01*
X0152394Y0185335D01*
X0152394Y0179549D01*
X0151742Y0178897D01*
X0151194Y0177574D01*
X0151194Y0176142D01*
X0151706Y0174905D02*
X0117189Y0174905D01*
X0117306Y0173306D02*
X0153961Y0173306D01*
X0155626Y0173306D02*
X0165194Y0173306D01*
X0165194Y0171708D02*
X0117306Y0171708D01*
X0121932Y0165313D02*
X0122847Y0165313D01*
X0123531Y0163715D02*
X0165194Y0163715D01*
X0165194Y0165313D02*
X0127540Y0165313D01*
X0128616Y0166912D02*
X0165194Y0166912D01*
X0165194Y0168510D02*
X0128794Y0168510D01*
X0128234Y0170109D02*
X0165194Y0170109D01*
X0165194Y0174905D02*
X0157881Y0174905D01*
X0158394Y0176503D02*
X0165194Y0176503D01*
X0165194Y0178102D02*
X0158175Y0178102D01*
X0157194Y0179700D02*
X0165642Y0179700D01*
X0167240Y0181299D02*
X0157194Y0181299D01*
X0157194Y0182897D02*
X0166625Y0182897D01*
X0166625Y0184496D02*
X0157194Y0184496D01*
X0156879Y0186094D02*
X0166625Y0186094D01*
X0166625Y0187693D02*
X0117106Y0187693D01*
X0117106Y0189291D02*
X0166825Y0189291D01*
X0170778Y0191789D02*
X0170778Y0195570D01*
X0172799Y0195570D01*
X0173257Y0195447D01*
X0173667Y0195210D01*
X0174003Y0194875D01*
X0174240Y0194464D01*
X0174362Y0194007D01*
X0174362Y0191789D01*
X0170778Y0191789D01*
X0170778Y0192488D02*
X0170409Y0192488D01*
X0170409Y0194087D02*
X0170778Y0194087D01*
X0174341Y0194087D02*
X0209746Y0194087D01*
X0208294Y0195685D02*
X0160981Y0195685D01*
X0152708Y0186094D02*
X0117046Y0186094D01*
X0113522Y0186094D02*
X0113154Y0186094D01*
X0113154Y0187693D02*
X0113522Y0187693D01*
X0109569Y0187693D02*
X0097618Y0187693D01*
X0097618Y0189291D02*
X0109569Y0189291D01*
X0109612Y0190890D02*
X0097576Y0190890D01*
X0094530Y0192488D02*
X0084758Y0192488D01*
X0083159Y0194087D02*
X0092931Y0194087D01*
X0093665Y0192294D02*
X0091644Y0192294D01*
X0091186Y0192171D01*
X0090776Y0191934D01*
X0090441Y0191599D01*
X0090204Y0191189D01*
X0090081Y0190731D01*
X0090081Y0188710D01*
X0093665Y0188710D01*
X0093665Y0192294D01*
X0093665Y0190890D02*
X0094034Y0190890D01*
X0094034Y0189291D02*
X0093665Y0189291D01*
X0093665Y0188341D02*
X0090081Y0188341D01*
X0090081Y0186320D01*
X0090204Y0185862D01*
X0090441Y0185452D01*
X0090776Y0185117D01*
X0091186Y0184880D01*
X0091644Y0184757D01*
X0093665Y0184757D01*
X0093665Y0188341D01*
X0093665Y0187693D02*
X0094034Y0187693D01*
X0094034Y0186094D02*
X0093665Y0186094D01*
X0097558Y0186094D02*
X0109630Y0186094D01*
X0117064Y0190890D02*
X0121002Y0190890D01*
X0125967Y0198882D02*
X0100363Y0198882D01*
X0098765Y0200481D02*
X0126969Y0200481D01*
X0139310Y0202079D02*
X0097994Y0202079D01*
X0097994Y0203678D02*
X0139310Y0203678D01*
X0139310Y0205276D02*
X0097994Y0205276D01*
X0097994Y0206875D02*
X0139310Y0206875D01*
X0139310Y0208473D02*
X0097994Y0208473D01*
X0097994Y0210072D02*
X0140185Y0210072D01*
X0149737Y0224458D02*
X0082451Y0224458D01*
X0084975Y0226057D02*
X0147213Y0226057D01*
X0145614Y0227655D02*
X0086573Y0227655D01*
X0087328Y0229254D02*
X0144860Y0229254D01*
X0144198Y0230852D02*
X0087990Y0230852D01*
X0088192Y0232451D02*
X0143995Y0232451D01*
X0143995Y0234049D02*
X0088192Y0234049D01*
X0087990Y0235648D02*
X0144198Y0235648D01*
X0144860Y0237246D02*
X0087328Y0237246D01*
X0086573Y0238845D02*
X0145614Y0238845D01*
X0147213Y0240444D02*
X0084974Y0240444D01*
X0082450Y0242042D02*
X0149738Y0242042D01*
X0174362Y0192488D02*
X0220430Y0192488D01*
X0218831Y0190890D02*
X0174362Y0190890D01*
X0174362Y0189291D02*
X0217233Y0189291D01*
X0215634Y0187693D02*
X0174562Y0187693D01*
X0152394Y0184496D02*
X0088447Y0184496D01*
X0088562Y0186094D02*
X0090142Y0186094D01*
X0090081Y0187693D02*
X0088562Y0187693D01*
X0088562Y0189291D02*
X0090081Y0189291D01*
X0090124Y0190890D02*
X0088271Y0190890D01*
X0091333Y0195685D02*
X0081560Y0195685D01*
X0082579Y0197284D02*
X0089734Y0197284D01*
X0077969Y0192488D02*
X0045937Y0192488D01*
X0046068Y0187358D02*
X0058958Y0187358D01*
X0068558Y0177758D01*
X0041441Y0177758D01*
X0040736Y0178463D01*
X0040735Y0178464D01*
X0042929Y0180658D01*
X0043950Y0180658D01*
X0045346Y0181236D01*
X0046415Y0182305D01*
X0046994Y0183702D01*
X0046994Y0185214D01*
X0046415Y0186610D01*
X0045868Y0187158D01*
X0046068Y0187358D01*
X0046629Y0186094D02*
X0060222Y0186094D01*
X0061820Y0184496D02*
X0046994Y0184496D01*
X0046660Y0182897D02*
X0063419Y0182897D01*
X0065017Y0181299D02*
X0045408Y0181299D01*
X0041971Y0179700D02*
X0066616Y0179700D01*
X0068214Y0178102D02*
X0041097Y0178102D01*
X0041441Y0172758D02*
X0044068Y0172758D01*
X0043594Y0171614D01*
X0043594Y0170102D01*
X0044172Y0168705D01*
X0045241Y0167636D01*
X0046638Y0167058D01*
X0048150Y0167058D01*
X0049546Y0167636D01*
X0050615Y0168705D01*
X0050885Y0169358D01*
X0068258Y0169358D01*
X0072204Y0165412D01*
X0071641Y0165179D01*
X0070572Y0164110D01*
X0069994Y0162714D01*
X0069994Y0162093D01*
X0066210Y0165877D01*
X0065291Y0166258D01*
X0064296Y0166258D01*
X0046029Y0166258D01*
X0040381Y0171906D01*
X0040736Y0172052D01*
X0041441Y0172758D01*
X0040580Y0171708D02*
X0043633Y0171708D01*
X0043594Y0170109D02*
X0042178Y0170109D01*
X0043777Y0168510D02*
X0044367Y0168510D01*
X0045375Y0166912D02*
X0070704Y0166912D01*
X0071965Y0165313D02*
X0066774Y0165313D01*
X0068372Y0163715D02*
X0070408Y0163715D01*
X0069994Y0162116D02*
X0069971Y0162116D01*
X0066097Y0158919D02*
X0059634Y0158919D01*
X0059346Y0159039D02*
X0060736Y0158463D01*
X0061799Y0157400D01*
X0062375Y0156010D01*
X0062375Y0155271D01*
X0064931Y0153034D01*
X0065010Y0153001D01*
X0065303Y0152708D01*
X0065614Y0152435D01*
X0065652Y0152358D01*
X0068594Y0149417D01*
X0068594Y0156422D01*
X0063758Y0161258D01*
X0044496Y0161258D01*
X0043578Y0161638D01*
X0042874Y0162342D01*
X0034394Y0170822D01*
X0034394Y0169418D01*
X0063894Y0139918D01*
X0063894Y0139982D01*
X0068194Y0139982D01*
X0068194Y0139982D01*
X0063894Y0139982D01*
X0063894Y0141003D01*
X0063694Y0141203D01*
X0063694Y0147246D01*
X0061885Y0149055D01*
X0059118Y0151477D01*
X0057842Y0151477D01*
X0056452Y0152052D01*
X0055388Y0153116D01*
X0054813Y0154506D01*
X0054813Y0156010D01*
X0055388Y0157400D01*
X0056452Y0158463D01*
X0057842Y0159039D01*
X0059346Y0159039D01*
X0057553Y0158919D02*
X0044892Y0158919D01*
X0046490Y0157321D02*
X0055356Y0157321D01*
X0054813Y0155722D02*
X0048089Y0155722D01*
X0049687Y0154124D02*
X0054971Y0154124D01*
X0055979Y0152525D02*
X0051286Y0152525D01*
X0052884Y0150927D02*
X0059746Y0150927D01*
X0061572Y0149328D02*
X0054483Y0149328D01*
X0056082Y0147730D02*
X0063210Y0147730D01*
X0063694Y0146131D02*
X0057680Y0146131D01*
X0059279Y0144533D02*
X0063694Y0144533D01*
X0063694Y0142934D02*
X0060877Y0142934D01*
X0062476Y0141336D02*
X0063694Y0141336D01*
X0063594Y0136258D02*
X0031594Y0168258D01*
X0034394Y0170109D02*
X0035107Y0170109D01*
X0035301Y0168510D02*
X0036706Y0168510D01*
X0036899Y0166912D02*
X0038304Y0166912D01*
X0038498Y0165313D02*
X0039903Y0165313D01*
X0040096Y0163715D02*
X0041501Y0163715D01*
X0041695Y0162116D02*
X0043100Y0162116D01*
X0043293Y0160518D02*
X0064498Y0160518D01*
X0061832Y0157321D02*
X0067695Y0157321D01*
X0068594Y0155722D02*
X0062375Y0155722D01*
X0063685Y0154124D02*
X0068594Y0154124D01*
X0068594Y0152525D02*
X0065511Y0152525D01*
X0067084Y0150927D02*
X0068594Y0150927D01*
X0072694Y0144533D02*
X0097494Y0144533D01*
X0097494Y0142934D02*
X0072694Y0142934D01*
X0072694Y0141336D02*
X0097494Y0141336D01*
X0097494Y0139737D02*
X0072494Y0139737D01*
X0072694Y0138139D02*
X0097494Y0138139D01*
X0097694Y0136540D02*
X0096355Y0136540D01*
X0080832Y0136540D02*
X0072694Y0136540D01*
X0072694Y0134942D02*
X0078883Y0134942D01*
X0077285Y0133343D02*
X0072494Y0133343D01*
X0060843Y0107767D02*
X0116082Y0107767D01*
X0116082Y0106169D02*
X0059245Y0106169D01*
X0057646Y0104570D02*
X0116082Y0104570D01*
X0116082Y0102972D02*
X0057105Y0102972D01*
X0057105Y0101373D02*
X0117170Y0101373D01*
X0117747Y0099775D02*
X0056419Y0099775D01*
X0055340Y0098176D02*
X0117747Y0098176D01*
X0118739Y0096577D02*
X0055994Y0096577D01*
X0055994Y0094979D02*
X0120337Y0094979D01*
X0121936Y0093380D02*
X0055994Y0093380D01*
X0055994Y0091782D02*
X0154186Y0091782D01*
X0152192Y0093380D02*
X0131905Y0093380D01*
X0133504Y0094979D02*
X0135337Y0094979D01*
X0138299Y0099775D02*
X0148296Y0099775D01*
X0136992Y0088585D02*
X0161264Y0088585D01*
X0159665Y0086986D02*
X0138345Y0086986D01*
X0138854Y0085388D02*
X0158067Y0085388D01*
X0156468Y0083789D02*
X0138894Y0083789D01*
X0138894Y0082191D02*
X0154870Y0082191D01*
X0153271Y0080592D02*
X0138894Y0080592D01*
X0138894Y0078994D02*
X0151673Y0078994D01*
X0150074Y0077395D02*
X0138698Y0077395D01*
X0137875Y0075797D02*
X0148476Y0075797D01*
X0158191Y0074198D02*
X0270294Y0074198D01*
X0270294Y0072600D02*
X0199095Y0072600D01*
X0194093Y0072600D02*
X0189095Y0072600D01*
X0190835Y0071001D02*
X0192352Y0071001D01*
X0191690Y0069403D02*
X0191497Y0069403D01*
X0193594Y0064231D02*
X0193779Y0064046D01*
X0195605Y0063289D01*
X0197582Y0063289D01*
X0199408Y0064046D01*
X0199620Y0064258D01*
X0205452Y0064258D01*
X0206235Y0064207D01*
X0207748Y0063801D01*
X0209104Y0063018D01*
X0209694Y0062501D01*
X0211594Y0060601D01*
X0211594Y0053086D01*
X0211570Y0052717D01*
X0211446Y0052258D01*
X0186422Y0052258D01*
X0186053Y0052282D01*
X0185594Y0052405D01*
X0185594Y0055231D01*
X0185806Y0055443D01*
X0186562Y0057270D01*
X0186562Y0058507D01*
X0186625Y0058398D01*
X0186625Y0057270D01*
X0187382Y0055443D01*
X0188779Y0054046D01*
X0190605Y0053289D01*
X0192582Y0053289D01*
X0194408Y0054046D01*
X0195806Y0055443D01*
X0196562Y0057270D01*
X0196562Y0059246D01*
X0195806Y0061072D01*
X0194408Y0062470D01*
X0193612Y0062800D01*
X0193594Y0063086D01*
X0193594Y0064231D01*
X0193599Y0063009D02*
X0201107Y0063009D01*
X0201218Y0063026D02*
X0200477Y0062909D01*
X0199763Y0062677D01*
X0199094Y0062336D01*
X0198487Y0061895D01*
X0197956Y0061364D01*
X0197515Y0060757D01*
X0197175Y0060088D01*
X0196943Y0059374D01*
X0196825Y0058633D01*
X0196825Y0058442D01*
X0201409Y0058442D01*
X0201409Y0058074D01*
X0196825Y0058074D01*
X0196825Y0057883D01*
X0196943Y0057141D01*
X0197175Y0056427D01*
X0197515Y0055759D01*
X0197956Y0055151D01*
X0198487Y0054621D01*
X0199094Y0054179D01*
X0199763Y0053839D01*
X0200477Y0053607D01*
X0201218Y0053489D01*
X0201409Y0053489D01*
X0201409Y0058074D01*
X0201778Y0058074D01*
X0201778Y0058442D01*
X0206362Y0058442D01*
X0206362Y0058633D01*
X0206245Y0059374D01*
X0206013Y0060088D01*
X0205672Y0060757D01*
X0205231Y0061364D01*
X0204700Y0061895D01*
X0204093Y0062336D01*
X0203424Y0062677D01*
X0202710Y0062909D01*
X0201969Y0063026D01*
X0201778Y0063026D01*
X0201778Y0058442D01*
X0201409Y0058442D01*
X0201409Y0063026D01*
X0201218Y0063026D01*
X0201409Y0063009D02*
X0201778Y0063009D01*
X0202080Y0063009D02*
X0209115Y0063009D01*
X0210784Y0061410D02*
X0205185Y0061410D01*
X0206103Y0059812D02*
X0211594Y0059812D01*
X0211594Y0058213D02*
X0201778Y0058213D01*
X0201778Y0058074D02*
X0206362Y0058074D01*
X0206362Y0057883D01*
X0206245Y0057141D01*
X0206013Y0056427D01*
X0205672Y0055759D01*
X0205231Y0055151D01*
X0204700Y0054621D01*
X0204093Y0054179D01*
X0203424Y0053839D01*
X0202710Y0053607D01*
X0201969Y0053489D01*
X0201778Y0053489D01*
X0201778Y0058074D01*
X0201409Y0058213D02*
X0196562Y0058213D01*
X0196328Y0059812D02*
X0197085Y0059812D01*
X0198002Y0061410D02*
X0195468Y0061410D01*
X0196291Y0056615D02*
X0197114Y0056615D01*
X0198092Y0055016D02*
X0195379Y0055016D01*
X0192892Y0053418D02*
X0211594Y0053418D01*
X0211594Y0055016D02*
X0205096Y0055016D01*
X0206074Y0056615D02*
X0211594Y0056615D01*
X0219594Y0056615D02*
X0270294Y0056615D01*
X0270294Y0058213D02*
X0219594Y0058213D01*
X0219594Y0059812D02*
X0270294Y0059812D01*
X0270294Y0061410D02*
X0219594Y0061410D01*
X0219594Y0063009D02*
X0270294Y0063009D01*
X0270294Y0064607D02*
X0218901Y0064607D01*
X0217303Y0066206D02*
X0270294Y0066206D01*
X0270294Y0067804D02*
X0215704Y0067804D01*
X0214788Y0068720D02*
X0214788Y0068720D01*
X0214106Y0069403D02*
X0270294Y0069403D01*
X0270294Y0071001D02*
X0211379Y0071001D01*
X0214048Y0069461D02*
X0214048Y0069461D01*
X0201778Y0061410D02*
X0201409Y0061410D01*
X0201409Y0059812D02*
X0201778Y0059812D01*
X0201778Y0056615D02*
X0201409Y0056615D01*
X0201409Y0055016D02*
X0201778Y0055016D01*
X0190296Y0053418D02*
X0185594Y0053418D01*
X0185594Y0055016D02*
X0187809Y0055016D01*
X0186896Y0056615D02*
X0186291Y0056615D01*
X0186562Y0058213D02*
X0186625Y0058213D01*
X0185661Y0061410D02*
X0185468Y0061410D01*
X0185186Y0063009D02*
X0183107Y0063009D01*
X0183218Y0064607D02*
X0181243Y0064607D01*
X0181240Y0064595D02*
X0181362Y0065052D01*
X0181362Y0068074D01*
X0176778Y0068074D01*
X0176778Y0068442D01*
X0181362Y0068442D01*
X0181362Y0071463D01*
X0181240Y0071921D01*
X0181003Y0072332D01*
X0180667Y0072667D01*
X0180257Y0072904D01*
X0179799Y0073026D01*
X0176778Y0073026D01*
X0176778Y0068442D01*
X0176409Y0068442D01*
X0176409Y0068074D01*
X0171825Y0068074D01*
X0171825Y0065052D01*
X0171948Y0064595D01*
X0172185Y0064184D01*
X0172520Y0063849D01*
X0172930Y0063612D01*
X0173388Y0063489D01*
X0176409Y0063489D01*
X0176409Y0068074D01*
X0176778Y0068074D01*
X0176778Y0063489D01*
X0179799Y0063489D01*
X0180257Y0063612D01*
X0180667Y0063849D01*
X0181003Y0064184D01*
X0181240Y0064595D01*
X0181362Y0066206D02*
X0182066Y0066206D01*
X0181625Y0067804D02*
X0181362Y0067804D01*
X0181362Y0069403D02*
X0181690Y0069403D01*
X0181362Y0071001D02*
X0182352Y0071001D01*
X0180734Y0072600D02*
X0184093Y0072600D01*
X0181667Y0076306D02*
X0181257Y0076069D01*
X0180799Y0075946D01*
X0178778Y0075946D01*
X0178778Y0079727D01*
X0178409Y0079727D01*
X0174825Y0079727D01*
X0174825Y0077509D01*
X0174948Y0077051D01*
X0175185Y0076641D01*
X0175520Y0076306D01*
X0175930Y0076069D01*
X0176388Y0075946D01*
X0178409Y0075946D01*
X0178409Y0079727D01*
X0178409Y0080096D01*
X0174825Y0080096D01*
X0174825Y0082314D01*
X0174948Y0082772D01*
X0175137Y0083099D01*
X0174625Y0083611D01*
X0174625Y0089598D01*
X0175797Y0090770D01*
X0181391Y0090770D01*
X0182542Y0089618D01*
X0215809Y0089618D01*
X0216005Y0090091D01*
X0217481Y0091567D01*
X0219410Y0092366D01*
X0221498Y0092366D01*
X0223427Y0091567D01*
X0224903Y0090091D01*
X0225702Y0088162D01*
X0225702Y0086074D01*
X0224903Y0084145D01*
X0223427Y0082669D01*
X0221498Y0081870D01*
X0219410Y0081870D01*
X0217481Y0082669D01*
X0216005Y0084145D01*
X0215809Y0084618D01*
X0182562Y0084618D01*
X0182562Y0083611D01*
X0182051Y0083099D01*
X0182240Y0082772D01*
X0182362Y0082314D01*
X0182362Y0080096D01*
X0178778Y0080096D01*
X0178778Y0079727D01*
X0182362Y0079727D01*
X0182362Y0077509D01*
X0182240Y0077051D01*
X0182003Y0076641D01*
X0181667Y0076306D01*
X0182332Y0077395D02*
X0270294Y0077395D01*
X0270294Y0075797D02*
X0159790Y0075797D01*
X0161388Y0077395D02*
X0174856Y0077395D01*
X0174825Y0078994D02*
X0162987Y0078994D01*
X0164585Y0080592D02*
X0174825Y0080592D01*
X0174825Y0082191D02*
X0166184Y0082191D01*
X0167782Y0083789D02*
X0174625Y0083789D01*
X0174625Y0085388D02*
X0169381Y0085388D01*
X0170979Y0086986D02*
X0174625Y0086986D01*
X0174625Y0088585D02*
X0172578Y0088585D01*
X0174176Y0090183D02*
X0175211Y0090183D01*
X0175775Y0091782D02*
X0218000Y0091782D01*
X0216097Y0090183D02*
X0181977Y0090183D01*
X0177373Y0093380D02*
X0270294Y0093380D01*
X0270294Y0091782D02*
X0249188Y0091782D01*
X0249706Y0091567D02*
X0247777Y0092366D01*
X0245690Y0092366D01*
X0243761Y0091567D01*
X0242284Y0090091D01*
X0241485Y0088162D01*
X0241485Y0086074D01*
X0242284Y0084145D01*
X0243761Y0082669D01*
X0245690Y0081870D01*
X0247777Y0081870D01*
X0249706Y0082669D01*
X0251183Y0084145D01*
X0251981Y0086074D01*
X0251981Y0088162D01*
X0251183Y0090091D01*
X0249706Y0091567D01*
X0251090Y0090183D02*
X0270294Y0090183D01*
X0270294Y0088585D02*
X0251806Y0088585D01*
X0251981Y0086986D02*
X0270294Y0086986D01*
X0270294Y0085388D02*
X0251697Y0085388D01*
X0250827Y0083789D02*
X0270294Y0083789D01*
X0270294Y0082191D02*
X0248552Y0082191D01*
X0244915Y0082191D02*
X0222272Y0082191D01*
X0224547Y0083789D02*
X0242640Y0083789D01*
X0241770Y0085388D02*
X0225418Y0085388D01*
X0225702Y0086986D02*
X0241485Y0086986D01*
X0241661Y0088585D02*
X0225527Y0088585D01*
X0224810Y0090183D02*
X0242377Y0090183D01*
X0244279Y0091782D02*
X0222908Y0091782D01*
X0218300Y0096407D02*
X0217657Y0095940D01*
X0216949Y0095580D01*
X0216193Y0095334D01*
X0215408Y0095210D01*
X0215294Y0095210D01*
X0215294Y0099975D01*
X0215294Y0100541D01*
X0214728Y0100541D01*
X0214728Y0099975D01*
X0215294Y0099975D01*
X0220059Y0099975D01*
X0220059Y0099861D01*
X0219935Y0099076D01*
X0219689Y0098320D01*
X0219328Y0097612D01*
X0218861Y0096969D01*
X0218300Y0096407D01*
X0218470Y0096577D02*
X0248435Y0096577D01*
X0247358Y0098176D02*
X0219616Y0098176D01*
X0220045Y0099775D02*
X0246928Y0099775D01*
X0246958Y0101373D02*
X0219945Y0101373D01*
X0219935Y0101440D02*
X0219689Y0102196D01*
X0219328Y0102904D01*
X0218861Y0103546D01*
X0218300Y0104108D01*
X0217657Y0104575D01*
X0216949Y0104936D01*
X0216193Y0105182D01*
X0215408Y0105306D01*
X0215294Y0105306D01*
X0215294Y0100541D01*
X0220059Y0100541D01*
X0220059Y0100655D01*
X0219935Y0101440D01*
X0219279Y0102972D02*
X0247620Y0102972D01*
X0249067Y0104570D02*
X0217664Y0104570D01*
X0215294Y0104570D02*
X0214728Y0104570D01*
X0214728Y0102972D02*
X0215294Y0102972D01*
X0215294Y0101373D02*
X0214728Y0101373D01*
X0214728Y0099775D02*
X0215294Y0099775D01*
X0215294Y0098176D02*
X0214728Y0098176D01*
X0214728Y0096577D02*
X0215294Y0096577D01*
X0216361Y0083789D02*
X0182562Y0083789D01*
X0182362Y0082191D02*
X0218636Y0082191D01*
X0219594Y0055016D02*
X0270294Y0055016D01*
X0270294Y0053418D02*
X0219594Y0053418D01*
X0219594Y0051819D02*
X0270294Y0051819D01*
X0270294Y0050221D02*
X0219208Y0050221D01*
X0218856Y0048907D02*
X0218856Y0048907D01*
X0218691Y0048622D02*
X0270294Y0048622D01*
X0270294Y0047024D02*
X0254796Y0047024D01*
X0254287Y0047295D02*
X0255440Y0046679D01*
X0256526Y0045953D01*
X0257536Y0045124D01*
X0258460Y0044200D01*
X0259289Y0043190D01*
X0260015Y0042104D01*
X0260631Y0040951D01*
X0261131Y0039744D01*
X0261511Y0038493D01*
X0261766Y0037212D01*
X0261879Y0036058D01*
X0249394Y0036058D01*
X0249394Y0034458D01*
X0261879Y0034458D01*
X0261766Y0033304D01*
X0261511Y0032022D01*
X0261131Y0030772D01*
X0260631Y0029565D01*
X0260015Y0028412D01*
X0259289Y0027326D01*
X0258460Y0026315D01*
X0257536Y0025391D01*
X0256526Y0024562D01*
X0255440Y0023836D01*
X0254287Y0023220D01*
X0253080Y0022720D01*
X0251829Y0022341D01*
X0250548Y0022086D01*
X0249394Y0021972D01*
X0249394Y0034458D01*
X0247794Y0034458D01*
X0247794Y0021972D01*
X0246640Y0022086D01*
X0245358Y0022341D01*
X0244108Y0022720D01*
X0242900Y0023220D01*
X0241748Y0023836D01*
X0240661Y0024562D01*
X0239651Y0025391D01*
X0238727Y0026315D01*
X0237898Y0027326D01*
X0237172Y0028412D01*
X0236556Y0029565D01*
X0236056Y0030772D01*
X0235677Y0032022D01*
X0235422Y0033304D01*
X0235308Y0034458D01*
X0247794Y0034458D01*
X0247794Y0036058D01*
X0247794Y0048543D01*
X0246640Y0048430D01*
X0245358Y0048175D01*
X0244108Y0047795D01*
X0242900Y0047295D01*
X0241748Y0046679D01*
X0240661Y0045953D01*
X0239651Y0045124D01*
X0238727Y0044200D01*
X0237898Y0043190D01*
X0237172Y0042104D01*
X0236556Y0040951D01*
X0236056Y0039744D01*
X0235677Y0038493D01*
X0235422Y0037212D01*
X0235308Y0036058D01*
X0247794Y0036058D01*
X0249394Y0036058D01*
X0249394Y0048543D01*
X0250548Y0048430D01*
X0251829Y0048175D01*
X0253080Y0047795D01*
X0254287Y0047295D01*
X0257170Y0045425D02*
X0270294Y0045425D01*
X0270294Y0043827D02*
X0258767Y0043827D01*
X0259932Y0042228D02*
X0270294Y0042228D01*
X0270294Y0040630D02*
X0260764Y0040630D01*
X0261348Y0039031D02*
X0270294Y0039031D01*
X0270294Y0037433D02*
X0261722Y0037433D01*
X0261857Y0034236D02*
X0270294Y0034236D01*
X0270294Y0035834D02*
X0249394Y0035834D01*
X0249394Y0034236D02*
X0247794Y0034236D01*
X0247794Y0035834D02*
X0217203Y0035834D01*
X0217570Y0034948D02*
X0216277Y0038070D01*
X0213887Y0040460D01*
X0210764Y0041754D01*
X0207384Y0041754D01*
X0204261Y0040460D01*
X0201871Y0038070D01*
X0200578Y0034948D01*
X0200578Y0031568D01*
X0201871Y0028445D01*
X0204261Y0026055D01*
X0207384Y0024762D01*
X0210405Y0024762D01*
X0210085Y0024207D01*
X0209750Y0023399D01*
X0209524Y0022554D01*
X0209458Y0022050D01*
X0215282Y0022050D01*
X0215282Y0027451D01*
X0216277Y0028445D01*
X0217570Y0031568D01*
X0217570Y0034948D01*
X0217570Y0034236D02*
X0235330Y0034236D01*
X0235554Y0032637D02*
X0217570Y0032637D01*
X0217351Y0031039D02*
X0235975Y0031039D01*
X0236623Y0029440D02*
X0216689Y0029440D01*
X0216882Y0027874D02*
X0217386Y0027808D01*
X0218231Y0027582D01*
X0219039Y0027247D01*
X0219797Y0026809D01*
X0220491Y0026277D01*
X0221109Y0025659D01*
X0221641Y0024965D01*
X0222079Y0024207D01*
X0222413Y0023399D01*
X0222640Y0022554D01*
X0222706Y0022050D01*
X0216882Y0022050D01*
X0216882Y0020450D01*
X0222706Y0020450D01*
X0222640Y0019946D01*
X0222413Y0019101D01*
X0222079Y0018293D01*
X0221641Y0017535D01*
X0221109Y0016841D01*
X0220491Y0016223D01*
X0219797Y0015690D01*
X0219039Y0015253D01*
X0218231Y0014918D01*
X0217386Y0014692D01*
X0216882Y0014626D01*
X0216882Y0020450D01*
X0215282Y0020450D01*
X0215282Y0014626D01*
X0214777Y0014692D01*
X0213933Y0014918D01*
X0213125Y0015253D01*
X0212367Y0015690D01*
X0211673Y0016223D01*
X0211055Y0016841D01*
X0210522Y0017535D01*
X0210085Y0018293D01*
X0209750Y0019101D01*
X0209524Y0019946D01*
X0209458Y0020450D01*
X0215282Y0020450D01*
X0215282Y0022050D01*
X0216882Y0022050D01*
X0216882Y0027874D01*
X0216882Y0027841D02*
X0215673Y0027841D01*
X0217131Y0027841D02*
X0237553Y0027841D01*
X0238800Y0026243D02*
X0220525Y0026243D01*
X0221826Y0024644D02*
X0240561Y0024644D01*
X0243321Y0023046D02*
X0222508Y0023046D01*
X0222614Y0019849D02*
X0270294Y0019849D01*
X0270294Y0021447D02*
X0216882Y0021447D01*
X0216882Y0019849D02*
X0215282Y0019849D01*
X0215282Y0021447D02*
X0162866Y0021447D01*
X0162866Y0022050D02*
X0162866Y0020450D01*
X0162866Y0014626D01*
X0163371Y0014692D01*
X0164215Y0014918D01*
X0165023Y0015253D01*
X0165781Y0015690D01*
X0166475Y0016223D01*
X0167093Y0016841D01*
X0167626Y0017535D01*
X0168063Y0018293D01*
X0168398Y0019101D01*
X0168624Y0019946D01*
X0168690Y0020450D01*
X0162866Y0020450D01*
X0161266Y0020450D01*
X0155442Y0020450D01*
X0155508Y0019946D01*
X0155735Y0019101D01*
X0156069Y0018293D01*
X0156507Y0017535D01*
X0157039Y0016841D01*
X0157658Y0016223D01*
X0158351Y0015690D01*
X0159109Y0015253D01*
X0159917Y0014918D01*
X0160762Y0014692D01*
X0161266Y0014626D01*
X0161266Y0020450D01*
X0161266Y0022050D01*
X0155442Y0022050D01*
X0155508Y0022554D01*
X0155735Y0023399D01*
X0156069Y0024207D01*
X0156507Y0024965D01*
X0157039Y0025659D01*
X0157658Y0026277D01*
X0158351Y0026809D01*
X0159109Y0027247D01*
X0159917Y0027582D01*
X0160762Y0027808D01*
X0161266Y0027874D01*
X0161266Y0022050D01*
X0162866Y0022050D01*
X0162866Y0027451D01*
X0161871Y0028445D01*
X0160578Y0031568D01*
X0160578Y0034948D01*
X0161871Y0038070D01*
X0164261Y0040460D01*
X0167384Y0041754D01*
X0170764Y0041754D01*
X0173887Y0040460D01*
X0176277Y0038070D01*
X0177570Y0034948D01*
X0177570Y0031568D01*
X0176277Y0028445D01*
X0173887Y0026055D01*
X0170764Y0024762D01*
X0167743Y0024762D01*
X0168063Y0024207D01*
X0168398Y0023399D01*
X0168624Y0022554D01*
X0168690Y0022050D01*
X0162866Y0022050D01*
X0162866Y0023046D02*
X0161266Y0023046D01*
X0161266Y0024644D02*
X0162866Y0024644D01*
X0162866Y0026243D02*
X0161266Y0026243D01*
X0161266Y0027841D02*
X0162475Y0027841D01*
X0161017Y0027841D02*
X0082106Y0027841D01*
X0082106Y0027174D02*
X0082106Y0029196D01*
X0081984Y0029653D01*
X0081747Y0030064D01*
X0081412Y0030399D01*
X0081001Y0030636D01*
X0080543Y0030759D01*
X0078522Y0030759D01*
X0078522Y0027174D01*
X0082106Y0027174D01*
X0082106Y0026806D02*
X0078522Y0026806D01*
X0078522Y0027174D01*
X0078154Y0027174D01*
X0078153Y0027174D02*
X0078153Y0026806D01*
X0074569Y0026806D01*
X0074569Y0024785D01*
X0074692Y0024327D01*
X0074929Y0023916D01*
X0075264Y0023581D01*
X0075675Y0023344D01*
X0076132Y0023222D01*
X0078154Y0023222D01*
X0078154Y0026806D01*
X0078522Y0026806D01*
X0078522Y0023222D01*
X0080543Y0023222D01*
X0081001Y0023344D01*
X0081412Y0023581D01*
X0081747Y0023916D01*
X0081984Y0024327D01*
X0082106Y0024785D01*
X0082106Y0026806D01*
X0082106Y0026243D02*
X0157623Y0026243D01*
X0156322Y0024644D02*
X0082069Y0024644D01*
X0082041Y0029440D02*
X0161459Y0029440D01*
X0160797Y0031039D02*
X0041212Y0031039D01*
X0041633Y0032637D02*
X0111334Y0032637D01*
X0108436Y0034236D02*
X0041857Y0034236D01*
X0040565Y0029440D02*
X0055147Y0029440D01*
X0055204Y0029653D02*
X0055081Y0029196D01*
X0055081Y0027174D01*
X0058665Y0027174D01*
X0058665Y0026806D01*
X0055081Y0026806D01*
X0055081Y0024785D01*
X0055204Y0024327D01*
X0055441Y0023916D01*
X0055776Y0023581D01*
X0056186Y0023344D01*
X0056644Y0023222D01*
X0058665Y0023222D01*
X0058665Y0026806D01*
X0059034Y0026806D01*
X0059034Y0027174D01*
X0062618Y0027174D01*
X0062618Y0029196D01*
X0062495Y0029653D01*
X0062258Y0030064D01*
X0061923Y0030399D01*
X0061513Y0030636D01*
X0061055Y0030759D01*
X0059034Y0030759D01*
X0059034Y0027174D01*
X0058665Y0027174D01*
X0058665Y0030759D01*
X0056644Y0030759D01*
X0056186Y0030636D01*
X0055776Y0030399D01*
X0055441Y0030064D01*
X0055204Y0029653D01*
X0055081Y0027841D02*
X0039634Y0027841D01*
X0038388Y0026243D02*
X0055081Y0026243D01*
X0055119Y0024644D02*
X0036626Y0024644D01*
X0033866Y0023046D02*
X0155640Y0023046D01*
X0155534Y0019849D02*
X0005594Y0019849D01*
X0005594Y0021447D02*
X0161266Y0021447D01*
X0161266Y0019849D02*
X0162866Y0019849D01*
X0162866Y0018250D02*
X0161266Y0018250D01*
X0161266Y0016652D02*
X0162866Y0016652D01*
X0162866Y0015053D02*
X0161266Y0015053D01*
X0159591Y0015053D02*
X0005594Y0015053D01*
X0005594Y0013455D02*
X0270294Y0013455D01*
X0270294Y0015053D02*
X0218557Y0015053D01*
X0216882Y0015053D02*
X0215282Y0015053D01*
X0215282Y0016652D02*
X0216882Y0016652D01*
X0216882Y0018250D02*
X0215282Y0018250D01*
X0213607Y0015053D02*
X0164541Y0015053D01*
X0166904Y0016652D02*
X0211244Y0016652D01*
X0210109Y0018250D02*
X0168039Y0018250D01*
X0168598Y0019849D02*
X0209550Y0019849D01*
X0209656Y0023046D02*
X0168492Y0023046D01*
X0167811Y0024644D02*
X0210337Y0024644D01*
X0215282Y0024644D02*
X0216882Y0024644D01*
X0216882Y0023046D02*
X0215282Y0023046D01*
X0215282Y0026243D02*
X0216882Y0026243D01*
X0222054Y0018250D02*
X0270294Y0018250D01*
X0270294Y0016652D02*
X0220920Y0016652D01*
X0204074Y0026243D02*
X0174074Y0026243D01*
X0175673Y0027841D02*
X0202475Y0027841D01*
X0201459Y0029440D02*
X0176689Y0029440D01*
X0177351Y0031039D02*
X0200797Y0031039D01*
X0200578Y0032637D02*
X0177570Y0032637D01*
X0177570Y0034236D02*
X0200578Y0034236D01*
X0200945Y0035834D02*
X0177203Y0035834D01*
X0176541Y0037433D02*
X0201607Y0037433D01*
X0202832Y0039031D02*
X0175316Y0039031D01*
X0173478Y0040630D02*
X0204670Y0040630D01*
X0213478Y0040630D02*
X0236423Y0040630D01*
X0235840Y0039031D02*
X0215316Y0039031D01*
X0216541Y0037433D02*
X0235466Y0037433D01*
X0237255Y0042228D02*
X0121334Y0042228D01*
X0121499Y0040630D02*
X0164670Y0040630D01*
X0162832Y0039031D02*
X0121499Y0039031D01*
X0120980Y0037433D02*
X0161607Y0037433D01*
X0160945Y0035834D02*
X0120318Y0035834D01*
X0118751Y0034236D02*
X0160578Y0034236D01*
X0160578Y0032637D02*
X0115853Y0032637D01*
X0120672Y0043827D02*
X0238420Y0043827D01*
X0240018Y0045425D02*
X0216418Y0045425D01*
X0216985Y0045992D02*
X0216985Y0045992D01*
X0217769Y0047024D02*
X0242392Y0047024D01*
X0247794Y0047024D02*
X0249394Y0047024D01*
X0249394Y0045425D02*
X0247794Y0045425D01*
X0247794Y0043827D02*
X0249394Y0043827D01*
X0249394Y0042228D02*
X0247794Y0042228D01*
X0247794Y0040630D02*
X0249394Y0040630D01*
X0249394Y0039031D02*
X0247794Y0039031D01*
X0247794Y0037433D02*
X0249394Y0037433D01*
X0249394Y0032637D02*
X0247794Y0032637D01*
X0247794Y0031039D02*
X0249394Y0031039D01*
X0249394Y0029440D02*
X0247794Y0029440D01*
X0247794Y0027841D02*
X0249394Y0027841D01*
X0249394Y0026243D02*
X0247794Y0026243D01*
X0247794Y0024644D02*
X0249394Y0024644D01*
X0249394Y0023046D02*
X0247794Y0023046D01*
X0253866Y0023046D02*
X0270294Y0023046D01*
X0270294Y0024644D02*
X0256626Y0024644D01*
X0258388Y0026243D02*
X0270294Y0026243D01*
X0270294Y0027841D02*
X0259634Y0027841D01*
X0260565Y0029440D02*
X0270294Y0029440D01*
X0270294Y0031039D02*
X0261212Y0031039D01*
X0261633Y0032637D02*
X0270294Y0032637D01*
X0270294Y0078994D02*
X0182362Y0078994D01*
X0182362Y0080592D02*
X0270294Y0080592D01*
X0243344Y0109366D02*
X0223844Y0109366D01*
X0225126Y0110964D02*
X0242061Y0110964D01*
X0241485Y0112563D02*
X0225702Y0112563D01*
X0225702Y0114161D02*
X0241485Y0114161D01*
X0242031Y0115760D02*
X0225156Y0115760D01*
X0223915Y0117358D02*
X0243272Y0117358D01*
X0203810Y0146131D02*
X0196611Y0146131D01*
X0197375Y0144533D02*
X0202212Y0144533D01*
X0200613Y0142934D02*
X0197375Y0142934D01*
X0197375Y0141336D02*
X0199015Y0141336D01*
X0197416Y0139737D02*
X0196964Y0139737D01*
X0188341Y0136540D02*
X0153270Y0136540D01*
X0151672Y0134942D02*
X0186742Y0134942D01*
X0185144Y0133343D02*
X0150890Y0133343D01*
X0150890Y0131745D02*
X0183545Y0131745D01*
X0183030Y0125351D02*
X0168876Y0125351D01*
X0165002Y0128548D02*
X0150860Y0128548D01*
X0150890Y0128659D02*
X0150890Y0130877D01*
X0147109Y0130877D01*
X0147109Y0127096D01*
X0149327Y0127096D01*
X0149785Y0127218D01*
X0150195Y0127455D01*
X0150530Y0127790D01*
X0150767Y0128201D01*
X0150890Y0128659D01*
X0150890Y0130146D02*
X0166600Y0130146D01*
X0156779Y0123752D02*
X0150063Y0123752D01*
X0150905Y0122154D02*
X0156082Y0122154D01*
X0155355Y0120555D02*
X0150905Y0120555D01*
X0150905Y0118957D02*
X0153757Y0118957D01*
X0152158Y0117358D02*
X0150646Y0117358D01*
X0147109Y0128548D02*
X0146346Y0128548D01*
X0146346Y0130146D02*
X0147109Y0130146D01*
X0147109Y0139737D02*
X0146346Y0139737D01*
X0146346Y0141336D02*
X0147109Y0141336D01*
X0147109Y0142934D02*
X0152876Y0142934D01*
X0151278Y0141336D02*
X0150890Y0141336D01*
X0150890Y0144533D02*
X0154475Y0144533D01*
X0156073Y0146131D02*
X0150816Y0146131D01*
X0147109Y0146131D02*
X0146346Y0146131D01*
X0146346Y0144533D02*
X0147109Y0144533D01*
X0142978Y0139737D02*
X0142492Y0139737D01*
X0134428Y0139737D02*
X0132382Y0139737D01*
X0133029Y0146131D02*
X0134098Y0146131D01*
X0134238Y0150927D02*
X0132571Y0150927D01*
X0132839Y0157321D02*
X0134098Y0157321D01*
X0124647Y0158919D02*
X0165194Y0158919D01*
X0165194Y0157321D02*
X0150764Y0157321D01*
X0150890Y0155722D02*
X0165194Y0155722D01*
X0164066Y0154124D02*
X0147109Y0154124D01*
X0147109Y0155722D02*
X0146346Y0155722D01*
X0146346Y0157321D02*
X0147109Y0157321D01*
X0147109Y0152525D02*
X0146346Y0152525D01*
X0146346Y0150927D02*
X0147109Y0150927D01*
X0142846Y0150927D02*
X0142682Y0150927D01*
X0157672Y0147730D02*
X0121169Y0147730D01*
X0124647Y0160518D02*
X0165194Y0160518D01*
X0165194Y0162116D02*
X0124633Y0162116D01*
X0109487Y0174905D02*
X0097701Y0174905D01*
X0090798Y0178102D02*
X0151412Y0178102D01*
X0152394Y0179700D02*
X0089199Y0179700D01*
X0088562Y0181299D02*
X0152394Y0181299D01*
X0152394Y0182897D02*
X0088562Y0182897D01*
X0069106Y0168510D02*
X0050420Y0168510D01*
X0035374Y0160518D02*
X0026406Y0160518D01*
X0028110Y0162116D02*
X0033775Y0162116D01*
X0032177Y0163715D02*
X0028875Y0163715D01*
X0023394Y0165313D02*
X0005594Y0165313D01*
X0027287Y0190890D02*
X0032266Y0190890D01*
X0033864Y0192488D02*
X0028616Y0192488D01*
X0029278Y0194087D02*
X0035463Y0194087D01*
X0037061Y0195685D02*
X0029294Y0195685D01*
X0028924Y0197284D02*
X0038660Y0197284D01*
X0040613Y0198882D02*
X0028030Y0198882D01*
X0029294Y0216466D02*
X0229344Y0216466D01*
X0230959Y0218064D02*
X0029294Y0218064D01*
X0035758Y0234049D02*
X0068995Y0234049D01*
X0069198Y0235648D02*
X0037793Y0235648D01*
X0039224Y0237246D02*
X0069860Y0237246D01*
X0070614Y0238845D02*
X0040247Y0238845D01*
X0040995Y0240444D02*
X0072213Y0240444D01*
X0074738Y0242042D02*
X0041515Y0242042D01*
X0069860Y0229254D02*
X0005594Y0229254D01*
X0005594Y0227655D02*
X0070614Y0227655D01*
X0072213Y0226057D02*
X0005594Y0226057D01*
X0005594Y0224458D02*
X0074737Y0224458D01*
X0123715Y0123752D02*
X0123818Y0123752D01*
X0126756Y0123752D02*
X0127124Y0123752D01*
X0127124Y0122154D02*
X0126756Y0122154D01*
X0126756Y0120555D02*
X0127124Y0120555D01*
X0127124Y0118957D02*
X0126756Y0118957D01*
X0126756Y0117358D02*
X0127124Y0117358D01*
X0131228Y0099775D02*
X0122747Y0099775D01*
X0124211Y0098176D02*
X0129630Y0098176D01*
X0131195Y0088585D02*
X0127338Y0088585D01*
X0128583Y0086986D02*
X0129842Y0086986D01*
X0129334Y0085388D02*
X0129094Y0085388D01*
X0129094Y0083789D02*
X0129294Y0083789D01*
X0129294Y0082191D02*
X0129094Y0082191D01*
X0129094Y0080592D02*
X0129294Y0080592D01*
X0129294Y0078994D02*
X0129094Y0078994D01*
X0128941Y0077395D02*
X0129489Y0077395D01*
X0130312Y0075797D02*
X0128204Y0075797D01*
X0119984Y0075797D02*
X0118712Y0075797D01*
X0118941Y0077395D02*
X0119246Y0077395D01*
X0119094Y0078994D02*
X0119094Y0078994D01*
X0119094Y0080592D02*
X0119094Y0080592D01*
X0119094Y0082191D02*
X0119094Y0082191D01*
X0119094Y0083789D02*
X0119094Y0083789D01*
X0119094Y0085388D02*
X0119094Y0085388D01*
X0118583Y0086986D02*
X0119605Y0086986D01*
X0120850Y0088585D02*
X0117338Y0088585D01*
X0133894Y0088585D02*
X0134294Y0088585D01*
X0134294Y0086986D02*
X0133894Y0086986D01*
X0133894Y0085388D02*
X0134294Y0085388D01*
X0134294Y0083789D02*
X0133894Y0083789D01*
X0133894Y0082191D02*
X0134294Y0082191D01*
X0122433Y0061410D02*
X0116945Y0061410D01*
X0116596Y0061759D02*
X0114648Y0062566D01*
X0112539Y0062566D01*
X0110591Y0061759D01*
X0109101Y0060268D01*
X0108294Y0058320D01*
X0108294Y0056212D01*
X0109101Y0054264D01*
X0110591Y0052773D01*
X0112539Y0051966D01*
X0114648Y0051966D01*
X0116596Y0052773D01*
X0118087Y0054264D01*
X0118894Y0056212D01*
X0118894Y0058320D01*
X0118087Y0060268D01*
X0116596Y0061759D01*
X0118276Y0059812D02*
X0120978Y0059812D01*
X0120391Y0058213D02*
X0118894Y0058213D01*
X0118894Y0056615D02*
X0120344Y0056615D01*
X0120827Y0055016D02*
X0118399Y0055016D01*
X0117241Y0053418D02*
X0122040Y0053418D01*
X0117918Y0047024D02*
X0179171Y0047024D01*
X0179328Y0046867D02*
X0179328Y0046867D01*
X0179773Y0046421D02*
X0179773Y0046421D01*
X0181499Y0045425D02*
X0119607Y0045425D01*
X0109946Y0053418D02*
X0105430Y0053418D01*
X0104785Y0052773D02*
X0106276Y0054264D01*
X0107083Y0056212D01*
X0107083Y0058320D01*
X0106276Y0060268D01*
X0104785Y0061759D01*
X0102837Y0062566D01*
X0100728Y0062566D01*
X0098780Y0061759D01*
X0097290Y0060268D01*
X0096483Y0058320D01*
X0096483Y0056212D01*
X0097290Y0054264D01*
X0098780Y0052773D01*
X0100728Y0051966D01*
X0102837Y0051966D01*
X0104785Y0052773D01*
X0106588Y0055016D02*
X0108789Y0055016D01*
X0108294Y0056615D02*
X0107083Y0056615D01*
X0107083Y0058213D02*
X0108294Y0058213D01*
X0108912Y0059812D02*
X0106465Y0059812D01*
X0105134Y0061410D02*
X0110243Y0061410D01*
X0098432Y0061410D02*
X0055994Y0061410D01*
X0055994Y0059812D02*
X0097101Y0059812D01*
X0096483Y0058213D02*
X0055994Y0058213D01*
X0055994Y0056615D02*
X0096483Y0056615D01*
X0096978Y0055016D02*
X0055994Y0055016D01*
X0055994Y0053418D02*
X0098135Y0053418D01*
X0074468Y0040630D02*
X0062719Y0040630D01*
X0054980Y0040630D02*
X0040764Y0040630D01*
X0039932Y0042228D02*
X0054881Y0042228D01*
X0054881Y0043827D02*
X0038767Y0043827D01*
X0037170Y0045425D02*
X0053556Y0045425D01*
X0051957Y0047024D02*
X0034796Y0047024D01*
X0027794Y0035834D02*
X0005594Y0035834D01*
X0005594Y0034236D02*
X0015330Y0034236D01*
X0015554Y0032637D02*
X0005594Y0032637D01*
X0005594Y0031039D02*
X0015975Y0031039D01*
X0016623Y0029440D02*
X0005594Y0029440D01*
X0005594Y0027841D02*
X0017553Y0027841D01*
X0018800Y0026243D02*
X0005594Y0026243D01*
X0005594Y0024644D02*
X0020561Y0024644D01*
X0023321Y0023046D02*
X0005594Y0023046D01*
X0005594Y0018250D02*
X0156094Y0018250D01*
X0157229Y0016652D02*
X0005594Y0016652D01*
X0005594Y0037433D02*
X0015466Y0037433D01*
X0015840Y0039031D02*
X0005594Y0039031D01*
X0005594Y0040630D02*
X0016423Y0040630D01*
X0017255Y0042228D02*
X0005594Y0042228D01*
X0005594Y0043827D02*
X0018420Y0043827D01*
X0020018Y0045425D02*
X0005594Y0045425D01*
X0027794Y0034236D02*
X0029394Y0034236D01*
X0029394Y0032637D02*
X0027794Y0032637D01*
X0027794Y0031039D02*
X0029394Y0031039D01*
X0029394Y0029440D02*
X0027794Y0029440D01*
X0027794Y0027841D02*
X0029394Y0027841D01*
X0029394Y0026243D02*
X0027794Y0026243D01*
X0027794Y0024644D02*
X0029394Y0024644D01*
X0029394Y0023046D02*
X0027794Y0023046D01*
X0058665Y0024644D02*
X0059034Y0024644D01*
X0059034Y0023222D02*
X0059034Y0026806D01*
X0062618Y0026806D01*
X0062618Y0024785D01*
X0062495Y0024327D01*
X0062258Y0023916D01*
X0061923Y0023581D01*
X0061513Y0023344D01*
X0061055Y0023222D01*
X0059034Y0023222D01*
X0059034Y0026243D02*
X0058665Y0026243D01*
X0058665Y0027841D02*
X0059034Y0027841D01*
X0059034Y0029440D02*
X0058665Y0029440D01*
X0062553Y0029440D02*
X0074635Y0029440D01*
X0074692Y0029653D02*
X0074569Y0029196D01*
X0074569Y0027174D01*
X0078153Y0027174D01*
X0078154Y0027174D02*
X0078154Y0030759D01*
X0076132Y0030759D01*
X0075675Y0030636D01*
X0075264Y0030399D01*
X0074929Y0030064D01*
X0074692Y0029653D01*
X0074569Y0027841D02*
X0062618Y0027841D01*
X0062618Y0026243D02*
X0074569Y0026243D01*
X0074607Y0024644D02*
X0062581Y0024644D01*
X0078154Y0024644D02*
X0078522Y0024644D01*
X0078522Y0026243D02*
X0078154Y0026243D01*
X0078154Y0027841D02*
X0078522Y0027841D01*
X0078522Y0029440D02*
X0078154Y0029440D01*
X0129982Y0055016D02*
X0165179Y0055016D01*
X0163580Y0056615D02*
X0130465Y0056615D01*
X0130418Y0058213D02*
X0161981Y0058213D01*
X0160383Y0059812D02*
X0129831Y0059812D01*
X0158075Y0072600D02*
X0172453Y0072600D01*
X0172520Y0072667D02*
X0172185Y0072332D01*
X0171948Y0071921D01*
X0171825Y0071463D01*
X0171825Y0068442D01*
X0176409Y0068442D01*
X0176409Y0073026D01*
X0173388Y0073026D01*
X0172930Y0072904D01*
X0172520Y0072667D01*
X0171825Y0071001D02*
X0160507Y0071001D01*
X0160788Y0070720D02*
X0160788Y0070720D01*
X0162106Y0069403D02*
X0171825Y0069403D01*
X0171825Y0067804D02*
X0163704Y0067804D01*
X0165303Y0066206D02*
X0171825Y0066206D01*
X0171944Y0064607D02*
X0166901Y0064607D01*
X0168500Y0063009D02*
X0180080Y0063009D01*
X0176778Y0064607D02*
X0176409Y0064607D01*
X0176409Y0066206D02*
X0176778Y0066206D01*
X0176778Y0067804D02*
X0176409Y0067804D01*
X0176409Y0069403D02*
X0176778Y0069403D01*
X0176778Y0071001D02*
X0176409Y0071001D01*
X0176409Y0072600D02*
X0176778Y0072600D01*
X0178409Y0077395D02*
X0178778Y0077395D01*
X0178778Y0078994D02*
X0178409Y0078994D01*
X0182243Y0044996D02*
X0182243Y0044996D01*
X0051194Y0080592D02*
X0035915Y0080592D01*
X0036013Y0080624D02*
X0036714Y0080981D01*
X0037351Y0081444D01*
X0037907Y0082001D01*
X0038370Y0082637D01*
X0038727Y0083339D01*
X0038971Y0084087D01*
X0039094Y0084864D01*
X0039094Y0085172D01*
X0034180Y0085172D01*
X0034180Y0080258D01*
X0034487Y0080258D01*
X0035265Y0080381D01*
X0036013Y0080624D01*
X0034180Y0080592D02*
X0034008Y0080592D01*
X0034008Y0080258D02*
X0034008Y0085172D01*
X0029094Y0085172D01*
X0029094Y0084864D01*
X0029217Y0084087D01*
X0029460Y0083339D01*
X0029817Y0082637D01*
X0030280Y0082001D01*
X0030836Y0081444D01*
X0031473Y0080981D01*
X0032174Y0080624D01*
X0032923Y0080381D01*
X0033700Y0080258D01*
X0034008Y0080258D01*
X0032272Y0080592D02*
X0025418Y0080592D01*
X0027381Y0082191D02*
X0030142Y0082191D01*
X0029314Y0083789D02*
X0028114Y0083789D01*
X0028294Y0085388D02*
X0029094Y0085388D01*
X0029398Y0086986D02*
X0028006Y0086986D01*
X0027121Y0088585D02*
X0030350Y0088585D01*
X0031756Y0090183D02*
X0025431Y0090183D01*
X0027972Y0091782D02*
X0029216Y0091782D01*
X0034957Y0090183D02*
X0051194Y0090183D01*
X0051194Y0088585D02*
X0037838Y0088585D01*
X0038789Y0086986D02*
X0051194Y0086986D01*
X0051194Y0085388D02*
X0039094Y0085388D01*
X0038874Y0083789D02*
X0051194Y0083789D01*
X0051194Y0082191D02*
X0038046Y0082191D01*
X0034180Y0082191D02*
X0034008Y0082191D01*
X0034008Y0083789D02*
X0034180Y0083789D01*
X0036972Y0091782D02*
X0051194Y0091782D01*
X0051194Y0093380D02*
X0037944Y0093380D01*
X0038294Y0094979D02*
X0051194Y0094979D01*
X0050540Y0096577D02*
X0038176Y0096577D01*
X0037513Y0098176D02*
X0050540Y0098176D01*
X0042768Y0099775D02*
X0035778Y0099775D01*
X0037563Y0101373D02*
X0042082Y0101373D01*
X0215473Y0194087D02*
X0222028Y0194087D01*
X0223627Y0195685D02*
X0216925Y0195685D01*
X0217578Y0197284D02*
X0225225Y0197284D01*
X0225559Y0197617D02*
X0225559Y0197617D01*
X0239752Y0206875D02*
X0240196Y0206875D01*
X0242829Y0198882D02*
X0243093Y0198882D01*
D35*
X0209594Y0174258D03*
X0166594Y0141258D03*
X0155594Y0126258D03*
X0103594Y0155258D03*
X0085594Y0140258D03*
X0058594Y0155258D03*
X0057594Y0168258D03*
X0057594Y0182258D03*
X0038594Y0175258D03*
X0085594Y0172258D03*
X0129594Y0197758D03*
X0023594Y0117758D03*
D36*
X0030794Y0112858D02*
X0023594Y0105658D01*
X0023094Y0105258D01*
X0030794Y0112858D02*
X0054794Y0112858D01*
X0059940Y0110258D02*
X0075594Y0110258D01*
X0080369Y0115033D01*
X0080369Y0118358D01*
X0084394Y0112858D02*
X0093194Y0112858D01*
X0095594Y0115258D01*
X0095594Y0117658D01*
X0096117Y0118358D01*
X0101994Y0127384D02*
X0101120Y0128258D01*
X0097594Y0128258D01*
X0093594Y0132258D01*
X0093594Y0134258D01*
X0095594Y0134258D01*
X0096169Y0133683D01*
X0101994Y0133683D01*
X0101994Y0130533D02*
X0121523Y0130533D01*
X0122247Y0131258D01*
X0128940Y0131258D02*
X0138460Y0131258D01*
X0138460Y0143258D02*
X0128940Y0143258D01*
X0122247Y0143258D02*
X0115594Y0149911D01*
X0115594Y0156258D01*
X0111594Y0160258D01*
X0101594Y0160258D01*
X0096117Y0154781D01*
X0096117Y0152158D01*
X0093594Y0152784D02*
X0092968Y0152158D01*
X0093594Y0152784D02*
X0093594Y0156258D01*
X0101594Y0164258D01*
X0119594Y0164258D01*
X0122247Y0161604D01*
X0122247Y0154258D01*
X0128940Y0154258D02*
X0138460Y0154258D01*
X0125194Y0168058D02*
X0098794Y0168058D01*
X0089994Y0159258D01*
X0089994Y0152858D01*
X0089818Y0152158D01*
X0083594Y0152233D02*
X0083594Y0156258D01*
X0088594Y0161258D01*
X0093850Y0166514D01*
X0093850Y0171990D01*
X0093515Y0171990D01*
X0084594Y0180911D01*
X0084594Y0187604D02*
X0084594Y0189258D01*
X0077594Y0196258D01*
X0070444Y0204234D02*
X0070444Y0205108D01*
X0077594Y0212258D01*
X0093594Y0212258D01*
X0095594Y0210258D01*
X0095594Y0200258D01*
X0099594Y0196258D01*
X0128094Y0196258D01*
X0129594Y0197758D01*
X0154794Y0184858D02*
X0154794Y0176858D01*
X0167594Y0178258D02*
X0167594Y0154258D01*
X0149594Y0136258D01*
X0117594Y0136258D01*
X0110720Y0143132D01*
X0101994Y0143132D01*
X0093594Y0134258D02*
X0081594Y0134258D01*
X0077594Y0130258D01*
X0068469Y0130258D01*
X0068194Y0130533D01*
X0063318Y0130533D01*
X0061594Y0132258D01*
X0061594Y0134258D01*
X0063594Y0136258D01*
X0067619Y0136258D01*
X0068194Y0136833D01*
X0067594Y0128058D02*
X0068194Y0127384D01*
X0067594Y0128058D02*
X0057994Y0128058D01*
X0043594Y0142458D01*
X0043594Y0142758D01*
X0039594Y0130258D02*
X0051594Y0130258D01*
X0057594Y0124258D01*
X0068170Y0124258D01*
X0068194Y0124234D01*
X0059940Y0110258D02*
X0052940Y0103258D01*
X0052940Y0096911D01*
X0053594Y0096258D01*
X0053594Y0048781D01*
X0058850Y0043526D01*
X0078338Y0043526D01*
X0046247Y0103258D02*
X0044247Y0105258D01*
X0034094Y0105258D01*
X0039594Y0130258D02*
X0027094Y0142758D01*
X0023594Y0142758D01*
X0083519Y0152158D02*
X0083594Y0152233D01*
X0166594Y0141258D02*
X0169594Y0144258D01*
X0169594Y0176258D01*
X0173594Y0180258D01*
X0213594Y0180258D01*
X0216247Y0184911D02*
X0227594Y0196258D01*
X0236688Y0196258D01*
X0238594Y0194352D01*
X0216247Y0184911D02*
X0170594Y0184911D01*
X0170594Y0181258D01*
X0167594Y0178258D01*
D37*
X0154794Y0176858D03*
X0125194Y0168058D03*
X0084394Y0112858D03*
X0054794Y0112858D03*
D38*
X0084594Y0129558D03*
X0095394Y0124658D03*
X0073794Y0161958D03*
X0047394Y0170858D03*
X0043194Y0184458D03*
X0043194Y0189858D03*
M02*
