G75*
%MOIN*%
%OFA0B0*%
%FSLAX25Y25*%
%IPPOS*%
%LPD*%
%AMOC8*
5,1,8,0,0,1.08239X$1,22.5*
%
%ADD10C,0.00000*%
%ADD11R,0.04252X0.04134*%
%ADD12R,0.05937X0.05937*%
%ADD13C,0.05937*%
%ADD14C,0.10630*%
%ADD15C,0.23000*%
%ADD16C,0.06600*%
%ADD17C,0.06400*%
%ADD18C,0.06000*%
%ADD19R,0.07400X0.07400*%
%ADD20C,0.07400*%
%ADD21R,0.03937X0.04331*%
%ADD22R,0.04331X0.03937*%
%ADD23C,0.06496*%
%ADD24R,0.08268X0.08268*%
%ADD25C,0.06500*%
%ADD26R,0.03500X0.06400*%
%ADD27R,0.12500X0.06400*%
%ADD28C,0.09744*%
%ADD29C,0.04000*%
%ADD30R,0.03562X0.03562*%
%ADD31C,0.01600*%
%ADD32C,0.02578*%
%ADD33C,0.03562*%
%ADD34C,0.00800*%
%ADD35C,0.03200*%
%ADD36C,0.01000*%
%ADD37C,0.03600*%
D10*
X0003594Y0010258D02*
X0003594Y0270219D01*
X0272294Y0270219D01*
X0272294Y0010258D01*
X0003594Y0010258D01*
X0107688Y0040258D02*
X0107690Y0040411D01*
X0107696Y0040565D01*
X0107706Y0040718D01*
X0107720Y0040870D01*
X0107738Y0041023D01*
X0107760Y0041174D01*
X0107785Y0041325D01*
X0107815Y0041476D01*
X0107849Y0041626D01*
X0107886Y0041774D01*
X0107927Y0041922D01*
X0107972Y0042068D01*
X0108021Y0042214D01*
X0108074Y0042358D01*
X0108130Y0042500D01*
X0108190Y0042641D01*
X0108254Y0042781D01*
X0108321Y0042919D01*
X0108392Y0043055D01*
X0108467Y0043189D01*
X0108544Y0043321D01*
X0108626Y0043451D01*
X0108710Y0043579D01*
X0108798Y0043705D01*
X0108889Y0043828D01*
X0108983Y0043949D01*
X0109081Y0044067D01*
X0109181Y0044183D01*
X0109285Y0044296D01*
X0109391Y0044407D01*
X0109500Y0044515D01*
X0109612Y0044620D01*
X0109726Y0044721D01*
X0109844Y0044820D01*
X0109963Y0044916D01*
X0110085Y0045009D01*
X0110210Y0045098D01*
X0110337Y0045185D01*
X0110466Y0045267D01*
X0110597Y0045347D01*
X0110730Y0045423D01*
X0110865Y0045496D01*
X0111002Y0045565D01*
X0111141Y0045630D01*
X0111281Y0045692D01*
X0111423Y0045750D01*
X0111566Y0045805D01*
X0111711Y0045856D01*
X0111857Y0045903D01*
X0112004Y0045946D01*
X0112152Y0045985D01*
X0112301Y0046021D01*
X0112451Y0046052D01*
X0112602Y0046080D01*
X0112753Y0046104D01*
X0112906Y0046124D01*
X0113058Y0046140D01*
X0113211Y0046152D01*
X0113364Y0046160D01*
X0113517Y0046164D01*
X0113671Y0046164D01*
X0113824Y0046160D01*
X0113977Y0046152D01*
X0114130Y0046140D01*
X0114282Y0046124D01*
X0114435Y0046104D01*
X0114586Y0046080D01*
X0114737Y0046052D01*
X0114887Y0046021D01*
X0115036Y0045985D01*
X0115184Y0045946D01*
X0115331Y0045903D01*
X0115477Y0045856D01*
X0115622Y0045805D01*
X0115765Y0045750D01*
X0115907Y0045692D01*
X0116047Y0045630D01*
X0116186Y0045565D01*
X0116323Y0045496D01*
X0116458Y0045423D01*
X0116591Y0045347D01*
X0116722Y0045267D01*
X0116851Y0045185D01*
X0116978Y0045098D01*
X0117103Y0045009D01*
X0117225Y0044916D01*
X0117344Y0044820D01*
X0117462Y0044721D01*
X0117576Y0044620D01*
X0117688Y0044515D01*
X0117797Y0044407D01*
X0117903Y0044296D01*
X0118007Y0044183D01*
X0118107Y0044067D01*
X0118205Y0043949D01*
X0118299Y0043828D01*
X0118390Y0043705D01*
X0118478Y0043579D01*
X0118562Y0043451D01*
X0118644Y0043321D01*
X0118721Y0043189D01*
X0118796Y0043055D01*
X0118867Y0042919D01*
X0118934Y0042781D01*
X0118998Y0042641D01*
X0119058Y0042500D01*
X0119114Y0042358D01*
X0119167Y0042214D01*
X0119216Y0042068D01*
X0119261Y0041922D01*
X0119302Y0041774D01*
X0119339Y0041626D01*
X0119373Y0041476D01*
X0119403Y0041325D01*
X0119428Y0041174D01*
X0119450Y0041023D01*
X0119468Y0040870D01*
X0119482Y0040718D01*
X0119492Y0040565D01*
X0119498Y0040411D01*
X0119500Y0040258D01*
X0119498Y0040105D01*
X0119492Y0039951D01*
X0119482Y0039798D01*
X0119468Y0039646D01*
X0119450Y0039493D01*
X0119428Y0039342D01*
X0119403Y0039191D01*
X0119373Y0039040D01*
X0119339Y0038890D01*
X0119302Y0038742D01*
X0119261Y0038594D01*
X0119216Y0038448D01*
X0119167Y0038302D01*
X0119114Y0038158D01*
X0119058Y0038016D01*
X0118998Y0037875D01*
X0118934Y0037735D01*
X0118867Y0037597D01*
X0118796Y0037461D01*
X0118721Y0037327D01*
X0118644Y0037195D01*
X0118562Y0037065D01*
X0118478Y0036937D01*
X0118390Y0036811D01*
X0118299Y0036688D01*
X0118205Y0036567D01*
X0118107Y0036449D01*
X0118007Y0036333D01*
X0117903Y0036220D01*
X0117797Y0036109D01*
X0117688Y0036001D01*
X0117576Y0035896D01*
X0117462Y0035795D01*
X0117344Y0035696D01*
X0117225Y0035600D01*
X0117103Y0035507D01*
X0116978Y0035418D01*
X0116851Y0035331D01*
X0116722Y0035249D01*
X0116591Y0035169D01*
X0116458Y0035093D01*
X0116323Y0035020D01*
X0116186Y0034951D01*
X0116047Y0034886D01*
X0115907Y0034824D01*
X0115765Y0034766D01*
X0115622Y0034711D01*
X0115477Y0034660D01*
X0115331Y0034613D01*
X0115184Y0034570D01*
X0115036Y0034531D01*
X0114887Y0034495D01*
X0114737Y0034464D01*
X0114586Y0034436D01*
X0114435Y0034412D01*
X0114282Y0034392D01*
X0114130Y0034376D01*
X0113977Y0034364D01*
X0113824Y0034356D01*
X0113671Y0034352D01*
X0113517Y0034352D01*
X0113364Y0034356D01*
X0113211Y0034364D01*
X0113058Y0034376D01*
X0112906Y0034392D01*
X0112753Y0034412D01*
X0112602Y0034436D01*
X0112451Y0034464D01*
X0112301Y0034495D01*
X0112152Y0034531D01*
X0112004Y0034570D01*
X0111857Y0034613D01*
X0111711Y0034660D01*
X0111566Y0034711D01*
X0111423Y0034766D01*
X0111281Y0034824D01*
X0111141Y0034886D01*
X0111002Y0034951D01*
X0110865Y0035020D01*
X0110730Y0035093D01*
X0110597Y0035169D01*
X0110466Y0035249D01*
X0110337Y0035331D01*
X0110210Y0035418D01*
X0110085Y0035507D01*
X0109963Y0035600D01*
X0109844Y0035696D01*
X0109726Y0035795D01*
X0109612Y0035896D01*
X0109500Y0036001D01*
X0109391Y0036109D01*
X0109285Y0036220D01*
X0109181Y0036333D01*
X0109081Y0036449D01*
X0108983Y0036567D01*
X0108889Y0036688D01*
X0108798Y0036811D01*
X0108710Y0036937D01*
X0108626Y0037065D01*
X0108544Y0037195D01*
X0108467Y0037327D01*
X0108392Y0037461D01*
X0108321Y0037597D01*
X0108254Y0037735D01*
X0108190Y0037875D01*
X0108130Y0038016D01*
X0108074Y0038158D01*
X0108021Y0038302D01*
X0107972Y0038448D01*
X0107927Y0038594D01*
X0107886Y0038742D01*
X0107849Y0038890D01*
X0107815Y0039040D01*
X0107785Y0039191D01*
X0107760Y0039342D01*
X0107738Y0039493D01*
X0107720Y0039646D01*
X0107706Y0039798D01*
X0107696Y0039951D01*
X0107690Y0040105D01*
X0107688Y0040258D01*
X0162578Y0033258D02*
X0162580Y0033419D01*
X0162586Y0033579D01*
X0162596Y0033740D01*
X0162610Y0033900D01*
X0162628Y0034059D01*
X0162649Y0034219D01*
X0162675Y0034377D01*
X0162705Y0034535D01*
X0162738Y0034692D01*
X0162776Y0034849D01*
X0162817Y0035004D01*
X0162862Y0035158D01*
X0162911Y0035311D01*
X0162964Y0035463D01*
X0163020Y0035613D01*
X0163080Y0035762D01*
X0163144Y0035910D01*
X0163211Y0036056D01*
X0163282Y0036200D01*
X0163357Y0036342D01*
X0163435Y0036483D01*
X0163516Y0036621D01*
X0163601Y0036758D01*
X0163690Y0036892D01*
X0163781Y0037024D01*
X0163876Y0037154D01*
X0163974Y0037281D01*
X0164075Y0037406D01*
X0164179Y0037529D01*
X0164286Y0037648D01*
X0164396Y0037765D01*
X0164509Y0037880D01*
X0164625Y0037991D01*
X0164743Y0038100D01*
X0164864Y0038205D01*
X0164988Y0038308D01*
X0165114Y0038408D01*
X0165243Y0038504D01*
X0165374Y0038597D01*
X0165507Y0038687D01*
X0165642Y0038774D01*
X0165780Y0038857D01*
X0165919Y0038936D01*
X0166061Y0039013D01*
X0166204Y0039086D01*
X0166349Y0039155D01*
X0166496Y0039220D01*
X0166644Y0039282D01*
X0166794Y0039341D01*
X0166945Y0039395D01*
X0167097Y0039446D01*
X0167251Y0039493D01*
X0167406Y0039536D01*
X0167561Y0039575D01*
X0167718Y0039611D01*
X0167876Y0039643D01*
X0168034Y0039670D01*
X0168193Y0039694D01*
X0168352Y0039714D01*
X0168512Y0039730D01*
X0168673Y0039742D01*
X0168833Y0039750D01*
X0168994Y0039754D01*
X0169154Y0039754D01*
X0169315Y0039750D01*
X0169475Y0039742D01*
X0169636Y0039730D01*
X0169796Y0039714D01*
X0169955Y0039694D01*
X0170114Y0039670D01*
X0170272Y0039643D01*
X0170430Y0039611D01*
X0170587Y0039575D01*
X0170742Y0039536D01*
X0170897Y0039493D01*
X0171051Y0039446D01*
X0171203Y0039395D01*
X0171354Y0039341D01*
X0171504Y0039282D01*
X0171652Y0039220D01*
X0171799Y0039155D01*
X0171944Y0039086D01*
X0172087Y0039013D01*
X0172229Y0038936D01*
X0172368Y0038857D01*
X0172506Y0038774D01*
X0172641Y0038687D01*
X0172774Y0038597D01*
X0172905Y0038504D01*
X0173034Y0038408D01*
X0173160Y0038308D01*
X0173284Y0038205D01*
X0173405Y0038100D01*
X0173523Y0037991D01*
X0173639Y0037880D01*
X0173752Y0037765D01*
X0173862Y0037648D01*
X0173969Y0037529D01*
X0174073Y0037406D01*
X0174174Y0037281D01*
X0174272Y0037154D01*
X0174367Y0037024D01*
X0174458Y0036892D01*
X0174547Y0036758D01*
X0174632Y0036621D01*
X0174713Y0036483D01*
X0174791Y0036342D01*
X0174866Y0036200D01*
X0174937Y0036056D01*
X0175004Y0035910D01*
X0175068Y0035762D01*
X0175128Y0035613D01*
X0175184Y0035463D01*
X0175237Y0035311D01*
X0175286Y0035158D01*
X0175331Y0035004D01*
X0175372Y0034849D01*
X0175410Y0034692D01*
X0175443Y0034535D01*
X0175473Y0034377D01*
X0175499Y0034219D01*
X0175520Y0034059D01*
X0175538Y0033900D01*
X0175552Y0033740D01*
X0175562Y0033579D01*
X0175568Y0033419D01*
X0175570Y0033258D01*
X0175568Y0033097D01*
X0175562Y0032937D01*
X0175552Y0032776D01*
X0175538Y0032616D01*
X0175520Y0032457D01*
X0175499Y0032297D01*
X0175473Y0032139D01*
X0175443Y0031981D01*
X0175410Y0031824D01*
X0175372Y0031667D01*
X0175331Y0031512D01*
X0175286Y0031358D01*
X0175237Y0031205D01*
X0175184Y0031053D01*
X0175128Y0030903D01*
X0175068Y0030754D01*
X0175004Y0030606D01*
X0174937Y0030460D01*
X0174866Y0030316D01*
X0174791Y0030174D01*
X0174713Y0030033D01*
X0174632Y0029895D01*
X0174547Y0029758D01*
X0174458Y0029624D01*
X0174367Y0029492D01*
X0174272Y0029362D01*
X0174174Y0029235D01*
X0174073Y0029110D01*
X0173969Y0028987D01*
X0173862Y0028868D01*
X0173752Y0028751D01*
X0173639Y0028636D01*
X0173523Y0028525D01*
X0173405Y0028416D01*
X0173284Y0028311D01*
X0173160Y0028208D01*
X0173034Y0028108D01*
X0172905Y0028012D01*
X0172774Y0027919D01*
X0172641Y0027829D01*
X0172506Y0027742D01*
X0172368Y0027659D01*
X0172229Y0027580D01*
X0172087Y0027503D01*
X0171944Y0027430D01*
X0171799Y0027361D01*
X0171652Y0027296D01*
X0171504Y0027234D01*
X0171354Y0027175D01*
X0171203Y0027121D01*
X0171051Y0027070D01*
X0170897Y0027023D01*
X0170742Y0026980D01*
X0170587Y0026941D01*
X0170430Y0026905D01*
X0170272Y0026873D01*
X0170114Y0026846D01*
X0169955Y0026822D01*
X0169796Y0026802D01*
X0169636Y0026786D01*
X0169475Y0026774D01*
X0169315Y0026766D01*
X0169154Y0026762D01*
X0168994Y0026762D01*
X0168833Y0026766D01*
X0168673Y0026774D01*
X0168512Y0026786D01*
X0168352Y0026802D01*
X0168193Y0026822D01*
X0168034Y0026846D01*
X0167876Y0026873D01*
X0167718Y0026905D01*
X0167561Y0026941D01*
X0167406Y0026980D01*
X0167251Y0027023D01*
X0167097Y0027070D01*
X0166945Y0027121D01*
X0166794Y0027175D01*
X0166644Y0027234D01*
X0166496Y0027296D01*
X0166349Y0027361D01*
X0166204Y0027430D01*
X0166061Y0027503D01*
X0165919Y0027580D01*
X0165780Y0027659D01*
X0165642Y0027742D01*
X0165507Y0027829D01*
X0165374Y0027919D01*
X0165243Y0028012D01*
X0165114Y0028108D01*
X0164988Y0028208D01*
X0164864Y0028311D01*
X0164743Y0028416D01*
X0164625Y0028525D01*
X0164509Y0028636D01*
X0164396Y0028751D01*
X0164286Y0028868D01*
X0164179Y0028987D01*
X0164075Y0029110D01*
X0163974Y0029235D01*
X0163876Y0029362D01*
X0163781Y0029492D01*
X0163690Y0029624D01*
X0163601Y0029758D01*
X0163516Y0029895D01*
X0163435Y0030033D01*
X0163357Y0030174D01*
X0163282Y0030316D01*
X0163211Y0030460D01*
X0163144Y0030606D01*
X0163080Y0030754D01*
X0163020Y0030903D01*
X0162964Y0031053D01*
X0162911Y0031205D01*
X0162862Y0031358D01*
X0162817Y0031512D01*
X0162776Y0031667D01*
X0162738Y0031824D01*
X0162705Y0031981D01*
X0162675Y0032139D01*
X0162649Y0032297D01*
X0162628Y0032457D01*
X0162610Y0032616D01*
X0162596Y0032776D01*
X0162586Y0032937D01*
X0162580Y0033097D01*
X0162578Y0033258D01*
X0202578Y0033258D02*
X0202580Y0033419D01*
X0202586Y0033579D01*
X0202596Y0033740D01*
X0202610Y0033900D01*
X0202628Y0034059D01*
X0202649Y0034219D01*
X0202675Y0034377D01*
X0202705Y0034535D01*
X0202738Y0034692D01*
X0202776Y0034849D01*
X0202817Y0035004D01*
X0202862Y0035158D01*
X0202911Y0035311D01*
X0202964Y0035463D01*
X0203020Y0035613D01*
X0203080Y0035762D01*
X0203144Y0035910D01*
X0203211Y0036056D01*
X0203282Y0036200D01*
X0203357Y0036342D01*
X0203435Y0036483D01*
X0203516Y0036621D01*
X0203601Y0036758D01*
X0203690Y0036892D01*
X0203781Y0037024D01*
X0203876Y0037154D01*
X0203974Y0037281D01*
X0204075Y0037406D01*
X0204179Y0037529D01*
X0204286Y0037648D01*
X0204396Y0037765D01*
X0204509Y0037880D01*
X0204625Y0037991D01*
X0204743Y0038100D01*
X0204864Y0038205D01*
X0204988Y0038308D01*
X0205114Y0038408D01*
X0205243Y0038504D01*
X0205374Y0038597D01*
X0205507Y0038687D01*
X0205642Y0038774D01*
X0205780Y0038857D01*
X0205919Y0038936D01*
X0206061Y0039013D01*
X0206204Y0039086D01*
X0206349Y0039155D01*
X0206496Y0039220D01*
X0206644Y0039282D01*
X0206794Y0039341D01*
X0206945Y0039395D01*
X0207097Y0039446D01*
X0207251Y0039493D01*
X0207406Y0039536D01*
X0207561Y0039575D01*
X0207718Y0039611D01*
X0207876Y0039643D01*
X0208034Y0039670D01*
X0208193Y0039694D01*
X0208352Y0039714D01*
X0208512Y0039730D01*
X0208673Y0039742D01*
X0208833Y0039750D01*
X0208994Y0039754D01*
X0209154Y0039754D01*
X0209315Y0039750D01*
X0209475Y0039742D01*
X0209636Y0039730D01*
X0209796Y0039714D01*
X0209955Y0039694D01*
X0210114Y0039670D01*
X0210272Y0039643D01*
X0210430Y0039611D01*
X0210587Y0039575D01*
X0210742Y0039536D01*
X0210897Y0039493D01*
X0211051Y0039446D01*
X0211203Y0039395D01*
X0211354Y0039341D01*
X0211504Y0039282D01*
X0211652Y0039220D01*
X0211799Y0039155D01*
X0211944Y0039086D01*
X0212087Y0039013D01*
X0212229Y0038936D01*
X0212368Y0038857D01*
X0212506Y0038774D01*
X0212641Y0038687D01*
X0212774Y0038597D01*
X0212905Y0038504D01*
X0213034Y0038408D01*
X0213160Y0038308D01*
X0213284Y0038205D01*
X0213405Y0038100D01*
X0213523Y0037991D01*
X0213639Y0037880D01*
X0213752Y0037765D01*
X0213862Y0037648D01*
X0213969Y0037529D01*
X0214073Y0037406D01*
X0214174Y0037281D01*
X0214272Y0037154D01*
X0214367Y0037024D01*
X0214458Y0036892D01*
X0214547Y0036758D01*
X0214632Y0036621D01*
X0214713Y0036483D01*
X0214791Y0036342D01*
X0214866Y0036200D01*
X0214937Y0036056D01*
X0215004Y0035910D01*
X0215068Y0035762D01*
X0215128Y0035613D01*
X0215184Y0035463D01*
X0215237Y0035311D01*
X0215286Y0035158D01*
X0215331Y0035004D01*
X0215372Y0034849D01*
X0215410Y0034692D01*
X0215443Y0034535D01*
X0215473Y0034377D01*
X0215499Y0034219D01*
X0215520Y0034059D01*
X0215538Y0033900D01*
X0215552Y0033740D01*
X0215562Y0033579D01*
X0215568Y0033419D01*
X0215570Y0033258D01*
X0215568Y0033097D01*
X0215562Y0032937D01*
X0215552Y0032776D01*
X0215538Y0032616D01*
X0215520Y0032457D01*
X0215499Y0032297D01*
X0215473Y0032139D01*
X0215443Y0031981D01*
X0215410Y0031824D01*
X0215372Y0031667D01*
X0215331Y0031512D01*
X0215286Y0031358D01*
X0215237Y0031205D01*
X0215184Y0031053D01*
X0215128Y0030903D01*
X0215068Y0030754D01*
X0215004Y0030606D01*
X0214937Y0030460D01*
X0214866Y0030316D01*
X0214791Y0030174D01*
X0214713Y0030033D01*
X0214632Y0029895D01*
X0214547Y0029758D01*
X0214458Y0029624D01*
X0214367Y0029492D01*
X0214272Y0029362D01*
X0214174Y0029235D01*
X0214073Y0029110D01*
X0213969Y0028987D01*
X0213862Y0028868D01*
X0213752Y0028751D01*
X0213639Y0028636D01*
X0213523Y0028525D01*
X0213405Y0028416D01*
X0213284Y0028311D01*
X0213160Y0028208D01*
X0213034Y0028108D01*
X0212905Y0028012D01*
X0212774Y0027919D01*
X0212641Y0027829D01*
X0212506Y0027742D01*
X0212368Y0027659D01*
X0212229Y0027580D01*
X0212087Y0027503D01*
X0211944Y0027430D01*
X0211799Y0027361D01*
X0211652Y0027296D01*
X0211504Y0027234D01*
X0211354Y0027175D01*
X0211203Y0027121D01*
X0211051Y0027070D01*
X0210897Y0027023D01*
X0210742Y0026980D01*
X0210587Y0026941D01*
X0210430Y0026905D01*
X0210272Y0026873D01*
X0210114Y0026846D01*
X0209955Y0026822D01*
X0209796Y0026802D01*
X0209636Y0026786D01*
X0209475Y0026774D01*
X0209315Y0026766D01*
X0209154Y0026762D01*
X0208994Y0026762D01*
X0208833Y0026766D01*
X0208673Y0026774D01*
X0208512Y0026786D01*
X0208352Y0026802D01*
X0208193Y0026822D01*
X0208034Y0026846D01*
X0207876Y0026873D01*
X0207718Y0026905D01*
X0207561Y0026941D01*
X0207406Y0026980D01*
X0207251Y0027023D01*
X0207097Y0027070D01*
X0206945Y0027121D01*
X0206794Y0027175D01*
X0206644Y0027234D01*
X0206496Y0027296D01*
X0206349Y0027361D01*
X0206204Y0027430D01*
X0206061Y0027503D01*
X0205919Y0027580D01*
X0205780Y0027659D01*
X0205642Y0027742D01*
X0205507Y0027829D01*
X0205374Y0027919D01*
X0205243Y0028012D01*
X0205114Y0028108D01*
X0204988Y0028208D01*
X0204864Y0028311D01*
X0204743Y0028416D01*
X0204625Y0028525D01*
X0204509Y0028636D01*
X0204396Y0028751D01*
X0204286Y0028868D01*
X0204179Y0028987D01*
X0204075Y0029110D01*
X0203974Y0029235D01*
X0203876Y0029362D01*
X0203781Y0029492D01*
X0203690Y0029624D01*
X0203601Y0029758D01*
X0203516Y0029895D01*
X0203435Y0030033D01*
X0203357Y0030174D01*
X0203282Y0030316D01*
X0203211Y0030460D01*
X0203144Y0030606D01*
X0203080Y0030754D01*
X0203020Y0030903D01*
X0202964Y0031053D01*
X0202911Y0031205D01*
X0202862Y0031358D01*
X0202817Y0031512D01*
X0202776Y0031667D01*
X0202738Y0031824D01*
X0202705Y0031981D01*
X0202675Y0032139D01*
X0202649Y0032297D01*
X0202628Y0032457D01*
X0202610Y0032616D01*
X0202596Y0032776D01*
X0202586Y0032937D01*
X0202580Y0033097D01*
X0202578Y0033258D01*
X0242196Y0155258D02*
X0242198Y0155418D01*
X0242204Y0155577D01*
X0242214Y0155736D01*
X0242228Y0155895D01*
X0242246Y0156054D01*
X0242267Y0156212D01*
X0242293Y0156369D01*
X0242323Y0156526D01*
X0242356Y0156682D01*
X0242394Y0156837D01*
X0242435Y0156991D01*
X0242480Y0157144D01*
X0242529Y0157296D01*
X0242582Y0157446D01*
X0242638Y0157595D01*
X0242698Y0157743D01*
X0242762Y0157889D01*
X0242830Y0158034D01*
X0242901Y0158177D01*
X0242975Y0158318D01*
X0243053Y0158457D01*
X0243135Y0158594D01*
X0243220Y0158729D01*
X0243308Y0158862D01*
X0243399Y0158993D01*
X0243494Y0159121D01*
X0243592Y0159247D01*
X0243693Y0159371D01*
X0243797Y0159491D01*
X0243904Y0159610D01*
X0244014Y0159725D01*
X0244127Y0159838D01*
X0244242Y0159948D01*
X0244361Y0160055D01*
X0244481Y0160159D01*
X0244605Y0160260D01*
X0244731Y0160358D01*
X0244859Y0160453D01*
X0244990Y0160544D01*
X0245123Y0160632D01*
X0245258Y0160717D01*
X0245395Y0160799D01*
X0245534Y0160877D01*
X0245675Y0160951D01*
X0245818Y0161022D01*
X0245963Y0161090D01*
X0246109Y0161154D01*
X0246257Y0161214D01*
X0246406Y0161270D01*
X0246556Y0161323D01*
X0246708Y0161372D01*
X0246861Y0161417D01*
X0247015Y0161458D01*
X0247170Y0161496D01*
X0247326Y0161529D01*
X0247483Y0161559D01*
X0247640Y0161585D01*
X0247798Y0161606D01*
X0247957Y0161624D01*
X0248116Y0161638D01*
X0248275Y0161648D01*
X0248434Y0161654D01*
X0248594Y0161656D01*
X0248754Y0161654D01*
X0248913Y0161648D01*
X0249072Y0161638D01*
X0249231Y0161624D01*
X0249390Y0161606D01*
X0249548Y0161585D01*
X0249705Y0161559D01*
X0249862Y0161529D01*
X0250018Y0161496D01*
X0250173Y0161458D01*
X0250327Y0161417D01*
X0250480Y0161372D01*
X0250632Y0161323D01*
X0250782Y0161270D01*
X0250931Y0161214D01*
X0251079Y0161154D01*
X0251225Y0161090D01*
X0251370Y0161022D01*
X0251513Y0160951D01*
X0251654Y0160877D01*
X0251793Y0160799D01*
X0251930Y0160717D01*
X0252065Y0160632D01*
X0252198Y0160544D01*
X0252329Y0160453D01*
X0252457Y0160358D01*
X0252583Y0160260D01*
X0252707Y0160159D01*
X0252827Y0160055D01*
X0252946Y0159948D01*
X0253061Y0159838D01*
X0253174Y0159725D01*
X0253284Y0159610D01*
X0253391Y0159491D01*
X0253495Y0159371D01*
X0253596Y0159247D01*
X0253694Y0159121D01*
X0253789Y0158993D01*
X0253880Y0158862D01*
X0253968Y0158729D01*
X0254053Y0158594D01*
X0254135Y0158457D01*
X0254213Y0158318D01*
X0254287Y0158177D01*
X0254358Y0158034D01*
X0254426Y0157889D01*
X0254490Y0157743D01*
X0254550Y0157595D01*
X0254606Y0157446D01*
X0254659Y0157296D01*
X0254708Y0157144D01*
X0254753Y0156991D01*
X0254794Y0156837D01*
X0254832Y0156682D01*
X0254865Y0156526D01*
X0254895Y0156369D01*
X0254921Y0156212D01*
X0254942Y0156054D01*
X0254960Y0155895D01*
X0254974Y0155736D01*
X0254984Y0155577D01*
X0254990Y0155418D01*
X0254992Y0155258D01*
X0254990Y0155098D01*
X0254984Y0154939D01*
X0254974Y0154780D01*
X0254960Y0154621D01*
X0254942Y0154462D01*
X0254921Y0154304D01*
X0254895Y0154147D01*
X0254865Y0153990D01*
X0254832Y0153834D01*
X0254794Y0153679D01*
X0254753Y0153525D01*
X0254708Y0153372D01*
X0254659Y0153220D01*
X0254606Y0153070D01*
X0254550Y0152921D01*
X0254490Y0152773D01*
X0254426Y0152627D01*
X0254358Y0152482D01*
X0254287Y0152339D01*
X0254213Y0152198D01*
X0254135Y0152059D01*
X0254053Y0151922D01*
X0253968Y0151787D01*
X0253880Y0151654D01*
X0253789Y0151523D01*
X0253694Y0151395D01*
X0253596Y0151269D01*
X0253495Y0151145D01*
X0253391Y0151025D01*
X0253284Y0150906D01*
X0253174Y0150791D01*
X0253061Y0150678D01*
X0252946Y0150568D01*
X0252827Y0150461D01*
X0252707Y0150357D01*
X0252583Y0150256D01*
X0252457Y0150158D01*
X0252329Y0150063D01*
X0252198Y0149972D01*
X0252065Y0149884D01*
X0251930Y0149799D01*
X0251793Y0149717D01*
X0251654Y0149639D01*
X0251513Y0149565D01*
X0251370Y0149494D01*
X0251225Y0149426D01*
X0251079Y0149362D01*
X0250931Y0149302D01*
X0250782Y0149246D01*
X0250632Y0149193D01*
X0250480Y0149144D01*
X0250327Y0149099D01*
X0250173Y0149058D01*
X0250018Y0149020D01*
X0249862Y0148987D01*
X0249705Y0148957D01*
X0249548Y0148931D01*
X0249390Y0148910D01*
X0249231Y0148892D01*
X0249072Y0148878D01*
X0248913Y0148868D01*
X0248754Y0148862D01*
X0248594Y0148860D01*
X0248434Y0148862D01*
X0248275Y0148868D01*
X0248116Y0148878D01*
X0247957Y0148892D01*
X0247798Y0148910D01*
X0247640Y0148931D01*
X0247483Y0148957D01*
X0247326Y0148987D01*
X0247170Y0149020D01*
X0247015Y0149058D01*
X0246861Y0149099D01*
X0246708Y0149144D01*
X0246556Y0149193D01*
X0246406Y0149246D01*
X0246257Y0149302D01*
X0246109Y0149362D01*
X0245963Y0149426D01*
X0245818Y0149494D01*
X0245675Y0149565D01*
X0245534Y0149639D01*
X0245395Y0149717D01*
X0245258Y0149799D01*
X0245123Y0149884D01*
X0244990Y0149972D01*
X0244859Y0150063D01*
X0244731Y0150158D01*
X0244605Y0150256D01*
X0244481Y0150357D01*
X0244361Y0150461D01*
X0244242Y0150568D01*
X0244127Y0150678D01*
X0244014Y0150791D01*
X0243904Y0150906D01*
X0243797Y0151025D01*
X0243693Y0151145D01*
X0243592Y0151269D01*
X0243494Y0151395D01*
X0243399Y0151523D01*
X0243308Y0151654D01*
X0243220Y0151787D01*
X0243135Y0151922D01*
X0243053Y0152059D01*
X0242975Y0152198D01*
X0242901Y0152339D01*
X0242830Y0152482D01*
X0242762Y0152627D01*
X0242698Y0152773D01*
X0242638Y0152921D01*
X0242582Y0153070D01*
X0242529Y0153220D01*
X0242480Y0153372D01*
X0242435Y0153525D01*
X0242394Y0153679D01*
X0242356Y0153834D01*
X0242323Y0153990D01*
X0242293Y0154147D01*
X0242267Y0154304D01*
X0242246Y0154462D01*
X0242228Y0154621D01*
X0242214Y0154780D01*
X0242204Y0154939D01*
X0242198Y0155098D01*
X0242196Y0155258D01*
X0242196Y0205258D02*
X0242198Y0205418D01*
X0242204Y0205577D01*
X0242214Y0205736D01*
X0242228Y0205895D01*
X0242246Y0206054D01*
X0242267Y0206212D01*
X0242293Y0206369D01*
X0242323Y0206526D01*
X0242356Y0206682D01*
X0242394Y0206837D01*
X0242435Y0206991D01*
X0242480Y0207144D01*
X0242529Y0207296D01*
X0242582Y0207446D01*
X0242638Y0207595D01*
X0242698Y0207743D01*
X0242762Y0207889D01*
X0242830Y0208034D01*
X0242901Y0208177D01*
X0242975Y0208318D01*
X0243053Y0208457D01*
X0243135Y0208594D01*
X0243220Y0208729D01*
X0243308Y0208862D01*
X0243399Y0208993D01*
X0243494Y0209121D01*
X0243592Y0209247D01*
X0243693Y0209371D01*
X0243797Y0209491D01*
X0243904Y0209610D01*
X0244014Y0209725D01*
X0244127Y0209838D01*
X0244242Y0209948D01*
X0244361Y0210055D01*
X0244481Y0210159D01*
X0244605Y0210260D01*
X0244731Y0210358D01*
X0244859Y0210453D01*
X0244990Y0210544D01*
X0245123Y0210632D01*
X0245258Y0210717D01*
X0245395Y0210799D01*
X0245534Y0210877D01*
X0245675Y0210951D01*
X0245818Y0211022D01*
X0245963Y0211090D01*
X0246109Y0211154D01*
X0246257Y0211214D01*
X0246406Y0211270D01*
X0246556Y0211323D01*
X0246708Y0211372D01*
X0246861Y0211417D01*
X0247015Y0211458D01*
X0247170Y0211496D01*
X0247326Y0211529D01*
X0247483Y0211559D01*
X0247640Y0211585D01*
X0247798Y0211606D01*
X0247957Y0211624D01*
X0248116Y0211638D01*
X0248275Y0211648D01*
X0248434Y0211654D01*
X0248594Y0211656D01*
X0248754Y0211654D01*
X0248913Y0211648D01*
X0249072Y0211638D01*
X0249231Y0211624D01*
X0249390Y0211606D01*
X0249548Y0211585D01*
X0249705Y0211559D01*
X0249862Y0211529D01*
X0250018Y0211496D01*
X0250173Y0211458D01*
X0250327Y0211417D01*
X0250480Y0211372D01*
X0250632Y0211323D01*
X0250782Y0211270D01*
X0250931Y0211214D01*
X0251079Y0211154D01*
X0251225Y0211090D01*
X0251370Y0211022D01*
X0251513Y0210951D01*
X0251654Y0210877D01*
X0251793Y0210799D01*
X0251930Y0210717D01*
X0252065Y0210632D01*
X0252198Y0210544D01*
X0252329Y0210453D01*
X0252457Y0210358D01*
X0252583Y0210260D01*
X0252707Y0210159D01*
X0252827Y0210055D01*
X0252946Y0209948D01*
X0253061Y0209838D01*
X0253174Y0209725D01*
X0253284Y0209610D01*
X0253391Y0209491D01*
X0253495Y0209371D01*
X0253596Y0209247D01*
X0253694Y0209121D01*
X0253789Y0208993D01*
X0253880Y0208862D01*
X0253968Y0208729D01*
X0254053Y0208594D01*
X0254135Y0208457D01*
X0254213Y0208318D01*
X0254287Y0208177D01*
X0254358Y0208034D01*
X0254426Y0207889D01*
X0254490Y0207743D01*
X0254550Y0207595D01*
X0254606Y0207446D01*
X0254659Y0207296D01*
X0254708Y0207144D01*
X0254753Y0206991D01*
X0254794Y0206837D01*
X0254832Y0206682D01*
X0254865Y0206526D01*
X0254895Y0206369D01*
X0254921Y0206212D01*
X0254942Y0206054D01*
X0254960Y0205895D01*
X0254974Y0205736D01*
X0254984Y0205577D01*
X0254990Y0205418D01*
X0254992Y0205258D01*
X0254990Y0205098D01*
X0254984Y0204939D01*
X0254974Y0204780D01*
X0254960Y0204621D01*
X0254942Y0204462D01*
X0254921Y0204304D01*
X0254895Y0204147D01*
X0254865Y0203990D01*
X0254832Y0203834D01*
X0254794Y0203679D01*
X0254753Y0203525D01*
X0254708Y0203372D01*
X0254659Y0203220D01*
X0254606Y0203070D01*
X0254550Y0202921D01*
X0254490Y0202773D01*
X0254426Y0202627D01*
X0254358Y0202482D01*
X0254287Y0202339D01*
X0254213Y0202198D01*
X0254135Y0202059D01*
X0254053Y0201922D01*
X0253968Y0201787D01*
X0253880Y0201654D01*
X0253789Y0201523D01*
X0253694Y0201395D01*
X0253596Y0201269D01*
X0253495Y0201145D01*
X0253391Y0201025D01*
X0253284Y0200906D01*
X0253174Y0200791D01*
X0253061Y0200678D01*
X0252946Y0200568D01*
X0252827Y0200461D01*
X0252707Y0200357D01*
X0252583Y0200256D01*
X0252457Y0200158D01*
X0252329Y0200063D01*
X0252198Y0199972D01*
X0252065Y0199884D01*
X0251930Y0199799D01*
X0251793Y0199717D01*
X0251654Y0199639D01*
X0251513Y0199565D01*
X0251370Y0199494D01*
X0251225Y0199426D01*
X0251079Y0199362D01*
X0250931Y0199302D01*
X0250782Y0199246D01*
X0250632Y0199193D01*
X0250480Y0199144D01*
X0250327Y0199099D01*
X0250173Y0199058D01*
X0250018Y0199020D01*
X0249862Y0198987D01*
X0249705Y0198957D01*
X0249548Y0198931D01*
X0249390Y0198910D01*
X0249231Y0198892D01*
X0249072Y0198878D01*
X0248913Y0198868D01*
X0248754Y0198862D01*
X0248594Y0198860D01*
X0248434Y0198862D01*
X0248275Y0198868D01*
X0248116Y0198878D01*
X0247957Y0198892D01*
X0247798Y0198910D01*
X0247640Y0198931D01*
X0247483Y0198957D01*
X0247326Y0198987D01*
X0247170Y0199020D01*
X0247015Y0199058D01*
X0246861Y0199099D01*
X0246708Y0199144D01*
X0246556Y0199193D01*
X0246406Y0199246D01*
X0246257Y0199302D01*
X0246109Y0199362D01*
X0245963Y0199426D01*
X0245818Y0199494D01*
X0245675Y0199565D01*
X0245534Y0199639D01*
X0245395Y0199717D01*
X0245258Y0199799D01*
X0245123Y0199884D01*
X0244990Y0199972D01*
X0244859Y0200063D01*
X0244731Y0200158D01*
X0244605Y0200256D01*
X0244481Y0200357D01*
X0244361Y0200461D01*
X0244242Y0200568D01*
X0244127Y0200678D01*
X0244014Y0200791D01*
X0243904Y0200906D01*
X0243797Y0201025D01*
X0243693Y0201145D01*
X0243592Y0201269D01*
X0243494Y0201395D01*
X0243399Y0201523D01*
X0243308Y0201654D01*
X0243220Y0201787D01*
X0243135Y0201922D01*
X0243053Y0202059D01*
X0242975Y0202198D01*
X0242901Y0202339D01*
X0242830Y0202482D01*
X0242762Y0202627D01*
X0242698Y0202773D01*
X0242638Y0202921D01*
X0242582Y0203070D01*
X0242529Y0203220D01*
X0242480Y0203372D01*
X0242435Y0203525D01*
X0242394Y0203679D01*
X0242356Y0203834D01*
X0242323Y0203990D01*
X0242293Y0204147D01*
X0242267Y0204304D01*
X0242246Y0204462D01*
X0242228Y0204621D01*
X0242214Y0204780D01*
X0242204Y0204939D01*
X0242198Y0205098D01*
X0242196Y0205258D01*
X0145996Y0233250D02*
X0145998Y0233436D01*
X0146005Y0233623D01*
X0146017Y0233809D01*
X0146033Y0233995D01*
X0146053Y0234180D01*
X0146078Y0234365D01*
X0146108Y0234549D01*
X0146142Y0234732D01*
X0146181Y0234915D01*
X0146224Y0235096D01*
X0146271Y0235276D01*
X0146323Y0235456D01*
X0146379Y0235633D01*
X0146440Y0235810D01*
X0146505Y0235984D01*
X0146574Y0236158D01*
X0146648Y0236329D01*
X0146725Y0236499D01*
X0146807Y0236666D01*
X0146893Y0236832D01*
X0146983Y0236995D01*
X0147077Y0237156D01*
X0147175Y0237315D01*
X0147276Y0237471D01*
X0147382Y0237625D01*
X0147491Y0237776D01*
X0147604Y0237925D01*
X0147721Y0238070D01*
X0147841Y0238213D01*
X0147964Y0238353D01*
X0148091Y0238489D01*
X0148221Y0238623D01*
X0148355Y0238753D01*
X0148491Y0238880D01*
X0148631Y0239003D01*
X0148774Y0239123D01*
X0148919Y0239240D01*
X0149068Y0239353D01*
X0149219Y0239462D01*
X0149373Y0239568D01*
X0149529Y0239669D01*
X0149688Y0239767D01*
X0149849Y0239861D01*
X0150012Y0239951D01*
X0150178Y0240037D01*
X0150345Y0240119D01*
X0150515Y0240196D01*
X0150686Y0240270D01*
X0150860Y0240339D01*
X0151034Y0240404D01*
X0151211Y0240465D01*
X0151388Y0240521D01*
X0151568Y0240573D01*
X0151748Y0240620D01*
X0151929Y0240663D01*
X0152112Y0240702D01*
X0152295Y0240736D01*
X0152479Y0240766D01*
X0152664Y0240791D01*
X0152849Y0240811D01*
X0153035Y0240827D01*
X0153221Y0240839D01*
X0153408Y0240846D01*
X0153594Y0240848D01*
X0153780Y0240846D01*
X0153967Y0240839D01*
X0154153Y0240827D01*
X0154339Y0240811D01*
X0154524Y0240791D01*
X0154709Y0240766D01*
X0154893Y0240736D01*
X0155076Y0240702D01*
X0155259Y0240663D01*
X0155440Y0240620D01*
X0155620Y0240573D01*
X0155800Y0240521D01*
X0155977Y0240465D01*
X0156154Y0240404D01*
X0156328Y0240339D01*
X0156502Y0240270D01*
X0156673Y0240196D01*
X0156843Y0240119D01*
X0157010Y0240037D01*
X0157176Y0239951D01*
X0157339Y0239861D01*
X0157500Y0239767D01*
X0157659Y0239669D01*
X0157815Y0239568D01*
X0157969Y0239462D01*
X0158120Y0239353D01*
X0158269Y0239240D01*
X0158414Y0239123D01*
X0158557Y0239003D01*
X0158697Y0238880D01*
X0158833Y0238753D01*
X0158967Y0238623D01*
X0159097Y0238489D01*
X0159224Y0238353D01*
X0159347Y0238213D01*
X0159467Y0238070D01*
X0159584Y0237925D01*
X0159697Y0237776D01*
X0159806Y0237625D01*
X0159912Y0237471D01*
X0160013Y0237315D01*
X0160111Y0237156D01*
X0160205Y0236995D01*
X0160295Y0236832D01*
X0160381Y0236666D01*
X0160463Y0236499D01*
X0160540Y0236329D01*
X0160614Y0236158D01*
X0160683Y0235984D01*
X0160748Y0235810D01*
X0160809Y0235633D01*
X0160865Y0235456D01*
X0160917Y0235276D01*
X0160964Y0235096D01*
X0161007Y0234915D01*
X0161046Y0234732D01*
X0161080Y0234549D01*
X0161110Y0234365D01*
X0161135Y0234180D01*
X0161155Y0233995D01*
X0161171Y0233809D01*
X0161183Y0233623D01*
X0161190Y0233436D01*
X0161192Y0233250D01*
X0161190Y0233064D01*
X0161183Y0232877D01*
X0161171Y0232691D01*
X0161155Y0232505D01*
X0161135Y0232320D01*
X0161110Y0232135D01*
X0161080Y0231951D01*
X0161046Y0231768D01*
X0161007Y0231585D01*
X0160964Y0231404D01*
X0160917Y0231224D01*
X0160865Y0231044D01*
X0160809Y0230867D01*
X0160748Y0230690D01*
X0160683Y0230516D01*
X0160614Y0230342D01*
X0160540Y0230171D01*
X0160463Y0230001D01*
X0160381Y0229834D01*
X0160295Y0229668D01*
X0160205Y0229505D01*
X0160111Y0229344D01*
X0160013Y0229185D01*
X0159912Y0229029D01*
X0159806Y0228875D01*
X0159697Y0228724D01*
X0159584Y0228575D01*
X0159467Y0228430D01*
X0159347Y0228287D01*
X0159224Y0228147D01*
X0159097Y0228011D01*
X0158967Y0227877D01*
X0158833Y0227747D01*
X0158697Y0227620D01*
X0158557Y0227497D01*
X0158414Y0227377D01*
X0158269Y0227260D01*
X0158120Y0227147D01*
X0157969Y0227038D01*
X0157815Y0226932D01*
X0157659Y0226831D01*
X0157500Y0226733D01*
X0157339Y0226639D01*
X0157176Y0226549D01*
X0157010Y0226463D01*
X0156843Y0226381D01*
X0156673Y0226304D01*
X0156502Y0226230D01*
X0156328Y0226161D01*
X0156154Y0226096D01*
X0155977Y0226035D01*
X0155800Y0225979D01*
X0155620Y0225927D01*
X0155440Y0225880D01*
X0155259Y0225837D01*
X0155076Y0225798D01*
X0154893Y0225764D01*
X0154709Y0225734D01*
X0154524Y0225709D01*
X0154339Y0225689D01*
X0154153Y0225673D01*
X0153967Y0225661D01*
X0153780Y0225654D01*
X0153594Y0225652D01*
X0153408Y0225654D01*
X0153221Y0225661D01*
X0153035Y0225673D01*
X0152849Y0225689D01*
X0152664Y0225709D01*
X0152479Y0225734D01*
X0152295Y0225764D01*
X0152112Y0225798D01*
X0151929Y0225837D01*
X0151748Y0225880D01*
X0151568Y0225927D01*
X0151388Y0225979D01*
X0151211Y0226035D01*
X0151034Y0226096D01*
X0150860Y0226161D01*
X0150686Y0226230D01*
X0150515Y0226304D01*
X0150345Y0226381D01*
X0150178Y0226463D01*
X0150012Y0226549D01*
X0149849Y0226639D01*
X0149688Y0226733D01*
X0149529Y0226831D01*
X0149373Y0226932D01*
X0149219Y0227038D01*
X0149068Y0227147D01*
X0148919Y0227260D01*
X0148774Y0227377D01*
X0148631Y0227497D01*
X0148491Y0227620D01*
X0148355Y0227747D01*
X0148221Y0227877D01*
X0148091Y0228011D01*
X0147964Y0228147D01*
X0147841Y0228287D01*
X0147721Y0228430D01*
X0147604Y0228575D01*
X0147491Y0228724D01*
X0147382Y0228875D01*
X0147276Y0229029D01*
X0147175Y0229185D01*
X0147077Y0229344D01*
X0146983Y0229505D01*
X0146893Y0229668D01*
X0146807Y0229834D01*
X0146725Y0230001D01*
X0146648Y0230171D01*
X0146574Y0230342D01*
X0146505Y0230516D01*
X0146440Y0230690D01*
X0146379Y0230867D01*
X0146323Y0231044D01*
X0146271Y0231224D01*
X0146224Y0231404D01*
X0146181Y0231585D01*
X0146142Y0231768D01*
X0146108Y0231951D01*
X0146078Y0232135D01*
X0146053Y0232320D01*
X0146033Y0232505D01*
X0146017Y0232691D01*
X0146005Y0232877D01*
X0145998Y0233064D01*
X0145996Y0233250D01*
X0070996Y0233250D02*
X0070998Y0233436D01*
X0071005Y0233623D01*
X0071017Y0233809D01*
X0071033Y0233995D01*
X0071053Y0234180D01*
X0071078Y0234365D01*
X0071108Y0234549D01*
X0071142Y0234732D01*
X0071181Y0234915D01*
X0071224Y0235096D01*
X0071271Y0235276D01*
X0071323Y0235456D01*
X0071379Y0235633D01*
X0071440Y0235810D01*
X0071505Y0235984D01*
X0071574Y0236158D01*
X0071648Y0236329D01*
X0071725Y0236499D01*
X0071807Y0236666D01*
X0071893Y0236832D01*
X0071983Y0236995D01*
X0072077Y0237156D01*
X0072175Y0237315D01*
X0072276Y0237471D01*
X0072382Y0237625D01*
X0072491Y0237776D01*
X0072604Y0237925D01*
X0072721Y0238070D01*
X0072841Y0238213D01*
X0072964Y0238353D01*
X0073091Y0238489D01*
X0073221Y0238623D01*
X0073355Y0238753D01*
X0073491Y0238880D01*
X0073631Y0239003D01*
X0073774Y0239123D01*
X0073919Y0239240D01*
X0074068Y0239353D01*
X0074219Y0239462D01*
X0074373Y0239568D01*
X0074529Y0239669D01*
X0074688Y0239767D01*
X0074849Y0239861D01*
X0075012Y0239951D01*
X0075178Y0240037D01*
X0075345Y0240119D01*
X0075515Y0240196D01*
X0075686Y0240270D01*
X0075860Y0240339D01*
X0076034Y0240404D01*
X0076211Y0240465D01*
X0076388Y0240521D01*
X0076568Y0240573D01*
X0076748Y0240620D01*
X0076929Y0240663D01*
X0077112Y0240702D01*
X0077295Y0240736D01*
X0077479Y0240766D01*
X0077664Y0240791D01*
X0077849Y0240811D01*
X0078035Y0240827D01*
X0078221Y0240839D01*
X0078408Y0240846D01*
X0078594Y0240848D01*
X0078780Y0240846D01*
X0078967Y0240839D01*
X0079153Y0240827D01*
X0079339Y0240811D01*
X0079524Y0240791D01*
X0079709Y0240766D01*
X0079893Y0240736D01*
X0080076Y0240702D01*
X0080259Y0240663D01*
X0080440Y0240620D01*
X0080620Y0240573D01*
X0080800Y0240521D01*
X0080977Y0240465D01*
X0081154Y0240404D01*
X0081328Y0240339D01*
X0081502Y0240270D01*
X0081673Y0240196D01*
X0081843Y0240119D01*
X0082010Y0240037D01*
X0082176Y0239951D01*
X0082339Y0239861D01*
X0082500Y0239767D01*
X0082659Y0239669D01*
X0082815Y0239568D01*
X0082969Y0239462D01*
X0083120Y0239353D01*
X0083269Y0239240D01*
X0083414Y0239123D01*
X0083557Y0239003D01*
X0083697Y0238880D01*
X0083833Y0238753D01*
X0083967Y0238623D01*
X0084097Y0238489D01*
X0084224Y0238353D01*
X0084347Y0238213D01*
X0084467Y0238070D01*
X0084584Y0237925D01*
X0084697Y0237776D01*
X0084806Y0237625D01*
X0084912Y0237471D01*
X0085013Y0237315D01*
X0085111Y0237156D01*
X0085205Y0236995D01*
X0085295Y0236832D01*
X0085381Y0236666D01*
X0085463Y0236499D01*
X0085540Y0236329D01*
X0085614Y0236158D01*
X0085683Y0235984D01*
X0085748Y0235810D01*
X0085809Y0235633D01*
X0085865Y0235456D01*
X0085917Y0235276D01*
X0085964Y0235096D01*
X0086007Y0234915D01*
X0086046Y0234732D01*
X0086080Y0234549D01*
X0086110Y0234365D01*
X0086135Y0234180D01*
X0086155Y0233995D01*
X0086171Y0233809D01*
X0086183Y0233623D01*
X0086190Y0233436D01*
X0086192Y0233250D01*
X0086190Y0233064D01*
X0086183Y0232877D01*
X0086171Y0232691D01*
X0086155Y0232505D01*
X0086135Y0232320D01*
X0086110Y0232135D01*
X0086080Y0231951D01*
X0086046Y0231768D01*
X0086007Y0231585D01*
X0085964Y0231404D01*
X0085917Y0231224D01*
X0085865Y0231044D01*
X0085809Y0230867D01*
X0085748Y0230690D01*
X0085683Y0230516D01*
X0085614Y0230342D01*
X0085540Y0230171D01*
X0085463Y0230001D01*
X0085381Y0229834D01*
X0085295Y0229668D01*
X0085205Y0229505D01*
X0085111Y0229344D01*
X0085013Y0229185D01*
X0084912Y0229029D01*
X0084806Y0228875D01*
X0084697Y0228724D01*
X0084584Y0228575D01*
X0084467Y0228430D01*
X0084347Y0228287D01*
X0084224Y0228147D01*
X0084097Y0228011D01*
X0083967Y0227877D01*
X0083833Y0227747D01*
X0083697Y0227620D01*
X0083557Y0227497D01*
X0083414Y0227377D01*
X0083269Y0227260D01*
X0083120Y0227147D01*
X0082969Y0227038D01*
X0082815Y0226932D01*
X0082659Y0226831D01*
X0082500Y0226733D01*
X0082339Y0226639D01*
X0082176Y0226549D01*
X0082010Y0226463D01*
X0081843Y0226381D01*
X0081673Y0226304D01*
X0081502Y0226230D01*
X0081328Y0226161D01*
X0081154Y0226096D01*
X0080977Y0226035D01*
X0080800Y0225979D01*
X0080620Y0225927D01*
X0080440Y0225880D01*
X0080259Y0225837D01*
X0080076Y0225798D01*
X0079893Y0225764D01*
X0079709Y0225734D01*
X0079524Y0225709D01*
X0079339Y0225689D01*
X0079153Y0225673D01*
X0078967Y0225661D01*
X0078780Y0225654D01*
X0078594Y0225652D01*
X0078408Y0225654D01*
X0078221Y0225661D01*
X0078035Y0225673D01*
X0077849Y0225689D01*
X0077664Y0225709D01*
X0077479Y0225734D01*
X0077295Y0225764D01*
X0077112Y0225798D01*
X0076929Y0225837D01*
X0076748Y0225880D01*
X0076568Y0225927D01*
X0076388Y0225979D01*
X0076211Y0226035D01*
X0076034Y0226096D01*
X0075860Y0226161D01*
X0075686Y0226230D01*
X0075515Y0226304D01*
X0075345Y0226381D01*
X0075178Y0226463D01*
X0075012Y0226549D01*
X0074849Y0226639D01*
X0074688Y0226733D01*
X0074529Y0226831D01*
X0074373Y0226932D01*
X0074219Y0227038D01*
X0074068Y0227147D01*
X0073919Y0227260D01*
X0073774Y0227377D01*
X0073631Y0227497D01*
X0073491Y0227620D01*
X0073355Y0227747D01*
X0073221Y0227877D01*
X0073091Y0228011D01*
X0072964Y0228147D01*
X0072841Y0228287D01*
X0072721Y0228430D01*
X0072604Y0228575D01*
X0072491Y0228724D01*
X0072382Y0228875D01*
X0072276Y0229029D01*
X0072175Y0229185D01*
X0072077Y0229344D01*
X0071983Y0229505D01*
X0071893Y0229668D01*
X0071807Y0229834D01*
X0071725Y0230001D01*
X0071648Y0230171D01*
X0071574Y0230342D01*
X0071505Y0230516D01*
X0071440Y0230690D01*
X0071379Y0230867D01*
X0071323Y0231044D01*
X0071271Y0231224D01*
X0071224Y0231404D01*
X0071181Y0231585D01*
X0071142Y0231768D01*
X0071108Y0231951D01*
X0071078Y0232135D01*
X0071053Y0232320D01*
X0071033Y0232505D01*
X0071017Y0232691D01*
X0071005Y0232877D01*
X0070998Y0233064D01*
X0070996Y0233250D01*
D11*
X0044094Y0134203D03*
X0044094Y0127313D03*
X0024094Y0127313D03*
X0024094Y0134203D03*
D12*
X0176594Y0068258D03*
X0238594Y0194352D03*
D13*
X0238594Y0186321D03*
X0238594Y0178289D03*
X0238594Y0170258D03*
X0231586Y0174274D03*
X0231586Y0182305D03*
X0231586Y0190337D03*
X0212609Y0198250D03*
X0212609Y0207266D03*
X0231586Y0166242D03*
X0212609Y0162266D03*
X0212609Y0153250D03*
X0196594Y0068258D03*
X0186594Y0068258D03*
X0191594Y0058258D03*
X0181594Y0058258D03*
X0201594Y0058258D03*
D14*
X0235090Y0148250D03*
X0235090Y0212266D03*
D15*
X0248594Y0245258D03*
X0028594Y0245258D03*
X0028594Y0035258D03*
X0248594Y0035258D03*
D16*
X0125405Y0057266D03*
X0113594Y0057266D03*
X0101783Y0057266D03*
D17*
X0034094Y0085258D03*
X0033094Y0095258D03*
X0024094Y0095258D03*
X0023094Y0105258D03*
X0034094Y0105258D03*
X0023094Y0085258D03*
D18*
X0114094Y0084758D02*
X0114094Y0078758D01*
X0124094Y0078758D02*
X0124094Y0084758D01*
X0134094Y0084758D02*
X0134094Y0078758D01*
D19*
X0023594Y0215258D03*
D20*
X0023594Y0205258D03*
X0023594Y0195258D03*
X0023594Y0185258D03*
X0023594Y0175258D03*
X0023594Y0165258D03*
D21*
X0048594Y0181911D03*
X0048594Y0188604D03*
X0068594Y0188604D03*
X0068594Y0181911D03*
D22*
X0130247Y0185258D03*
X0136940Y0185258D03*
X0194247Y0166258D03*
X0200940Y0166258D03*
X0200940Y0156258D03*
X0194247Y0156258D03*
X0204247Y0120258D03*
X0210940Y0120258D03*
X0210940Y0110258D03*
X0204247Y0110258D03*
X0196940Y0114258D03*
X0190247Y0114258D03*
D23*
X0215011Y0100258D03*
X0220454Y0087118D03*
X0220454Y0113398D03*
X0246733Y0113398D03*
X0252176Y0100258D03*
X0246733Y0087118D03*
D24*
X0161743Y0204234D03*
X0145444Y0204234D03*
X0086743Y0204234D03*
X0070444Y0204234D03*
D25*
X0043594Y0142758D03*
X0023594Y0142758D03*
D26*
X0184494Y0173658D03*
X0193594Y0173658D03*
X0202694Y0173658D03*
D27*
X0193594Y0198858D03*
D28*
X0216082Y0021250D03*
X0162066Y0021250D03*
D29*
X0177736Y0048258D02*
X0187594Y0048258D01*
X0188665Y0049329D01*
X0191594Y0056400D02*
X0191594Y0058258D01*
X0191594Y0056400D02*
X0191591Y0056162D01*
X0191583Y0055924D01*
X0191569Y0055687D01*
X0191549Y0055449D01*
X0191523Y0055213D01*
X0191492Y0054977D01*
X0191456Y0054742D01*
X0191413Y0054507D01*
X0191365Y0054274D01*
X0191312Y0054042D01*
X0191253Y0053812D01*
X0191189Y0053583D01*
X0191119Y0053355D01*
X0191044Y0053129D01*
X0190963Y0052905D01*
X0190878Y0052683D01*
X0190787Y0052463D01*
X0190690Y0052246D01*
X0190589Y0052031D01*
X0190482Y0051818D01*
X0190371Y0051608D01*
X0190254Y0051400D01*
X0190133Y0051195D01*
X0190007Y0050994D01*
X0189875Y0050795D01*
X0189740Y0050599D01*
X0189599Y0050407D01*
X0189455Y0050218D01*
X0189305Y0050033D01*
X0189151Y0049851D01*
X0188994Y0049673D01*
X0188831Y0049499D01*
X0188665Y0049329D01*
X0177736Y0048258D02*
X0177498Y0048261D01*
X0177260Y0048269D01*
X0177023Y0048283D01*
X0176785Y0048303D01*
X0176549Y0048329D01*
X0176313Y0048360D01*
X0176078Y0048396D01*
X0175843Y0048439D01*
X0175610Y0048487D01*
X0175378Y0048540D01*
X0175148Y0048599D01*
X0174919Y0048663D01*
X0174691Y0048733D01*
X0174465Y0048808D01*
X0174241Y0048889D01*
X0174019Y0048974D01*
X0173799Y0049065D01*
X0173582Y0049162D01*
X0173367Y0049263D01*
X0173154Y0049370D01*
X0172944Y0049481D01*
X0172736Y0049598D01*
X0172531Y0049719D01*
X0172330Y0049845D01*
X0172131Y0049977D01*
X0171935Y0050112D01*
X0171743Y0050253D01*
X0171554Y0050397D01*
X0171369Y0050547D01*
X0171187Y0050701D01*
X0171009Y0050858D01*
X0170835Y0051021D01*
X0170665Y0051187D01*
X0167594Y0054258D01*
X0167594Y0082116D01*
X0164665Y0089187D02*
X0159594Y0094258D01*
X0164665Y0089187D02*
X0164831Y0089017D01*
X0164994Y0088843D01*
X0165151Y0088665D01*
X0165305Y0088483D01*
X0165455Y0088298D01*
X0165599Y0088109D01*
X0165740Y0087917D01*
X0165875Y0087721D01*
X0166007Y0087522D01*
X0166133Y0087321D01*
X0166254Y0087116D01*
X0166371Y0086908D01*
X0166482Y0086698D01*
X0166589Y0086485D01*
X0166690Y0086270D01*
X0166787Y0086053D01*
X0166878Y0085833D01*
X0166963Y0085611D01*
X0167044Y0085387D01*
X0167119Y0085161D01*
X0167189Y0084933D01*
X0167253Y0084704D01*
X0167312Y0084474D01*
X0167365Y0084242D01*
X0167413Y0084009D01*
X0167456Y0083774D01*
X0167492Y0083539D01*
X0167523Y0083303D01*
X0167549Y0083067D01*
X0167569Y0082829D01*
X0167583Y0082592D01*
X0167591Y0082354D01*
X0167594Y0082116D01*
X0199814Y0136537D02*
X0193594Y0142758D01*
X0199814Y0136537D02*
X0223594Y0136537D01*
X0246733Y0113398D01*
X0246733Y0105701D01*
X0252176Y0100258D01*
X0252176Y0092561D01*
X0246733Y0087118D01*
X0223594Y0136537D02*
X0223594Y0155258D01*
X0231586Y0163250D01*
X0231586Y0166242D01*
D30*
X0193594Y0142758D03*
D31*
X0187594Y0148758D01*
X0187594Y0170258D01*
X0184494Y0173358D01*
X0184494Y0173658D01*
X0188244Y0173568D02*
X0188244Y0177686D01*
X0187072Y0178858D01*
X0181915Y0178858D01*
X0180744Y0177686D01*
X0180744Y0169629D01*
X0181915Y0168458D01*
X0184794Y0168458D01*
X0184794Y0148201D01*
X0185220Y0147172D01*
X0186008Y0146384D01*
X0189594Y0142798D01*
X0189594Y0141962D01*
X0189813Y0141434D01*
X0189813Y0140148D01*
X0190984Y0138977D01*
X0191718Y0138977D01*
X0197548Y0133146D01*
X0199019Y0132537D01*
X0221937Y0132537D01*
X0241485Y0112989D01*
X0241485Y0112354D01*
X0242284Y0110425D01*
X0242733Y0109976D01*
X0242733Y0104905D01*
X0243342Y0103435D01*
X0246928Y0099849D01*
X0246928Y0099214D01*
X0247727Y0097285D01*
X0248176Y0096836D01*
X0248176Y0094218D01*
X0246325Y0092366D01*
X0245690Y0092366D01*
X0243761Y0091567D01*
X0242284Y0090091D01*
X0241485Y0088162D01*
X0241485Y0086074D01*
X0242284Y0084145D01*
X0243761Y0082669D01*
X0245690Y0081870D01*
X0247777Y0081870D01*
X0249706Y0082669D01*
X0251183Y0084145D01*
X0251981Y0086074D01*
X0251981Y0086709D01*
X0255567Y0090295D01*
X0256176Y0091765D01*
X0256176Y0096836D01*
X0256625Y0097285D01*
X0257424Y0099214D01*
X0257424Y0101302D01*
X0256625Y0103231D01*
X0255149Y0104707D01*
X0253220Y0105506D01*
X0252585Y0105506D01*
X0250733Y0107358D01*
X0250733Y0109976D01*
X0251183Y0110425D01*
X0251981Y0112354D01*
X0251981Y0114442D01*
X0251183Y0116370D01*
X0249706Y0117847D01*
X0247777Y0118646D01*
X0247142Y0118646D01*
X0227594Y0138194D01*
X0227594Y0153601D01*
X0234977Y0160984D01*
X0235586Y0162454D01*
X0235586Y0163216D01*
X0235798Y0163428D01*
X0236554Y0165254D01*
X0236554Y0165725D01*
X0237605Y0165289D01*
X0239582Y0165289D01*
X0241408Y0166046D01*
X0242806Y0167443D01*
X0243562Y0169270D01*
X0243562Y0171246D01*
X0242806Y0173072D01*
X0241425Y0174453D01*
X0241700Y0174652D01*
X0242231Y0175183D01*
X0242672Y0175790D01*
X0243013Y0176459D01*
X0243245Y0177173D01*
X0243362Y0177914D01*
X0243362Y0178105D01*
X0238778Y0178105D01*
X0238778Y0178474D01*
X0243362Y0178474D01*
X0243362Y0178665D01*
X0243245Y0179406D01*
X0243013Y0180120D01*
X0242672Y0180789D01*
X0242231Y0181396D01*
X0241700Y0181927D01*
X0241425Y0182126D01*
X0242806Y0183506D01*
X0243562Y0185333D01*
X0243562Y0187309D01*
X0242806Y0189135D01*
X0242474Y0189467D01*
X0243562Y0190555D01*
X0243562Y0198149D01*
X0242391Y0199321D01*
X0234797Y0199321D01*
X0233625Y0198149D01*
X0233625Y0194870D01*
X0232574Y0195305D01*
X0230598Y0195305D01*
X0228771Y0194549D01*
X0227374Y0193151D01*
X0226617Y0191325D01*
X0226617Y0189348D01*
X0227374Y0187522D01*
X0228575Y0186321D01*
X0227374Y0185120D01*
X0226617Y0183293D01*
X0226617Y0181317D01*
X0227374Y0179491D01*
X0228575Y0178289D01*
X0227374Y0177088D01*
X0226617Y0175262D01*
X0226617Y0173285D01*
X0227374Y0171459D01*
X0228575Y0170258D01*
X0227374Y0169057D01*
X0226617Y0167230D01*
X0226617Y0165254D01*
X0227003Y0164324D01*
X0221328Y0158649D01*
X0220203Y0157524D01*
X0219594Y0156054D01*
X0219594Y0140537D01*
X0201471Y0140537D01*
X0197375Y0144634D01*
X0197375Y0145367D01*
X0196203Y0146539D01*
X0194918Y0146539D01*
X0194389Y0146758D01*
X0193553Y0146758D01*
X0190394Y0149918D01*
X0190394Y0153149D01*
X0191253Y0152289D01*
X0197241Y0152289D01*
X0197753Y0152801D01*
X0198080Y0152612D01*
X0198538Y0152489D01*
X0200756Y0152489D01*
X0200756Y0156074D01*
X0201124Y0156074D01*
X0201124Y0152489D01*
X0203342Y0152489D01*
X0203800Y0152612D01*
X0204211Y0152849D01*
X0204546Y0153184D01*
X0204783Y0153595D01*
X0204905Y0154052D01*
X0204905Y0156074D01*
X0201124Y0156074D01*
X0201124Y0156442D01*
X0200756Y0156442D01*
X0200756Y0160026D01*
X0198538Y0160026D01*
X0198080Y0159904D01*
X0197753Y0159715D01*
X0197241Y0160226D01*
X0197047Y0160226D01*
X0197047Y0162289D01*
X0197241Y0162289D01*
X0197753Y0162801D01*
X0198080Y0162612D01*
X0198538Y0162489D01*
X0200756Y0162489D01*
X0200756Y0166074D01*
X0201124Y0166074D01*
X0201124Y0162489D01*
X0203342Y0162489D01*
X0203800Y0162612D01*
X0204211Y0162849D01*
X0204546Y0163184D01*
X0204783Y0163595D01*
X0204905Y0164052D01*
X0204905Y0166074D01*
X0201124Y0166074D01*
X0201124Y0166442D01*
X0204905Y0166442D01*
X0204905Y0168463D01*
X0204842Y0168701D01*
X0205138Y0168781D01*
X0205549Y0169018D01*
X0205884Y0169353D01*
X0206121Y0169763D01*
X0206244Y0170221D01*
X0206244Y0173583D01*
X0202769Y0173583D01*
X0202769Y0173733D01*
X0206244Y0173733D01*
X0206244Y0177095D01*
X0206121Y0177553D01*
X0205884Y0177963D01*
X0205549Y0178298D01*
X0205138Y0178535D01*
X0204681Y0178658D01*
X0202769Y0178658D01*
X0202769Y0173733D01*
X0202619Y0173733D01*
X0202619Y0178658D01*
X0200707Y0178658D01*
X0200249Y0178535D01*
X0199838Y0178298D01*
X0199503Y0177963D01*
X0199266Y0177553D01*
X0199144Y0177095D01*
X0199144Y0173733D01*
X0202619Y0173733D01*
X0202619Y0173583D01*
X0199144Y0173583D01*
X0199144Y0170221D01*
X0199196Y0170026D01*
X0198538Y0170026D01*
X0198080Y0169904D01*
X0197753Y0169715D01*
X0197344Y0170124D01*
X0197344Y0177686D01*
X0196394Y0178636D01*
X0196394Y0193658D01*
X0200672Y0193658D01*
X0201844Y0194829D01*
X0201844Y0202886D01*
X0200672Y0204058D01*
X0192353Y0204058D01*
X0190591Y0205820D01*
X0189803Y0206608D01*
X0188774Y0207034D01*
X0167877Y0207034D01*
X0167877Y0209197D01*
X0166706Y0210368D01*
X0156781Y0210368D01*
X0155609Y0209197D01*
X0155609Y0199272D01*
X0156781Y0198100D01*
X0166706Y0198100D01*
X0167877Y0199272D01*
X0167877Y0201434D01*
X0185344Y0201434D01*
X0185344Y0194829D01*
X0186515Y0193658D01*
X0190794Y0193658D01*
X0190794Y0178636D01*
X0189844Y0177686D01*
X0189844Y0171968D01*
X0188244Y0173568D01*
X0188505Y0173306D02*
X0189844Y0173306D01*
X0189844Y0174905D02*
X0188244Y0174905D01*
X0188244Y0176503D02*
X0189844Y0176503D01*
X0190259Y0178102D02*
X0187828Y0178102D01*
X0190794Y0179700D02*
X0157043Y0179700D01*
X0156833Y0179910D02*
X0155510Y0180458D01*
X0154078Y0180458D01*
X0152754Y0179910D01*
X0151742Y0178897D01*
X0151194Y0177574D01*
X0151194Y0176142D01*
X0151742Y0174819D01*
X0152394Y0174167D01*
X0152394Y0170458D01*
X0127885Y0170458D01*
X0127233Y0171110D01*
X0125910Y0171658D01*
X0124478Y0171658D01*
X0123154Y0171110D01*
X0122142Y0170097D01*
X0121594Y0168774D01*
X0121594Y0167342D01*
X0122142Y0166019D01*
X0123154Y0165006D01*
X0124478Y0164458D01*
X0125910Y0164458D01*
X0127233Y0165006D01*
X0127885Y0165658D01*
X0152394Y0165658D01*
X0152394Y0162580D01*
X0152759Y0161698D01*
X0153434Y0161023D01*
X0171194Y0143264D01*
X0171194Y0137127D01*
X0171559Y0136245D01*
X0172234Y0135570D01*
X0189778Y0118026D01*
X0187845Y0118026D01*
X0187387Y0117904D01*
X0186977Y0117667D01*
X0186642Y0117332D01*
X0186405Y0116921D01*
X0186282Y0116463D01*
X0186282Y0114442D01*
X0190063Y0114442D01*
X0190063Y0114074D01*
X0186282Y0114074D01*
X0186282Y0112052D01*
X0186405Y0111595D01*
X0186642Y0111184D01*
X0186977Y0110849D01*
X0187387Y0110612D01*
X0187845Y0110489D01*
X0190063Y0110489D01*
X0190063Y0114074D01*
X0190431Y0114074D01*
X0190431Y0110489D01*
X0192650Y0110489D01*
X0193107Y0110612D01*
X0193435Y0110801D01*
X0193946Y0110289D01*
X0199934Y0110289D01*
X0200082Y0110437D01*
X0200082Y0107461D01*
X0201253Y0106289D01*
X0207241Y0106289D01*
X0207594Y0106642D01*
X0207946Y0106289D01*
X0213934Y0106289D01*
X0215105Y0107461D01*
X0215105Y0110998D01*
X0215768Y0110998D01*
X0216005Y0110425D01*
X0217481Y0108949D01*
X0219410Y0108150D01*
X0221498Y0108150D01*
X0223427Y0108949D01*
X0224903Y0110425D01*
X0225702Y0112354D01*
X0225702Y0114442D01*
X0224903Y0116370D01*
X0223427Y0117847D01*
X0221498Y0118646D01*
X0219410Y0118646D01*
X0217481Y0117847D01*
X0216005Y0116370D01*
X0215768Y0115798D01*
X0213603Y0115798D01*
X0212720Y0115432D01*
X0212045Y0114757D01*
X0211515Y0114226D01*
X0207946Y0114226D01*
X0207594Y0113874D01*
X0207241Y0114226D01*
X0204956Y0114226D01*
X0205607Y0114877D01*
X0206282Y0115552D01*
X0206587Y0116289D01*
X0207241Y0116289D01*
X0207753Y0116801D01*
X0208080Y0116612D01*
X0208538Y0116489D01*
X0210756Y0116489D01*
X0210756Y0120074D01*
X0211124Y0120074D01*
X0211124Y0116489D01*
X0213342Y0116489D01*
X0213800Y0116612D01*
X0214211Y0116849D01*
X0214546Y0117184D01*
X0214783Y0117595D01*
X0214905Y0118052D01*
X0214905Y0120074D01*
X0211124Y0120074D01*
X0211124Y0120442D01*
X0210756Y0120442D01*
X0210756Y0124026D01*
X0208538Y0124026D01*
X0208080Y0123904D01*
X0207753Y0123715D01*
X0207241Y0124226D01*
X0201253Y0124226D01*
X0200082Y0123055D01*
X0200082Y0118078D01*
X0199934Y0118226D01*
X0196366Y0118226D01*
X0175994Y0138598D01*
X0175994Y0144735D01*
X0175628Y0145617D01*
X0157194Y0164052D01*
X0157194Y0174167D01*
X0157846Y0174819D01*
X0158394Y0176142D01*
X0158394Y0177574D01*
X0157846Y0178897D01*
X0156833Y0179910D01*
X0158175Y0178102D02*
X0181159Y0178102D01*
X0180744Y0176503D02*
X0158394Y0176503D01*
X0157881Y0174905D02*
X0180744Y0174905D01*
X0180744Y0173306D02*
X0157194Y0173306D01*
X0157194Y0171708D02*
X0180744Y0171708D01*
X0180744Y0170109D02*
X0157194Y0170109D01*
X0157194Y0168510D02*
X0181863Y0168510D01*
X0184794Y0166912D02*
X0157194Y0166912D01*
X0157194Y0165313D02*
X0184794Y0165313D01*
X0184794Y0163715D02*
X0157531Y0163715D01*
X0159129Y0162116D02*
X0184794Y0162116D01*
X0184794Y0160518D02*
X0160728Y0160518D01*
X0162326Y0158919D02*
X0184794Y0158919D01*
X0184794Y0157321D02*
X0163925Y0157321D01*
X0165523Y0155722D02*
X0184794Y0155722D01*
X0184794Y0154124D02*
X0167122Y0154124D01*
X0168720Y0152525D02*
X0184794Y0152525D01*
X0184794Y0150927D02*
X0170319Y0150927D01*
X0171917Y0149328D02*
X0184794Y0149328D01*
X0184989Y0147730D02*
X0173516Y0147730D01*
X0175114Y0146131D02*
X0186260Y0146131D01*
X0187859Y0144533D02*
X0175994Y0144533D01*
X0175994Y0142934D02*
X0189457Y0142934D01*
X0189813Y0141336D02*
X0175994Y0141336D01*
X0175994Y0139737D02*
X0190224Y0139737D01*
X0192556Y0138139D02*
X0176453Y0138139D01*
X0178052Y0136540D02*
X0194154Y0136540D01*
X0195753Y0134942D02*
X0179650Y0134942D01*
X0181249Y0133343D02*
X0197351Y0133343D01*
X0200673Y0141336D02*
X0219594Y0141336D01*
X0219594Y0142934D02*
X0199074Y0142934D01*
X0197476Y0144533D02*
X0219594Y0144533D01*
X0219594Y0146131D02*
X0196611Y0146131D01*
X0192582Y0147730D02*
X0219594Y0147730D01*
X0219594Y0149328D02*
X0215714Y0149328D01*
X0215424Y0149038D02*
X0216822Y0150436D01*
X0217578Y0152262D01*
X0217578Y0154238D01*
X0216822Y0156064D01*
X0215424Y0157462D01*
X0214710Y0157758D01*
X0215424Y0158054D01*
X0216822Y0159451D01*
X0217578Y0161277D01*
X0217578Y0163254D01*
X0216822Y0165080D01*
X0215424Y0166478D01*
X0213598Y0167234D01*
X0211621Y0167234D01*
X0209795Y0166478D01*
X0208397Y0165080D01*
X0207641Y0163254D01*
X0207641Y0161277D01*
X0208397Y0159451D01*
X0209795Y0158054D01*
X0210509Y0157758D01*
X0209795Y0157462D01*
X0208397Y0156064D01*
X0207641Y0154238D01*
X0207641Y0152262D01*
X0208397Y0150436D01*
X0209795Y0149038D01*
X0211621Y0148281D01*
X0213598Y0148281D01*
X0215424Y0149038D01*
X0217025Y0150927D02*
X0219594Y0150927D01*
X0219594Y0152525D02*
X0217578Y0152525D01*
X0217578Y0154124D02*
X0219594Y0154124D01*
X0219594Y0155722D02*
X0216963Y0155722D01*
X0215565Y0157321D02*
X0220119Y0157321D01*
X0221598Y0158919D02*
X0216290Y0158919D01*
X0217263Y0160518D02*
X0223197Y0160518D01*
X0224795Y0162116D02*
X0217578Y0162116D01*
X0217387Y0163715D02*
X0226394Y0163715D01*
X0226617Y0165313D02*
X0216588Y0165313D01*
X0214376Y0166912D02*
X0226617Y0166912D01*
X0227148Y0168510D02*
X0204893Y0168510D01*
X0204905Y0166912D02*
X0210843Y0166912D01*
X0208631Y0165313D02*
X0204905Y0165313D01*
X0204815Y0163715D02*
X0207832Y0163715D01*
X0207641Y0162116D02*
X0197047Y0162116D01*
X0197047Y0160518D02*
X0207956Y0160518D01*
X0208929Y0158919D02*
X0204783Y0158919D01*
X0204783Y0158921D02*
X0204546Y0159332D01*
X0204211Y0159667D01*
X0203800Y0159904D01*
X0203342Y0160026D01*
X0201124Y0160026D01*
X0201124Y0156442D01*
X0204905Y0156442D01*
X0204905Y0158463D01*
X0204783Y0158921D01*
X0204905Y0157321D02*
X0209654Y0157321D01*
X0208256Y0155722D02*
X0204905Y0155722D01*
X0204905Y0154124D02*
X0207641Y0154124D01*
X0207641Y0152525D02*
X0203477Y0152525D01*
X0201124Y0152525D02*
X0200756Y0152525D01*
X0200756Y0154124D02*
X0201124Y0154124D01*
X0201124Y0155722D02*
X0200756Y0155722D01*
X0200756Y0157321D02*
X0201124Y0157321D01*
X0201124Y0158919D02*
X0200756Y0158919D01*
X0200756Y0163715D02*
X0201124Y0163715D01*
X0201124Y0165313D02*
X0200756Y0165313D01*
X0199174Y0170109D02*
X0197358Y0170109D01*
X0197344Y0171708D02*
X0199144Y0171708D01*
X0199144Y0173306D02*
X0197344Y0173306D01*
X0197344Y0174905D02*
X0199144Y0174905D01*
X0199144Y0176503D02*
X0197344Y0176503D01*
X0196928Y0178102D02*
X0199642Y0178102D01*
X0202619Y0178102D02*
X0202769Y0178102D01*
X0202769Y0176503D02*
X0202619Y0176503D01*
X0202619Y0174905D02*
X0202769Y0174905D01*
X0206244Y0174905D02*
X0226617Y0174905D01*
X0226617Y0173306D02*
X0206244Y0173306D01*
X0206244Y0171708D02*
X0227271Y0171708D01*
X0228426Y0170109D02*
X0206214Y0170109D01*
X0206244Y0176503D02*
X0227131Y0176503D01*
X0228387Y0178102D02*
X0205746Y0178102D01*
X0196394Y0179700D02*
X0227287Y0179700D01*
X0226625Y0181299D02*
X0196394Y0181299D01*
X0196394Y0182897D02*
X0226617Y0182897D01*
X0227115Y0184496D02*
X0196394Y0184496D01*
X0196394Y0186094D02*
X0228348Y0186094D01*
X0227303Y0187693D02*
X0196394Y0187693D01*
X0196394Y0189291D02*
X0226641Y0189291D01*
X0226617Y0190890D02*
X0196394Y0190890D01*
X0196394Y0192488D02*
X0227099Y0192488D01*
X0228309Y0194087D02*
X0215473Y0194087D01*
X0215424Y0194038D02*
X0216822Y0195436D01*
X0217578Y0197262D01*
X0217578Y0199238D01*
X0216822Y0201064D01*
X0215424Y0202462D01*
X0214710Y0202758D01*
X0215424Y0203054D01*
X0216822Y0204451D01*
X0217578Y0206277D01*
X0217578Y0208254D01*
X0216822Y0210080D01*
X0215424Y0211478D01*
X0213598Y0212234D01*
X0211621Y0212234D01*
X0209795Y0211478D01*
X0208397Y0210080D01*
X0207641Y0208254D01*
X0207641Y0206277D01*
X0208397Y0204451D01*
X0209795Y0203054D01*
X0210509Y0202758D01*
X0209795Y0202462D01*
X0208397Y0201064D01*
X0207641Y0199238D01*
X0207641Y0197262D01*
X0208397Y0195436D01*
X0209795Y0194038D01*
X0211621Y0193281D01*
X0213598Y0193281D01*
X0215424Y0194038D01*
X0216925Y0195685D02*
X0233625Y0195685D01*
X0233625Y0197284D02*
X0217578Y0197284D01*
X0217578Y0198882D02*
X0234358Y0198882D01*
X0234290Y0205195D02*
X0234290Y0211466D01*
X0228019Y0211466D01*
X0228097Y0210875D01*
X0228338Y0209974D01*
X0228695Y0209112D01*
X0229161Y0208304D01*
X0229729Y0207564D01*
X0230388Y0206905D01*
X0231128Y0206337D01*
X0231936Y0205871D01*
X0232798Y0205514D01*
X0233699Y0205273D01*
X0234290Y0205195D01*
X0234290Y0205276D02*
X0235890Y0205276D01*
X0235890Y0205195D02*
X0236481Y0205273D01*
X0237382Y0205514D01*
X0238243Y0205871D01*
X0239051Y0206337D01*
X0239791Y0206905D01*
X0240451Y0207564D01*
X0240470Y0207590D01*
X0240196Y0206928D01*
X0240196Y0203587D01*
X0241475Y0200501D01*
X0243837Y0198139D01*
X0246923Y0196860D01*
X0250264Y0196860D01*
X0253351Y0198139D01*
X0255713Y0200501D01*
X0256991Y0203587D01*
X0256991Y0206928D01*
X0255713Y0210015D01*
X0253351Y0212377D01*
X0250264Y0213655D01*
X0246923Y0213655D01*
X0243837Y0212377D01*
X0241991Y0210531D01*
X0242083Y0210875D01*
X0242161Y0211466D01*
X0235890Y0211466D01*
X0235890Y0213066D01*
X0234290Y0213066D01*
X0234290Y0219337D01*
X0233699Y0219259D01*
X0232798Y0219018D01*
X0231936Y0218661D01*
X0231128Y0218194D01*
X0230388Y0217627D01*
X0229729Y0216967D01*
X0229161Y0216227D01*
X0228695Y0215419D01*
X0228338Y0214558D01*
X0228097Y0213657D01*
X0228019Y0213066D01*
X0234290Y0213066D01*
X0234290Y0211466D01*
X0235890Y0211466D01*
X0235890Y0205195D01*
X0236495Y0205276D02*
X0240196Y0205276D01*
X0240196Y0203678D02*
X0216048Y0203678D01*
X0215807Y0202079D02*
X0240821Y0202079D01*
X0241495Y0200481D02*
X0217063Y0200481D01*
X0217163Y0205276D02*
X0233685Y0205276D01*
X0234290Y0206875D02*
X0235890Y0206875D01*
X0235890Y0208473D02*
X0234290Y0208473D01*
X0234290Y0210072D02*
X0235890Y0210072D01*
X0235890Y0211670D02*
X0243130Y0211670D01*
X0242161Y0213066D02*
X0242083Y0213657D01*
X0241842Y0214558D01*
X0241485Y0215419D01*
X0241018Y0216227D01*
X0240451Y0216967D01*
X0239791Y0217627D01*
X0239051Y0218194D01*
X0238243Y0218661D01*
X0237382Y0219018D01*
X0236481Y0219259D01*
X0235890Y0219337D01*
X0235890Y0213066D01*
X0242161Y0213066D01*
X0242134Y0213269D02*
X0245990Y0213269D01*
X0241713Y0214867D02*
X0270294Y0214867D01*
X0270294Y0213269D02*
X0251198Y0213269D01*
X0254057Y0211670D02*
X0270294Y0211670D01*
X0270294Y0210072D02*
X0255656Y0210072D01*
X0256351Y0208473D02*
X0270294Y0208473D01*
X0270294Y0206875D02*
X0256991Y0206875D01*
X0256991Y0205276D02*
X0270294Y0205276D01*
X0270294Y0203678D02*
X0256991Y0203678D01*
X0256367Y0202079D02*
X0270294Y0202079D01*
X0270294Y0200481D02*
X0255693Y0200481D01*
X0254094Y0198882D02*
X0270294Y0198882D01*
X0270294Y0197284D02*
X0251286Y0197284D01*
X0245901Y0197284D02*
X0243562Y0197284D01*
X0243562Y0195685D02*
X0270294Y0195685D01*
X0270294Y0194087D02*
X0243562Y0194087D01*
X0243562Y0192488D02*
X0270294Y0192488D01*
X0270294Y0190890D02*
X0243562Y0190890D01*
X0242650Y0189291D02*
X0270294Y0189291D01*
X0270294Y0187693D02*
X0243403Y0187693D01*
X0243562Y0186094D02*
X0270294Y0186094D01*
X0270294Y0184496D02*
X0243216Y0184496D01*
X0242196Y0182897D02*
X0270294Y0182897D01*
X0270294Y0181299D02*
X0242302Y0181299D01*
X0243149Y0179700D02*
X0270294Y0179700D01*
X0270294Y0178102D02*
X0243362Y0178102D01*
X0243027Y0176503D02*
X0270294Y0176503D01*
X0270294Y0174905D02*
X0241953Y0174905D01*
X0242572Y0173306D02*
X0270294Y0173306D01*
X0270294Y0171708D02*
X0243371Y0171708D01*
X0243562Y0170109D02*
X0270294Y0170109D01*
X0270294Y0168510D02*
X0243248Y0168510D01*
X0242274Y0166912D02*
X0270294Y0166912D01*
X0270294Y0165313D02*
X0239640Y0165313D01*
X0237547Y0165313D02*
X0236554Y0165313D01*
X0235917Y0163715D02*
X0270294Y0163715D01*
X0270294Y0162116D02*
X0253611Y0162116D01*
X0253351Y0162377D02*
X0250264Y0163655D01*
X0246923Y0163655D01*
X0243837Y0162377D01*
X0241475Y0160015D01*
X0240196Y0156928D01*
X0240196Y0153587D01*
X0240470Y0152926D01*
X0240451Y0152951D01*
X0239791Y0153611D01*
X0239051Y0154179D01*
X0238243Y0154645D01*
X0237382Y0155002D01*
X0236481Y0155243D01*
X0235890Y0155321D01*
X0235890Y0149050D01*
X0242161Y0149050D01*
X0242083Y0149641D01*
X0241991Y0149985D01*
X0243837Y0148139D01*
X0246923Y0146860D01*
X0250264Y0146860D01*
X0253351Y0148139D01*
X0255713Y0150501D01*
X0256991Y0153587D01*
X0256991Y0156928D01*
X0255713Y0160015D01*
X0253351Y0162377D01*
X0255210Y0160518D02*
X0270294Y0160518D01*
X0270294Y0158919D02*
X0256167Y0158919D01*
X0256829Y0157321D02*
X0270294Y0157321D01*
X0270294Y0155722D02*
X0256991Y0155722D01*
X0256991Y0154124D02*
X0270294Y0154124D01*
X0270294Y0152525D02*
X0256551Y0152525D01*
X0255889Y0150927D02*
X0270294Y0150927D01*
X0270294Y0149328D02*
X0254540Y0149328D01*
X0252364Y0147730D02*
X0270294Y0147730D01*
X0270294Y0146131D02*
X0241888Y0146131D01*
X0241842Y0145958D02*
X0242083Y0146859D01*
X0242161Y0147450D01*
X0235890Y0147450D01*
X0235890Y0149050D01*
X0234290Y0149050D01*
X0234290Y0155321D01*
X0233699Y0155243D01*
X0232798Y0155002D01*
X0231936Y0154645D01*
X0231128Y0154179D01*
X0230388Y0153611D01*
X0229729Y0152951D01*
X0229161Y0152211D01*
X0228695Y0151404D01*
X0228338Y0150542D01*
X0228097Y0149641D01*
X0228019Y0149050D01*
X0234290Y0149050D01*
X0234290Y0147450D01*
X0235890Y0147450D01*
X0235890Y0141179D01*
X0236481Y0141257D01*
X0237382Y0141498D01*
X0238243Y0141855D01*
X0239051Y0142321D01*
X0239791Y0142889D01*
X0240451Y0143549D01*
X0241018Y0144289D01*
X0241485Y0145096D01*
X0241842Y0145958D01*
X0241159Y0144533D02*
X0270294Y0144533D01*
X0270294Y0142934D02*
X0239836Y0142934D01*
X0236776Y0141336D02*
X0270294Y0141336D01*
X0270294Y0139737D02*
X0227594Y0139737D01*
X0227594Y0141336D02*
X0233404Y0141336D01*
X0233699Y0141257D02*
X0232798Y0141498D01*
X0231936Y0141855D01*
X0231128Y0142321D01*
X0230388Y0142889D01*
X0229729Y0143549D01*
X0229161Y0144289D01*
X0228695Y0145096D01*
X0228338Y0145958D01*
X0228097Y0146859D01*
X0228019Y0147450D01*
X0234290Y0147450D01*
X0234290Y0141179D01*
X0233699Y0141257D01*
X0234290Y0141336D02*
X0235890Y0141336D01*
X0235890Y0142934D02*
X0234290Y0142934D01*
X0234290Y0144533D02*
X0235890Y0144533D01*
X0235890Y0146131D02*
X0234290Y0146131D01*
X0234290Y0147730D02*
X0227594Y0147730D01*
X0227594Y0149328D02*
X0228055Y0149328D01*
X0228497Y0150927D02*
X0227594Y0150927D01*
X0227594Y0152525D02*
X0229402Y0152525D01*
X0228117Y0154124D02*
X0231057Y0154124D01*
X0229715Y0155722D02*
X0240196Y0155722D01*
X0240196Y0154124D02*
X0239122Y0154124D01*
X0235890Y0154124D02*
X0234290Y0154124D01*
X0234290Y0152525D02*
X0235890Y0152525D01*
X0235890Y0150927D02*
X0234290Y0150927D01*
X0234290Y0149328D02*
X0235890Y0149328D01*
X0235890Y0147730D02*
X0244824Y0147730D01*
X0242647Y0149328D02*
X0242124Y0149328D01*
X0240359Y0157321D02*
X0231314Y0157321D01*
X0232912Y0158919D02*
X0241021Y0158919D01*
X0241978Y0160518D02*
X0234511Y0160518D01*
X0235446Y0162116D02*
X0243576Y0162116D01*
X0228291Y0146131D02*
X0227594Y0146131D01*
X0227594Y0144533D02*
X0229020Y0144533D01*
X0230343Y0142934D02*
X0227594Y0142934D01*
X0227649Y0138139D02*
X0270294Y0138139D01*
X0270294Y0136540D02*
X0229248Y0136540D01*
X0230846Y0134942D02*
X0270294Y0134942D01*
X0270294Y0133343D02*
X0232445Y0133343D01*
X0234043Y0131745D02*
X0270294Y0131745D01*
X0270294Y0130146D02*
X0235642Y0130146D01*
X0237240Y0128548D02*
X0270294Y0128548D01*
X0270294Y0126949D02*
X0238839Y0126949D01*
X0240437Y0125351D02*
X0270294Y0125351D01*
X0270294Y0123752D02*
X0242036Y0123752D01*
X0243634Y0122154D02*
X0270294Y0122154D01*
X0270294Y0120555D02*
X0245233Y0120555D01*
X0246831Y0118957D02*
X0270294Y0118957D01*
X0270294Y0117358D02*
X0250195Y0117358D01*
X0251436Y0115760D02*
X0270294Y0115760D01*
X0270294Y0114161D02*
X0251981Y0114161D01*
X0251981Y0112563D02*
X0270294Y0112563D01*
X0270294Y0110964D02*
X0251406Y0110964D01*
X0250733Y0109366D02*
X0270294Y0109366D01*
X0270294Y0107767D02*
X0250733Y0107767D01*
X0251923Y0106169D02*
X0270294Y0106169D01*
X0270294Y0104570D02*
X0255286Y0104570D01*
X0256733Y0102972D02*
X0270294Y0102972D01*
X0270294Y0101373D02*
X0257395Y0101373D01*
X0257424Y0099775D02*
X0270294Y0099775D01*
X0270294Y0098176D02*
X0256994Y0098176D01*
X0256176Y0096577D02*
X0270294Y0096577D01*
X0270294Y0094979D02*
X0256176Y0094979D01*
X0256176Y0093380D02*
X0270294Y0093380D01*
X0270294Y0091782D02*
X0256176Y0091782D01*
X0255456Y0090183D02*
X0270294Y0090183D01*
X0270294Y0088585D02*
X0253857Y0088585D01*
X0252259Y0086986D02*
X0270294Y0086986D01*
X0270294Y0085388D02*
X0251697Y0085388D01*
X0250827Y0083789D02*
X0270294Y0083789D01*
X0270294Y0082191D02*
X0248552Y0082191D01*
X0244915Y0082191D02*
X0222272Y0082191D01*
X0221498Y0081870D02*
X0223427Y0082669D01*
X0224903Y0084145D01*
X0225702Y0086074D01*
X0225702Y0088162D01*
X0224903Y0090091D01*
X0223427Y0091567D01*
X0221498Y0092366D01*
X0219410Y0092366D01*
X0217481Y0091567D01*
X0216005Y0090091D01*
X0215206Y0088162D01*
X0215206Y0086074D01*
X0216005Y0084145D01*
X0217481Y0082669D01*
X0219410Y0081870D01*
X0221498Y0081870D01*
X0218636Y0082191D02*
X0171594Y0082191D01*
X0171594Y0083789D02*
X0216361Y0083789D01*
X0215490Y0085388D02*
X0171211Y0085388D01*
X0171594Y0083959D02*
X0170640Y0087520D01*
X0168796Y0090712D01*
X0168056Y0091453D01*
X0161860Y0097649D01*
X0160389Y0098258D01*
X0158798Y0098258D01*
X0157328Y0097649D01*
X0156203Y0096524D01*
X0155594Y0095054D01*
X0155594Y0093462D01*
X0156203Y0091992D01*
X0161836Y0086358D01*
X0162354Y0085768D01*
X0163137Y0084412D01*
X0163542Y0082899D01*
X0163594Y0082116D01*
X0163594Y0053462D01*
X0164203Y0051992D01*
X0165328Y0050867D01*
X0168399Y0047796D01*
X0169140Y0047055D01*
X0172332Y0045212D01*
X0172332Y0045212D01*
X0175893Y0044258D01*
X0188389Y0044258D01*
X0189860Y0044867D01*
X0190931Y0045938D01*
X0191493Y0046501D01*
X0191926Y0046934D01*
X0192056Y0047063D01*
X0192796Y0047804D01*
X0194640Y0050996D01*
X0194640Y0050996D01*
X0195594Y0054557D01*
X0195594Y0055231D01*
X0195806Y0055443D01*
X0196562Y0057270D01*
X0196562Y0059246D01*
X0195806Y0061072D01*
X0194408Y0062470D01*
X0192582Y0063226D01*
X0190605Y0063226D01*
X0188779Y0062470D01*
X0187382Y0061072D01*
X0186625Y0059246D01*
X0186625Y0057270D01*
X0187382Y0055443D01*
X0187472Y0055353D01*
X0187137Y0054104D01*
X0186354Y0052747D01*
X0185924Y0052258D01*
X0177736Y0052258D01*
X0176953Y0052309D01*
X0175440Y0052715D01*
X0174083Y0053498D01*
X0173493Y0054015D01*
X0171594Y0055915D01*
X0171594Y0083959D01*
X0170782Y0086986D02*
X0215206Y0086986D01*
X0215381Y0088585D02*
X0170025Y0088585D01*
X0170640Y0087520D02*
X0170640Y0087520D01*
X0169102Y0090183D02*
X0216097Y0090183D01*
X0218000Y0091782D02*
X0167726Y0091782D01*
X0168056Y0091453D02*
X0168056Y0091453D01*
X0168796Y0090712D02*
X0168796Y0090712D01*
X0166128Y0093380D02*
X0247339Y0093380D01*
X0248176Y0094979D02*
X0164529Y0094979D01*
X0162931Y0096577D02*
X0211552Y0096577D01*
X0211722Y0096407D02*
X0212365Y0095940D01*
X0213073Y0095580D01*
X0213829Y0095334D01*
X0214614Y0095210D01*
X0214728Y0095210D01*
X0214728Y0099975D01*
X0209963Y0099975D01*
X0209963Y0099861D01*
X0210087Y0099076D01*
X0210333Y0098320D01*
X0210694Y0097612D01*
X0211161Y0096969D01*
X0211722Y0096407D01*
X0210406Y0098176D02*
X0160587Y0098176D01*
X0158600Y0098176D02*
X0042994Y0098176D01*
X0042994Y0099775D02*
X0209977Y0099775D01*
X0209963Y0100541D02*
X0214728Y0100541D01*
X0214728Y0105306D01*
X0214614Y0105306D01*
X0213829Y0105182D01*
X0213073Y0104936D01*
X0212365Y0104575D01*
X0211722Y0104108D01*
X0211161Y0103546D01*
X0210694Y0102904D01*
X0210333Y0102196D01*
X0210087Y0101440D01*
X0209963Y0100655D01*
X0209963Y0100541D01*
X0210077Y0101373D02*
X0042994Y0101373D01*
X0042994Y0102972D02*
X0210743Y0102972D01*
X0212358Y0104570D02*
X0042994Y0104570D01*
X0042994Y0106169D02*
X0242733Y0106169D01*
X0242733Y0107767D02*
X0215105Y0107767D01*
X0215105Y0109366D02*
X0217064Y0109366D01*
X0215782Y0110964D02*
X0215105Y0110964D01*
X0213511Y0115760D02*
X0206368Y0115760D01*
X0207306Y0114161D02*
X0207881Y0114161D01*
X0210756Y0117358D02*
X0211124Y0117358D01*
X0211124Y0118957D02*
X0210756Y0118957D01*
X0211124Y0120442D02*
X0214905Y0120442D01*
X0214905Y0122463D01*
X0214783Y0122921D01*
X0214546Y0123332D01*
X0214211Y0123667D01*
X0213800Y0123904D01*
X0213342Y0124026D01*
X0211124Y0124026D01*
X0211124Y0120442D01*
X0211124Y0120555D02*
X0210756Y0120555D01*
X0210756Y0122154D02*
X0211124Y0122154D01*
X0211124Y0123752D02*
X0210756Y0123752D01*
X0207818Y0123752D02*
X0207715Y0123752D01*
X0214063Y0123752D02*
X0230722Y0123752D01*
X0232321Y0122154D02*
X0214905Y0122154D01*
X0214905Y0120555D02*
X0233919Y0120555D01*
X0235518Y0118957D02*
X0214905Y0118957D01*
X0214646Y0117358D02*
X0216993Y0117358D01*
X0223915Y0117358D02*
X0237116Y0117358D01*
X0238715Y0115760D02*
X0225156Y0115760D01*
X0225702Y0114161D02*
X0240313Y0114161D01*
X0241485Y0112563D02*
X0225702Y0112563D01*
X0225126Y0110964D02*
X0242061Y0110964D01*
X0242733Y0109366D02*
X0223844Y0109366D01*
X0218300Y0104108D02*
X0217657Y0104575D01*
X0216949Y0104936D01*
X0216193Y0105182D01*
X0215408Y0105306D01*
X0215294Y0105306D01*
X0215294Y0100541D01*
X0214728Y0100541D01*
X0214728Y0099975D01*
X0215294Y0099975D01*
X0215294Y0100541D01*
X0220059Y0100541D01*
X0220059Y0100655D01*
X0219935Y0101440D01*
X0219689Y0102196D01*
X0219328Y0102904D01*
X0218861Y0103546D01*
X0218300Y0104108D01*
X0217664Y0104570D02*
X0242872Y0104570D01*
X0243806Y0102972D02*
X0219279Y0102972D01*
X0219945Y0101373D02*
X0245404Y0101373D01*
X0246928Y0099775D02*
X0220045Y0099775D01*
X0220059Y0099861D02*
X0220059Y0099975D01*
X0215294Y0099975D01*
X0215294Y0095210D01*
X0215408Y0095210D01*
X0216193Y0095334D01*
X0216949Y0095580D01*
X0217657Y0095940D01*
X0218300Y0096407D01*
X0218861Y0096969D01*
X0219328Y0097612D01*
X0219689Y0098320D01*
X0219935Y0099076D01*
X0220059Y0099861D01*
X0219616Y0098176D02*
X0247358Y0098176D01*
X0248176Y0096577D02*
X0218470Y0096577D01*
X0215294Y0096577D02*
X0214728Y0096577D01*
X0214728Y0098176D02*
X0215294Y0098176D01*
X0215294Y0099775D02*
X0214728Y0099775D01*
X0214728Y0101373D02*
X0215294Y0101373D01*
X0215294Y0102972D02*
X0214728Y0102972D01*
X0214728Y0104570D02*
X0215294Y0104570D01*
X0222908Y0091782D02*
X0244279Y0091782D01*
X0242377Y0090183D02*
X0224810Y0090183D01*
X0225527Y0088585D02*
X0241661Y0088585D01*
X0241485Y0086986D02*
X0225702Y0086986D01*
X0225418Y0085388D02*
X0241770Y0085388D01*
X0242640Y0083789D02*
X0224547Y0083789D01*
X0200806Y0071072D02*
X0201562Y0069246D01*
X0201562Y0067270D01*
X0200806Y0065443D01*
X0199408Y0064046D01*
X0197582Y0063289D01*
X0195605Y0063289D01*
X0193779Y0064046D01*
X0192382Y0065443D01*
X0191625Y0067270D01*
X0191625Y0069246D01*
X0192382Y0071072D01*
X0193779Y0072470D01*
X0195605Y0073226D01*
X0197582Y0073226D01*
X0199408Y0072470D01*
X0200806Y0071072D01*
X0200835Y0071001D02*
X0270294Y0071001D01*
X0270294Y0069403D02*
X0201497Y0069403D01*
X0201562Y0067804D02*
X0270294Y0067804D01*
X0270294Y0066206D02*
X0201122Y0066206D01*
X0199970Y0064607D02*
X0270294Y0064607D01*
X0270294Y0063009D02*
X0202080Y0063009D01*
X0201969Y0063026D02*
X0201778Y0063026D01*
X0201778Y0058442D01*
X0206362Y0058442D01*
X0206362Y0058633D01*
X0206245Y0059374D01*
X0206013Y0060088D01*
X0205672Y0060757D01*
X0205231Y0061364D01*
X0204700Y0061895D01*
X0204093Y0062336D01*
X0203424Y0062677D01*
X0202710Y0062909D01*
X0201969Y0063026D01*
X0201778Y0063009D02*
X0201409Y0063009D01*
X0201409Y0063026D02*
X0201218Y0063026D01*
X0200477Y0062909D01*
X0199763Y0062677D01*
X0199094Y0062336D01*
X0198487Y0061895D01*
X0197956Y0061364D01*
X0197515Y0060757D01*
X0197175Y0060088D01*
X0196943Y0059374D01*
X0196825Y0058633D01*
X0196825Y0058442D01*
X0201409Y0058442D01*
X0201409Y0058074D01*
X0196825Y0058074D01*
X0196825Y0057883D01*
X0196943Y0057141D01*
X0197175Y0056427D01*
X0197515Y0055759D01*
X0197956Y0055151D01*
X0198487Y0054621D01*
X0199094Y0054179D01*
X0199763Y0053839D01*
X0200477Y0053607D01*
X0201218Y0053489D01*
X0201409Y0053489D01*
X0201409Y0058074D01*
X0201778Y0058074D01*
X0201778Y0058442D01*
X0201409Y0058442D01*
X0201409Y0063026D01*
X0201107Y0063009D02*
X0193107Y0063009D01*
X0193218Y0064607D02*
X0189970Y0064607D01*
X0189408Y0064046D02*
X0190806Y0065443D01*
X0191562Y0067270D01*
X0191562Y0069246D01*
X0190806Y0071072D01*
X0189408Y0072470D01*
X0187582Y0073226D01*
X0185605Y0073226D01*
X0183779Y0072470D01*
X0182382Y0071072D01*
X0181625Y0069246D01*
X0181625Y0067270D01*
X0182382Y0065443D01*
X0183779Y0064046D01*
X0185605Y0063289D01*
X0187582Y0063289D01*
X0189408Y0064046D01*
X0190080Y0063009D02*
X0183107Y0063009D01*
X0182582Y0063226D02*
X0180605Y0063226D01*
X0178779Y0062470D01*
X0177382Y0061072D01*
X0176625Y0059246D01*
X0176625Y0057270D01*
X0177382Y0055443D01*
X0178779Y0054046D01*
X0180605Y0053289D01*
X0182582Y0053289D01*
X0184408Y0054046D01*
X0185806Y0055443D01*
X0186562Y0057270D01*
X0186562Y0059246D01*
X0185806Y0061072D01*
X0184408Y0062470D01*
X0182582Y0063226D01*
X0183218Y0064607D02*
X0181243Y0064607D01*
X0181240Y0064595D02*
X0181362Y0065052D01*
X0181362Y0068074D01*
X0176778Y0068074D01*
X0176778Y0068442D01*
X0181362Y0068442D01*
X0181362Y0071463D01*
X0181240Y0071921D01*
X0181003Y0072332D01*
X0180667Y0072667D01*
X0180257Y0072904D01*
X0179799Y0073026D01*
X0176778Y0073026D01*
X0176778Y0068442D01*
X0176409Y0068442D01*
X0176409Y0068074D01*
X0171825Y0068074D01*
X0171825Y0065052D01*
X0171948Y0064595D01*
X0172185Y0064184D01*
X0172520Y0063849D01*
X0172930Y0063612D01*
X0173388Y0063489D01*
X0176409Y0063489D01*
X0176409Y0068074D01*
X0176778Y0068074D01*
X0176778Y0063489D01*
X0179799Y0063489D01*
X0180257Y0063612D01*
X0180667Y0063849D01*
X0181003Y0064184D01*
X0181240Y0064595D01*
X0181362Y0066206D02*
X0182066Y0066206D01*
X0181625Y0067804D02*
X0181362Y0067804D01*
X0181362Y0069403D02*
X0181690Y0069403D01*
X0181362Y0071001D02*
X0182352Y0071001D01*
X0180734Y0072600D02*
X0184093Y0072600D01*
X0189095Y0072600D02*
X0194093Y0072600D01*
X0192352Y0071001D02*
X0190835Y0071001D01*
X0191497Y0069403D02*
X0191690Y0069403D01*
X0191625Y0067804D02*
X0191562Y0067804D01*
X0191122Y0066206D02*
X0192066Y0066206D01*
X0195468Y0061410D02*
X0198002Y0061410D01*
X0197085Y0059812D02*
X0196328Y0059812D01*
X0196562Y0058213D02*
X0201409Y0058213D01*
X0201778Y0058213D02*
X0270294Y0058213D01*
X0270294Y0056615D02*
X0206074Y0056615D01*
X0206013Y0056427D02*
X0206245Y0057141D01*
X0206362Y0057883D01*
X0206362Y0058074D01*
X0201778Y0058074D01*
X0201778Y0053489D01*
X0201969Y0053489D01*
X0202710Y0053607D01*
X0203424Y0053839D01*
X0204093Y0054179D01*
X0204700Y0054621D01*
X0205231Y0055151D01*
X0205672Y0055759D01*
X0206013Y0056427D01*
X0205096Y0055016D02*
X0270294Y0055016D01*
X0270294Y0053418D02*
X0195288Y0053418D01*
X0195594Y0055016D02*
X0198092Y0055016D01*
X0197114Y0056615D02*
X0196291Y0056615D01*
X0194860Y0051819D02*
X0270294Y0051819D01*
X0270294Y0050221D02*
X0194192Y0050221D01*
X0193269Y0048622D02*
X0270294Y0048622D01*
X0270294Y0047024D02*
X0254796Y0047024D01*
X0254287Y0047295D02*
X0255440Y0046679D01*
X0256526Y0045953D01*
X0257536Y0045124D01*
X0258460Y0044200D01*
X0259289Y0043190D01*
X0260015Y0042104D01*
X0260631Y0040951D01*
X0261131Y0039744D01*
X0261511Y0038493D01*
X0261766Y0037212D01*
X0261879Y0036058D01*
X0249394Y0036058D01*
X0249394Y0034458D01*
X0261879Y0034458D01*
X0261766Y0033304D01*
X0261511Y0032022D01*
X0261131Y0030772D01*
X0260631Y0029565D01*
X0260015Y0028412D01*
X0259289Y0027326D01*
X0258460Y0026315D01*
X0257536Y0025391D01*
X0256526Y0024562D01*
X0255440Y0023836D01*
X0254287Y0023220D01*
X0253080Y0022720D01*
X0251829Y0022341D01*
X0250548Y0022086D01*
X0249394Y0021972D01*
X0249394Y0034458D01*
X0247794Y0034458D01*
X0247794Y0021972D01*
X0246640Y0022086D01*
X0245358Y0022341D01*
X0244108Y0022720D01*
X0242900Y0023220D01*
X0241748Y0023836D01*
X0240661Y0024562D01*
X0239651Y0025391D01*
X0238727Y0026315D01*
X0237898Y0027326D01*
X0237172Y0028412D01*
X0236556Y0029565D01*
X0236056Y0030772D01*
X0235677Y0032022D01*
X0235422Y0033304D01*
X0235308Y0034458D01*
X0247794Y0034458D01*
X0247794Y0036058D01*
X0247794Y0048543D01*
X0246640Y0048430D01*
X0245358Y0048175D01*
X0244108Y0047795D01*
X0242900Y0047295D01*
X0241748Y0046679D01*
X0240661Y0045953D01*
X0239651Y0045124D01*
X0238727Y0044200D01*
X0237898Y0043190D01*
X0237172Y0042104D01*
X0236556Y0040951D01*
X0236056Y0039744D01*
X0235677Y0038493D01*
X0235422Y0037212D01*
X0235308Y0036058D01*
X0247794Y0036058D01*
X0249394Y0036058D01*
X0249394Y0048543D01*
X0250548Y0048430D01*
X0251829Y0048175D01*
X0253080Y0047795D01*
X0254287Y0047295D01*
X0257170Y0045425D02*
X0270294Y0045425D01*
X0270294Y0043827D02*
X0258767Y0043827D01*
X0259932Y0042228D02*
X0270294Y0042228D01*
X0270294Y0040630D02*
X0260764Y0040630D01*
X0261348Y0039031D02*
X0270294Y0039031D01*
X0270294Y0037433D02*
X0261722Y0037433D01*
X0261857Y0034236D02*
X0270294Y0034236D01*
X0270294Y0035834D02*
X0249394Y0035834D01*
X0249394Y0034236D02*
X0247794Y0034236D01*
X0247794Y0035834D02*
X0217203Y0035834D01*
X0217570Y0034948D02*
X0216277Y0038070D01*
X0213887Y0040460D01*
X0210764Y0041754D01*
X0207384Y0041754D01*
X0204261Y0040460D01*
X0201871Y0038070D01*
X0200578Y0034948D01*
X0200578Y0031568D01*
X0201871Y0028445D01*
X0204261Y0026055D01*
X0207384Y0024762D01*
X0210405Y0024762D01*
X0210085Y0024207D01*
X0209750Y0023399D01*
X0209524Y0022554D01*
X0209458Y0022050D01*
X0215282Y0022050D01*
X0215282Y0027451D01*
X0216277Y0028445D01*
X0217570Y0031568D01*
X0217570Y0034948D01*
X0217570Y0034236D02*
X0235330Y0034236D01*
X0235554Y0032637D02*
X0217570Y0032637D01*
X0217351Y0031039D02*
X0235975Y0031039D01*
X0236623Y0029440D02*
X0216689Y0029440D01*
X0216882Y0027874D02*
X0217386Y0027808D01*
X0218231Y0027582D01*
X0219039Y0027247D01*
X0219797Y0026809D01*
X0220491Y0026277D01*
X0221109Y0025659D01*
X0221641Y0024965D01*
X0222079Y0024207D01*
X0222413Y0023399D01*
X0222640Y0022554D01*
X0222706Y0022050D01*
X0216882Y0022050D01*
X0216882Y0020450D01*
X0222706Y0020450D01*
X0222640Y0019946D01*
X0222413Y0019101D01*
X0222079Y0018293D01*
X0221641Y0017535D01*
X0221109Y0016841D01*
X0220491Y0016223D01*
X0219797Y0015690D01*
X0219039Y0015253D01*
X0218231Y0014918D01*
X0217386Y0014692D01*
X0216882Y0014626D01*
X0216882Y0020450D01*
X0215282Y0020450D01*
X0215282Y0014626D01*
X0214777Y0014692D01*
X0213933Y0014918D01*
X0213125Y0015253D01*
X0212367Y0015690D01*
X0211673Y0016223D01*
X0211055Y0016841D01*
X0210522Y0017535D01*
X0210085Y0018293D01*
X0209750Y0019101D01*
X0209524Y0019946D01*
X0209458Y0020450D01*
X0215282Y0020450D01*
X0215282Y0022050D01*
X0216882Y0022050D01*
X0216882Y0027874D01*
X0216882Y0027841D02*
X0215673Y0027841D01*
X0217131Y0027841D02*
X0237553Y0027841D01*
X0238800Y0026243D02*
X0220525Y0026243D01*
X0221826Y0024644D02*
X0240561Y0024644D01*
X0243321Y0023046D02*
X0222508Y0023046D01*
X0222614Y0019849D02*
X0270294Y0019849D01*
X0270294Y0021447D02*
X0216882Y0021447D01*
X0216882Y0019849D02*
X0215282Y0019849D01*
X0215282Y0021447D02*
X0162866Y0021447D01*
X0162866Y0022050D02*
X0162866Y0020450D01*
X0162866Y0014626D01*
X0163371Y0014692D01*
X0164215Y0014918D01*
X0165023Y0015253D01*
X0165781Y0015690D01*
X0166475Y0016223D01*
X0167093Y0016841D01*
X0167626Y0017535D01*
X0168063Y0018293D01*
X0168398Y0019101D01*
X0168624Y0019946D01*
X0168690Y0020450D01*
X0162866Y0020450D01*
X0161266Y0020450D01*
X0155442Y0020450D01*
X0155508Y0019946D01*
X0155735Y0019101D01*
X0156069Y0018293D01*
X0156507Y0017535D01*
X0157039Y0016841D01*
X0157658Y0016223D01*
X0158351Y0015690D01*
X0159109Y0015253D01*
X0159917Y0014918D01*
X0160762Y0014692D01*
X0161266Y0014626D01*
X0161266Y0020450D01*
X0161266Y0022050D01*
X0155442Y0022050D01*
X0155508Y0022554D01*
X0155735Y0023399D01*
X0156069Y0024207D01*
X0156507Y0024965D01*
X0157039Y0025659D01*
X0157658Y0026277D01*
X0158351Y0026809D01*
X0159109Y0027247D01*
X0159917Y0027582D01*
X0160762Y0027808D01*
X0161266Y0027874D01*
X0161266Y0022050D01*
X0162866Y0022050D01*
X0162866Y0027451D01*
X0161871Y0028445D01*
X0160578Y0031568D01*
X0160578Y0034948D01*
X0161871Y0038070D01*
X0164261Y0040460D01*
X0167384Y0041754D01*
X0170764Y0041754D01*
X0173887Y0040460D01*
X0176277Y0038070D01*
X0177570Y0034948D01*
X0177570Y0031568D01*
X0176277Y0028445D01*
X0173887Y0026055D01*
X0170764Y0024762D01*
X0167743Y0024762D01*
X0168063Y0024207D01*
X0168398Y0023399D01*
X0168624Y0022554D01*
X0168690Y0022050D01*
X0162866Y0022050D01*
X0162866Y0023046D02*
X0161266Y0023046D01*
X0161266Y0024644D02*
X0162866Y0024644D01*
X0162866Y0026243D02*
X0161266Y0026243D01*
X0161266Y0027841D02*
X0162475Y0027841D01*
X0161017Y0027841D02*
X0039634Y0027841D01*
X0039289Y0027326D02*
X0040015Y0028412D01*
X0040631Y0029565D01*
X0041131Y0030772D01*
X0041511Y0032022D01*
X0041766Y0033304D01*
X0041879Y0034458D01*
X0029394Y0034458D01*
X0029394Y0036058D01*
X0041879Y0036058D01*
X0041766Y0037212D01*
X0041511Y0038493D01*
X0041131Y0039744D01*
X0040631Y0040951D01*
X0040015Y0042104D01*
X0039289Y0043190D01*
X0038460Y0044200D01*
X0037536Y0045124D01*
X0036526Y0045953D01*
X0035440Y0046679D01*
X0034287Y0047295D01*
X0033080Y0047795D01*
X0031829Y0048175D01*
X0030548Y0048430D01*
X0029394Y0048543D01*
X0029394Y0036058D01*
X0027794Y0036058D01*
X0027794Y0048543D01*
X0026640Y0048430D01*
X0025358Y0048175D01*
X0024108Y0047795D01*
X0022900Y0047295D01*
X0021748Y0046679D01*
X0020661Y0045953D01*
X0019651Y0045124D01*
X0018727Y0044200D01*
X0017898Y0043190D01*
X0017172Y0042104D01*
X0016556Y0040951D01*
X0016056Y0039744D01*
X0015677Y0038493D01*
X0015422Y0037212D01*
X0015308Y0036058D01*
X0027794Y0036058D01*
X0027794Y0034458D01*
X0029394Y0034458D01*
X0029394Y0021972D01*
X0030548Y0022086D01*
X0031829Y0022341D01*
X0033080Y0022720D01*
X0034287Y0023220D01*
X0035440Y0023836D01*
X0036526Y0024562D01*
X0037536Y0025391D01*
X0038460Y0026315D01*
X0039289Y0027326D01*
X0038388Y0026243D02*
X0157623Y0026243D01*
X0156322Y0024644D02*
X0036626Y0024644D01*
X0033866Y0023046D02*
X0155640Y0023046D01*
X0155534Y0019849D02*
X0005594Y0019849D01*
X0005594Y0021447D02*
X0161266Y0021447D01*
X0161266Y0019849D02*
X0162866Y0019849D01*
X0162866Y0018250D02*
X0161266Y0018250D01*
X0161266Y0016652D02*
X0162866Y0016652D01*
X0162866Y0015053D02*
X0161266Y0015053D01*
X0159591Y0015053D02*
X0005594Y0015053D01*
X0005594Y0013455D02*
X0270294Y0013455D01*
X0270294Y0012258D02*
X0270294Y0268219D01*
X0005594Y0268219D01*
X0005594Y0012258D01*
X0270294Y0012258D01*
X0270294Y0015053D02*
X0218557Y0015053D01*
X0216882Y0015053D02*
X0215282Y0015053D01*
X0215282Y0016652D02*
X0216882Y0016652D01*
X0216882Y0018250D02*
X0215282Y0018250D01*
X0213607Y0015053D02*
X0164541Y0015053D01*
X0166904Y0016652D02*
X0211244Y0016652D01*
X0210109Y0018250D02*
X0168039Y0018250D01*
X0168598Y0019849D02*
X0209550Y0019849D01*
X0209656Y0023046D02*
X0168492Y0023046D01*
X0167811Y0024644D02*
X0210337Y0024644D01*
X0215282Y0024644D02*
X0216882Y0024644D01*
X0216882Y0023046D02*
X0215282Y0023046D01*
X0215282Y0026243D02*
X0216882Y0026243D01*
X0222054Y0018250D02*
X0270294Y0018250D01*
X0270294Y0016652D02*
X0220920Y0016652D01*
X0204074Y0026243D02*
X0174074Y0026243D01*
X0175673Y0027841D02*
X0202475Y0027841D01*
X0201459Y0029440D02*
X0176689Y0029440D01*
X0177351Y0031039D02*
X0200797Y0031039D01*
X0200578Y0032637D02*
X0177570Y0032637D01*
X0177570Y0034236D02*
X0200578Y0034236D01*
X0200945Y0035834D02*
X0177203Y0035834D01*
X0176541Y0037433D02*
X0201607Y0037433D01*
X0202832Y0039031D02*
X0175316Y0039031D01*
X0173478Y0040630D02*
X0204670Y0040630D01*
X0213478Y0040630D02*
X0236423Y0040630D01*
X0235840Y0039031D02*
X0215316Y0039031D01*
X0216541Y0037433D02*
X0235466Y0037433D01*
X0237255Y0042228D02*
X0121334Y0042228D01*
X0121499Y0041830D02*
X0120296Y0044736D01*
X0118072Y0046960D01*
X0115166Y0048163D01*
X0112021Y0048163D01*
X0109116Y0046960D01*
X0106892Y0044736D01*
X0105688Y0041830D01*
X0105688Y0038685D01*
X0106892Y0035780D01*
X0109116Y0033556D01*
X0112021Y0032352D01*
X0115166Y0032352D01*
X0118072Y0033556D01*
X0120296Y0035780D01*
X0121499Y0038685D01*
X0121499Y0041830D01*
X0121499Y0040630D02*
X0164670Y0040630D01*
X0162832Y0039031D02*
X0121499Y0039031D01*
X0120980Y0037433D02*
X0161607Y0037433D01*
X0160945Y0035834D02*
X0120318Y0035834D01*
X0118751Y0034236D02*
X0160578Y0034236D01*
X0160578Y0032637D02*
X0115853Y0032637D01*
X0111334Y0032637D02*
X0041633Y0032637D01*
X0041857Y0034236D02*
X0108436Y0034236D01*
X0106869Y0035834D02*
X0029394Y0035834D01*
X0029394Y0034236D02*
X0027794Y0034236D01*
X0027794Y0034458D02*
X0027794Y0021972D01*
X0026640Y0022086D01*
X0025358Y0022341D01*
X0024108Y0022720D01*
X0022900Y0023220D01*
X0021748Y0023836D01*
X0020661Y0024562D01*
X0019651Y0025391D01*
X0018727Y0026315D01*
X0017898Y0027326D01*
X0017172Y0028412D01*
X0016556Y0029565D01*
X0016056Y0030772D01*
X0015677Y0032022D01*
X0015422Y0033304D01*
X0015308Y0034458D01*
X0027794Y0034458D01*
X0027794Y0035834D02*
X0005594Y0035834D01*
X0005594Y0034236D02*
X0015330Y0034236D01*
X0015554Y0032637D02*
X0005594Y0032637D01*
X0005594Y0031039D02*
X0015975Y0031039D01*
X0016623Y0029440D02*
X0005594Y0029440D01*
X0005594Y0027841D02*
X0017553Y0027841D01*
X0018800Y0026243D02*
X0005594Y0026243D01*
X0005594Y0024644D02*
X0020561Y0024644D01*
X0023321Y0023046D02*
X0005594Y0023046D01*
X0005594Y0018250D02*
X0156094Y0018250D01*
X0157229Y0016652D02*
X0005594Y0016652D01*
X0005594Y0037433D02*
X0015466Y0037433D01*
X0015840Y0039031D02*
X0005594Y0039031D01*
X0005594Y0040630D02*
X0016423Y0040630D01*
X0017255Y0042228D02*
X0005594Y0042228D01*
X0005594Y0043827D02*
X0018420Y0043827D01*
X0020018Y0045425D02*
X0005594Y0045425D01*
X0005594Y0047024D02*
X0022392Y0047024D01*
X0027794Y0047024D02*
X0029394Y0047024D01*
X0029394Y0045425D02*
X0027794Y0045425D01*
X0027794Y0043827D02*
X0029394Y0043827D01*
X0029394Y0042228D02*
X0027794Y0042228D01*
X0027794Y0040630D02*
X0029394Y0040630D01*
X0029394Y0039031D02*
X0027794Y0039031D01*
X0027794Y0037433D02*
X0029394Y0037433D01*
X0029394Y0032637D02*
X0027794Y0032637D01*
X0027794Y0031039D02*
X0029394Y0031039D01*
X0029394Y0029440D02*
X0027794Y0029440D01*
X0027794Y0027841D02*
X0029394Y0027841D01*
X0029394Y0026243D02*
X0027794Y0026243D01*
X0027794Y0024644D02*
X0029394Y0024644D01*
X0029394Y0023046D02*
X0027794Y0023046D01*
X0040565Y0029440D02*
X0161459Y0029440D01*
X0160797Y0031039D02*
X0041212Y0031039D01*
X0041722Y0037433D02*
X0106207Y0037433D01*
X0105688Y0039031D02*
X0041348Y0039031D01*
X0040764Y0040630D02*
X0105688Y0040630D01*
X0105853Y0042228D02*
X0039932Y0042228D01*
X0038767Y0043827D02*
X0106515Y0043827D01*
X0107581Y0045425D02*
X0037170Y0045425D01*
X0034796Y0047024D02*
X0109270Y0047024D01*
X0110591Y0052773D02*
X0109101Y0054264D01*
X0108294Y0056212D01*
X0108294Y0058320D01*
X0109101Y0060268D01*
X0110591Y0061759D01*
X0112243Y0062443D01*
X0121094Y0071293D01*
X0121094Y0074687D01*
X0119855Y0075926D01*
X0119094Y0077763D01*
X0119094Y0085752D01*
X0119855Y0087590D01*
X0121261Y0088997D01*
X0123099Y0089758D01*
X0125088Y0089758D01*
X0126926Y0088997D01*
X0128332Y0087590D01*
X0129094Y0085752D01*
X0129094Y0077763D01*
X0128332Y0075926D01*
X0126926Y0074519D01*
X0126094Y0074174D01*
X0126094Y0069761D01*
X0125713Y0068842D01*
X0125010Y0068138D01*
X0125010Y0068138D01*
X0117613Y0060742D01*
X0118087Y0060268D01*
X0118894Y0058320D01*
X0118894Y0056212D01*
X0118087Y0054264D01*
X0116596Y0052773D01*
X0114648Y0051966D01*
X0112539Y0051966D01*
X0110591Y0052773D01*
X0109946Y0053418D02*
X0105430Y0053418D01*
X0104785Y0052773D02*
X0106276Y0054264D01*
X0107083Y0056212D01*
X0107083Y0058320D01*
X0106529Y0059657D01*
X0115010Y0068138D01*
X0115713Y0068842D01*
X0116094Y0069761D01*
X0116094Y0074174D01*
X0116926Y0074519D01*
X0118332Y0075926D01*
X0119094Y0077763D01*
X0119094Y0085752D01*
X0118332Y0087590D01*
X0116926Y0088997D01*
X0115088Y0089758D01*
X0113099Y0089758D01*
X0111261Y0088997D01*
X0109855Y0087590D01*
X0109094Y0085752D01*
X0109094Y0077763D01*
X0109855Y0075926D01*
X0111094Y0074687D01*
X0111094Y0071293D01*
X0102366Y0062566D01*
X0100728Y0062566D01*
X0098780Y0061759D01*
X0097290Y0060268D01*
X0096483Y0058320D01*
X0096483Y0056212D01*
X0097290Y0054264D01*
X0098780Y0052773D01*
X0100728Y0051966D01*
X0102837Y0051966D01*
X0104785Y0052773D01*
X0106588Y0055016D02*
X0108789Y0055016D01*
X0108294Y0056615D02*
X0107083Y0056615D01*
X0107083Y0058213D02*
X0108294Y0058213D01*
X0108912Y0059812D02*
X0106683Y0059812D01*
X0108282Y0061410D02*
X0110243Y0061410D01*
X0109880Y0063009D02*
X0112809Y0063009D01*
X0111479Y0064607D02*
X0114408Y0064607D01*
X0113077Y0066206D02*
X0116006Y0066206D01*
X0114676Y0067804D02*
X0117605Y0067804D01*
X0119203Y0069403D02*
X0115945Y0069403D01*
X0116094Y0071001D02*
X0120802Y0071001D01*
X0121094Y0072600D02*
X0116094Y0072600D01*
X0116152Y0074198D02*
X0121094Y0074198D01*
X0119984Y0075797D02*
X0118204Y0075797D01*
X0118941Y0077395D02*
X0119246Y0077395D01*
X0119094Y0078994D02*
X0119094Y0078994D01*
X0119094Y0080592D02*
X0119094Y0080592D01*
X0119094Y0082191D02*
X0119094Y0082191D01*
X0119094Y0083789D02*
X0119094Y0083789D01*
X0119094Y0085388D02*
X0119094Y0085388D01*
X0118583Y0086986D02*
X0119605Y0086986D01*
X0120850Y0088585D02*
X0117338Y0088585D01*
X0110850Y0088585D02*
X0037838Y0088585D01*
X0037907Y0088515D02*
X0037351Y0089072D01*
X0037057Y0089285D01*
X0042613Y0094842D01*
X0042994Y0095761D01*
X0042994Y0108455D01*
X0042613Y0109374D01*
X0041910Y0110077D01*
X0041194Y0110793D01*
X0041194Y0123614D01*
X0041273Y0123569D01*
X0041731Y0123446D01*
X0043860Y0123446D01*
X0043860Y0127079D01*
X0044327Y0127079D01*
X0044327Y0123446D01*
X0046457Y0123446D01*
X0046914Y0123569D01*
X0047325Y0123806D01*
X0047660Y0124141D01*
X0047897Y0124551D01*
X0048020Y0125009D01*
X0048020Y0127080D01*
X0044327Y0127080D01*
X0044327Y0127546D01*
X0048020Y0127546D01*
X0048020Y0129617D01*
X0047897Y0130075D01*
X0047660Y0130485D01*
X0047529Y0130616D01*
X0048220Y0131307D01*
X0048220Y0137098D01*
X0047048Y0138270D01*
X0046594Y0138270D01*
X0046594Y0138333D01*
X0048044Y0139784D01*
X0048656Y0141260D01*
X0067192Y0122724D01*
X0067202Y0122701D01*
X0067543Y0122373D01*
X0067878Y0122038D01*
X0067901Y0122029D01*
X0067918Y0122012D01*
X0068359Y0121839D01*
X0068796Y0121658D01*
X0068821Y0121658D01*
X0068844Y0121649D01*
X0069318Y0121658D01*
X0069791Y0121658D01*
X0069814Y0121667D01*
X0092574Y0122103D01*
X0093241Y0121436D01*
X0094638Y0120858D01*
X0096150Y0120858D01*
X0097546Y0121436D01*
X0098615Y0122505D01*
X0099194Y0123902D01*
X0099194Y0125414D01*
X0098615Y0126810D01*
X0097546Y0127879D01*
X0096150Y0128458D01*
X0094638Y0128458D01*
X0093241Y0127879D01*
X0092464Y0127102D01*
X0087415Y0127005D01*
X0087815Y0127405D01*
X0088394Y0128802D01*
X0088394Y0130314D01*
X0087815Y0131710D01*
X0086746Y0132779D01*
X0085350Y0133358D01*
X0083838Y0133358D01*
X0082441Y0132779D01*
X0081720Y0132058D01*
X0067629Y0132058D01*
X0048913Y0150774D01*
X0048210Y0151477D01*
X0047291Y0151858D01*
X0039996Y0151858D01*
X0039078Y0151477D01*
X0035478Y0147877D01*
X0034774Y0147174D01*
X0034394Y0146255D01*
X0034394Y0113418D01*
X0034394Y0177815D01*
X0033967Y0178844D01*
X0029116Y0183695D01*
X0029294Y0184124D01*
X0029294Y0186022D01*
X0036094Y0179222D01*
X0036094Y0178105D01*
X0035388Y0177400D01*
X0034813Y0176010D01*
X0034813Y0174506D01*
X0035388Y0173116D01*
X0036452Y0172052D01*
X0037842Y0171477D01*
X0039346Y0171477D01*
X0040736Y0172052D01*
X0041799Y0173116D01*
X0042375Y0174506D01*
X0042375Y0175941D01*
X0044739Y0173577D01*
X0044172Y0173010D01*
X0043594Y0171614D01*
X0043594Y0170102D01*
X0044172Y0168705D01*
X0045241Y0167636D01*
X0046638Y0167058D01*
X0048150Y0167058D01*
X0049546Y0167636D01*
X0050615Y0168705D01*
X0051194Y0170102D01*
X0051194Y0171614D01*
X0050615Y0173010D01*
X0049894Y0173732D01*
X0049894Y0174955D01*
X0049513Y0175874D01*
X0047641Y0177746D01*
X0051391Y0177746D01*
X0052562Y0178918D01*
X0052562Y0184905D01*
X0052051Y0185417D01*
X0052240Y0185744D01*
X0052362Y0186202D01*
X0052362Y0188420D01*
X0048778Y0188420D01*
X0048778Y0188789D01*
X0048409Y0188789D01*
X0048409Y0192570D01*
X0046388Y0192570D01*
X0045968Y0192457D01*
X0045694Y0192732D01*
X0045694Y0205655D01*
X0045313Y0206574D01*
X0044610Y0207277D01*
X0029310Y0222577D01*
X0028391Y0222958D01*
X0018396Y0222958D01*
X0017478Y0222577D01*
X0016774Y0221874D01*
X0014074Y0219174D01*
X0013694Y0218255D01*
X0013694Y0095761D01*
X0014074Y0094842D01*
X0014778Y0094138D01*
X0019699Y0089217D01*
X0018685Y0088203D01*
X0017894Y0086292D01*
X0017894Y0084224D01*
X0018685Y0082312D01*
X0020148Y0080850D01*
X0022059Y0080058D01*
X0024128Y0080058D01*
X0026039Y0080850D01*
X0027502Y0082312D01*
X0028294Y0084224D01*
X0028294Y0086292D01*
X0027710Y0087701D01*
X0028296Y0087458D01*
X0029603Y0087458D01*
X0029460Y0087177D01*
X0029217Y0086429D01*
X0029094Y0085651D01*
X0029094Y0085344D01*
X0034008Y0085344D01*
X0034008Y0085172D01*
X0034180Y0085172D01*
X0034180Y0085344D01*
X0039094Y0085344D01*
X0039094Y0085651D01*
X0038971Y0086429D01*
X0038727Y0087177D01*
X0038370Y0087878D01*
X0037907Y0088515D01*
X0037955Y0090183D02*
X0158011Y0090183D01*
X0159610Y0088585D02*
X0136992Y0088585D01*
X0137221Y0088419D02*
X0136609Y0088863D01*
X0135936Y0089206D01*
X0135218Y0089440D01*
X0134471Y0089558D01*
X0134294Y0089558D01*
X0134294Y0081958D01*
X0138894Y0081958D01*
X0138894Y0085136D01*
X0138775Y0085882D01*
X0138542Y0086600D01*
X0138199Y0087274D01*
X0137755Y0087885D01*
X0137221Y0088419D01*
X0138345Y0086986D02*
X0161208Y0086986D01*
X0162573Y0085388D02*
X0138854Y0085388D01*
X0138894Y0083789D02*
X0163304Y0083789D01*
X0163589Y0082191D02*
X0138894Y0082191D01*
X0138894Y0081558D02*
X0134294Y0081558D01*
X0134294Y0081958D01*
X0133894Y0081958D01*
X0133894Y0089558D01*
X0133716Y0089558D01*
X0132970Y0089440D01*
X0132251Y0089206D01*
X0131578Y0088863D01*
X0130967Y0088419D01*
X0130432Y0087885D01*
X0129988Y0087274D01*
X0129645Y0086600D01*
X0129412Y0085882D01*
X0129294Y0085136D01*
X0129294Y0081958D01*
X0133894Y0081958D01*
X0133894Y0081558D01*
X0134294Y0081558D01*
X0134294Y0073958D01*
X0134471Y0073958D01*
X0135218Y0074076D01*
X0135936Y0074310D01*
X0136609Y0074653D01*
X0137221Y0075097D01*
X0137755Y0075631D01*
X0138199Y0076242D01*
X0138542Y0076915D01*
X0138775Y0077634D01*
X0138894Y0078380D01*
X0138894Y0081558D01*
X0138894Y0080592D02*
X0163594Y0080592D01*
X0163594Y0078994D02*
X0138894Y0078994D01*
X0138698Y0077395D02*
X0163594Y0077395D01*
X0163594Y0075797D02*
X0137875Y0075797D01*
X0135594Y0074198D02*
X0163594Y0074198D01*
X0163594Y0072600D02*
X0126094Y0072600D01*
X0126094Y0071001D02*
X0163594Y0071001D01*
X0163594Y0069403D02*
X0125945Y0069403D01*
X0124676Y0067804D02*
X0163594Y0067804D01*
X0163594Y0066206D02*
X0123077Y0066206D01*
X0121479Y0064607D02*
X0163594Y0064607D01*
X0163594Y0063009D02*
X0119880Y0063009D01*
X0118282Y0061410D02*
X0122433Y0061410D01*
X0122732Y0061628D02*
X0122082Y0061156D01*
X0121515Y0060588D01*
X0121043Y0059939D01*
X0120678Y0059223D01*
X0120430Y0058460D01*
X0120305Y0057667D01*
X0120305Y0057450D01*
X0125220Y0057450D01*
X0125220Y0057081D01*
X0125589Y0057081D01*
X0125589Y0052166D01*
X0125806Y0052166D01*
X0126599Y0052291D01*
X0127362Y0052539D01*
X0128078Y0052904D01*
X0128727Y0053376D01*
X0129295Y0053943D01*
X0129767Y0054593D01*
X0130131Y0055308D01*
X0130379Y0056071D01*
X0130505Y0056864D01*
X0130505Y0057081D01*
X0125589Y0057081D01*
X0125589Y0057450D01*
X0130505Y0057450D01*
X0130505Y0057667D01*
X0130379Y0058460D01*
X0130131Y0059223D01*
X0129767Y0059939D01*
X0129295Y0060588D01*
X0128727Y0061156D01*
X0128078Y0061628D01*
X0127362Y0061992D01*
X0126599Y0062240D01*
X0125806Y0062366D01*
X0125589Y0062366D01*
X0125589Y0057450D01*
X0125220Y0057450D01*
X0125220Y0062366D01*
X0125003Y0062366D01*
X0124210Y0062240D01*
X0123447Y0061992D01*
X0122732Y0061628D01*
X0125220Y0061410D02*
X0125589Y0061410D01*
X0125589Y0059812D02*
X0125220Y0059812D01*
X0125220Y0058213D02*
X0125589Y0058213D01*
X0125220Y0057081D02*
X0120305Y0057081D01*
X0120305Y0056864D01*
X0120430Y0056071D01*
X0120678Y0055308D01*
X0121043Y0054593D01*
X0121515Y0053943D01*
X0122082Y0053376D01*
X0122732Y0052904D01*
X0123447Y0052539D01*
X0124210Y0052291D01*
X0125003Y0052166D01*
X0125220Y0052166D01*
X0125220Y0057081D01*
X0125220Y0056615D02*
X0125589Y0056615D01*
X0125589Y0055016D02*
X0125220Y0055016D01*
X0125220Y0053418D02*
X0125589Y0053418D01*
X0128769Y0053418D02*
X0163612Y0053418D01*
X0163594Y0055016D02*
X0129982Y0055016D01*
X0130465Y0056615D02*
X0163594Y0056615D01*
X0163594Y0058213D02*
X0130418Y0058213D01*
X0129831Y0059812D02*
X0163594Y0059812D01*
X0163594Y0061410D02*
X0128377Y0061410D01*
X0120978Y0059812D02*
X0118276Y0059812D01*
X0118894Y0058213D02*
X0120391Y0058213D01*
X0120344Y0056615D02*
X0118894Y0056615D01*
X0118399Y0055016D02*
X0120827Y0055016D01*
X0122040Y0053418D02*
X0117241Y0053418D01*
X0117918Y0047024D02*
X0169194Y0047024D01*
X0169140Y0047055D02*
X0169140Y0047055D01*
X0169140Y0047055D01*
X0168399Y0047796D02*
X0168399Y0047796D01*
X0167573Y0048622D02*
X0005594Y0048622D01*
X0005594Y0050221D02*
X0165974Y0050221D01*
X0164376Y0051819D02*
X0005594Y0051819D01*
X0005594Y0053418D02*
X0098135Y0053418D01*
X0096978Y0055016D02*
X0005594Y0055016D01*
X0005594Y0056615D02*
X0096483Y0056615D01*
X0096483Y0058213D02*
X0005594Y0058213D01*
X0005594Y0059812D02*
X0097101Y0059812D01*
X0098432Y0061410D02*
X0005594Y0061410D01*
X0005594Y0063009D02*
X0102809Y0063009D01*
X0104408Y0064607D02*
X0005594Y0064607D01*
X0005594Y0066206D02*
X0106006Y0066206D01*
X0107605Y0067804D02*
X0005594Y0067804D01*
X0005594Y0069403D02*
X0109203Y0069403D01*
X0110802Y0071001D02*
X0005594Y0071001D01*
X0005594Y0072600D02*
X0111094Y0072600D01*
X0111094Y0074198D02*
X0005594Y0074198D01*
X0005594Y0075797D02*
X0109984Y0075797D01*
X0109246Y0077395D02*
X0005594Y0077395D01*
X0005594Y0078994D02*
X0109094Y0078994D01*
X0109094Y0080592D02*
X0035915Y0080592D01*
X0036013Y0080624D02*
X0036714Y0080981D01*
X0037351Y0081444D01*
X0037907Y0082001D01*
X0038370Y0082637D01*
X0038727Y0083339D01*
X0038971Y0084087D01*
X0039094Y0084864D01*
X0039094Y0085172D01*
X0034180Y0085172D01*
X0034180Y0080258D01*
X0034487Y0080258D01*
X0035265Y0080381D01*
X0036013Y0080624D01*
X0034180Y0080592D02*
X0034008Y0080592D01*
X0034008Y0080258D02*
X0034008Y0085172D01*
X0029094Y0085172D01*
X0029094Y0084864D01*
X0029217Y0084087D01*
X0029460Y0083339D01*
X0029817Y0082637D01*
X0030280Y0082001D01*
X0030836Y0081444D01*
X0031473Y0080981D01*
X0032174Y0080624D01*
X0032923Y0080381D01*
X0033700Y0080258D01*
X0034008Y0080258D01*
X0032272Y0080592D02*
X0025418Y0080592D01*
X0027381Y0082191D02*
X0030142Y0082191D01*
X0029314Y0083789D02*
X0028114Y0083789D01*
X0028294Y0085388D02*
X0029094Y0085388D01*
X0029398Y0086986D02*
X0028006Y0086986D01*
X0020769Y0080592D02*
X0005594Y0080592D01*
X0005594Y0082191D02*
X0018807Y0082191D01*
X0018074Y0083789D02*
X0005594Y0083789D01*
X0005594Y0085388D02*
X0017894Y0085388D01*
X0018181Y0086986D02*
X0005594Y0086986D01*
X0005594Y0088585D02*
X0019067Y0088585D01*
X0018733Y0090183D02*
X0005594Y0090183D01*
X0005594Y0091782D02*
X0017134Y0091782D01*
X0015536Y0093380D02*
X0005594Y0093380D01*
X0005594Y0094979D02*
X0014017Y0094979D01*
X0013694Y0096577D02*
X0005594Y0096577D01*
X0005594Y0098176D02*
X0013694Y0098176D01*
X0013694Y0099775D02*
X0005594Y0099775D01*
X0005594Y0101373D02*
X0013694Y0101373D01*
X0013694Y0102972D02*
X0005594Y0102972D01*
X0005594Y0104570D02*
X0013694Y0104570D01*
X0013694Y0106169D02*
X0005594Y0106169D01*
X0005594Y0107767D02*
X0013694Y0107767D01*
X0013694Y0109366D02*
X0005594Y0109366D01*
X0005594Y0110964D02*
X0013694Y0110964D01*
X0013694Y0112563D02*
X0005594Y0112563D01*
X0005594Y0114161D02*
X0013694Y0114161D01*
X0013694Y0115760D02*
X0005594Y0115760D01*
X0005594Y0117358D02*
X0013694Y0117358D01*
X0013694Y0118957D02*
X0005594Y0118957D01*
X0005594Y0120555D02*
X0013694Y0120555D01*
X0013694Y0122154D02*
X0005594Y0122154D01*
X0005594Y0123752D02*
X0013694Y0123752D01*
X0013694Y0125351D02*
X0005594Y0125351D01*
X0005594Y0126949D02*
X0013694Y0126949D01*
X0013694Y0128548D02*
X0005594Y0128548D01*
X0005594Y0130146D02*
X0013694Y0130146D01*
X0013694Y0131745D02*
X0005594Y0131745D01*
X0005594Y0133343D02*
X0013694Y0133343D01*
X0013694Y0134942D02*
X0005594Y0134942D01*
X0005594Y0136540D02*
X0013694Y0136540D01*
X0013694Y0138139D02*
X0005594Y0138139D01*
X0005594Y0139737D02*
X0013694Y0139737D01*
X0013694Y0141336D02*
X0005594Y0141336D01*
X0005594Y0142934D02*
X0013694Y0142934D01*
X0013694Y0144533D02*
X0005594Y0144533D01*
X0005594Y0146131D02*
X0013694Y0146131D01*
X0013694Y0147730D02*
X0005594Y0147730D01*
X0005594Y0149328D02*
X0013694Y0149328D01*
X0013694Y0150927D02*
X0005594Y0150927D01*
X0005594Y0152525D02*
X0013694Y0152525D01*
X0013694Y0154124D02*
X0005594Y0154124D01*
X0005594Y0155722D02*
X0013694Y0155722D01*
X0013694Y0157321D02*
X0005594Y0157321D01*
X0005594Y0158919D02*
X0013694Y0158919D01*
X0013694Y0160518D02*
X0005594Y0160518D01*
X0005594Y0162116D02*
X0013694Y0162116D01*
X0013694Y0163715D02*
X0005594Y0163715D01*
X0005594Y0165313D02*
X0013694Y0165313D01*
X0013694Y0166912D02*
X0005594Y0166912D01*
X0005594Y0168510D02*
X0013694Y0168510D01*
X0013694Y0170109D02*
X0005594Y0170109D01*
X0005594Y0171708D02*
X0013694Y0171708D01*
X0013694Y0173306D02*
X0005594Y0173306D01*
X0005594Y0174905D02*
X0013694Y0174905D01*
X0013694Y0176503D02*
X0005594Y0176503D01*
X0005594Y0178102D02*
X0013694Y0178102D01*
X0013694Y0179700D02*
X0005594Y0179700D01*
X0005594Y0181299D02*
X0013694Y0181299D01*
X0013694Y0182897D02*
X0005594Y0182897D01*
X0005594Y0184496D02*
X0013694Y0184496D01*
X0013694Y0186094D02*
X0005594Y0186094D01*
X0005594Y0187693D02*
X0013694Y0187693D01*
X0013694Y0189291D02*
X0005594Y0189291D01*
X0005594Y0190890D02*
X0013694Y0190890D01*
X0013694Y0192488D02*
X0005594Y0192488D01*
X0005594Y0194087D02*
X0013694Y0194087D01*
X0013694Y0195685D02*
X0005594Y0195685D01*
X0005594Y0197284D02*
X0013694Y0197284D01*
X0013694Y0198882D02*
X0005594Y0198882D01*
X0005594Y0200481D02*
X0013694Y0200481D01*
X0013694Y0202079D02*
X0005594Y0202079D01*
X0005594Y0203678D02*
X0013694Y0203678D01*
X0013694Y0205276D02*
X0005594Y0205276D01*
X0005594Y0206875D02*
X0013694Y0206875D01*
X0013694Y0208473D02*
X0005594Y0208473D01*
X0005594Y0210072D02*
X0013694Y0210072D01*
X0013694Y0211670D02*
X0005594Y0211670D01*
X0005594Y0213269D02*
X0013694Y0213269D01*
X0013694Y0214867D02*
X0005594Y0214867D01*
X0005594Y0216466D02*
X0013694Y0216466D01*
X0013694Y0218064D02*
X0005594Y0218064D01*
X0005594Y0219663D02*
X0014563Y0219663D01*
X0016162Y0221261D02*
X0005594Y0221261D01*
X0005594Y0222860D02*
X0018160Y0222860D01*
X0028628Y0222860D02*
X0270294Y0222860D01*
X0270294Y0224458D02*
X0157451Y0224458D01*
X0159031Y0225113D02*
X0155503Y0223652D01*
X0151684Y0223652D01*
X0148157Y0225113D01*
X0145457Y0227813D01*
X0143995Y0231341D01*
X0143995Y0235159D01*
X0145457Y0238687D01*
X0148157Y0241387D01*
X0151684Y0242848D01*
X0155503Y0242848D01*
X0159031Y0241387D01*
X0161731Y0238687D01*
X0163192Y0235159D01*
X0163192Y0231341D01*
X0161731Y0227813D01*
X0159031Y0225113D01*
X0159975Y0226057D02*
X0270294Y0226057D01*
X0270294Y0227655D02*
X0161573Y0227655D01*
X0162328Y0229254D02*
X0270294Y0229254D01*
X0270294Y0230852D02*
X0162990Y0230852D01*
X0163192Y0232451D02*
X0244995Y0232451D01*
X0245358Y0232341D02*
X0246640Y0232086D01*
X0247794Y0231972D01*
X0247794Y0244458D01*
X0249394Y0244458D01*
X0249394Y0246058D01*
X0261879Y0246058D01*
X0261766Y0247212D01*
X0261511Y0248493D01*
X0261131Y0249744D01*
X0260631Y0250951D01*
X0260015Y0252104D01*
X0259289Y0253190D01*
X0258460Y0254200D01*
X0257536Y0255124D01*
X0256526Y0255953D01*
X0255440Y0256679D01*
X0254287Y0257295D01*
X0253080Y0257795D01*
X0251829Y0258175D01*
X0250548Y0258430D01*
X0249394Y0258543D01*
X0249394Y0246058D01*
X0247794Y0246058D01*
X0247794Y0258543D01*
X0246640Y0258430D01*
X0245358Y0258175D01*
X0244108Y0257795D01*
X0242900Y0257295D01*
X0241748Y0256679D01*
X0240661Y0255953D01*
X0239651Y0255124D01*
X0238727Y0254200D01*
X0237898Y0253190D01*
X0237172Y0252104D01*
X0236556Y0250951D01*
X0236056Y0249744D01*
X0235677Y0248493D01*
X0235422Y0247212D01*
X0235308Y0246058D01*
X0247794Y0246058D01*
X0247794Y0244458D01*
X0235308Y0244458D01*
X0235422Y0243304D01*
X0235677Y0242022D01*
X0236056Y0240772D01*
X0236556Y0239565D01*
X0237172Y0238412D01*
X0237898Y0237326D01*
X0238727Y0236315D01*
X0239651Y0235391D01*
X0240661Y0234562D01*
X0241748Y0233836D01*
X0242900Y0233220D01*
X0244108Y0232720D01*
X0245358Y0232341D01*
X0247794Y0232451D02*
X0249394Y0232451D01*
X0249394Y0231972D02*
X0250548Y0232086D01*
X0251829Y0232341D01*
X0253080Y0232720D01*
X0254287Y0233220D01*
X0255440Y0233836D01*
X0256526Y0234562D01*
X0257536Y0235391D01*
X0258460Y0236315D01*
X0259289Y0237326D01*
X0260015Y0238412D01*
X0260631Y0239565D01*
X0261131Y0240772D01*
X0261511Y0242022D01*
X0261766Y0243304D01*
X0261879Y0244458D01*
X0249394Y0244458D01*
X0249394Y0231972D01*
X0249394Y0234049D02*
X0247794Y0234049D01*
X0247794Y0235648D02*
X0249394Y0235648D01*
X0249394Y0237246D02*
X0247794Y0237246D01*
X0247794Y0238845D02*
X0249394Y0238845D01*
X0249394Y0240444D02*
X0247794Y0240444D01*
X0247794Y0242042D02*
X0249394Y0242042D01*
X0249394Y0243641D02*
X0247794Y0243641D01*
X0247794Y0245239D02*
X0029394Y0245239D01*
X0029394Y0244458D02*
X0029394Y0246058D01*
X0041879Y0246058D01*
X0041766Y0247212D01*
X0041511Y0248493D01*
X0041131Y0249744D01*
X0040631Y0250951D01*
X0040015Y0252104D01*
X0039289Y0253190D01*
X0038460Y0254200D01*
X0037536Y0255124D01*
X0036526Y0255953D01*
X0035440Y0256679D01*
X0034287Y0257295D01*
X0033080Y0257795D01*
X0031829Y0258175D01*
X0030548Y0258430D01*
X0029394Y0258543D01*
X0029394Y0246058D01*
X0027794Y0246058D01*
X0027794Y0258543D01*
X0026640Y0258430D01*
X0025358Y0258175D01*
X0024108Y0257795D01*
X0022900Y0257295D01*
X0021748Y0256679D01*
X0020661Y0255953D01*
X0019651Y0255124D01*
X0018727Y0254200D01*
X0017898Y0253190D01*
X0017172Y0252104D01*
X0016556Y0250951D01*
X0016056Y0249744D01*
X0015677Y0248493D01*
X0015422Y0247212D01*
X0015308Y0246058D01*
X0027794Y0246058D01*
X0027794Y0244458D01*
X0029394Y0244458D01*
X0041879Y0244458D01*
X0041766Y0243304D01*
X0041511Y0242022D01*
X0041131Y0240772D01*
X0040631Y0239565D01*
X0040015Y0238412D01*
X0039289Y0237326D01*
X0038460Y0236315D01*
X0037536Y0235391D01*
X0036526Y0234562D01*
X0035440Y0233836D01*
X0034287Y0233220D01*
X0033080Y0232720D01*
X0031829Y0232341D01*
X0030548Y0232086D01*
X0029394Y0231972D01*
X0029394Y0244458D01*
X0029394Y0243641D02*
X0027794Y0243641D01*
X0027794Y0244458D02*
X0027794Y0231972D01*
X0026640Y0232086D01*
X0025358Y0232341D01*
X0024108Y0232720D01*
X0022900Y0233220D01*
X0021748Y0233836D01*
X0020661Y0234562D01*
X0019651Y0235391D01*
X0018727Y0236315D01*
X0017898Y0237326D01*
X0017172Y0238412D01*
X0016556Y0239565D01*
X0016056Y0240772D01*
X0015677Y0242022D01*
X0015422Y0243304D01*
X0015308Y0244458D01*
X0027794Y0244458D01*
X0027794Y0245239D02*
X0005594Y0245239D01*
X0005594Y0243641D02*
X0015389Y0243641D01*
X0015673Y0242042D02*
X0005594Y0242042D01*
X0005594Y0240444D02*
X0016192Y0240444D01*
X0016941Y0238845D02*
X0005594Y0238845D01*
X0005594Y0237246D02*
X0017963Y0237246D01*
X0019395Y0235648D02*
X0005594Y0235648D01*
X0005594Y0234049D02*
X0021429Y0234049D01*
X0024995Y0232451D02*
X0005594Y0232451D01*
X0005594Y0230852D02*
X0069198Y0230852D01*
X0068995Y0231341D02*
X0070457Y0227813D01*
X0073157Y0225113D01*
X0076684Y0223652D01*
X0080503Y0223652D01*
X0084031Y0225113D01*
X0086731Y0227813D01*
X0088192Y0231341D01*
X0088192Y0235159D01*
X0086731Y0238687D01*
X0084031Y0241387D01*
X0080503Y0242848D01*
X0076684Y0242848D01*
X0073157Y0241387D01*
X0070457Y0238687D01*
X0068995Y0235159D01*
X0068995Y0231341D01*
X0068995Y0232451D02*
X0032192Y0232451D01*
X0029394Y0232451D02*
X0027794Y0232451D01*
X0027794Y0234049D02*
X0029394Y0234049D01*
X0029394Y0235648D02*
X0027794Y0235648D01*
X0027794Y0237246D02*
X0029394Y0237246D01*
X0029394Y0238845D02*
X0027794Y0238845D01*
X0027794Y0240444D02*
X0029394Y0240444D01*
X0029394Y0242042D02*
X0027794Y0242042D01*
X0027794Y0246838D02*
X0029394Y0246838D01*
X0029394Y0248436D02*
X0027794Y0248436D01*
X0027794Y0250035D02*
X0029394Y0250035D01*
X0029394Y0251633D02*
X0027794Y0251633D01*
X0027794Y0253232D02*
X0029394Y0253232D01*
X0029394Y0254830D02*
X0027794Y0254830D01*
X0027794Y0256429D02*
X0029394Y0256429D01*
X0029394Y0258027D02*
X0027794Y0258027D01*
X0024871Y0258027D02*
X0005594Y0258027D01*
X0005594Y0256429D02*
X0021373Y0256429D01*
X0019357Y0254830D02*
X0005594Y0254830D01*
X0005594Y0253232D02*
X0017932Y0253232D01*
X0016921Y0251633D02*
X0005594Y0251633D01*
X0005594Y0250035D02*
X0016176Y0250035D01*
X0015665Y0248436D02*
X0005594Y0248436D01*
X0005594Y0246838D02*
X0015385Y0246838D01*
X0005594Y0259626D02*
X0270294Y0259626D01*
X0270294Y0261224D02*
X0005594Y0261224D01*
X0005594Y0262823D02*
X0270294Y0262823D01*
X0270294Y0264421D02*
X0005594Y0264421D01*
X0005594Y0266020D02*
X0270294Y0266020D01*
X0270294Y0267618D02*
X0005594Y0267618D01*
X0032316Y0258027D02*
X0244871Y0258027D01*
X0247794Y0258027D02*
X0249394Y0258027D01*
X0249394Y0256429D02*
X0247794Y0256429D01*
X0247794Y0254830D02*
X0249394Y0254830D01*
X0249394Y0253232D02*
X0247794Y0253232D01*
X0247794Y0251633D02*
X0249394Y0251633D01*
X0249394Y0250035D02*
X0247794Y0250035D01*
X0247794Y0248436D02*
X0249394Y0248436D01*
X0249394Y0246838D02*
X0247794Y0246838D01*
X0249394Y0245239D02*
X0270294Y0245239D01*
X0270294Y0243641D02*
X0261799Y0243641D01*
X0261515Y0242042D02*
X0270294Y0242042D01*
X0270294Y0240444D02*
X0260995Y0240444D01*
X0260247Y0238845D02*
X0270294Y0238845D01*
X0270294Y0237246D02*
X0259224Y0237246D01*
X0257793Y0235648D02*
X0270294Y0235648D01*
X0270294Y0234049D02*
X0255758Y0234049D01*
X0252192Y0232451D02*
X0270294Y0232451D01*
X0270294Y0221261D02*
X0030626Y0221261D01*
X0032224Y0219663D02*
X0270294Y0219663D01*
X0270294Y0218064D02*
X0239220Y0218064D01*
X0240835Y0216466D02*
X0270294Y0216466D01*
X0243093Y0198882D02*
X0242829Y0198882D01*
X0240196Y0206875D02*
X0239752Y0206875D01*
X0234290Y0211670D02*
X0214959Y0211670D01*
X0216825Y0210072D02*
X0228312Y0210072D01*
X0229064Y0208473D02*
X0217487Y0208473D01*
X0217578Y0206875D02*
X0230428Y0206875D01*
X0228045Y0213269D02*
X0038618Y0213269D01*
X0037020Y0214867D02*
X0228466Y0214867D01*
X0229344Y0216466D02*
X0035421Y0216466D01*
X0033823Y0218064D02*
X0230959Y0218064D01*
X0234290Y0218064D02*
X0235890Y0218064D01*
X0235890Y0216466D02*
X0234290Y0216466D01*
X0234290Y0214867D02*
X0235890Y0214867D01*
X0235890Y0213269D02*
X0234290Y0213269D01*
X0241429Y0234049D02*
X0163192Y0234049D01*
X0162990Y0235648D02*
X0239395Y0235648D01*
X0237963Y0237246D02*
X0162328Y0237246D01*
X0161573Y0238845D02*
X0236941Y0238845D01*
X0236192Y0240444D02*
X0159974Y0240444D01*
X0157450Y0242042D02*
X0235673Y0242042D01*
X0235389Y0243641D02*
X0041799Y0243641D01*
X0041515Y0242042D02*
X0074738Y0242042D01*
X0072213Y0240444D02*
X0040995Y0240444D01*
X0040247Y0238845D02*
X0070614Y0238845D01*
X0069860Y0237246D02*
X0039224Y0237246D01*
X0037793Y0235648D02*
X0069198Y0235648D01*
X0068995Y0234049D02*
X0035758Y0234049D01*
X0041802Y0246838D02*
X0235385Y0246838D01*
X0235665Y0248436D02*
X0041522Y0248436D01*
X0041011Y0250035D02*
X0236176Y0250035D01*
X0236921Y0251633D02*
X0040267Y0251633D01*
X0039255Y0253232D02*
X0237932Y0253232D01*
X0239357Y0254830D02*
X0037830Y0254830D01*
X0035815Y0256429D02*
X0241373Y0256429D01*
X0252316Y0258027D02*
X0270294Y0258027D01*
X0270294Y0256429D02*
X0255815Y0256429D01*
X0257830Y0254830D02*
X0270294Y0254830D01*
X0270294Y0253232D02*
X0259255Y0253232D01*
X0260267Y0251633D02*
X0270294Y0251633D01*
X0270294Y0250035D02*
X0261011Y0250035D01*
X0261522Y0248436D02*
X0270294Y0248436D01*
X0270294Y0246838D02*
X0261802Y0246838D01*
X0210260Y0211670D02*
X0040217Y0211670D01*
X0041815Y0210072D02*
X0065185Y0210072D01*
X0065482Y0210368D02*
X0064310Y0209197D01*
X0064310Y0199272D01*
X0065482Y0198100D01*
X0075406Y0198100D01*
X0076578Y0199272D01*
X0076578Y0209197D01*
X0075406Y0210368D01*
X0065482Y0210368D01*
X0064310Y0208473D02*
X0043414Y0208473D01*
X0045012Y0206875D02*
X0064310Y0206875D01*
X0064310Y0205276D02*
X0045694Y0205276D01*
X0045694Y0203678D02*
X0064310Y0203678D01*
X0064310Y0202079D02*
X0045694Y0202079D01*
X0045694Y0200481D02*
X0064310Y0200481D01*
X0064700Y0198882D02*
X0045694Y0198882D01*
X0045694Y0197284D02*
X0116106Y0197284D01*
X0116094Y0197255D02*
X0116094Y0186293D01*
X0114212Y0184411D01*
X0072562Y0184411D01*
X0072562Y0184905D01*
X0072051Y0185417D01*
X0072240Y0185744D01*
X0072362Y0186202D01*
X0072362Y0188420D01*
X0068778Y0188420D01*
X0068778Y0188789D01*
X0068409Y0188789D01*
X0068409Y0188420D01*
X0064825Y0188420D01*
X0064825Y0186202D01*
X0064948Y0185744D01*
X0065137Y0185417D01*
X0064625Y0184905D01*
X0064625Y0178918D01*
X0065797Y0177746D01*
X0066094Y0177746D01*
X0066094Y0166293D01*
X0058839Y0159039D01*
X0057842Y0159039D01*
X0056452Y0158463D01*
X0055388Y0157400D01*
X0054813Y0156010D01*
X0054813Y0154506D01*
X0055388Y0153116D01*
X0056452Y0152052D01*
X0057842Y0151477D01*
X0059346Y0151477D01*
X0060736Y0152052D01*
X0061799Y0153116D01*
X0062375Y0154506D01*
X0062375Y0155503D01*
X0070283Y0163411D01*
X0069994Y0162714D01*
X0069994Y0161202D01*
X0070572Y0159805D01*
X0071641Y0158736D01*
X0073038Y0158158D01*
X0074550Y0158158D01*
X0075946Y0158736D01*
X0077015Y0159805D01*
X0077594Y0161202D01*
X0077594Y0162714D01*
X0077015Y0164110D01*
X0076294Y0164832D01*
X0076294Y0169922D01*
X0083829Y0177458D01*
X0132791Y0177458D01*
X0133710Y0177838D01*
X0137161Y0181289D01*
X0139934Y0181289D01*
X0141105Y0182461D01*
X0141105Y0188055D01*
X0139934Y0189226D01*
X0139440Y0189226D01*
X0139440Y0190909D01*
X0139060Y0191828D01*
X0133375Y0197512D01*
X0133375Y0198510D01*
X0132799Y0199900D01*
X0131736Y0200963D01*
X0130346Y0201539D01*
X0128842Y0201539D01*
X0127452Y0200963D01*
X0126388Y0199900D01*
X0125813Y0198510D01*
X0125813Y0197006D01*
X0126388Y0195616D01*
X0127452Y0194552D01*
X0128842Y0193977D01*
X0129839Y0193977D01*
X0134440Y0189376D01*
X0134440Y0189226D01*
X0133946Y0189226D01*
X0133435Y0188715D01*
X0133107Y0188904D01*
X0132650Y0189026D01*
X0130431Y0189026D01*
X0130431Y0185442D01*
X0130063Y0185442D01*
X0130063Y0185074D01*
X0126282Y0185074D01*
X0126282Y0183052D01*
X0126405Y0182595D01*
X0126484Y0182458D01*
X0119329Y0182458D01*
X0120010Y0183138D01*
X0120713Y0183842D01*
X0121094Y0184761D01*
X0121094Y0195722D01*
X0127129Y0201758D01*
X0139310Y0201758D01*
X0139310Y0199272D01*
X0140482Y0198100D01*
X0150406Y0198100D01*
X0151578Y0199272D01*
X0151578Y0209197D01*
X0150406Y0210368D01*
X0140482Y0210368D01*
X0139310Y0209197D01*
X0139310Y0206758D01*
X0125596Y0206758D01*
X0124678Y0206377D01*
X0123974Y0205674D01*
X0116474Y0198174D01*
X0116094Y0197255D01*
X0116094Y0195685D02*
X0045694Y0195685D01*
X0045694Y0194087D02*
X0116094Y0194087D01*
X0116094Y0192488D02*
X0071103Y0192488D01*
X0071257Y0192447D02*
X0070799Y0192570D01*
X0068778Y0192570D01*
X0068778Y0188789D01*
X0072362Y0188789D01*
X0072362Y0191007D01*
X0072240Y0191464D01*
X0072003Y0191875D01*
X0071667Y0192210D01*
X0071257Y0192447D01*
X0072362Y0190890D02*
X0116094Y0190890D01*
X0116094Y0189291D02*
X0072362Y0189291D01*
X0072362Y0187693D02*
X0116094Y0187693D01*
X0115894Y0186094D02*
X0072333Y0186094D01*
X0072562Y0184496D02*
X0114296Y0184496D01*
X0119768Y0182897D02*
X0126323Y0182897D01*
X0126282Y0184496D02*
X0120984Y0184496D01*
X0121094Y0186094D02*
X0126282Y0186094D01*
X0126282Y0185442D02*
X0130063Y0185442D01*
X0130063Y0189026D01*
X0127845Y0189026D01*
X0127387Y0188904D01*
X0126977Y0188667D01*
X0126642Y0188332D01*
X0126405Y0187921D01*
X0126282Y0187463D01*
X0126282Y0185442D01*
X0126343Y0187693D02*
X0121094Y0187693D01*
X0121094Y0189291D02*
X0134440Y0189291D01*
X0132926Y0190890D02*
X0121094Y0190890D01*
X0121094Y0192488D02*
X0131328Y0192488D01*
X0128576Y0194087D02*
X0121094Y0194087D01*
X0121094Y0195685D02*
X0126360Y0195685D01*
X0125813Y0197284D02*
X0122655Y0197284D01*
X0124254Y0198882D02*
X0125967Y0198882D01*
X0125852Y0200481D02*
X0126969Y0200481D01*
X0121978Y0203678D02*
X0092877Y0203678D01*
X0092877Y0205276D02*
X0123577Y0205276D01*
X0120380Y0202079D02*
X0092877Y0202079D01*
X0092877Y0200481D02*
X0118781Y0200481D01*
X0117183Y0198882D02*
X0092487Y0198882D01*
X0092877Y0199272D02*
X0092877Y0209197D01*
X0091706Y0210368D01*
X0081781Y0210368D01*
X0080609Y0209197D01*
X0080609Y0199272D01*
X0081781Y0198100D01*
X0091706Y0198100D01*
X0092877Y0199272D01*
X0092877Y0206875D02*
X0139310Y0206875D01*
X0139310Y0208473D02*
X0092877Y0208473D01*
X0092002Y0210072D02*
X0140185Y0210072D01*
X0139310Y0200481D02*
X0132218Y0200481D01*
X0133221Y0198882D02*
X0139700Y0198882D01*
X0135202Y0195685D02*
X0185344Y0195685D01*
X0185344Y0197284D02*
X0133603Y0197284D01*
X0136800Y0194087D02*
X0186086Y0194087D01*
X0185344Y0198882D02*
X0167487Y0198882D01*
X0167877Y0200481D02*
X0185344Y0200481D01*
X0188217Y0204234D02*
X0161743Y0204234D01*
X0155609Y0203678D02*
X0151578Y0203678D01*
X0151578Y0205276D02*
X0155609Y0205276D01*
X0155609Y0206875D02*
X0151578Y0206875D01*
X0151578Y0208473D02*
X0155609Y0208473D01*
X0156485Y0210072D02*
X0150703Y0210072D01*
X0151578Y0202079D02*
X0155609Y0202079D01*
X0155609Y0200481D02*
X0151578Y0200481D01*
X0151188Y0198882D02*
X0155999Y0198882D01*
X0167877Y0208473D02*
X0207732Y0208473D01*
X0207641Y0206875D02*
X0189159Y0206875D01*
X0191135Y0205276D02*
X0208056Y0205276D01*
X0209171Y0203678D02*
X0201052Y0203678D01*
X0201844Y0202079D02*
X0209412Y0202079D01*
X0208156Y0200481D02*
X0201844Y0200481D01*
X0201844Y0198882D02*
X0207641Y0198882D01*
X0207641Y0197284D02*
X0201844Y0197284D01*
X0201844Y0195685D02*
X0208294Y0195685D01*
X0209746Y0194087D02*
X0201101Y0194087D01*
X0193594Y0198858D02*
X0193594Y0173658D01*
X0194247Y0173004D01*
X0194247Y0166258D01*
X0194247Y0156258D01*
X0191017Y0152525D02*
X0190394Y0152525D01*
X0190394Y0150927D02*
X0208194Y0150927D01*
X0209505Y0149328D02*
X0190983Y0149328D01*
X0197477Y0152525D02*
X0198403Y0152525D01*
X0182847Y0131745D02*
X0222730Y0131745D01*
X0224328Y0130146D02*
X0184446Y0130146D01*
X0186044Y0128548D02*
X0225927Y0128548D01*
X0227525Y0126949D02*
X0187643Y0126949D01*
X0189241Y0125351D02*
X0229124Y0125351D01*
X0200779Y0123752D02*
X0190840Y0123752D01*
X0192438Y0122154D02*
X0200082Y0122154D01*
X0200082Y0120555D02*
X0194037Y0120555D01*
X0195635Y0118957D02*
X0200082Y0118957D01*
X0200082Y0109366D02*
X0085370Y0109366D01*
X0085110Y0109258D02*
X0086433Y0109806D01*
X0087446Y0110819D01*
X0087994Y0112142D01*
X0087994Y0113574D01*
X0087446Y0114897D01*
X0086433Y0115910D01*
X0085110Y0116458D01*
X0083678Y0116458D01*
X0082354Y0115910D01*
X0081703Y0115258D01*
X0057485Y0115258D01*
X0056833Y0115910D01*
X0055510Y0116458D01*
X0054078Y0116458D01*
X0052754Y0115910D01*
X0051742Y0114897D01*
X0051194Y0113574D01*
X0051194Y0112142D01*
X0051742Y0110819D01*
X0052754Y0109806D01*
X0054078Y0109258D01*
X0055510Y0109258D01*
X0056833Y0109806D01*
X0057485Y0110458D01*
X0081703Y0110458D01*
X0082354Y0109806D01*
X0083678Y0109258D01*
X0085110Y0109258D01*
X0083418Y0109366D02*
X0055770Y0109366D01*
X0053818Y0109366D02*
X0042617Y0109366D01*
X0042994Y0107767D02*
X0200082Y0107767D01*
X0190431Y0110964D02*
X0190063Y0110964D01*
X0190063Y0112563D02*
X0190431Y0112563D01*
X0190063Y0114161D02*
X0087750Y0114161D01*
X0087994Y0112563D02*
X0186282Y0112563D01*
X0186862Y0110964D02*
X0087506Y0110964D01*
X0086583Y0115760D02*
X0186282Y0115760D01*
X0186668Y0117358D02*
X0041194Y0117358D01*
X0041194Y0115760D02*
X0052604Y0115760D01*
X0051437Y0114161D02*
X0041194Y0114161D01*
X0041194Y0112563D02*
X0051194Y0112563D01*
X0051682Y0110964D02*
X0041194Y0110964D01*
X0034094Y0109758D02*
X0034094Y0105258D01*
X0032094Y0100458D02*
X0031148Y0100850D01*
X0029685Y0102312D01*
X0028894Y0104224D01*
X0028894Y0106292D01*
X0029685Y0108203D01*
X0030687Y0109205D01*
X0030008Y0109884D01*
X0029220Y0110672D01*
X0028794Y0111701D01*
X0028794Y0141593D01*
X0028044Y0139784D01*
X0026594Y0138333D01*
X0026594Y0138270D01*
X0027048Y0138270D01*
X0028220Y0137098D01*
X0028220Y0131307D01*
X0027529Y0130616D01*
X0027660Y0130485D01*
X0027897Y0130075D01*
X0028020Y0129617D01*
X0028020Y0127546D01*
X0024327Y0127546D01*
X0024327Y0127080D01*
X0028020Y0127080D01*
X0028020Y0125009D01*
X0027897Y0124551D01*
X0027660Y0124141D01*
X0027325Y0123806D01*
X0026914Y0123569D01*
X0026457Y0123446D01*
X0024327Y0123446D01*
X0024327Y0127079D01*
X0023860Y0127079D01*
X0023860Y0123446D01*
X0021731Y0123446D01*
X0021273Y0123569D01*
X0020862Y0123806D01*
X0020527Y0124141D01*
X0020290Y0124551D01*
X0020168Y0125009D01*
X0020168Y0127080D01*
X0023860Y0127080D01*
X0023860Y0127546D01*
X0020168Y0127546D01*
X0020168Y0129617D01*
X0020290Y0130075D01*
X0020527Y0130485D01*
X0020659Y0130616D01*
X0019968Y0131307D01*
X0019968Y0137098D01*
X0021014Y0138144D01*
X0020620Y0138307D01*
X0019143Y0139784D01*
X0018694Y0140869D01*
X0018694Y0108212D01*
X0020148Y0109666D01*
X0022059Y0110458D01*
X0024128Y0110458D01*
X0026039Y0109666D01*
X0027502Y0108203D01*
X0028294Y0106292D01*
X0028294Y0104224D01*
X0027502Y0102312D01*
X0026039Y0100850D01*
X0025094Y0100458D01*
X0025128Y0100458D01*
X0027039Y0099666D01*
X0028502Y0098203D01*
X0028594Y0097982D01*
X0028685Y0098203D01*
X0030148Y0099666D01*
X0032059Y0100458D01*
X0032094Y0100458D01*
X0030625Y0101373D02*
X0026563Y0101373D01*
X0026778Y0099775D02*
X0030410Y0099775D01*
X0028674Y0098176D02*
X0028513Y0098176D01*
X0027775Y0102972D02*
X0029412Y0102972D01*
X0028894Y0104570D02*
X0028294Y0104570D01*
X0028294Y0106169D02*
X0028894Y0106169D01*
X0029505Y0107767D02*
X0027683Y0107767D01*
X0026340Y0109366D02*
X0030526Y0109366D01*
X0029099Y0110964D02*
X0018694Y0110964D01*
X0018694Y0109366D02*
X0019848Y0109366D01*
X0018694Y0112563D02*
X0028794Y0112563D01*
X0028794Y0114161D02*
X0018694Y0114161D01*
X0018694Y0115760D02*
X0028794Y0115760D01*
X0028794Y0117358D02*
X0018694Y0117358D01*
X0018694Y0118957D02*
X0028794Y0118957D01*
X0028794Y0120555D02*
X0018694Y0120555D01*
X0018694Y0122154D02*
X0028794Y0122154D01*
X0028794Y0123752D02*
X0027232Y0123752D01*
X0028020Y0125351D02*
X0028794Y0125351D01*
X0028794Y0126949D02*
X0028020Y0126949D01*
X0028020Y0128548D02*
X0028794Y0128548D01*
X0028794Y0130146D02*
X0027856Y0130146D01*
X0028220Y0131745D02*
X0028794Y0131745D01*
X0028794Y0133343D02*
X0028220Y0133343D01*
X0028220Y0134942D02*
X0028794Y0134942D01*
X0028794Y0136540D02*
X0028220Y0136540D01*
X0028794Y0138139D02*
X0027179Y0138139D01*
X0027998Y0139737D02*
X0028794Y0139737D01*
X0028794Y0141336D02*
X0028687Y0141336D01*
X0028794Y0143923D02*
X0028044Y0145732D01*
X0026568Y0147209D01*
X0024638Y0148008D01*
X0022549Y0148008D01*
X0020620Y0147209D01*
X0019143Y0145732D01*
X0018694Y0144647D01*
X0018694Y0162760D01*
X0018890Y0162375D01*
X0019399Y0161675D01*
X0020011Y0161063D01*
X0020711Y0160554D01*
X0021482Y0160161D01*
X0022306Y0159893D01*
X0023161Y0159758D01*
X0023394Y0159758D01*
X0023394Y0165058D01*
X0023794Y0165058D01*
X0023794Y0159758D01*
X0024027Y0159758D01*
X0024882Y0159893D01*
X0025705Y0160161D01*
X0026476Y0160554D01*
X0027177Y0161063D01*
X0027789Y0161675D01*
X0028298Y0162375D01*
X0028691Y0163147D01*
X0028794Y0163464D01*
X0028794Y0143923D01*
X0028794Y0144533D02*
X0028541Y0144533D01*
X0028794Y0146131D02*
X0027645Y0146131D01*
X0028794Y0147730D02*
X0025309Y0147730D01*
X0021878Y0147730D02*
X0018694Y0147730D01*
X0018694Y0149328D02*
X0028794Y0149328D01*
X0028794Y0150927D02*
X0018694Y0150927D01*
X0018694Y0152525D02*
X0028794Y0152525D01*
X0028794Y0154124D02*
X0018694Y0154124D01*
X0018694Y0155722D02*
X0028794Y0155722D01*
X0028794Y0157321D02*
X0018694Y0157321D01*
X0018694Y0158919D02*
X0028794Y0158919D01*
X0028794Y0160518D02*
X0026406Y0160518D01*
X0028110Y0162116D02*
X0028794Y0162116D01*
X0023794Y0162116D02*
X0023394Y0162116D01*
X0023394Y0160518D02*
X0023794Y0160518D01*
X0020782Y0160518D02*
X0018694Y0160518D01*
X0018694Y0162116D02*
X0019078Y0162116D01*
X0023394Y0163715D02*
X0023794Y0163715D01*
X0034394Y0163715D02*
X0063515Y0163715D01*
X0061917Y0162116D02*
X0034394Y0162116D01*
X0034394Y0160518D02*
X0060318Y0160518D01*
X0057553Y0158919D02*
X0034394Y0158919D01*
X0034394Y0157321D02*
X0055356Y0157321D01*
X0054813Y0155722D02*
X0034394Y0155722D01*
X0034394Y0154124D02*
X0054971Y0154124D01*
X0055979Y0152525D02*
X0034394Y0152525D01*
X0034394Y0150927D02*
X0038527Y0150927D01*
X0036929Y0149328D02*
X0034394Y0149328D01*
X0034394Y0147730D02*
X0035330Y0147730D01*
X0034394Y0146131D02*
X0034394Y0146131D01*
X0034394Y0144533D02*
X0034394Y0144533D01*
X0034394Y0142934D02*
X0034394Y0142934D01*
X0034394Y0141336D02*
X0034394Y0141336D01*
X0034394Y0139737D02*
X0034394Y0139737D01*
X0034394Y0138139D02*
X0034394Y0138139D01*
X0034394Y0136540D02*
X0034394Y0136540D01*
X0034394Y0134942D02*
X0034394Y0134942D01*
X0034394Y0133343D02*
X0034394Y0133343D01*
X0034394Y0131745D02*
X0034394Y0131745D01*
X0034394Y0130146D02*
X0034394Y0130146D01*
X0034394Y0128548D02*
X0034394Y0128548D01*
X0034394Y0126949D02*
X0034394Y0126949D01*
X0034394Y0125351D02*
X0034394Y0125351D01*
X0034394Y0123752D02*
X0034394Y0123752D01*
X0034394Y0122154D02*
X0034394Y0122154D01*
X0034394Y0120555D02*
X0034394Y0120555D01*
X0034394Y0118957D02*
X0034394Y0118957D01*
X0034394Y0117358D02*
X0034394Y0117358D01*
X0034394Y0115760D02*
X0034394Y0115760D01*
X0034394Y0114161D02*
X0034394Y0114161D01*
X0034394Y0113418D02*
X0034394Y0113418D01*
X0031594Y0112258D02*
X0034094Y0109758D01*
X0031594Y0112258D02*
X0031594Y0177258D01*
X0023594Y0185258D01*
X0029294Y0184496D02*
X0030820Y0184496D01*
X0029914Y0182897D02*
X0032419Y0182897D01*
X0031513Y0181299D02*
X0034017Y0181299D01*
X0033111Y0179700D02*
X0035616Y0179700D01*
X0036090Y0178102D02*
X0034275Y0178102D01*
X0034394Y0176503D02*
X0035017Y0176503D01*
X0034813Y0174905D02*
X0034394Y0174905D01*
X0034394Y0173306D02*
X0035310Y0173306D01*
X0034394Y0171708D02*
X0037285Y0171708D01*
X0039903Y0171708D02*
X0043633Y0171708D01*
X0043594Y0170109D02*
X0034394Y0170109D01*
X0034394Y0168510D02*
X0044367Y0168510D01*
X0044468Y0173306D02*
X0041878Y0173306D01*
X0042375Y0174905D02*
X0043412Y0174905D01*
X0048884Y0176503D02*
X0066094Y0176503D01*
X0066094Y0174905D02*
X0049894Y0174905D01*
X0050320Y0173306D02*
X0066094Y0173306D01*
X0066094Y0171708D02*
X0051155Y0171708D01*
X0051194Y0170109D02*
X0066094Y0170109D01*
X0066094Y0168510D02*
X0050420Y0168510D01*
X0051746Y0178102D02*
X0065441Y0178102D01*
X0064625Y0179700D02*
X0052562Y0179700D01*
X0052562Y0181299D02*
X0064625Y0181299D01*
X0064625Y0182897D02*
X0052562Y0182897D01*
X0052562Y0184496D02*
X0064625Y0184496D01*
X0064854Y0186094D02*
X0052333Y0186094D01*
X0052362Y0187693D02*
X0064825Y0187693D01*
X0064825Y0188789D02*
X0068409Y0188789D01*
X0068409Y0192570D01*
X0066388Y0192570D01*
X0065930Y0192447D01*
X0065520Y0192210D01*
X0065185Y0191875D01*
X0064948Y0191464D01*
X0064825Y0191007D01*
X0064825Y0188789D01*
X0064825Y0189291D02*
X0052362Y0189291D01*
X0052362Y0188789D02*
X0052362Y0191007D01*
X0052240Y0191464D01*
X0052003Y0191875D01*
X0051667Y0192210D01*
X0051257Y0192447D01*
X0050799Y0192570D01*
X0048778Y0192570D01*
X0048778Y0188789D01*
X0052362Y0188789D01*
X0052362Y0190890D02*
X0064825Y0190890D01*
X0066084Y0192488D02*
X0051103Y0192488D01*
X0048778Y0192488D02*
X0048409Y0192488D01*
X0048409Y0190890D02*
X0048778Y0190890D01*
X0048778Y0189291D02*
X0048409Y0189291D01*
X0046084Y0192488D02*
X0045937Y0192488D01*
X0068409Y0192488D02*
X0068778Y0192488D01*
X0068778Y0190890D02*
X0068409Y0190890D01*
X0068409Y0189291D02*
X0068778Y0189291D01*
X0076188Y0198882D02*
X0080999Y0198882D01*
X0080609Y0200481D02*
X0076578Y0200481D01*
X0076578Y0202079D02*
X0080609Y0202079D01*
X0080609Y0203678D02*
X0076578Y0203678D01*
X0076578Y0205276D02*
X0080609Y0205276D01*
X0080609Y0206875D02*
X0076578Y0206875D01*
X0076578Y0208473D02*
X0080609Y0208473D01*
X0081485Y0210072D02*
X0075703Y0210072D01*
X0074737Y0224458D02*
X0005594Y0224458D01*
X0005594Y0226057D02*
X0072213Y0226057D01*
X0070614Y0227655D02*
X0005594Y0227655D01*
X0005594Y0229254D02*
X0069860Y0229254D01*
X0082451Y0224458D02*
X0149737Y0224458D01*
X0147213Y0226057D02*
X0084975Y0226057D01*
X0086573Y0227655D02*
X0145614Y0227655D01*
X0144860Y0229254D02*
X0087328Y0229254D01*
X0087990Y0230852D02*
X0144198Y0230852D01*
X0143995Y0232451D02*
X0088192Y0232451D01*
X0088192Y0234049D02*
X0143995Y0234049D01*
X0144198Y0235648D02*
X0087990Y0235648D01*
X0087328Y0237246D02*
X0144860Y0237246D01*
X0145614Y0238845D02*
X0086573Y0238845D01*
X0084974Y0240444D02*
X0147213Y0240444D01*
X0149738Y0242042D02*
X0082450Y0242042D01*
X0138399Y0192488D02*
X0190794Y0192488D01*
X0190794Y0190890D02*
X0139440Y0190890D01*
X0139440Y0189291D02*
X0190794Y0189291D01*
X0190794Y0187693D02*
X0141105Y0187693D01*
X0141105Y0186094D02*
X0190794Y0186094D01*
X0190794Y0184496D02*
X0141105Y0184496D01*
X0141105Y0182897D02*
X0190794Y0182897D01*
X0190794Y0181299D02*
X0139943Y0181299D01*
X0135571Y0179700D02*
X0152545Y0179700D01*
X0151412Y0178102D02*
X0133973Y0178102D01*
X0130431Y0186094D02*
X0130063Y0186094D01*
X0130063Y0187693D02*
X0130431Y0187693D01*
X0122154Y0170109D02*
X0076480Y0170109D01*
X0076294Y0168510D02*
X0121594Y0168510D01*
X0121772Y0166912D02*
X0076294Y0166912D01*
X0076294Y0165313D02*
X0122847Y0165313D01*
X0127540Y0165313D02*
X0152394Y0165313D01*
X0152394Y0163715D02*
X0077179Y0163715D01*
X0077594Y0162116D02*
X0152586Y0162116D01*
X0153940Y0160518D02*
X0077310Y0160518D01*
X0076129Y0158919D02*
X0102553Y0158919D01*
X0102842Y0159039D02*
X0101452Y0158463D01*
X0100388Y0157400D01*
X0099813Y0156010D01*
X0099813Y0154506D01*
X0100388Y0153116D01*
X0101452Y0152052D01*
X0102842Y0151477D01*
X0104346Y0151477D01*
X0105736Y0152052D01*
X0106541Y0152858D01*
X0141600Y0152858D01*
X0155559Y0138898D01*
X0156234Y0138223D01*
X0157116Y0137858D01*
X0164922Y0137858D01*
X0165842Y0137477D01*
X0167346Y0137477D01*
X0168736Y0138052D01*
X0169799Y0139116D01*
X0170375Y0140506D01*
X0170375Y0142010D01*
X0169799Y0143400D01*
X0168736Y0144463D01*
X0167346Y0145039D01*
X0165842Y0145039D01*
X0164452Y0144463D01*
X0163388Y0143400D01*
X0163081Y0142658D01*
X0158588Y0142658D01*
X0143953Y0157292D01*
X0143071Y0157658D01*
X0106541Y0157658D01*
X0105736Y0158463D01*
X0104346Y0159039D01*
X0102842Y0159039D01*
X0104634Y0158919D02*
X0155538Y0158919D01*
X0157137Y0157321D02*
X0143885Y0157321D01*
X0145523Y0155722D02*
X0158735Y0155722D01*
X0160334Y0154124D02*
X0147122Y0154124D01*
X0148720Y0152525D02*
X0161932Y0152525D01*
X0163531Y0150927D02*
X0150319Y0150927D01*
X0151917Y0149328D02*
X0165129Y0149328D01*
X0166728Y0147730D02*
X0153516Y0147730D01*
X0155114Y0146131D02*
X0168326Y0146131D01*
X0168568Y0144533D02*
X0169925Y0144533D01*
X0169992Y0142934D02*
X0171194Y0142934D01*
X0171194Y0141336D02*
X0170375Y0141336D01*
X0170056Y0139737D02*
X0171194Y0139737D01*
X0171194Y0138139D02*
X0168822Y0138139D01*
X0171437Y0136540D02*
X0063147Y0136540D01*
X0064745Y0134942D02*
X0172862Y0134942D01*
X0174461Y0133343D02*
X0085385Y0133343D01*
X0083803Y0133343D02*
X0066344Y0133343D01*
X0061548Y0138139D02*
X0156438Y0138139D01*
X0154720Y0139737D02*
X0059950Y0139737D01*
X0058351Y0141336D02*
X0153122Y0141336D01*
X0151523Y0142934D02*
X0056753Y0142934D01*
X0055154Y0144533D02*
X0149925Y0144533D01*
X0148326Y0146131D02*
X0053556Y0146131D01*
X0051957Y0147730D02*
X0146728Y0147730D01*
X0145129Y0149328D02*
X0050359Y0149328D01*
X0048760Y0150927D02*
X0143531Y0150927D01*
X0141932Y0152525D02*
X0106208Y0152525D01*
X0100979Y0152525D02*
X0061208Y0152525D01*
X0062217Y0154124D02*
X0099971Y0154124D01*
X0099813Y0155722D02*
X0062594Y0155722D01*
X0064192Y0157321D02*
X0100356Y0157321D01*
X0081276Y0174905D02*
X0151706Y0174905D01*
X0151194Y0176503D02*
X0082874Y0176503D01*
X0079677Y0173306D02*
X0152394Y0173306D01*
X0152394Y0171708D02*
X0078079Y0171708D01*
X0069994Y0162116D02*
X0068988Y0162116D01*
X0070277Y0160518D02*
X0067389Y0160518D01*
X0065791Y0158919D02*
X0071458Y0158919D01*
X0065114Y0165313D02*
X0034394Y0165313D01*
X0034394Y0166912D02*
X0066094Y0166912D01*
X0050179Y0139737D02*
X0047998Y0139737D01*
X0047179Y0138139D02*
X0051777Y0138139D01*
X0053376Y0136540D02*
X0048220Y0136540D01*
X0048220Y0134942D02*
X0054974Y0134942D01*
X0056573Y0133343D02*
X0048220Y0133343D01*
X0048220Y0131745D02*
X0058171Y0131745D01*
X0059770Y0130146D02*
X0047856Y0130146D01*
X0048020Y0128548D02*
X0061368Y0128548D01*
X0062967Y0126949D02*
X0048020Y0126949D01*
X0048020Y0125351D02*
X0064565Y0125351D01*
X0066164Y0123752D02*
X0047232Y0123752D01*
X0044327Y0123752D02*
X0043860Y0123752D01*
X0043860Y0125351D02*
X0044327Y0125351D01*
X0044327Y0126949D02*
X0043860Y0126949D01*
X0041194Y0122154D02*
X0067762Y0122154D01*
X0056983Y0115760D02*
X0082204Y0115760D01*
X0088288Y0128548D02*
X0179256Y0128548D01*
X0177658Y0130146D02*
X0088394Y0130146D01*
X0087781Y0131745D02*
X0176059Y0131745D01*
X0180855Y0126949D02*
X0098476Y0126949D01*
X0099194Y0125351D02*
X0182453Y0125351D01*
X0184052Y0123752D02*
X0099132Y0123752D01*
X0098263Y0122154D02*
X0185650Y0122154D01*
X0187249Y0120555D02*
X0041194Y0120555D01*
X0041194Y0118957D02*
X0188847Y0118957D01*
X0163195Y0142934D02*
X0158311Y0142934D01*
X0156713Y0144533D02*
X0164620Y0144533D01*
X0156256Y0096577D02*
X0042994Y0096577D01*
X0042670Y0094979D02*
X0155594Y0094979D01*
X0155628Y0093380D02*
X0041152Y0093380D01*
X0039553Y0091782D02*
X0156413Y0091782D01*
X0171594Y0080592D02*
X0270294Y0080592D01*
X0270294Y0078994D02*
X0171594Y0078994D01*
X0171594Y0077395D02*
X0270294Y0077395D01*
X0270294Y0075797D02*
X0171594Y0075797D01*
X0171594Y0074198D02*
X0270294Y0074198D01*
X0270294Y0072600D02*
X0199095Y0072600D01*
X0201409Y0061410D02*
X0201778Y0061410D01*
X0201778Y0059812D02*
X0201409Y0059812D01*
X0201409Y0056615D02*
X0201778Y0056615D01*
X0201778Y0055016D02*
X0201409Y0055016D01*
X0206103Y0059812D02*
X0270294Y0059812D01*
X0270294Y0061410D02*
X0205185Y0061410D01*
X0192796Y0047804D02*
X0192796Y0047804D01*
X0192056Y0047063D02*
X0192056Y0047063D01*
X0192016Y0047024D02*
X0242392Y0047024D01*
X0240018Y0045425D02*
X0190418Y0045425D01*
X0190931Y0045938D02*
X0190931Y0045938D01*
X0186741Y0053418D02*
X0182892Y0053418D01*
X0180296Y0053418D02*
X0174222Y0053418D01*
X0172492Y0055016D02*
X0177809Y0055016D01*
X0176896Y0056615D02*
X0171594Y0056615D01*
X0171594Y0058213D02*
X0176625Y0058213D01*
X0176859Y0059812D02*
X0171594Y0059812D01*
X0171594Y0061410D02*
X0177720Y0061410D01*
X0180080Y0063009D02*
X0171594Y0063009D01*
X0171594Y0064607D02*
X0171944Y0064607D01*
X0171825Y0066206D02*
X0171594Y0066206D01*
X0171594Y0067804D02*
X0171825Y0067804D01*
X0171825Y0068442D02*
X0176409Y0068442D01*
X0176409Y0073026D01*
X0173388Y0073026D01*
X0172930Y0072904D01*
X0172520Y0072667D01*
X0172185Y0072332D01*
X0171948Y0071921D01*
X0171825Y0071463D01*
X0171825Y0068442D01*
X0171825Y0069403D02*
X0171594Y0069403D01*
X0171594Y0071001D02*
X0171825Y0071001D01*
X0171594Y0072600D02*
X0172453Y0072600D01*
X0176409Y0072600D02*
X0176778Y0072600D01*
X0176778Y0071001D02*
X0176409Y0071001D01*
X0176409Y0069403D02*
X0176778Y0069403D01*
X0176778Y0067804D02*
X0176409Y0067804D01*
X0176409Y0066206D02*
X0176778Y0066206D01*
X0176778Y0064607D02*
X0176409Y0064607D01*
X0185468Y0061410D02*
X0187720Y0061410D01*
X0186859Y0059812D02*
X0186328Y0059812D01*
X0186562Y0058213D02*
X0186625Y0058213D01*
X0186896Y0056615D02*
X0186291Y0056615D01*
X0185379Y0055016D02*
X0187381Y0055016D01*
X0171963Y0045425D02*
X0119607Y0045425D01*
X0120672Y0043827D02*
X0238420Y0043827D01*
X0247794Y0043827D02*
X0249394Y0043827D01*
X0249394Y0045425D02*
X0247794Y0045425D01*
X0247794Y0047024D02*
X0249394Y0047024D01*
X0249394Y0042228D02*
X0247794Y0042228D01*
X0247794Y0040630D02*
X0249394Y0040630D01*
X0249394Y0039031D02*
X0247794Y0039031D01*
X0247794Y0037433D02*
X0249394Y0037433D01*
X0249394Y0032637D02*
X0247794Y0032637D01*
X0247794Y0031039D02*
X0249394Y0031039D01*
X0249394Y0029440D02*
X0247794Y0029440D01*
X0247794Y0027841D02*
X0249394Y0027841D01*
X0249394Y0026243D02*
X0247794Y0026243D01*
X0247794Y0024644D02*
X0249394Y0024644D01*
X0249394Y0023046D02*
X0247794Y0023046D01*
X0253866Y0023046D02*
X0270294Y0023046D01*
X0270294Y0024644D02*
X0256626Y0024644D01*
X0258388Y0026243D02*
X0270294Y0026243D01*
X0270294Y0027841D02*
X0259634Y0027841D01*
X0260565Y0029440D02*
X0270294Y0029440D01*
X0270294Y0031039D02*
X0261212Y0031039D01*
X0261633Y0032637D02*
X0270294Y0032637D01*
X0134294Y0074198D02*
X0133894Y0074198D01*
X0133894Y0073958D02*
X0133894Y0081558D01*
X0129294Y0081558D01*
X0129294Y0078380D01*
X0129412Y0077634D01*
X0129645Y0076915D01*
X0129988Y0076242D01*
X0130432Y0075631D01*
X0130967Y0075097D01*
X0131578Y0074653D01*
X0132251Y0074310D01*
X0132970Y0074076D01*
X0133716Y0073958D01*
X0133894Y0073958D01*
X0132593Y0074198D02*
X0126152Y0074198D01*
X0128204Y0075797D02*
X0130312Y0075797D01*
X0129489Y0077395D02*
X0128941Y0077395D01*
X0129094Y0078994D02*
X0129294Y0078994D01*
X0129294Y0080592D02*
X0129094Y0080592D01*
X0129094Y0082191D02*
X0129294Y0082191D01*
X0129294Y0083789D02*
X0129094Y0083789D01*
X0129094Y0085388D02*
X0129334Y0085388D01*
X0129842Y0086986D02*
X0128583Y0086986D01*
X0127338Y0088585D02*
X0131195Y0088585D01*
X0133894Y0088585D02*
X0134294Y0088585D01*
X0134294Y0086986D02*
X0133894Y0086986D01*
X0133894Y0085388D02*
X0134294Y0085388D01*
X0134294Y0083789D02*
X0133894Y0083789D01*
X0133894Y0082191D02*
X0134294Y0082191D01*
X0134294Y0080592D02*
X0133894Y0080592D01*
X0133894Y0078994D02*
X0134294Y0078994D01*
X0134294Y0077395D02*
X0133894Y0077395D01*
X0133894Y0075797D02*
X0134294Y0075797D01*
X0109094Y0082191D02*
X0038046Y0082191D01*
X0038874Y0083789D02*
X0109094Y0083789D01*
X0109094Y0085388D02*
X0039094Y0085388D01*
X0038789Y0086986D02*
X0109605Y0086986D01*
X0034180Y0083789D02*
X0034008Y0083789D01*
X0034008Y0082191D02*
X0034180Y0082191D01*
X0024327Y0123752D02*
X0023860Y0123752D01*
X0023860Y0125351D02*
X0024327Y0125351D01*
X0024327Y0126949D02*
X0023860Y0126949D01*
X0020168Y0126949D02*
X0018694Y0126949D01*
X0018694Y0125351D02*
X0020168Y0125351D01*
X0020955Y0123752D02*
X0018694Y0123752D01*
X0018694Y0128548D02*
X0020168Y0128548D01*
X0020332Y0130146D02*
X0018694Y0130146D01*
X0018694Y0131745D02*
X0019968Y0131745D01*
X0019968Y0133343D02*
X0018694Y0133343D01*
X0018694Y0134942D02*
X0019968Y0134942D01*
X0019968Y0136540D02*
X0018694Y0136540D01*
X0018694Y0138139D02*
X0021008Y0138139D01*
X0019190Y0139737D02*
X0018694Y0139737D01*
X0018694Y0146131D02*
X0019543Y0146131D01*
X0167002Y0210072D02*
X0208394Y0210072D01*
X0193594Y0198858D02*
X0188217Y0204234D01*
D32*
X0159594Y0094258D03*
D33*
X0155594Y0126258D03*
X0166594Y0141258D03*
X0209594Y0174258D03*
X0129594Y0197758D03*
X0103594Y0155258D03*
X0085594Y0140258D03*
X0058594Y0155258D03*
X0057594Y0168258D03*
X0057594Y0182258D03*
X0038594Y0175258D03*
X0085594Y0172258D03*
X0023594Y0117758D03*
D34*
X0054794Y0112858D02*
X0084394Y0112858D01*
X0103594Y0155258D02*
X0142594Y0155258D01*
X0157594Y0140258D01*
X0165594Y0140258D01*
X0166594Y0141258D01*
X0173594Y0144258D02*
X0173594Y0137604D01*
X0196940Y0114258D01*
X0200247Y0114258D01*
X0200920Y0113585D01*
X0204247Y0116911D01*
X0204247Y0120258D01*
X0200920Y0113585D02*
X0204247Y0110258D01*
X0210940Y0110258D02*
X0214080Y0113398D01*
X0220454Y0113398D01*
X0220394Y0087258D02*
X0220454Y0087118D01*
X0173594Y0144258D02*
X0154794Y0163058D01*
X0154794Y0168058D01*
X0125194Y0168058D01*
X0154794Y0168058D02*
X0154794Y0176858D01*
D35*
X0154794Y0176858D03*
X0125194Y0168058D03*
X0084394Y0112858D03*
X0054794Y0112858D03*
D36*
X0040494Y0107958D02*
X0040494Y0096258D01*
X0034194Y0089958D01*
X0028794Y0089958D01*
X0024294Y0094458D01*
X0024094Y0095258D01*
X0022494Y0089958D02*
X0016194Y0096258D01*
X0016194Y0217758D01*
X0018894Y0220458D01*
X0027894Y0220458D01*
X0043194Y0205158D01*
X0043194Y0189858D01*
X0043194Y0184458D02*
X0044994Y0182658D01*
X0048594Y0182658D01*
X0048594Y0181911D01*
X0047394Y0174458D02*
X0037094Y0184758D01*
X0037094Y0185158D01*
X0028794Y0193458D01*
X0028794Y0200658D01*
X0024294Y0205158D01*
X0023594Y0205258D01*
X0023594Y0195258D02*
X0038594Y0180258D01*
X0038594Y0175258D01*
X0047394Y0174458D02*
X0047394Y0170858D01*
X0058594Y0155258D02*
X0068594Y0165258D01*
X0068594Y0181911D01*
X0115247Y0181911D01*
X0118594Y0185258D01*
X0118594Y0196758D01*
X0126094Y0204258D01*
X0145420Y0204258D01*
X0145444Y0204234D01*
X0136940Y0190411D02*
X0129594Y0197758D01*
X0136940Y0190411D02*
X0136940Y0185258D01*
X0136794Y0184458D01*
X0132294Y0179958D01*
X0082794Y0179958D01*
X0073794Y0170958D01*
X0073794Y0161958D01*
X0046794Y0149358D02*
X0040494Y0149358D01*
X0036894Y0145758D01*
X0036894Y0108858D01*
X0038694Y0107058D01*
X0038694Y0100758D01*
X0033294Y0095358D01*
X0033094Y0095258D01*
X0022494Y0089958D02*
X0022494Y0085458D01*
X0023094Y0085258D01*
X0040494Y0107958D02*
X0038694Y0109758D01*
X0038694Y0144858D01*
X0041394Y0147558D01*
X0045894Y0147558D01*
X0069294Y0124158D01*
X0095394Y0124658D01*
X0084594Y0129558D02*
X0066594Y0129558D01*
X0046794Y0149358D01*
X0043594Y0142758D02*
X0044094Y0142258D01*
X0044094Y0134203D01*
X0024094Y0134203D02*
X0024094Y0142258D01*
X0023594Y0142758D01*
X0101783Y0058447D02*
X0113594Y0070258D01*
X0113594Y0081258D01*
X0114094Y0081758D01*
X0123594Y0081258D02*
X0124094Y0081758D01*
X0123594Y0081258D02*
X0123594Y0070258D01*
X0113594Y0060258D01*
X0113594Y0057266D01*
X0101783Y0057266D02*
X0101783Y0058447D01*
D37*
X0095394Y0124658D03*
X0084594Y0129558D03*
X0073794Y0161958D03*
X0047394Y0170858D03*
X0043194Y0184458D03*
X0043194Y0189858D03*
M02*
